%TF.GenerationSoftware,KiCad,Pcbnew,8.0.8*%
%TF.CreationDate,2026-03-18T22:42:44+00:00*%
%TF.ProjectId,esp32-canboard,65737033-322d-4636-916e-626f6172642e,rev?*%
%TF.SameCoordinates,Original*%
%TF.FileFunction,Copper,L1,Top*%
%TF.FilePolarity,Positive*%
%FSLAX46Y46*%
G04 Gerber Fmt 4.6, Leading zero omitted, Abs format (unit mm)*
G04 Created by KiCad (PCBNEW 8.0.8) date 2026-03-18 22:42:44*
%MOMM*%
%LPD*%
G01*
G04 APERTURE LIST*
G04 Aperture macros list*
%AMRoundRect*
0 Rectangle with rounded corners*
0 $1 Rounding radius*
0 $2 $3 $4 $5 $6 $7 $8 $9 X,Y pos of 4 corners*
0 Add a 4 corners polygon primitive as box body*
4,1,4,$2,$3,$4,$5,$6,$7,$8,$9,$2,$3,0*
0 Add four circle primitives for the rounded corners*
1,1,$1+$1,$2,$3*
1,1,$1+$1,$4,$5*
1,1,$1+$1,$6,$7*
1,1,$1+$1,$8,$9*
0 Add four rect primitives between the rounded corners*
20,1,$1+$1,$2,$3,$4,$5,0*
20,1,$1+$1,$4,$5,$6,$7,0*
20,1,$1+$1,$6,$7,$8,$9,0*
20,1,$1+$1,$8,$9,$2,$3,0*%
G04 Aperture macros list end*
%TA.AperFunction,SMDPad,CuDef*%
%ADD10R,2.150000X2.200000*%
%TD*%
%TA.AperFunction,SMDPad,CuDef*%
%ADD11RoundRect,0.150000X0.150000X-0.512500X0.150000X0.512500X-0.150000X0.512500X-0.150000X-0.512500X0*%
%TD*%
%TA.AperFunction,SMDPad,CuDef*%
%ADD12RoundRect,0.150000X-0.150000X0.512500X-0.150000X-0.512500X0.150000X-0.512500X0.150000X0.512500X0*%
%TD*%
%TA.AperFunction,SMDPad,CuDef*%
%ADD13R,0.600000X1.200000*%
%TD*%
%TA.AperFunction,SMDPad,CuDef*%
%ADD14RoundRect,0.250000X0.250000X0.475000X-0.250000X0.475000X-0.250000X-0.475000X0.250000X-0.475000X0*%
%TD*%
%TA.AperFunction,SMDPad,CuDef*%
%ADD15RoundRect,0.200000X-0.200000X-0.275000X0.200000X-0.275000X0.200000X0.275000X-0.200000X0.275000X0*%
%TD*%
%TA.AperFunction,SMDPad,CuDef*%
%ADD16RoundRect,0.200000X0.275000X-0.200000X0.275000X0.200000X-0.275000X0.200000X-0.275000X-0.200000X0*%
%TD*%
%TA.AperFunction,SMDPad,CuDef*%
%ADD17RoundRect,0.225000X0.250000X-0.225000X0.250000X0.225000X-0.250000X0.225000X-0.250000X-0.225000X0*%
%TD*%
%TA.AperFunction,SMDPad,CuDef*%
%ADD18RoundRect,0.225000X0.225000X0.250000X-0.225000X0.250000X-0.225000X-0.250000X0.225000X-0.250000X0*%
%TD*%
%TA.AperFunction,SMDPad,CuDef*%
%ADD19RoundRect,0.200000X0.200000X0.275000X-0.200000X0.275000X-0.200000X-0.275000X0.200000X-0.275000X0*%
%TD*%
%TA.AperFunction,SMDPad,CuDef*%
%ADD20RoundRect,0.200000X-0.275000X0.200000X-0.275000X-0.200000X0.275000X-0.200000X0.275000X0.200000X0*%
%TD*%
%TA.AperFunction,SMDPad,CuDef*%
%ADD21RoundRect,0.225000X-0.225000X-0.250000X0.225000X-0.250000X0.225000X0.250000X-0.225000X0.250000X0*%
%TD*%
%TA.AperFunction,SMDPad,CuDef*%
%ADD22C,1.500000*%
%TD*%
%TA.AperFunction,SMDPad,CuDef*%
%ADD23RoundRect,0.250000X-0.250000X-0.475000X0.250000X-0.475000X0.250000X0.475000X-0.250000X0.475000X0*%
%TD*%
%TA.AperFunction,SMDPad,CuDef*%
%ADD24R,0.450000X1.475000*%
%TD*%
%TA.AperFunction,SMDPad,CuDef*%
%ADD25R,1.160000X1.820000*%
%TD*%
%TA.AperFunction,SMDPad,CuDef*%
%ADD26RoundRect,0.140000X-0.170000X0.140000X-0.170000X-0.140000X0.170000X-0.140000X0.170000X0.140000X0*%
%TD*%
%TA.AperFunction,SMDPad,CuDef*%
%ADD27R,0.650000X1.500000*%
%TD*%
%TA.AperFunction,SMDPad,CuDef*%
%ADD28RoundRect,0.150000X-0.512500X-0.150000X0.512500X-0.150000X0.512500X0.150000X-0.512500X0.150000X0*%
%TD*%
%TA.AperFunction,SMDPad,CuDef*%
%ADD29RoundRect,0.225000X-0.250000X0.225000X-0.250000X-0.225000X0.250000X-0.225000X0.250000X0.225000X0*%
%TD*%
%TA.AperFunction,SMDPad,CuDef*%
%ADD30RoundRect,0.250000X-0.475000X0.250000X-0.475000X-0.250000X0.475000X-0.250000X0.475000X0.250000X0*%
%TD*%
%TA.AperFunction,ComponentPad*%
%ADD31C,5.600000*%
%TD*%
%TA.AperFunction,ComponentPad*%
%ADD32C,5.100000*%
%TD*%
%TA.AperFunction,ComponentPad*%
%ADD33C,2.250000*%
%TD*%
%TA.AperFunction,SMDPad,CuDef*%
%ADD34R,0.400000X1.050000*%
%TD*%
%TA.AperFunction,SMDPad,CuDef*%
%ADD35R,0.600000X0.200000*%
%TD*%
%TA.AperFunction,SMDPad,CuDef*%
%ADD36R,0.950000X3.300000*%
%TD*%
%TA.AperFunction,SMDPad,CuDef*%
%ADD37RoundRect,0.243750X0.243750X0.456250X-0.243750X0.456250X-0.243750X-0.456250X0.243750X-0.456250X0*%
%TD*%
%TA.AperFunction,SMDPad,CuDef*%
%ADD38RoundRect,0.250000X-0.375000X-0.850000X0.375000X-0.850000X0.375000X0.850000X-0.375000X0.850000X0*%
%TD*%
%TA.AperFunction,SMDPad,CuDef*%
%ADD39R,0.800000X0.300000*%
%TD*%
%TA.AperFunction,ComponentPad*%
%ADD40O,2.150000X1.050000*%
%TD*%
%TA.AperFunction,ComponentPad*%
%ADD41O,1.850000X1.050000*%
%TD*%
%TA.AperFunction,SMDPad,CuDef*%
%ADD42R,1.150000X0.300000*%
%TD*%
%TA.AperFunction,SMDPad,CuDef*%
%ADD43R,1.150000X0.600000*%
%TD*%
%TA.AperFunction,SMDPad,CuDef*%
%ADD44R,1.500000X0.900000*%
%TD*%
%TA.AperFunction,SMDPad,CuDef*%
%ADD45R,0.900000X1.500000*%
%TD*%
%TA.AperFunction,HeatsinkPad*%
%ADD46C,0.600000*%
%TD*%
%TA.AperFunction,SMDPad,CuDef*%
%ADD47R,3.900000X3.900000*%
%TD*%
%TA.AperFunction,SMDPad,CuDef*%
%ADD48R,0.750000X1.000000*%
%TD*%
%TA.AperFunction,SMDPad,CuDef*%
%ADD49RoundRect,0.243750X-0.243750X-0.456250X0.243750X-0.456250X0.243750X0.456250X-0.243750X0.456250X0*%
%TD*%
%TA.AperFunction,SMDPad,CuDef*%
%ADD50RoundRect,0.140000X0.170000X-0.140000X0.170000X0.140000X-0.170000X0.140000X-0.170000X-0.140000X0*%
%TD*%
%TA.AperFunction,ComponentPad*%
%ADD51C,1.600000*%
%TD*%
%TA.AperFunction,ComponentPad*%
%ADD52O,1.600000X1.600000*%
%TD*%
%TA.AperFunction,ViaPad*%
%ADD53C,0.600000*%
%TD*%
%TA.AperFunction,ViaPad*%
%ADD54C,0.800000*%
%TD*%
%TA.AperFunction,Conductor*%
%ADD55C,0.800000*%
%TD*%
%TA.AperFunction,Conductor*%
%ADD56C,0.300000*%
%TD*%
%TA.AperFunction,Conductor*%
%ADD57C,0.250000*%
%TD*%
%TA.AperFunction,Conductor*%
%ADD58C,0.200000*%
%TD*%
%TA.AperFunction,Conductor*%
%ADD59C,0.400000*%
%TD*%
%TA.AperFunction,Conductor*%
%ADD60C,0.600000*%
%TD*%
%TA.AperFunction,Conductor*%
%ADD61C,0.500000*%
%TD*%
%TA.AperFunction,Conductor*%
%ADD62C,0.900000*%
%TD*%
%TA.AperFunction,Conductor*%
%ADD63C,1.000000*%
%TD*%
%TA.AperFunction,Conductor*%
%ADD64C,0.700000*%
%TD*%
%ADD65C,0.300000*%
%ADD66C,0.350000*%
%ADD67O,1.750000X0.650000*%
%ADD68O,1.450000X0.650000*%
%ADD69C,0.200000*%
G04 APERTURE END LIST*
D10*
%TO.P,D1,1,K*%
%TO.N,+12V*%
X75000000Y-122700000D03*
%TO.P,D1,2,A*%
%TO.N,GND*%
X75000000Y-118300000D03*
%TD*%
D11*
%TO.P,U1,1,GND*%
%TO.N,GND*%
X65560000Y-118645000D03*
%TO.P,U1,2,SW*%
%TO.N,Net-(U1-SW)*%
X66510000Y-118645000D03*
%TO.P,U1,3,VIN*%
%TO.N,+12V*%
X67460000Y-118645000D03*
%TO.P,U1,4,FB*%
%TO.N,Net-(U1-FB)*%
X67460000Y-116370000D03*
%TO.P,U1,5,EN*%
%TO.N,unconnected-(U1-EN-Pad5)*%
X66510000Y-116370000D03*
%TO.P,U1,6,BOOT*%
%TO.N,Net-(U1-BOOT)*%
X65560000Y-116370000D03*
%TD*%
D12*
%TO.P,ESD2,1*%
%TO.N,CAN1_L*%
X88980000Y-120985000D03*
%TO.P,ESD2,2*%
%TO.N,CAN1_H*%
X87080000Y-120985000D03*
%TO.P,ESD2,3*%
%TO.N,GND*%
X88030000Y-123260000D03*
%TD*%
D13*
%TO.P,IC4,1,OUT*%
%TO.N,Net-(IC4-OUT)*%
X68750000Y-98200000D03*
%TO.P,IC4,2,GND*%
%TO.N,GND*%
X69700000Y-98200000D03*
%TO.P,IC4,3,ISET*%
%TO.N,Net-(IC4-ISET)*%
X70650000Y-98200000D03*
%TO.P,IC4,4,EN*%
%TO.N,+USB_5V*%
X70650000Y-95600000D03*
%TO.P,IC4,5,IN*%
X68750000Y-95600000D03*
%TD*%
D14*
%TO.P,C37,1*%
%TO.N,+USB_5V*%
X66860000Y-95975000D03*
%TO.P,C37,2*%
%TO.N,GND*%
X64960000Y-95975000D03*
%TD*%
D15*
%TO.P,R29,1*%
%TO.N,AIN9*%
X92675000Y-103455000D03*
%TO.P,R29,2*%
%TO.N,GND*%
X94325000Y-103455000D03*
%TD*%
D14*
%TO.P,C45,1*%
%TO.N,+5V*%
X70500000Y-103375000D03*
%TO.P,C45,2*%
%TO.N,GND*%
X68600000Y-103375000D03*
%TD*%
D16*
%TO.P,R1,1*%
%TO.N,Net-(C4-Pad2)*%
X63860000Y-117785000D03*
%TO.P,R1,2*%
%TO.N,Net-(U1-BOOT)*%
X63860000Y-116135000D03*
%TD*%
D17*
%TO.P,C9,1*%
%TO.N,GND*%
X71525000Y-81025000D03*
%TO.P,C9,2*%
%TO.N,Net-(U3-EN)*%
X71525000Y-79475000D03*
%TD*%
D18*
%TO.P,C16,1*%
%TO.N,AIN3*%
X101046428Y-115030000D03*
%TO.P,C16,2*%
%TO.N,GND*%
X99496428Y-115030000D03*
%TD*%
%TO.P,C49,1*%
%TO.N,GND*%
X107140000Y-85470000D03*
%TO.P,C49,2*%
%TO.N,+3V3*%
X105590000Y-85470000D03*
%TD*%
D19*
%TO.P,R26,1*%
%TO.N,AIN7*%
X114639284Y-116555000D03*
%TO.P,R26,2*%
%TO.N,GND*%
X112989284Y-116555000D03*
%TD*%
D20*
%TO.P,R8,1*%
%TO.N,+3V3*%
X73675000Y-74080000D03*
%TO.P,R8,2*%
%TO.N,Net-(U3-EN)*%
X73675000Y-75730000D03*
%TD*%
D19*
%TO.P,R15,1*%
%TO.N,AIN1*%
X94325000Y-118080000D03*
%TO.P,R15,2*%
%TO.N,INPUT1*%
X92675000Y-118080000D03*
%TD*%
D15*
%TO.P,R63,1*%
%TO.N,AIN16*%
X116375000Y-101930000D03*
%TO.P,R63,2*%
%TO.N,INPUT16*%
X118025000Y-101930000D03*
%TD*%
%TO.P,R57,1*%
%TO.N,AIN14*%
X109603570Y-101930000D03*
%TO.P,R57,2*%
%TO.N,INPUT14*%
X111253570Y-101930000D03*
%TD*%
D19*
%TO.P,R6,1*%
%TO.N,Net-(R6-Pad1)*%
X108505000Y-72550000D03*
%TO.P,R6,2*%
%TO.N,GND*%
X106855000Y-72550000D03*
%TD*%
D15*
%TO.P,R54,1*%
%TO.N,AIN13*%
X106217856Y-101930000D03*
%TO.P,R54,2*%
%TO.N,INPUT13*%
X107867856Y-101930000D03*
%TD*%
D19*
%TO.P,R43,1*%
%TO.N,AIN8*%
X118025000Y-116555000D03*
%TO.P,R43,2*%
%TO.N,GND*%
X116375000Y-116555000D03*
%TD*%
D20*
%TO.P,R75,1*%
%TO.N,Net-(U3-IO3)*%
X78650000Y-108350000D03*
%TO.P,R75,2*%
%TO.N,+5VP*%
X78650000Y-110000000D03*
%TD*%
%TO.P,R4,1*%
%TO.N,Net-(IC6-FB)*%
X77880000Y-102600000D03*
%TO.P,R4,2*%
%TO.N,GND*%
X77880000Y-104250000D03*
%TD*%
D21*
%TO.P,C31,1*%
%TO.N,AIN15*%
X113039284Y-104980000D03*
%TO.P,C31,2*%
%TO.N,GND*%
X114589284Y-104980000D03*
%TD*%
D22*
%TO.P,TP4,1,1*%
%TO.N,+5V*%
X78220000Y-106270000D03*
%TD*%
D23*
%TO.P,C36,1*%
%TO.N,GND*%
X64960000Y-93725000D03*
%TO.P,C36,2*%
%TO.N,+USB_5V*%
X66860000Y-93725000D03*
%TD*%
%TO.P,C1,1*%
%TO.N,+12V*%
X69510000Y-123075000D03*
%TO.P,C1,2*%
%TO.N,GND*%
X71410000Y-123075000D03*
%TD*%
D14*
%TO.P,C33,1*%
%TO.N,+3V3*%
X77625000Y-75405000D03*
%TO.P,C33,2*%
%TO.N,GND*%
X75725000Y-75405000D03*
%TD*%
D18*
%TO.P,C21,1*%
%TO.N,AIN4*%
X104432142Y-115030000D03*
%TO.P,C21,2*%
%TO.N,GND*%
X102882142Y-115030000D03*
%TD*%
D16*
%TO.P,R14,1*%
%TO.N,Net-(CONN2-CC1)*%
X71537500Y-84375000D03*
%TO.P,R14,2*%
%TO.N,GND*%
X71537500Y-82725000D03*
%TD*%
D15*
%TO.P,R39,1*%
%TO.N,AIN10*%
X96060714Y-101930000D03*
%TO.P,R39,2*%
%TO.N,INPUT10*%
X97710714Y-101930000D03*
%TD*%
D24*
%TO.P,IC3,1,CH0*%
%TO.N,AIN9*%
X113625000Y-93326000D03*
%TO.P,IC3,2,CH1*%
%TO.N,AIN10*%
X114275000Y-93326000D03*
%TO.P,IC3,3,CH2*%
%TO.N,AIN11*%
X114925000Y-93326000D03*
%TO.P,IC3,4,CH3*%
%TO.N,AIN12*%
X115575000Y-93326000D03*
%TO.P,IC3,5,CH4*%
%TO.N,AIN13*%
X116225000Y-93326000D03*
%TO.P,IC3,6,CH5*%
%TO.N,AIN14*%
X116875000Y-93326000D03*
%TO.P,IC3,7,CH6*%
%TO.N,AIN15*%
X117525000Y-93326000D03*
%TO.P,IC3,8,CH7*%
%TO.N,AIN16*%
X118175000Y-93326000D03*
%TO.P,IC3,9,GND*%
%TO.N,GND*%
X118175000Y-87450000D03*
%TO.P,IC3,10,REFIN/REFOUT*%
%TO.N,Net-(IC3-REFIN{slash}REFOUT)*%
X117525000Y-87450000D03*
%TO.P,IC3,11,COM*%
%TO.N,GND*%
X116875000Y-87450000D03*
%TO.P,IC3,12,A0*%
X116225000Y-87450000D03*
%TO.P,IC3,13,A1*%
%TO.N,+3V3*%
X115575000Y-87450000D03*
%TO.P,IC3,14,SCL*%
%TO.N,SCL*%
X114925000Y-87450000D03*
%TO.P,IC3,15,SDA*%
%TO.N,SDA*%
X114275000Y-87450000D03*
%TO.P,IC3,16,+VDD*%
%TO.N,+3V3*%
X113625000Y-87450000D03*
%TD*%
D23*
%TO.P,C40,1*%
%TO.N,GND*%
X64960000Y-109235000D03*
%TO.P,C40,2*%
%TO.N,+5VP*%
X66860000Y-109235000D03*
%TD*%
D18*
%TO.P,C20,1*%
%TO.N,AIN2*%
X97660714Y-115030000D03*
%TO.P,C20,2*%
%TO.N,GND*%
X96110714Y-115030000D03*
%TD*%
D21*
%TO.P,C27,1*%
%TO.N,AIN11*%
X99496428Y-104980000D03*
%TO.P,C27,2*%
%TO.N,GND*%
X101046428Y-104980000D03*
%TD*%
D25*
%TO.P,F1,1,1*%
%TO.N,+5VP*%
X75070000Y-114240000D03*
%TO.P,F1,2,2*%
%TO.N,+5VF*%
X78020000Y-114240000D03*
%TD*%
D19*
%TO.P,R19,1*%
%TO.N,AIN3*%
X101096428Y-118080000D03*
%TO.P,R19,2*%
%TO.N,INPUT3*%
X99446428Y-118080000D03*
%TD*%
D15*
%TO.P,R61,1*%
%TO.N,AIN15*%
X112989284Y-103455000D03*
%TO.P,R61,2*%
%TO.N,GND*%
X114639284Y-103455000D03*
%TD*%
%TO.P,R66,1*%
%TO.N,VMON*%
X65685000Y-120610000D03*
%TO.P,R66,2*%
%TO.N,+12V*%
X67335000Y-120610000D03*
%TD*%
%TO.P,R55,1*%
%TO.N,AIN13*%
X106217856Y-103455000D03*
%TO.P,R55,2*%
%TO.N,GND*%
X107867856Y-103455000D03*
%TD*%
D26*
%TO.P,C11,1*%
%TO.N,Net-(C11-Pad1)*%
X75430000Y-88150000D03*
%TO.P,C11,2*%
%TO.N,GND*%
X75430000Y-89110000D03*
%TD*%
D19*
%TO.P,R25,1*%
%TO.N,AIN7*%
X114639284Y-118080000D03*
%TO.P,R25,2*%
%TO.N,INPUT7*%
X112989284Y-118080000D03*
%TD*%
%TO.P,R40,1*%
%TO.N,AIN2*%
X97710714Y-116555000D03*
%TO.P,R40,2*%
%TO.N,GND*%
X96060714Y-116555000D03*
%TD*%
D21*
%TO.P,C28,1*%
%TO.N,AIN12*%
X102882142Y-104980000D03*
%TO.P,C28,2*%
%TO.N,GND*%
X104432142Y-104980000D03*
%TD*%
D20*
%TO.P,R13,1*%
%TO.N,Net-(CONN2-CC2)*%
X71537500Y-89740000D03*
%TO.P,R13,2*%
%TO.N,GND*%
X71537500Y-91390000D03*
%TD*%
D14*
%TO.P,C48,1*%
%TO.N,GND*%
X81450000Y-99490000D03*
%TO.P,C48,2*%
%TO.N,+3V3*%
X79550000Y-99490000D03*
%TD*%
D15*
%TO.P,R65,1*%
%TO.N,VMON*%
X65685000Y-122410000D03*
%TO.P,R65,2*%
%TO.N,GND*%
X67335000Y-122410000D03*
%TD*%
D27*
%TO.P,IC1,1,TXD*%
%TO.N,CAN1_TX*%
X85130000Y-117800000D03*
%TO.P,IC1,2,VSS*%
%TO.N,GND*%
X83860000Y-117800000D03*
%TO.P,IC1,3,VDD*%
%TO.N,+5V*%
X82590000Y-117800000D03*
%TO.P,IC1,4,RXD*%
%TO.N,CAN1_RX*%
X81320000Y-117800000D03*
%TO.P,IC1,5,VIO*%
%TO.N,+3V3*%
X81320000Y-123200000D03*
%TO.P,IC1,6,CANL*%
%TO.N,CAN1_L*%
X82590000Y-123200000D03*
%TO.P,IC1,7,CANH*%
%TO.N,CAN1_H*%
X83860000Y-123200000D03*
%TO.P,IC1,8,STBY*%
%TO.N,GND*%
X85130000Y-123200000D03*
%TD*%
D18*
%TO.P,C23,1*%
%TO.N,AIN8*%
X117975000Y-115030000D03*
%TO.P,C23,2*%
%TO.N,GND*%
X116425000Y-115030000D03*
%TD*%
D21*
%TO.P,C26,1*%
%TO.N,Net-(IC2-REFIN{slash}REFOUT)*%
X108825000Y-85470000D03*
%TO.P,C26,2*%
%TO.N,GND*%
X110375000Y-85470000D03*
%TD*%
D19*
%TO.P,R20,1*%
%TO.N,AIN3*%
X101096428Y-116555000D03*
%TO.P,R20,2*%
%TO.N,GND*%
X99446428Y-116555000D03*
%TD*%
D16*
%TO.P,R5,1*%
%TO.N,Net-(IC6-FB)*%
X79550000Y-102935000D03*
%TO.P,R5,2*%
%TO.N,Net-(R5-Pad2)*%
X79550000Y-101285000D03*
%TD*%
D28*
%TO.P,ESD1,1,I/O1*%
%TO.N,Net-(CONN2-D--PadA7)*%
X71725000Y-86110000D03*
%TO.P,ESD1,2,GND*%
%TO.N,GND*%
X71725000Y-87060000D03*
%TO.P,ESD1,3,I/O2*%
%TO.N,Net-(CONN2-D+-PadA6)*%
X71725000Y-88010000D03*
%TO.P,ESD1,4,I/O2*%
%TO.N,Net-(C11-Pad1)*%
X74000000Y-88010000D03*
%TO.P,ESD1,5,VBUS*%
%TO.N,+USB_5V*%
X74000000Y-87060000D03*
%TO.P,ESD1,6,I/O1*%
%TO.N,Net-(C13-Pad1)*%
X74000000Y-86110000D03*
%TD*%
D14*
%TO.P,C47,1*%
%TO.N,GND*%
X81825000Y-97275000D03*
%TO.P,C47,2*%
%TO.N,+3V3*%
X79925000Y-97275000D03*
%TD*%
D21*
%TO.P,C29,1*%
%TO.N,AIN13*%
X106267856Y-104980000D03*
%TO.P,C29,2*%
%TO.N,GND*%
X107817856Y-104980000D03*
%TD*%
D29*
%TO.P,C12,1*%
%TO.N,+3V3*%
X79545000Y-121945000D03*
%TO.P,C12,2*%
%TO.N,GND*%
X79545000Y-123495000D03*
%TD*%
D23*
%TO.P,C2,1*%
%TO.N,+12V*%
X69510000Y-120860000D03*
%TO.P,C2,2*%
%TO.N,GND*%
X71410000Y-120860000D03*
%TD*%
D30*
%TO.P,C7,1*%
%TO.N,+5V*%
X73800000Y-102250000D03*
%TO.P,C7,2*%
%TO.N,GND*%
X73800000Y-104150000D03*
%TD*%
D14*
%TO.P,C46,1*%
%TO.N,+5V*%
X70500000Y-101150000D03*
%TO.P,C46,2*%
%TO.N,GND*%
X68600000Y-101150000D03*
%TD*%
D15*
%TO.P,R48,1*%
%TO.N,AIN11*%
X99446428Y-101930000D03*
%TO.P,R48,2*%
%TO.N,INPUT11*%
X101096428Y-101930000D03*
%TD*%
D21*
%TO.P,C24,1*%
%TO.N,AIN10*%
X96110714Y-104980000D03*
%TO.P,C24,2*%
%TO.N,GND*%
X97660714Y-104980000D03*
%TD*%
D19*
%TO.P,R22,1*%
%TO.N,AIN5*%
X107867856Y-118080000D03*
%TO.P,R22,2*%
%TO.N,INPUT5*%
X106217856Y-118080000D03*
%TD*%
D31*
%TO.P,MH2,1,1*%
%TO.N,GND*%
X116000000Y-74575000D03*
%TD*%
D32*
%TO.P,CONN1,MH2,MH2*%
%TO.N,GND*%
X108150000Y-142670000D03*
%TO.P,CONN1,MH1,MH1*%
X75650000Y-142670000D03*
D33*
%TO.P,CONN1,26,26*%
X100900000Y-136170000D03*
%TO.P,CONN1,25,25*%
%TO.N,INPUT16*%
X97900000Y-136170000D03*
%TO.P,CONN1,24,24*%
%TO.N,INPUT15*%
X94900000Y-136170000D03*
%TO.P,CONN1,23,23*%
%TO.N,INPUT14*%
X91900000Y-136170000D03*
%TO.P,CONN1,22,22*%
%TO.N,INPUT13*%
X88900000Y-136170000D03*
%TO.P,CONN1,21,21*%
%TO.N,INPUT12*%
X85900000Y-136170000D03*
%TO.P,CONN1,20,20*%
%TO.N,INPUT11*%
X82900000Y-136170000D03*
%TO.P,CONN1,19,19*%
%TO.N,INPUT10*%
X99400000Y-133670000D03*
%TO.P,CONN1,18,18*%
%TO.N,INPUT9*%
X96400000Y-133670000D03*
%TO.P,CONN1,17,17*%
%TO.N,INPUT8*%
X93400000Y-133670000D03*
%TO.P,CONN1,16,16*%
%TO.N,INPUT7*%
X90400000Y-133670000D03*
%TO.P,CONN1,15,15*%
%TO.N,INPUT6*%
X87400000Y-133670000D03*
%TO.P,CONN1,14,14*%
%TO.N,INPUT5*%
X84400000Y-133670000D03*
%TO.P,CONN1,13,13*%
%TO.N,INPUT4*%
X99400000Y-130670000D03*
%TO.P,CONN1,12,12*%
%TO.N,INPUT3*%
X96400000Y-130670000D03*
%TO.P,CONN1,11,11*%
%TO.N,INPUT2*%
X93400000Y-130670000D03*
%TO.P,CONN1,10,10*%
%TO.N,INPUT1*%
X90400000Y-130670000D03*
%TO.P,CONN1,9,9*%
%TO.N,+5VF*%
X87400000Y-130670000D03*
%TO.P,CONN1,8,8*%
%TO.N,GND*%
X84400000Y-130670000D03*
%TO.P,CONN1,7,7*%
%TO.N,CAN1_L*%
X100900000Y-128170000D03*
%TO.P,CONN1,6,6*%
%TO.N,CAN1_H*%
X97900000Y-128170000D03*
%TO.P,CONN1,5,5*%
%TO.N,GND*%
X94900000Y-128170000D03*
%TO.P,CONN1,4,4*%
%TO.N,+5VF*%
X91900000Y-128170000D03*
%TO.P,CONN1,3,3*%
X88900000Y-128170000D03*
%TO.P,CONN1,2,2*%
%TO.N,GND*%
X85900000Y-128170000D03*
%TO.P,CONN1,1,1*%
%TO.N,+12V*%
X82900000Y-128170000D03*
%TD*%
D21*
%TO.P,C19,1*%
%TO.N,AIN9*%
X92725000Y-104980000D03*
%TO.P,C19,2*%
%TO.N,GND*%
X94275000Y-104980000D03*
%TD*%
D19*
%TO.P,R35,1*%
%TO.N,AIN2*%
X97710714Y-118080000D03*
%TO.P,R35,2*%
%TO.N,INPUT2*%
X96060714Y-118080000D03*
%TD*%
D34*
%TO.P,IC5,1,OUT_1*%
%TO.N,+5V*%
X70660000Y-106135000D03*
%TO.P,IC5,2,IN2*%
%TO.N,Net-(IC4-OUT)*%
X69960000Y-106135000D03*
D35*
%TO.P,IC5,3,CP2*%
%TO.N,GND*%
X69160000Y-106060000D03*
%TO.P,IC5,4,OV2*%
X69160000Y-106560000D03*
%TO.P,IC5,5,OV1*%
X69160000Y-107060000D03*
%TO.P,IC5,6,PR1*%
X69160000Y-107560000D03*
D34*
%TO.P,IC5,7,IN1*%
%TO.N,+5VP*%
X69960000Y-107485000D03*
%TO.P,IC5,8,OUT_2*%
%TO.N,+5V*%
X70660000Y-107485000D03*
D35*
%TO.P,IC5,9,ST*%
%TO.N,GND*%
X71460000Y-107560000D03*
%TO.P,IC5,10,ILIM*%
%TO.N,Net-(IC5-ILIM)*%
X71460000Y-107060000D03*
%TO.P,IC5,11,SS*%
%TO.N,Net-(IC5-SS)*%
X71460000Y-106560000D03*
%TO.P,IC5,12,GND*%
%TO.N,GND*%
X71460000Y-106060000D03*
%TD*%
D36*
%TO.P,L1,1*%
%TO.N,+5VP*%
X72060000Y-115160000D03*
%TO.P,L1,2*%
%TO.N,Net-(U1-SW)*%
X69010000Y-115160000D03*
%TD*%
D15*
%TO.P,R51,1*%
%TO.N,AIN12*%
X102832142Y-101930000D03*
%TO.P,R51,2*%
%TO.N,INPUT12*%
X104482142Y-101930000D03*
%TD*%
D16*
%TO.P,R68,1*%
%TO.N,GND*%
X73675000Y-110000000D03*
%TO.P,R68,2*%
%TO.N,Net-(IC5-ILIM)*%
X73675000Y-108350000D03*
%TD*%
D21*
%TO.P,C32,1*%
%TO.N,AIN16*%
X116425000Y-104980000D03*
%TO.P,C32,2*%
%TO.N,GND*%
X117975000Y-104980000D03*
%TD*%
D37*
%TO.P,LED3,1,K*%
%TO.N,Net-(LED3-K)*%
X75777500Y-106230000D03*
%TO.P,LED3,2,A*%
%TO.N,+5V*%
X73902500Y-106230000D03*
%TD*%
D15*
%TO.P,R52,1*%
%TO.N,AIN12*%
X102832142Y-103455000D03*
%TO.P,R52,2*%
%TO.N,GND*%
X104482142Y-103455000D03*
%TD*%
D19*
%TO.P,R16,1*%
%TO.N,AIN1*%
X94325000Y-116555000D03*
%TO.P,R16,2*%
%TO.N,GND*%
X92675000Y-116555000D03*
%TD*%
D16*
%TO.P,R71,1*%
%TO.N,Net-(R5-Pad2)*%
X81450000Y-102930000D03*
%TO.P,R71,2*%
%TO.N,+3V3*%
X81450000Y-101280000D03*
%TD*%
D19*
%TO.P,R36,1*%
%TO.N,AIN4*%
X104482142Y-118080000D03*
%TO.P,R36,2*%
%TO.N,INPUT4*%
X102832142Y-118080000D03*
%TD*%
%TO.P,R42,1*%
%TO.N,AIN6*%
X111253570Y-116555000D03*
%TO.P,R42,2*%
%TO.N,GND*%
X109603570Y-116555000D03*
%TD*%
D29*
%TO.P,C14,1*%
%TO.N,+USB_5V*%
X73180000Y-89795000D03*
%TO.P,C14,2*%
%TO.N,GND*%
X73180000Y-91345000D03*
%TD*%
D19*
%TO.P,R38,1*%
%TO.N,AIN8*%
X118025000Y-118080000D03*
%TO.P,R38,2*%
%TO.N,INPUT8*%
X116375000Y-118080000D03*
%TD*%
D15*
%TO.P,R2,1*%
%TO.N,Net-(R2-Pad1)*%
X64860000Y-112885000D03*
%TO.P,R2,2*%
%TO.N,Net-(U1-FB)*%
X66510000Y-112885000D03*
%TD*%
D14*
%TO.P,C35,1*%
%TO.N,GND*%
X70550000Y-93675000D03*
%TO.P,C35,2*%
%TO.N,+USB_5V*%
X68650000Y-93675000D03*
%TD*%
D15*
%TO.P,R28,1*%
%TO.N,AIN9*%
X92675000Y-101930000D03*
%TO.P,R28,2*%
%TO.N,INPUT9*%
X94325000Y-101930000D03*
%TD*%
D19*
%TO.P,R23,1*%
%TO.N,AIN5*%
X107867856Y-116555000D03*
%TO.P,R23,2*%
%TO.N,GND*%
X106217856Y-116555000D03*
%TD*%
D38*
%TO.P,L2,1*%
%TO.N,Net-(IC6-SW)*%
X75950000Y-96770000D03*
%TO.P,L2,2*%
%TO.N,+3V3*%
X78100000Y-96770000D03*
%TD*%
D18*
%TO.P,C25,1*%
%TO.N,GND*%
X118295000Y-85470000D03*
%TO.P,C25,2*%
%TO.N,Net-(IC3-REFIN{slash}REFOUT)*%
X116745000Y-85470000D03*
%TD*%
D19*
%TO.P,R12,1*%
%TO.N,Net-(U3-USB_D-)*%
X78250000Y-86300000D03*
%TO.P,R12,2*%
%TO.N,Net-(C13-Pad1)*%
X76600000Y-86300000D03*
%TD*%
%TO.P,R9,1*%
%TO.N,Net-(U3-IO38)*%
X74075000Y-97350000D03*
%TO.P,R9,2*%
%TO.N,GND*%
X72425000Y-97350000D03*
%TD*%
%TO.P,R10,1*%
%TO.N,Net-(U3-IO38)*%
X74075000Y-95625000D03*
%TO.P,R10,2*%
%TO.N,+USB_5V*%
X72425000Y-95625000D03*
%TD*%
D14*
%TO.P,C34,1*%
%TO.N,+3V3*%
X77625000Y-73175000D03*
%TO.P,C34,2*%
%TO.N,GND*%
X75725000Y-73175000D03*
%TD*%
D23*
%TO.P,C39,1*%
%TO.N,GND*%
X64960000Y-100400000D03*
%TO.P,C39,2*%
%TO.N,Net-(IC4-OUT)*%
X66860000Y-100400000D03*
%TD*%
D21*
%TO.P,C30,1*%
%TO.N,AIN14*%
X109653570Y-104980000D03*
%TO.P,C30,2*%
%TO.N,GND*%
X111203570Y-104980000D03*
%TD*%
D20*
%TO.P,R69,1*%
%TO.N,GND*%
X72500000Y-99025000D03*
%TO.P,R69,2*%
%TO.N,+5V*%
X72500000Y-100675000D03*
%TD*%
D39*
%TO.P,IC6,1,EN*%
%TO.N,+5V*%
X77790000Y-100560000D03*
%TO.P,IC6,2,FB*%
%TO.N,Net-(IC6-FB)*%
X77790000Y-100060000D03*
%TO.P,IC6,3,AGND*%
%TO.N,GND*%
X77790000Y-99560000D03*
%TO.P,IC6,4,NC*%
%TO.N,unconnected-(IC6-NC-Pad4)*%
X77790000Y-99060000D03*
%TO.P,IC6,5,PGND*%
%TO.N,GND*%
X76390000Y-99060000D03*
%TO.P,IC6,6,SW*%
%TO.N,Net-(IC6-SW)*%
X76390000Y-99560000D03*
%TO.P,IC6,7,VIN*%
%TO.N,+5V*%
X76390000Y-100060000D03*
%TO.P,IC6,8,PG*%
%TO.N,unconnected-(IC6-PG-Pad8)*%
X76390000Y-100560000D03*
%TD*%
D14*
%TO.P,C41,1*%
%TO.N,Net-(IC4-OUT)*%
X66860000Y-102585000D03*
%TO.P,C41,2*%
%TO.N,GND*%
X64960000Y-102585000D03*
%TD*%
D20*
%TO.P,R46,1*%
%TO.N,SCL*%
X102390000Y-92008000D03*
%TO.P,R46,2*%
%TO.N,+3V3*%
X102390000Y-93658000D03*
%TD*%
D19*
%TO.P,R73,1*%
%TO.N,+5VP*%
X66510000Y-111185000D03*
%TO.P,R73,2*%
%TO.N,Net-(R2-Pad1)*%
X64860000Y-111185000D03*
%TD*%
D40*
%TO.P,CONN2,SH4,SHIELD*%
%TO.N,GND*%
X69100000Y-91375000D03*
%TO.P,CONN2,SH3,SHIELD*%
X69100000Y-82735000D03*
D41*
%TO.P,CONN2,SH2,SHIELD*%
X64950000Y-91375000D03*
%TO.P,CONN2,SH1,SHIELD*%
X64950000Y-82735000D03*
D42*
%TO.P,CONN2,B8,SBU2*%
%TO.N,unconnected-(CONN2-SBU2-PadB8)*%
X69675000Y-85305000D03*
%TO.P,CONN2,B7,D-*%
%TO.N,Net-(CONN2-D--PadA7)*%
X69675000Y-86305000D03*
%TO.P,CONN2,B6,D+*%
%TO.N,Net-(CONN2-D+-PadA6)*%
X69675000Y-87805000D03*
%TO.P,CONN2,B5,CC2*%
%TO.N,Net-(CONN2-CC2)*%
X69675000Y-88805000D03*
D43*
%TO.P,CONN2,A12_B1,GND*%
%TO.N,GND*%
X69675000Y-90255000D03*
%TO.P,CONN2,A9_B4,VBUS*%
%TO.N,+USB_5V*%
X69675000Y-89455000D03*
D42*
%TO.P,CONN2,A8,SBU1*%
%TO.N,unconnected-(CONN2-SBU1-PadA8)*%
X69675000Y-88305000D03*
%TO.P,CONN2,A7,D-*%
%TO.N,Net-(CONN2-D--PadA7)*%
X69675000Y-87305000D03*
%TO.P,CONN2,A6,D+*%
%TO.N,Net-(CONN2-D+-PadA6)*%
X69675000Y-86805000D03*
%TO.P,CONN2,A5,CC1*%
%TO.N,Net-(CONN2-CC1)*%
X69675000Y-85805000D03*
D43*
%TO.P,CONN2,A4_B9,VBUS*%
%TO.N,+USB_5V*%
X69675000Y-84655000D03*
%TO.P,CONN2,A1_B12,GND*%
%TO.N,GND*%
X69675000Y-83855000D03*
%TD*%
D19*
%TO.P,R37,1*%
%TO.N,AIN6*%
X111253570Y-118080000D03*
%TO.P,R37,2*%
%TO.N,INPUT6*%
X109603570Y-118080000D03*
%TD*%
D44*
%TO.P,U3,1,GND*%
%TO.N,GND*%
X83150000Y-71170000D03*
%TO.P,U3,2,3V3*%
%TO.N,+3V3*%
X83150000Y-72440000D03*
%TO.P,U3,3,EN*%
%TO.N,Net-(U3-EN)*%
X83150000Y-73710000D03*
%TO.P,U3,4,IO4*%
%TO.N,unconnected-(U3-IO4-Pad4)*%
X83150000Y-74980000D03*
%TO.P,U3,5,IO5*%
%TO.N,unconnected-(U3-IO5-Pad5)*%
X83150000Y-76250000D03*
%TO.P,U3,6,IO6*%
%TO.N,unconnected-(U3-IO6-Pad6)*%
X83150000Y-77520000D03*
%TO.P,U3,7,IO7*%
%TO.N,unconnected-(U3-IO7-Pad7)*%
X83150000Y-78790000D03*
%TO.P,U3,8,IO15*%
%TO.N,unconnected-(U3-IO15-Pad8)*%
X83150000Y-80060000D03*
%TO.P,U3,9,IO16*%
%TO.N,unconnected-(U3-IO16-Pad9)*%
X83150000Y-81330000D03*
%TO.P,U3,10,IO17*%
%TO.N,unconnected-(U3-IO17-Pad10)*%
X83150000Y-82600000D03*
%TO.P,U3,11,IO18*%
%TO.N,unconnected-(U3-IO18-Pad11)*%
X83150000Y-83870000D03*
%TO.P,U3,12,IO8*%
%TO.N,unconnected-(U3-IO8-Pad12)*%
X83150000Y-85140000D03*
%TO.P,U3,13,USB_D-*%
%TO.N,Net-(U3-USB_D-)*%
X83150000Y-86410000D03*
%TO.P,U3,14,USB_D+*%
%TO.N,Net-(U3-USB_D+)*%
X83150000Y-87680000D03*
D45*
%TO.P,U3,15,IO3*%
%TO.N,Net-(U3-IO3)*%
X84915000Y-88930000D03*
%TO.P,U3,16,IO46*%
%TO.N,unconnected-(U3-IO46-Pad16)*%
X86185000Y-88930000D03*
%TO.P,U3,17,IO9*%
%TO.N,VMON*%
X87455000Y-88930000D03*
%TO.P,U3,18,IO10*%
%TO.N,CAN1_RX*%
X88725000Y-88930000D03*
%TO.P,U3,19,IO11*%
%TO.N,CAN1_TX*%
X89995000Y-88930000D03*
%TO.P,U3,20,IO12*%
%TO.N,SDA*%
X91265000Y-88930000D03*
%TO.P,U3,21,IO13*%
%TO.N,SCL*%
X92535000Y-88930000D03*
%TO.P,U3,22,IO14*%
%TO.N,unconnected-(U3-IO14-Pad22)*%
X93805000Y-88930000D03*
%TO.P,U3,23,IO21*%
%TO.N,unconnected-(U3-IO21-Pad23)*%
X95075000Y-88930000D03*
%TO.P,U3,24,IO47*%
%TO.N,unconnected-(U3-IO47-Pad24)*%
X96345000Y-88930000D03*
%TO.P,U3,25,IO48*%
%TO.N,unconnected-(U3-IO48-Pad25)*%
X97615000Y-88930000D03*
%TO.P,U3,26,IO45*%
%TO.N,unconnected-(U3-IO45-Pad26)*%
X98885000Y-88930000D03*
D44*
%TO.P,U3,27,IO0*%
%TO.N,Net-(U3-IO0)*%
X100650000Y-87680000D03*
%TO.P,U3,28,IO35*%
%TO.N,unconnected-(U3-IO35-Pad28)*%
X100650000Y-86410000D03*
%TO.P,U3,29,IO36*%
%TO.N,unconnected-(U3-IO36-Pad29)*%
X100650000Y-85140000D03*
%TO.P,U3,30,IO37*%
%TO.N,unconnected-(U3-IO37-Pad30)*%
X100650000Y-83870000D03*
%TO.P,U3,31,IO38*%
%TO.N,Net-(U3-IO38)*%
X100650000Y-82600000D03*
%TO.P,U3,32,IO39*%
%TO.N,unconnected-(U3-IO39-Pad32)*%
X100650000Y-81330000D03*
%TO.P,U3,33,IO40*%
%TO.N,unconnected-(U3-IO40-Pad33)*%
X100650000Y-80060000D03*
%TO.P,U3,34,IO41*%
%TO.N,unconnected-(U3-IO41-Pad34)*%
X100650000Y-78790000D03*
%TO.P,U3,35,IO42*%
%TO.N,unconnected-(U3-IO42-Pad35)*%
X100650000Y-77520000D03*
%TO.P,U3,36,RXD0*%
%TO.N,unconnected-(U3-RXD0-Pad36)*%
X100650000Y-76250000D03*
%TO.P,U3,37,TXD0*%
%TO.N,unconnected-(U3-TXD0-Pad37)*%
X100650000Y-74980000D03*
%TO.P,U3,38,IO2*%
%TO.N,unconnected-(U3-IO2-Pad38)*%
X100650000Y-73710000D03*
%TO.P,U3,39,IO1*%
%TO.N,unconnected-(U3-IO1-Pad39)*%
X100650000Y-72440000D03*
%TO.P,U3,40,GND*%
%TO.N,GND*%
X100650000Y-71170000D03*
D46*
%TO.P,U3,41,GND*%
X89000000Y-78190000D03*
X89000000Y-79590000D03*
X89700000Y-77490000D03*
X89700000Y-78890000D03*
X89700000Y-80290000D03*
X90400000Y-78190000D03*
D47*
X90400000Y-78890000D03*
D46*
X90400000Y-79590000D03*
X91100000Y-77490000D03*
X91100000Y-78890000D03*
X91100000Y-80290000D03*
X91800000Y-78190000D03*
X91800000Y-79590000D03*
%TD*%
D18*
%TO.P,C18,1*%
%TO.N,AIN7*%
X114589284Y-115030000D03*
%TO.P,C18,2*%
%TO.N,GND*%
X113039284Y-115030000D03*
%TD*%
D30*
%TO.P,C5,1*%
%TO.N,GND*%
X71535000Y-110060000D03*
%TO.P,C5,2*%
%TO.N,+5VP*%
X71535000Y-111960000D03*
%TD*%
D17*
%TO.P,C4,1*%
%TO.N,Net-(U1-SW)*%
X63860000Y-120710000D03*
%TO.P,C4,2*%
%TO.N,Net-(C4-Pad2)*%
X63860000Y-119160000D03*
%TD*%
D14*
%TO.P,C43,1*%
%TO.N,Net-(IC4-OUT)*%
X66860000Y-104785000D03*
%TO.P,C43,2*%
%TO.N,GND*%
X64960000Y-104785000D03*
%TD*%
D19*
%TO.P,R41,1*%
%TO.N,AIN4*%
X104482142Y-116555000D03*
%TO.P,R41,2*%
%TO.N,GND*%
X102832142Y-116555000D03*
%TD*%
D22*
%TO.P,TP2,1,1*%
%TO.N,+3V3*%
X75570000Y-91480000D03*
%TD*%
D48*
%TO.P,SW1,1,1*%
%TO.N,Net-(R6-Pad1)*%
X109555000Y-74220000D03*
X109555000Y-80220000D03*
%TO.P,SW1,2,2*%
%TO.N,Net-(U3-IO0)*%
X105805000Y-74220000D03*
X105805000Y-80220000D03*
%TD*%
D16*
%TO.P,R45,1*%
%TO.N,+3V3*%
X104140000Y-93658000D03*
%TO.P,R45,2*%
%TO.N,SDA*%
X104140000Y-92008000D03*
%TD*%
D19*
%TO.P,R72,1*%
%TO.N,Net-(LED1-K)*%
X74075000Y-93850000D03*
%TO.P,R72,2*%
%TO.N,GND*%
X72425000Y-93850000D03*
%TD*%
D18*
%TO.P,C17,1*%
%TO.N,AIN5*%
X107817856Y-115030000D03*
%TO.P,C17,2*%
%TO.N,GND*%
X106267856Y-115030000D03*
%TD*%
D21*
%TO.P,C50,1*%
%TO.N,+3V3*%
X113500000Y-85470000D03*
%TO.P,C50,2*%
%TO.N,GND*%
X115050000Y-85470000D03*
%TD*%
D48*
%TO.P,SW2,1,1*%
%TO.N,GND*%
X77425000Y-77450000D03*
X77425000Y-83450000D03*
%TO.P,SW2,2,2*%
%TO.N,Net-(U3-EN)*%
X73675000Y-77450000D03*
X73675000Y-83450000D03*
%TD*%
D23*
%TO.P,C42,1*%
%TO.N,GND*%
X64960000Y-107035000D03*
%TO.P,C42,2*%
%TO.N,+5VP*%
X66860000Y-107035000D03*
%TD*%
D16*
%TO.P,R67,1*%
%TO.N,GND*%
X74075000Y-100675000D03*
%TO.P,R67,2*%
%TO.N,Net-(IC4-ISET)*%
X74075000Y-99025000D03*
%TD*%
D49*
%TO.P,LED1,1,K*%
%TO.N,Net-(LED1-K)*%
X76107500Y-94075000D03*
%TO.P,LED1,2,A*%
%TO.N,+3V3*%
X77982500Y-94075000D03*
%TD*%
D30*
%TO.P,C8,1*%
%TO.N,+5V*%
X75950000Y-102250000D03*
%TO.P,C8,2*%
%TO.N,GND*%
X75950000Y-104150000D03*
%TD*%
D20*
%TO.P,R74,1*%
%TO.N,Net-(U3-IO3)*%
X80325000Y-108350000D03*
%TO.P,R74,2*%
%TO.N,GND*%
X80325000Y-110000000D03*
%TD*%
D15*
%TO.P,R64,1*%
%TO.N,AIN16*%
X116375000Y-103455000D03*
%TO.P,R64,2*%
%TO.N,GND*%
X118025000Y-103455000D03*
%TD*%
D50*
%TO.P,C13,1*%
%TO.N,Net-(C13-Pad1)*%
X75430000Y-85980000D03*
%TO.P,C13,2*%
%TO.N,GND*%
X75430000Y-85020000D03*
%TD*%
D30*
%TO.P,C6,1*%
%TO.N,GND*%
X69460000Y-110060000D03*
%TO.P,C6,2*%
%TO.N,+5VP*%
X69460000Y-111960000D03*
%TD*%
D15*
%TO.P,R49,1*%
%TO.N,AIN11*%
X99446428Y-103455000D03*
%TO.P,R49,2*%
%TO.N,GND*%
X101096428Y-103455000D03*
%TD*%
D24*
%TO.P,IC2,1,CH0*%
%TO.N,AIN1*%
X105725000Y-93326000D03*
%TO.P,IC2,2,CH1*%
%TO.N,AIN2*%
X106375000Y-93326000D03*
%TO.P,IC2,3,CH2*%
%TO.N,AIN3*%
X107025000Y-93326000D03*
%TO.P,IC2,4,CH3*%
%TO.N,AIN4*%
X107675000Y-93326000D03*
%TO.P,IC2,5,CH4*%
%TO.N,AIN5*%
X108325000Y-93326000D03*
%TO.P,IC2,6,CH5*%
%TO.N,AIN6*%
X108975000Y-93326000D03*
%TO.P,IC2,7,CH6*%
%TO.N,AIN7*%
X109625000Y-93326000D03*
%TO.P,IC2,8,CH7*%
%TO.N,AIN8*%
X110275000Y-93326000D03*
%TO.P,IC2,9,GND*%
%TO.N,GND*%
X110275000Y-87450000D03*
%TO.P,IC2,10,REFIN/REFOUT*%
%TO.N,Net-(IC2-REFIN{slash}REFOUT)*%
X109625000Y-87450000D03*
%TO.P,IC2,11,COM*%
%TO.N,GND*%
X108975000Y-87450000D03*
%TO.P,IC2,12,A0*%
X108325000Y-87450000D03*
%TO.P,IC2,13,A1*%
X107675000Y-87450000D03*
%TO.P,IC2,14,SCL*%
%TO.N,SCL*%
X107025000Y-87450000D03*
%TO.P,IC2,15,SDA*%
%TO.N,SDA*%
X106375000Y-87450000D03*
%TO.P,IC2,16,+VDD*%
%TO.N,+3V3*%
X105725000Y-87450000D03*
%TD*%
D15*
%TO.P,R58,1*%
%TO.N,AIN14*%
X109603570Y-103455000D03*
%TO.P,R58,2*%
%TO.N,GND*%
X111253570Y-103455000D03*
%TD*%
%TO.P,R44,1*%
%TO.N,AIN10*%
X96060714Y-103455000D03*
%TO.P,R44,2*%
%TO.N,GND*%
X97710714Y-103455000D03*
%TD*%
D19*
%TO.P,R11,1*%
%TO.N,Net-(U3-USB_D+)*%
X78250000Y-87800000D03*
%TO.P,R11,2*%
%TO.N,Net-(C11-Pad1)*%
X76600000Y-87800000D03*
%TD*%
D18*
%TO.P,C22,1*%
%TO.N,AIN6*%
X111203570Y-115030000D03*
%TO.P,C22,2*%
%TO.N,GND*%
X109653570Y-115030000D03*
%TD*%
D15*
%TO.P,R60,1*%
%TO.N,AIN15*%
X112989284Y-101930000D03*
%TO.P,R60,2*%
%TO.N,INPUT15*%
X114639284Y-101930000D03*
%TD*%
D17*
%TO.P,C10,1*%
%TO.N,+5V*%
X79545000Y-119050000D03*
%TO.P,C10,2*%
%TO.N,GND*%
X79545000Y-117500000D03*
%TD*%
D23*
%TO.P,C3,1*%
%TO.N,+12V*%
X69510000Y-118645000D03*
%TO.P,C3,2*%
%TO.N,GND*%
X71410000Y-118645000D03*
%TD*%
D14*
%TO.P,C38,1*%
%TO.N,Net-(IC4-OUT)*%
X66860000Y-98200000D03*
%TO.P,C38,2*%
%TO.N,GND*%
X64960000Y-98200000D03*
%TD*%
D17*
%TO.P,C44,1*%
%TO.N,GND*%
X75350000Y-109950000D03*
%TO.P,C44,2*%
%TO.N,Net-(IC5-SS)*%
X75350000Y-108400000D03*
%TD*%
D19*
%TO.P,R3,1*%
%TO.N,Net-(U1-FB)*%
X66510000Y-114535000D03*
%TO.P,R3,2*%
%TO.N,GND*%
X64860000Y-114535000D03*
%TD*%
D31*
%TO.P,MH1,1,1*%
%TO.N,GND*%
X67350000Y-74575000D03*
%TD*%
D20*
%TO.P,R70,1*%
%TO.N,Net-(LED3-K)*%
X77000000Y-108350000D03*
%TO.P,R70,2*%
%TO.N,GND*%
X77000000Y-110000000D03*
%TD*%
D18*
%TO.P,C15,1*%
%TO.N,AIN1*%
X94275000Y-115030000D03*
%TO.P,C15,2*%
%TO.N,GND*%
X92725000Y-115030000D03*
%TD*%
D51*
%TO.P,R33,1*%
%TO.N,+5VF*%
X117200000Y-111475000D03*
D52*
%TO.P,R33,2*%
%TO.N,INPUT8*%
X117200000Y-121635000D03*
%TD*%
D51*
%TO.P,R34,1*%
%TO.N,+5VF*%
X96885714Y-108525000D03*
D52*
%TO.P,R34,2*%
%TO.N,INPUT10*%
X96885714Y-98365000D03*
%TD*%
D51*
%TO.P,R50,1*%
%TO.N,+5VF*%
X103641000Y-108525000D03*
D52*
%TO.P,R50,2*%
%TO.N,INPUT12*%
X103641000Y-98365000D03*
%TD*%
D51*
%TO.P,R56,1*%
%TO.N,+5VF*%
X110428570Y-108525000D03*
D52*
%TO.P,R56,2*%
%TO.N,INPUT14*%
X110428570Y-98365000D03*
%TD*%
D51*
%TO.P,R27,1*%
%TO.N,+5VF*%
X93500000Y-108525000D03*
D52*
%TO.P,R27,2*%
%TO.N,INPUT9*%
X93500000Y-98365000D03*
%TD*%
%TO.P,R59,2*%
%TO.N,INPUT15*%
X113814284Y-98365000D03*
D51*
%TO.P,R59,1*%
%TO.N,+5VF*%
X113814284Y-108525000D03*
%TD*%
%TO.P,R21,1*%
%TO.N,+5VF*%
X107042856Y-111475000D03*
D52*
%TO.P,R21,2*%
%TO.N,INPUT5*%
X107042856Y-121635000D03*
%TD*%
D51*
%TO.P,R31,1*%
%TO.N,+5VF*%
X103657142Y-111475000D03*
D52*
%TO.P,R31,2*%
%TO.N,INPUT4*%
X103657142Y-121635000D03*
%TD*%
D51*
%TO.P,R47,1*%
%TO.N,+5VF*%
X100271428Y-108525000D03*
D52*
%TO.P,R47,2*%
%TO.N,INPUT11*%
X100271428Y-98365000D03*
%TD*%
D51*
%TO.P,R24,1*%
%TO.N,+5VF*%
X113814284Y-111475000D03*
D52*
%TO.P,R24,2*%
%TO.N,INPUT7*%
X113814284Y-121635000D03*
%TD*%
D51*
%TO.P,R30,1*%
%TO.N,+5VF*%
X96885714Y-111475000D03*
D52*
%TO.P,R30,2*%
%TO.N,INPUT2*%
X96885714Y-121635000D03*
%TD*%
D51*
%TO.P,R53,1*%
%TO.N,+5VF*%
X107042856Y-108525000D03*
D52*
%TO.P,R53,2*%
%TO.N,INPUT13*%
X107042856Y-98365000D03*
%TD*%
%TO.P,R62,2*%
%TO.N,INPUT16*%
X117200000Y-98365000D03*
D51*
%TO.P,R62,1*%
%TO.N,+5VF*%
X117200000Y-108525000D03*
%TD*%
%TO.P,R18,1*%
%TO.N,+5VF*%
X100271428Y-111475000D03*
D52*
%TO.P,R18,2*%
%TO.N,INPUT3*%
X100271428Y-121635000D03*
%TD*%
D51*
%TO.P,R17,1*%
%TO.N,+5VF*%
X93500000Y-111475000D03*
D52*
%TO.P,R17,2*%
%TO.N,INPUT1*%
X93500000Y-121635000D03*
%TD*%
D51*
%TO.P,R32,1*%
%TO.N,+5VF*%
X110428570Y-111475000D03*
D52*
%TO.P,R32,2*%
%TO.N,INPUT6*%
X110428570Y-121635000D03*
%TD*%
D53*
%TO.N,INPUT8*%
X93400000Y-141145000D03*
%TO.N,INPUT7*%
X90400000Y-140520000D03*
%TO.N,INPUT6*%
X87400000Y-139895000D03*
%TO.N,INPUT5*%
X84400000Y-139275000D03*
%TO.N,INPUT9*%
X96400000Y-138025000D03*
%TO.N,INPUT10*%
X109105000Y-133041652D03*
%TO.N,INPUT11*%
X82900000Y-138650000D03*
%TO.N,INPUT12*%
X85900000Y-139275000D03*
%TO.N,INPUT13*%
X88900000Y-139895000D03*
%TO.N,INPUT14*%
X91900000Y-140520000D03*
%TO.N,INPUT15*%
X94900000Y-141145000D03*
%TO.N,INPUT16*%
X97900000Y-141770000D03*
D54*
%TO.N,+3V3*%
X103260000Y-93658000D03*
X112650000Y-85470000D03*
X104760000Y-85470000D03*
%TO.N,GND*%
X72000000Y-109100000D03*
X76525000Y-73175000D03*
X72537500Y-92475000D03*
X84650000Y-71170000D03*
X63775000Y-102006992D03*
X79330000Y-116660000D03*
X63775000Y-93375000D03*
X99125000Y-71170000D03*
X78750000Y-104250000D03*
X85662500Y-71170000D03*
X86180000Y-123200000D03*
X81825000Y-96125000D03*
X104075000Y-71170000D03*
X76980000Y-98310000D03*
X68150000Y-107075000D03*
X71525000Y-81900000D03*
X75275000Y-103425000D03*
X93500000Y-113750000D03*
X97225000Y-71170000D03*
X108325000Y-88790000D03*
X110428570Y-106260000D03*
X63775000Y-105243989D03*
X63775000Y-108480986D03*
X67335000Y-123400000D03*
X93500000Y-106260000D03*
X63775000Y-104164990D03*
X63775000Y-96611997D03*
X113814284Y-106260000D03*
X117200000Y-113750000D03*
X96885714Y-106260000D03*
X72550000Y-120491666D03*
X63775000Y-94453999D03*
X107042856Y-113750000D03*
X107042856Y-106260000D03*
X63825000Y-114550000D03*
X63775000Y-109559999D03*
X72550000Y-123075000D03*
X96885714Y-113750000D03*
X117200000Y-106260000D03*
X73102500Y-99627500D03*
X103137500Y-71170000D03*
X71725000Y-105350000D03*
X71000000Y-109100000D03*
X74000000Y-119910000D03*
X103657142Y-106260000D03*
X68150000Y-106075000D03*
X110275000Y-88790000D03*
X103650000Y-113750000D03*
X76000000Y-119910000D03*
X115050000Y-84570000D03*
X69700000Y-96975000D03*
X63775000Y-106322988D03*
X63775000Y-107401987D03*
X63775000Y-103085991D03*
X113814284Y-113750000D03*
X110375000Y-84570000D03*
X80625000Y-71170000D03*
X77425000Y-78550000D03*
X63775000Y-99848994D03*
X100271428Y-106260000D03*
X80130000Y-124350000D03*
X100271428Y-113750000D03*
X74475000Y-103425000D03*
X69300000Y-101875000D03*
X76350000Y-89110000D03*
X63775000Y-98769995D03*
X68600000Y-100050000D03*
X118175000Y-88790000D03*
X73550000Y-92475000D03*
X70000000Y-109100000D03*
X65550000Y-117700000D03*
X98175000Y-71170000D03*
X107140000Y-84570000D03*
X69300000Y-102675000D03*
X63775000Y-97690996D03*
X81625000Y-71170000D03*
X118295000Y-84570000D03*
X110428570Y-113750000D03*
X83860000Y-119230000D03*
X76525000Y-75405000D03*
X77425000Y-82350000D03*
X72550000Y-119200000D03*
X79625000Y-71170000D03*
X63775000Y-95532998D03*
X79325000Y-111100000D03*
X88030000Y-124750000D03*
X75000000Y-119910000D03*
X72550000Y-121783332D03*
X116540000Y-88790000D03*
X76350000Y-85020000D03*
X86675000Y-71170000D03*
X102200000Y-71170000D03*
X73000000Y-109475000D03*
X63775000Y-100927993D03*
X71525000Y-92475000D03*
X71350000Y-96975000D03*
%TO.N,+3V3*%
X80725000Y-97240000D03*
X81315000Y-121960000D03*
D53*
%TO.N,Net-(U3-EN)*%
X84420000Y-73710000D03*
X74430000Y-76510000D03*
%TO.N,AIN9*%
X93460000Y-102700000D03*
X113625000Y-94630000D03*
%TO.N,AIN10*%
X114275000Y-95240000D03*
X96860000Y-102710000D03*
%TO.N,CAN1_L*%
X82590000Y-121960000D03*
X88240000Y-120985000D03*
%TO.N,Net-(U3-IO38)*%
X74580000Y-96490000D03*
X99380000Y-82600000D03*
%TO.N,Net-(U3-USB_D+)*%
X77590000Y-87800000D03*
X84399999Y-87684241D03*
%TO.N,Net-(U3-USB_D-)*%
X77590000Y-86300000D03*
X84399999Y-86410000D03*
%TO.N,AIN11*%
X100220000Y-102710000D03*
X114925000Y-94630000D03*
%TO.N,AIN12*%
X103620000Y-102700000D03*
X115575000Y-95240000D03*
%TO.N,AIN13*%
X116225000Y-94630000D03*
X107010000Y-102700000D03*
%TO.N,AIN14*%
X116875000Y-95240000D03*
X110400000Y-102690000D03*
%TO.N,AIN15*%
X117525000Y-94630000D03*
X113800000Y-102690000D03*
%TO.N,Net-(CONN2-D+-PadA6)*%
X68530000Y-86640000D03*
X71945425Y-88852726D03*
%TO.N,Net-(CONN2-D--PadA7)*%
X68159947Y-85930730D03*
X71890000Y-85470000D03*
%TO.N,AIN16*%
X118175000Y-95240000D03*
X117170000Y-102710000D03*
%TO.N,SDA*%
X91265000Y-90180000D03*
X104140000Y-92720000D03*
%TO.N,SCL*%
X114925000Y-89470000D03*
X92535000Y-90180000D03*
X107025000Y-89470000D03*
X102390000Y-91320000D03*
%TO.N,VMON*%
X83525000Y-103500000D03*
X65685000Y-121520000D03*
%TO.N,Net-(U3-IO3)*%
X82870000Y-104150000D03*
X79500000Y-108350000D03*
%TD*%
D55*
%TO.N,GND*%
X89450000Y-126170000D02*
X88030000Y-124750000D01*
X92900000Y-126170000D02*
X89450000Y-126170000D01*
X94900000Y-128170000D02*
X92900000Y-126170000D01*
D56*
%TO.N,Net-(U3-USB_D-)*%
X77590000Y-86300000D02*
X78250000Y-86300000D01*
%TO.N,Net-(U3-USB_D+)*%
X77590000Y-87800000D02*
X78250000Y-87800000D01*
%TO.N,CAN1_H*%
X88839722Y-123544488D02*
G75*
G03*
X89122565Y-123544489I141422J141424D01*
G01*
X89758959Y-122908090D02*
G75*
G02*
X90041823Y-122908071I141441J-141410D01*
G01*
X90112513Y-122978801D02*
G75*
G02*
X90112491Y-123261621I-141413J-141399D01*
G01*
X89334698Y-122200987D02*
X89405408Y-122271697D01*
X88556881Y-122413119D02*
G75*
G03*
X88839723Y-122413119I141421J141419D01*
G01*
X88391262Y-122247500D02*
X88556881Y-122413119D01*
X88372500Y-122247500D02*
X88391262Y-122247500D01*
X87080000Y-120985000D02*
X87110000Y-120985000D01*
X88769012Y-123190935D02*
G75*
G03*
X88768968Y-123473822I141388J-141465D01*
G01*
X89476115Y-124322303D02*
G75*
G03*
X89758958Y-124322304I141422J141424D01*
G01*
X90183219Y-125029407D02*
G75*
G03*
X90466062Y-125029408I141422J141424D01*
G01*
X89405408Y-122271697D02*
G75*
G02*
X89405390Y-122554521I-141408J-141403D01*
G01*
X90112509Y-124675854D02*
G75*
G03*
X90112484Y-124958722I141391J-141446D01*
G01*
X95030000Y-125300000D02*
X97900000Y-128170000D01*
X90961036Y-124817274D02*
X91031748Y-124887986D01*
X90112511Y-123968749D02*
X90466063Y-123615194D01*
X90112509Y-124958697D02*
X90183219Y-125029407D01*
X90466063Y-124322301D02*
X90324641Y-124463722D01*
X90819618Y-123968749D02*
X90466063Y-124322301D01*
X90041803Y-122908091D02*
X90112513Y-122978801D01*
X89758959Y-123615197D02*
X89405405Y-123968750D01*
X89193275Y-122766672D02*
X89051854Y-122908093D01*
X90324641Y-124463722D02*
X90112509Y-124675854D01*
X88839723Y-122413119D02*
X89051856Y-122200987D01*
X88769012Y-123473778D02*
X88839722Y-123544488D01*
X90748907Y-123615195D02*
X90819617Y-123685905D01*
X90466062Y-125029407D02*
X90678194Y-124817274D01*
X89758958Y-124322303D02*
X90112511Y-123968749D01*
X91443762Y-125300000D02*
X91986743Y-125300000D01*
X90112514Y-123261645D02*
X89758959Y-123615197D01*
X89405407Y-123261645D02*
X89758959Y-122908090D01*
X89122565Y-123544488D02*
X89405407Y-123261645D01*
X89051855Y-122908093D02*
X88769012Y-123190935D01*
X89405405Y-124251593D02*
X89476115Y-124322303D01*
X87110000Y-120985000D02*
X88372500Y-122247500D01*
X89051854Y-122908093D02*
X89051855Y-122908093D01*
X89405407Y-122554539D02*
X89193275Y-122766672D01*
X91031748Y-124887986D02*
X91443762Y-125300000D01*
X90678194Y-124817274D02*
G75*
G02*
X90961036Y-124817274I141421J-141423D01*
G01*
X90819617Y-123685905D02*
G75*
G02*
X90819591Y-123968721I-141417J-141395D01*
G01*
X91986743Y-125300000D02*
X95030000Y-125300000D01*
X89405405Y-123968750D02*
G75*
G03*
X89405376Y-124251622I141395J-141450D01*
G01*
X90466063Y-123615194D02*
G75*
G02*
X90748923Y-123615179I141437J-141406D01*
G01*
X89051856Y-122200987D02*
G75*
G02*
X89334698Y-122200987I141421J-141419D01*
G01*
%TO.N,+3V3*%
X75570000Y-91662500D02*
X75570000Y-91480000D01*
X77982500Y-94075000D02*
X75570000Y-91662500D01*
D57*
%TO.N,AIN5*%
X108325000Y-95951396D02*
X108325000Y-93326000D01*
X108592856Y-114357144D02*
X108592856Y-96219252D01*
X108592856Y-96219252D02*
X108325000Y-95951396D01*
X108325000Y-114625000D02*
X108592856Y-114357144D01*
X108740000Y-115040000D02*
X108325000Y-114625000D01*
%TO.N,AIN6*%
X111530000Y-97190000D02*
X112110000Y-97770000D01*
X110200000Y-97190000D02*
X111530000Y-97190000D01*
X112110000Y-97770000D02*
X112110000Y-115000000D01*
X108975000Y-95965000D02*
X110200000Y-97190000D01*
X108975000Y-93326000D02*
X108975000Y-95965000D01*
%TO.N,AIN8*%
X110275000Y-95095000D02*
X110275000Y-93326000D01*
X111200000Y-96020000D02*
X110275000Y-95095000D01*
X116970000Y-96020000D02*
X111200000Y-96020000D01*
X118890000Y-97940000D02*
X116970000Y-96020000D01*
X118890000Y-115040000D02*
X118890000Y-97940000D01*
%TO.N,AIN4*%
X107675000Y-94655000D02*
X107675000Y-93326000D01*
X105350000Y-96980000D02*
X107675000Y-94655000D01*
X105350000Y-115020000D02*
X105350000Y-96980000D01*
%TO.N,AIN1*%
X105725000Y-94672208D02*
X105725000Y-93326000D01*
X105287208Y-95110000D02*
X105725000Y-94672208D01*
X95190000Y-96810000D02*
X96890000Y-95110000D01*
X95190000Y-115060000D02*
X95190000Y-96810000D01*
X96890000Y-95110000D02*
X105287208Y-95110000D01*
%TO.N,AIN2*%
X105473604Y-95560000D02*
X106375000Y-94658604D01*
X100120000Y-95560000D02*
X105473604Y-95560000D01*
X98590000Y-97090000D02*
X100120000Y-95560000D01*
X106375000Y-94658604D02*
X106375000Y-93326000D01*
X98590000Y-115030000D02*
X98590000Y-97090000D01*
%TO.N,AIN3*%
X105620000Y-96050000D02*
X103000000Y-96050000D01*
X107025000Y-94645000D02*
X105620000Y-96050000D01*
X107025000Y-93326000D02*
X107025000Y-94645000D01*
X103000000Y-96050000D02*
X101960000Y-97090000D01*
X101960000Y-97090000D02*
X101960000Y-115000000D01*
%TO.N,AIN7*%
X115490000Y-114000000D02*
X115510000Y-113980000D01*
X115490000Y-115020000D02*
X115490000Y-114000000D01*
%TO.N,INPUT8*%
X93400000Y-141145000D02*
X93400000Y-133670000D01*
%TO.N,INPUT7*%
X90400000Y-133670000D02*
X90400000Y-140520000D01*
%TO.N,INPUT6*%
X87400000Y-139895000D02*
X87400000Y-133670000D01*
%TO.N,INPUT5*%
X84400000Y-139275000D02*
X84400000Y-133670000D01*
%TO.N,INPUT15*%
X94900000Y-141145000D02*
X94900000Y-136170000D01*
%TO.N,INPUT16*%
X97900000Y-141770000D02*
X97900000Y-136170000D01*
%TO.N,INPUT10*%
X109101652Y-133045000D02*
X100025000Y-133045000D01*
X109105000Y-133041652D02*
X109101652Y-133045000D01*
X100025000Y-133045000D02*
X99400000Y-133670000D01*
%TO.N,INPUT9*%
X96400000Y-138025000D02*
X96400000Y-133670000D01*
%TO.N,INPUT14*%
X91900000Y-140520000D02*
X91900000Y-136170000D01*
%TO.N,INPUT13*%
X88900000Y-136170000D02*
X88900000Y-139895000D01*
%TO.N,INPUT12*%
X85900000Y-136170000D02*
X85900000Y-139275000D01*
%TO.N,INPUT11*%
X82900000Y-136170000D02*
X82900000Y-138650000D01*
%TO.N,INPUT16*%
X117200000Y-101105000D02*
X118025000Y-101930000D01*
X117200000Y-98365000D02*
X117200000Y-101105000D01*
%TO.N,INPUT14*%
X110428570Y-101105000D02*
X111253570Y-101930000D01*
X110428570Y-98365000D02*
X110428570Y-101105000D01*
D58*
%TO.N,GND*%
X77140000Y-99560000D02*
X77790000Y-99560000D01*
X77090000Y-99510000D02*
X77140000Y-99560000D01*
X77090000Y-98420000D02*
X77090000Y-99510000D01*
X76980000Y-98310000D02*
X77090000Y-98420000D01*
X76980000Y-98470000D02*
X76390000Y-99060000D01*
X76980000Y-98310000D02*
X76980000Y-98470000D01*
D56*
%TO.N,Net-(U1-SW)*%
X66510000Y-119185000D02*
X66510000Y-118645000D01*
X65955000Y-119740000D02*
X66510000Y-119185000D01*
X63860000Y-120700000D02*
X64820000Y-119740000D01*
X63860000Y-120710000D02*
X63860000Y-120700000D01*
X64820000Y-119740000D02*
X65955000Y-119740000D01*
D59*
%TO.N,GND*%
X72860000Y-86587499D02*
X72860000Y-85410000D01*
X73250000Y-85020000D02*
X75430000Y-85020000D01*
X72387499Y-87060000D02*
X72860000Y-86587499D01*
X71725000Y-87060000D02*
X72387499Y-87060000D01*
X72860000Y-85410000D02*
X73250000Y-85020000D01*
D57*
%TO.N,+USB_5V*%
X73380000Y-87060000D02*
X74000000Y-87060000D01*
X72850000Y-89465000D02*
X72850000Y-87590000D01*
X73180000Y-89795000D02*
X72850000Y-89465000D01*
X72850000Y-87590000D02*
X73380000Y-87060000D01*
D60*
%TO.N,GND*%
X118025000Y-105435000D02*
X117200000Y-106260000D01*
X118025000Y-103455000D02*
X118025000Y-105435000D01*
X114639284Y-105435000D02*
X113814284Y-106260000D01*
X114639284Y-103455000D02*
X114639284Y-105435000D01*
X111253570Y-105435000D02*
X110428570Y-106260000D01*
X111253570Y-103455000D02*
X111253570Y-105435000D01*
X107867856Y-105435000D02*
X107042856Y-106260000D01*
X107867856Y-103455000D02*
X107867856Y-105435000D01*
X104482142Y-105435000D02*
X103657142Y-106260000D01*
X104482142Y-103455000D02*
X104482142Y-105435000D01*
X101096428Y-105435000D02*
X100271428Y-106260000D01*
X101096428Y-103455000D02*
X101096428Y-105435000D01*
X97710714Y-105435000D02*
X96885714Y-106260000D01*
X97710714Y-103455000D02*
X97710714Y-105435000D01*
X94325000Y-105435000D02*
X93500000Y-106260000D01*
X94325000Y-103455000D02*
X94325000Y-105435000D01*
X92675000Y-116555000D02*
X92675000Y-114575000D01*
X92675000Y-114575000D02*
X93500000Y-113750000D01*
X96060714Y-114575000D02*
X96885714Y-113750000D01*
X96060714Y-116555000D02*
X96060714Y-114575000D01*
X102832142Y-114567858D02*
X103650000Y-113750000D01*
X102832142Y-116555000D02*
X102832142Y-114567858D01*
X106217856Y-114575000D02*
X107042856Y-113750000D01*
X106217856Y-116555000D02*
X106217856Y-114575000D01*
X109603570Y-114575000D02*
X110428570Y-113750000D01*
X109603570Y-116555000D02*
X109603570Y-114575000D01*
X112989284Y-114575000D02*
X113814284Y-113750000D01*
X112989284Y-116555000D02*
X112989284Y-114575000D01*
X116375000Y-114575000D02*
X117200000Y-113750000D01*
X116375000Y-116555000D02*
X116375000Y-114575000D01*
X99446428Y-114575000D02*
X100271428Y-113750000D01*
X99446428Y-116555000D02*
X99446428Y-114575000D01*
D56*
%TO.N,Net-(U3-IO38)*%
X100650000Y-82600000D02*
X99380000Y-82600000D01*
D60*
%TO.N,+3V3*%
X102390000Y-93658000D02*
X104140000Y-93658000D01*
D59*
X105590000Y-85470000D02*
X104760000Y-85470000D01*
D60*
X113500000Y-85470000D02*
X112650000Y-85470000D01*
%TO.N,GND*%
X64390005Y-98769995D02*
X64960000Y-98200000D01*
X64408994Y-99848994D02*
X64960000Y-100400000D01*
D59*
X69675000Y-90255000D02*
X69887034Y-90255000D01*
D60*
X63775000Y-109559999D02*
X64635001Y-109559999D01*
X77000000Y-110000000D02*
X73525000Y-110000000D01*
D59*
X70145000Y-83855000D02*
X71275000Y-82725000D01*
D60*
X70000000Y-109100000D02*
X70000000Y-109520000D01*
X63775000Y-105243989D02*
X64501011Y-105243989D01*
D59*
X107675000Y-87450000D02*
X107675000Y-88140000D01*
D60*
X71410000Y-120860000D02*
X72181666Y-120860000D01*
X72425000Y-93850000D02*
X72425000Y-92587500D01*
X64323003Y-96611997D02*
X64960000Y-95975000D01*
X71525000Y-92475000D02*
X71525000Y-91402500D01*
D59*
X71275000Y-82725000D02*
X71537500Y-82725000D01*
D55*
X74000000Y-119910000D02*
X76000000Y-119910000D01*
D60*
X69700000Y-98200000D02*
X69700000Y-96975000D01*
X64593013Y-107401987D02*
X64960000Y-107035000D01*
X63775000Y-102006992D02*
X64381992Y-102006992D01*
D58*
X68635000Y-106560000D02*
X68150000Y-106075000D01*
D60*
X64247988Y-106322988D02*
X64960000Y-107035000D01*
X86180000Y-123200000D02*
X85130000Y-123200000D01*
D58*
X69160000Y-106560000D02*
X68635000Y-106560000D01*
D60*
X71725000Y-97350000D02*
X71350000Y-96975000D01*
D59*
X108975000Y-87450000D02*
X108975000Y-88140000D01*
D60*
X63775000Y-99848994D02*
X64408994Y-99848994D01*
D61*
X65550000Y-117700000D02*
X65550000Y-118635000D01*
D58*
X71460000Y-107560000D02*
X71460000Y-108560000D01*
D60*
X73550000Y-92475000D02*
X73550000Y-91715000D01*
X73800000Y-104150000D02*
X73800000Y-104100000D01*
X79325000Y-111000000D02*
X80325000Y-110000000D01*
D58*
X71410000Y-120860000D02*
X71626668Y-120860000D01*
D60*
X76525000Y-73175000D02*
X75725000Y-73175000D01*
D59*
X116875000Y-88455000D02*
X116540000Y-88790000D01*
D58*
X71725000Y-105795000D02*
X71460000Y-106060000D01*
D60*
X73800000Y-104100000D02*
X74475000Y-103425000D01*
X72425000Y-97350000D02*
X71725000Y-97350000D01*
D58*
X69145000Y-107075000D02*
X69160000Y-107060000D01*
D56*
X106855000Y-72550000D02*
X105455000Y-72550000D01*
D60*
X72425000Y-92587500D02*
X72537500Y-92475000D01*
D58*
X68635000Y-107560000D02*
X68150000Y-107075000D01*
X92725000Y-115030000D02*
X92725000Y-115124978D01*
D60*
X83860000Y-119230000D02*
X83860000Y-117800000D01*
X64205986Y-108480986D02*
X64960000Y-109235000D01*
X69300000Y-102675000D02*
X68600000Y-103375000D01*
D58*
X69145000Y-106075000D02*
X69160000Y-106060000D01*
D60*
X73550000Y-91715000D02*
X73180000Y-91345000D01*
D61*
X65550000Y-118635000D02*
X65560000Y-118645000D01*
D60*
X72181666Y-120860000D02*
X72550000Y-120491666D01*
D59*
X118295000Y-84540000D02*
X118295000Y-85470000D01*
D60*
X71626668Y-120860000D02*
X72550000Y-121783332D01*
X71995000Y-118645000D02*
X72550000Y-119200000D01*
D56*
X105455000Y-72550000D02*
X104075000Y-71170000D01*
D60*
X71525000Y-82712500D02*
X71537500Y-82725000D01*
X64450996Y-97690996D02*
X64960000Y-98200000D01*
D59*
X110375000Y-84570000D02*
X110375000Y-85470000D01*
D60*
X68600000Y-101175000D02*
X69300000Y-101875000D01*
X77425000Y-77450000D02*
X77425000Y-78550000D01*
D59*
X63840000Y-114535000D02*
X63825000Y-114550000D01*
D60*
X74075000Y-100675000D02*
X74075000Y-100600000D01*
X71000000Y-109100000D02*
X71000000Y-109525000D01*
X63775000Y-107401987D02*
X64593013Y-107401987D01*
X79545000Y-123765000D02*
X80130000Y-124350000D01*
X64635001Y-109559999D02*
X64960000Y-109235000D01*
X74075000Y-100600000D02*
X72500000Y-99025000D01*
X63775000Y-95532998D02*
X64517998Y-95532998D01*
X72625000Y-109100000D02*
X73000000Y-109475000D01*
X72000000Y-109100000D02*
X72000000Y-109595000D01*
X79325000Y-111100000D02*
X79325000Y-111000000D01*
D55*
X75000000Y-119910000D02*
X75000000Y-118300000D01*
X79625000Y-71170000D02*
X83150000Y-71170000D01*
D58*
X92675000Y-116555000D02*
X92703920Y-116555000D01*
X68150000Y-107075000D02*
X69145000Y-107075000D01*
D59*
X110275000Y-87450000D02*
X110275000Y-88790000D01*
D60*
X71525000Y-91402500D02*
X71537500Y-91390000D01*
X76525000Y-75405000D02*
X75725000Y-75405000D01*
X64339990Y-104164990D02*
X64960000Y-104785000D01*
X63775000Y-108480986D02*
X64205986Y-108480986D01*
X63775000Y-93375000D02*
X64610000Y-93375000D01*
X79545000Y-116875000D02*
X79330000Y-116660000D01*
D59*
X71022034Y-91390000D02*
X71537500Y-91390000D01*
D60*
X88030000Y-123260000D02*
X88030000Y-124750000D01*
X71000000Y-109525000D02*
X71535000Y-110060000D01*
X63775000Y-106322988D02*
X64247988Y-106322988D01*
X75950000Y-104100000D02*
X75275000Y-103425000D01*
D58*
X69160000Y-107560000D02*
X68635000Y-107560000D01*
D60*
X70000000Y-109520000D02*
X69460000Y-110060000D01*
X68600000Y-100050000D02*
X68600000Y-101175000D01*
D58*
X71460000Y-108560000D02*
X72000000Y-109100000D01*
D59*
X116225000Y-88475000D02*
X116540000Y-88790000D01*
D60*
X63775000Y-103085991D02*
X64459009Y-103085991D01*
X63775000Y-100927993D02*
X64432007Y-100927993D01*
X63775000Y-98769995D02*
X64390005Y-98769995D01*
D55*
X104075000Y-71170000D02*
X97225000Y-71170000D01*
D60*
X63775000Y-96611997D02*
X64323003Y-96611997D01*
X64517998Y-95532998D02*
X64960000Y-95975000D01*
X73525000Y-110000000D02*
X73000000Y-109475000D01*
X63775000Y-94453999D02*
X64231001Y-94453999D01*
X64432007Y-100927993D02*
X64960000Y-100400000D01*
X69300000Y-101875000D02*
X69300000Y-102675000D01*
D58*
X71725000Y-105350000D02*
X71725000Y-105795000D01*
D61*
X76350000Y-89110000D02*
X75430000Y-89110000D01*
D59*
X69675000Y-83855000D02*
X70145000Y-83855000D01*
D60*
X77425000Y-83450000D02*
X77425000Y-82350000D01*
X71410000Y-123075000D02*
X72550000Y-123075000D01*
D59*
X116875000Y-87450000D02*
X116875000Y-88455000D01*
D60*
X71525000Y-92700000D02*
X70550000Y-93675000D01*
X73550000Y-92475000D02*
X71525000Y-92475000D01*
D59*
X69887034Y-90255000D02*
X71022034Y-91390000D01*
D60*
X78750000Y-104250000D02*
X77880000Y-104250000D01*
D59*
X115050000Y-84570000D02*
X115050000Y-85470000D01*
X118175000Y-87450000D02*
X118175000Y-88790000D01*
D60*
X81825000Y-99115000D02*
X81825000Y-96125000D01*
D58*
X68150000Y-106075000D02*
X69145000Y-106075000D01*
D61*
X76350000Y-85020000D02*
X75430000Y-85020000D01*
D60*
X67335000Y-123400000D02*
X67335000Y-122410000D01*
X64501011Y-105243989D02*
X64960000Y-104785000D01*
X71525000Y-81025000D02*
X71525000Y-82712500D01*
D59*
X107140000Y-84570000D02*
X107140000Y-85470000D01*
D55*
X86675000Y-71170000D02*
X83150000Y-71170000D01*
D60*
X75950000Y-104150000D02*
X75950000Y-104100000D01*
D59*
X108975000Y-88140000D02*
X108325000Y-88790000D01*
X116225000Y-87450000D02*
X116225000Y-88475000D01*
D60*
X71525000Y-92475000D02*
X71525000Y-92700000D01*
X70000000Y-109100000D02*
X72625000Y-109100000D01*
X79545000Y-117500000D02*
X79545000Y-116875000D01*
X64231001Y-94453999D02*
X64960000Y-93725000D01*
D59*
X108325000Y-87450000D02*
X108325000Y-88790000D01*
X64860000Y-114535000D02*
X63840000Y-114535000D01*
D60*
X72000000Y-109595000D02*
X71535000Y-110060000D01*
X81450000Y-99490000D02*
X81825000Y-99115000D01*
X63775000Y-104164990D02*
X64339990Y-104164990D01*
X64610000Y-93375000D02*
X64960000Y-93725000D01*
X64459009Y-103085991D02*
X64960000Y-102585000D01*
X79545000Y-123495000D02*
X79545000Y-123765000D01*
D59*
X107675000Y-88140000D02*
X108325000Y-88790000D01*
D60*
X71410000Y-118645000D02*
X71995000Y-118645000D01*
X63775000Y-97690996D02*
X64450996Y-97690996D01*
X64381992Y-102006992D02*
X64960000Y-102585000D01*
D56*
%TO.N,Net-(C4-Pad2)*%
X63860000Y-119160000D02*
X63860000Y-117785000D01*
D59*
%TO.N,Net-(U1-SW)*%
X67774474Y-117500000D02*
X69010000Y-116264474D01*
X69010000Y-116264474D02*
X69010000Y-115160000D01*
X66510000Y-118645000D02*
X66510000Y-117982501D01*
X66992501Y-117500000D02*
X67774474Y-117500000D01*
X66510000Y-117982501D02*
X66992501Y-117500000D01*
D57*
%TO.N,+USB_5V*%
X69675000Y-89455000D02*
X70500000Y-89455000D01*
D61*
X66860000Y-90075000D02*
X66860000Y-91885000D01*
D57*
X68950000Y-84800000D02*
X67625000Y-84800000D01*
X69675000Y-89455000D02*
X69520000Y-89300000D01*
X66860000Y-85565000D02*
X66860000Y-90075000D01*
X69520000Y-89300000D02*
X67635000Y-89300000D01*
X70700000Y-89655000D02*
X70700000Y-90325504D01*
X67635000Y-89300000D02*
X66860000Y-90075000D01*
D61*
X67235000Y-95600000D02*
X66860000Y-95975000D01*
X66910000Y-93675000D02*
X66860000Y-93725000D01*
D57*
X70700000Y-90325504D02*
X70954496Y-90580000D01*
X69675000Y-84655000D02*
X69095000Y-84655000D01*
D61*
X70650000Y-95600000D02*
X67235000Y-95600000D01*
D57*
X70500000Y-89455000D02*
X70700000Y-89655000D01*
D61*
X66860000Y-91885000D02*
X68650000Y-93675000D01*
D57*
X69095000Y-84655000D02*
X68950000Y-84800000D01*
X72395000Y-90580000D02*
X73180000Y-89795000D01*
X70954496Y-90580000D02*
X72395000Y-90580000D01*
D61*
X66860000Y-93725000D02*
X66860000Y-95975000D01*
D56*
X72425000Y-95625000D02*
X70675000Y-95625000D01*
D57*
X67625000Y-84800000D02*
X66860000Y-85565000D01*
D61*
X68650000Y-93675000D02*
X66910000Y-93675000D01*
D56*
X70675000Y-95625000D02*
X70650000Y-95600000D01*
D59*
%TO.N,+5V*%
X70660000Y-101310000D02*
X70500000Y-101150000D01*
X78810000Y-105050000D02*
X81200000Y-107440000D01*
D56*
X76390000Y-100060000D02*
X75740000Y-100060000D01*
D58*
X77090000Y-100460000D02*
X77090000Y-100160000D01*
X78000000Y-106275000D02*
X78000000Y-105660000D01*
D56*
X75600000Y-100200000D02*
X75600000Y-101900000D01*
D59*
X79545000Y-119050000D02*
X81805000Y-119050000D01*
D56*
X73902500Y-106230000D02*
X73902500Y-105902500D01*
X75600000Y-101900000D02*
X75950000Y-102250000D01*
X75740000Y-100060000D02*
X75600000Y-100200000D01*
D59*
X70660000Y-107485000D02*
X70660000Y-101310000D01*
D56*
X73902500Y-105902500D02*
X73050000Y-105050000D01*
D59*
X72670000Y-104671166D02*
X73048834Y-105050000D01*
X73800000Y-102250000D02*
X72670000Y-103380000D01*
D56*
X73050000Y-105050000D02*
X73048834Y-105050000D01*
D59*
X80420000Y-118175000D02*
X79545000Y-119050000D01*
D58*
X77090000Y-100160000D02*
X76990000Y-100060000D01*
D59*
X72670000Y-103380000D02*
X72670000Y-104671166D01*
D58*
X78000000Y-105660000D02*
X77390000Y-105050000D01*
X76990000Y-100060000D02*
X76390000Y-100060000D01*
D59*
X77390000Y-105050000D02*
X78810000Y-105050000D01*
X82590000Y-118265000D02*
X82590000Y-117800000D01*
X81200000Y-110910000D02*
X80420000Y-111690000D01*
X81805000Y-119050000D02*
X82590000Y-118265000D01*
D58*
X77190000Y-100560000D02*
X77090000Y-100460000D01*
D59*
X70660000Y-107485000D02*
X70660000Y-107810000D01*
D58*
X77790000Y-100560000D02*
X77190000Y-100560000D01*
D59*
X81200000Y-107440000D02*
X81200000Y-110910000D01*
X73048834Y-105050000D02*
X77390000Y-105050000D01*
X80420000Y-111690000D02*
X80420000Y-118175000D01*
D62*
%TO.N,+3V3*%
X78360000Y-72440000D02*
X83150000Y-72440000D01*
D63*
X77625000Y-75405000D02*
X77625000Y-74375000D01*
D59*
X81315000Y-121960000D02*
X79650000Y-121960000D01*
D56*
X81340000Y-101280000D02*
X81450000Y-101280000D01*
D63*
X79925000Y-77705000D02*
X79925000Y-97275000D01*
D58*
X115307500Y-86245000D02*
X113720000Y-86245000D01*
D56*
X77982500Y-94075000D02*
X77982500Y-94112500D01*
X73870000Y-74275000D02*
X73675000Y-74080000D01*
D62*
X79940000Y-97290000D02*
X79925000Y-97275000D01*
X79550000Y-99490000D02*
X79940000Y-99100000D01*
D56*
X80160000Y-97260000D02*
X80160000Y-97580000D01*
D59*
X105725000Y-85605000D02*
X105590000Y-85470000D01*
D56*
X80690000Y-97275000D02*
X80725000Y-97240000D01*
D58*
X115575000Y-86512500D02*
X115307500Y-86245000D01*
D59*
X81320000Y-121965000D02*
X81315000Y-121960000D01*
D56*
X77525000Y-74275000D02*
X73870000Y-74275000D01*
D59*
X81320000Y-123200000D02*
X81320000Y-121965000D01*
D62*
X79940000Y-99100000D02*
X79940000Y-97290000D01*
D56*
X79550000Y-99490000D02*
X81340000Y-101280000D01*
D63*
X77625000Y-75405000D02*
X79925000Y-77705000D01*
D56*
X77625000Y-74375000D02*
X77525000Y-74275000D01*
D59*
X79650000Y-121960000D02*
X79645000Y-121955000D01*
D58*
X115575000Y-87450000D02*
X115575000Y-86512500D01*
D56*
X79925000Y-97275000D02*
X80690000Y-97275000D01*
X77982500Y-94112500D02*
X79925000Y-96055000D01*
D59*
X113625000Y-87450000D02*
X113625000Y-85595000D01*
D58*
X113720000Y-86245000D02*
X113625000Y-86150000D01*
D56*
X79925000Y-96055000D02*
X79925000Y-97275000D01*
D62*
X77625000Y-73175000D02*
X78360000Y-72440000D01*
D59*
X105725000Y-87450000D02*
X105725000Y-85605000D01*
D63*
X77625000Y-74375000D02*
X77625000Y-73175000D01*
D56*
%TO.N,Net-(U3-EN)*%
X73675000Y-77450000D02*
X73550000Y-77450000D01*
X73675000Y-76520000D02*
X74420000Y-76520000D01*
X73675000Y-77450000D02*
X73675000Y-76520000D01*
X74420000Y-76520000D02*
X74430000Y-76510000D01*
X83150000Y-73710000D02*
X84420000Y-73710000D01*
X73550000Y-77450000D02*
X71525000Y-79475000D01*
X73675000Y-83450000D02*
X73675000Y-77450000D01*
X73675000Y-76520000D02*
X73675000Y-75730000D01*
%TO.N,Net-(C11-Pad1)*%
X76390000Y-88010000D02*
X76600000Y-87800000D01*
X74000000Y-88010000D02*
X76390000Y-88010000D01*
%TO.N,Net-(C13-Pad1)*%
X76410000Y-86110000D02*
X76600000Y-86300000D01*
X74000000Y-86110000D02*
X76410000Y-86110000D01*
D59*
%TO.N,Net-(IC3-REFIN{slash}REFOUT)*%
X117525000Y-86250000D02*
X116745000Y-85470000D01*
X117525000Y-87450000D02*
X117525000Y-86250000D01*
D57*
%TO.N,AIN1*%
X94275000Y-115030000D02*
X95160000Y-115030000D01*
X94985000Y-117325000D02*
X95190000Y-117120000D01*
X94325000Y-118080000D02*
X94325000Y-117325000D01*
X95160000Y-115030000D02*
X95190000Y-115060000D01*
X95190000Y-117120000D02*
X95190000Y-115060000D01*
X94325000Y-117325000D02*
X94985000Y-117325000D01*
X94325000Y-117325000D02*
X94325000Y-116555000D01*
%TO.N,AIN2*%
X97710714Y-118080000D02*
X97710714Y-117320000D01*
X98420000Y-117320000D02*
X98590000Y-117150000D01*
X97660714Y-115030000D02*
X98590000Y-115030000D01*
X98590000Y-117150000D02*
X98590000Y-115030000D01*
X97710714Y-117320000D02*
X98420000Y-117320000D01*
X97710714Y-117320000D02*
X97710714Y-116555000D01*
%TO.N,AIN3*%
X101096428Y-117320000D02*
X101096428Y-118080000D01*
X101096428Y-117320000D02*
X101790000Y-117320000D01*
X101930000Y-115030000D02*
X101960000Y-115000000D01*
X101790000Y-117320000D02*
X101960000Y-117150000D01*
X101046428Y-115030000D02*
X101930000Y-115030000D01*
X101096428Y-116555000D02*
X101096428Y-117320000D01*
X101960000Y-117150000D02*
X101960000Y-115000000D01*
%TO.N,AIN4*%
X104432142Y-115030000D02*
X105340000Y-115030000D01*
X105350000Y-117130000D02*
X105350000Y-115020000D01*
X105150000Y-117330000D02*
X105350000Y-117130000D01*
X104482142Y-116555000D02*
X104482142Y-117330000D01*
X104482142Y-117330000D02*
X104482142Y-118080000D01*
X104482142Y-117330000D02*
X105150000Y-117330000D01*
X105340000Y-115030000D02*
X105350000Y-115020000D01*
%TO.N,AIN5*%
X108560000Y-117320000D02*
X108740000Y-117140000D01*
X108740000Y-117140000D02*
X108740000Y-115040000D01*
X108730000Y-115030000D02*
X108740000Y-115040000D01*
X107867856Y-117320000D02*
X107867856Y-118080000D01*
X107867856Y-117320000D02*
X108560000Y-117320000D01*
X107817856Y-115030000D02*
X108730000Y-115030000D01*
X107867856Y-116555000D02*
X107867856Y-117320000D01*
%TO.N,AIN6*%
X111253570Y-117320000D02*
X111253570Y-116555000D01*
X112080000Y-115030000D02*
X112110000Y-115000000D01*
X112110000Y-117000000D02*
X112110000Y-115000000D01*
X111253570Y-118080000D02*
X111253570Y-117320000D01*
X111203570Y-115030000D02*
X112080000Y-115030000D01*
X111253570Y-117320000D02*
X111790000Y-117320000D01*
X111790000Y-117320000D02*
X112110000Y-117000000D01*
%TO.N,AIN7*%
X114639284Y-118080000D02*
X114639284Y-117330000D01*
X115310000Y-117340000D02*
X115490000Y-117160000D01*
X114639284Y-117330000D02*
X114639284Y-116555000D01*
X110590000Y-96700000D02*
X109625000Y-95735000D01*
X115480000Y-115030000D02*
X115490000Y-115020000D01*
X115510000Y-97940000D02*
X114270000Y-96700000D01*
X114589284Y-115030000D02*
X115480000Y-115030000D01*
X115490000Y-117160000D02*
X115490000Y-115020000D01*
X114270000Y-96700000D02*
X110590000Y-96700000D01*
X114639284Y-117330000D02*
X115300000Y-117330000D01*
X109625000Y-95735000D02*
X109625000Y-93326000D01*
X115510000Y-113980000D02*
X115510000Y-97940000D01*
X115300000Y-117330000D02*
X115310000Y-117340000D01*
%TO.N,AIN8*%
X118025000Y-118080000D02*
X118025000Y-117350000D01*
X118880000Y-115030000D02*
X118890000Y-115040000D01*
X118025000Y-117350000D02*
X118600000Y-117350000D01*
X118890000Y-117060000D02*
X118890000Y-115040000D01*
X118025000Y-117350000D02*
X118025000Y-116555000D01*
X117975000Y-115030000D02*
X118880000Y-115030000D01*
X118600000Y-117350000D02*
X118890000Y-117060000D01*
%TO.N,AIN9*%
X92725000Y-104980000D02*
X93460000Y-104245000D01*
X93460000Y-104245000D02*
X93460000Y-102700000D01*
X93430000Y-102700000D02*
X92675000Y-103455000D01*
X92690000Y-101930000D02*
X92675000Y-101930000D01*
X93460000Y-102700000D02*
X92690000Y-101930000D01*
X113625000Y-93326000D02*
X113625000Y-94630000D01*
X93460000Y-102700000D02*
X93430000Y-102700000D01*
%TO.N,AIN10*%
X96060714Y-101930000D02*
X96080000Y-101930000D01*
X96860000Y-104220000D02*
X96860000Y-102710000D01*
X96060714Y-103455000D02*
X96115000Y-103455000D01*
X114275000Y-93326000D02*
X114275000Y-95240000D01*
X96110714Y-104969286D02*
X96860000Y-104220000D01*
X96115000Y-103455000D02*
X96860000Y-102710000D01*
X96110714Y-104980000D02*
X96110714Y-104969286D01*
X96080000Y-101930000D02*
X96860000Y-102710000D01*
D56*
%TO.N,CAN1_L*%
X91375000Y-123380000D02*
X91430000Y-123380000D01*
X88240000Y-120985000D02*
X88980000Y-120985000D01*
X91430000Y-123380000D02*
X92850000Y-124800000D01*
X92850000Y-124800000D02*
X97530000Y-124800000D01*
X97530000Y-124800000D02*
X100900000Y-128170000D01*
X88980000Y-120985000D02*
X91375000Y-123380000D01*
X82590000Y-123200000D02*
X82590000Y-121960000D01*
D57*
%TO.N,INPUT7*%
X113814284Y-118905000D02*
X112989284Y-118080000D01*
X113814284Y-121635000D02*
X113814284Y-118905000D01*
%TO.N,INPUT5*%
X107042856Y-118905000D02*
X106217856Y-118080000D01*
X107042856Y-121635000D02*
X107042856Y-118905000D01*
%TO.N,INPUT6*%
X110428570Y-121635000D02*
X110428570Y-118905000D01*
X110428570Y-118905000D02*
X109603570Y-118080000D01*
%TO.N,INPUT2*%
X96060714Y-118080000D02*
X96890000Y-118909286D01*
X96890000Y-118909286D02*
X96890000Y-121630714D01*
X96890000Y-121630714D02*
X96885714Y-121635000D01*
%TO.N,INPUT9*%
X93500000Y-101105000D02*
X94325000Y-101930000D01*
X93500000Y-98365000D02*
X93500000Y-101105000D01*
%TO.N,INPUT4*%
X103657142Y-121635000D02*
X103657142Y-118905000D01*
X103657142Y-118905000D02*
X102832142Y-118080000D01*
%TO.N,INPUT10*%
X96885714Y-98365000D02*
X96885714Y-101105000D01*
X96885714Y-101105000D02*
X97710714Y-101930000D01*
%TO.N,INPUT8*%
X117200000Y-121635000D02*
X117200000Y-118905000D01*
X117200000Y-118905000D02*
X116375000Y-118080000D01*
%TO.N,INPUT1*%
X93500000Y-121635000D02*
X93500000Y-118905000D01*
X93500000Y-118905000D02*
X92675000Y-118080000D01*
%TO.N,INPUT3*%
X100290000Y-118923572D02*
X100290000Y-121616428D01*
X99446428Y-118080000D02*
X100290000Y-118923572D01*
X100290000Y-121616428D02*
X100271428Y-121635000D01*
D56*
%TO.N,CAN1_H*%
X87065000Y-120970000D02*
X87080000Y-120985000D01*
X83860000Y-123200000D02*
X83860000Y-121340000D01*
X83860000Y-121340000D02*
X84230000Y-120970000D01*
X84230000Y-120970000D02*
X87065000Y-120970000D01*
%TO.N,Net-(CONN2-CC1)*%
X71570000Y-84735000D02*
X71570000Y-84375000D01*
X69675000Y-85805000D02*
X70500000Y-85805000D01*
X70500000Y-85805000D02*
X71570000Y-84735000D01*
%TO.N,Net-(CONN2-CC2)*%
X69675000Y-88805000D02*
X70605000Y-88805000D01*
X70605000Y-88805000D02*
X71540000Y-89740000D01*
%TO.N,CAN1_TX*%
X83070000Y-110524925D02*
X83070000Y-115235000D01*
X85130000Y-117800000D02*
X85130000Y-117375000D01*
X85450000Y-108144925D02*
X83070000Y-110524925D01*
X85130000Y-117295000D02*
X85130000Y-117800000D01*
X83070000Y-115235000D02*
X85130000Y-117295000D01*
X85450000Y-94105000D02*
X85450000Y-108144925D01*
X89995000Y-88930000D02*
X89995000Y-89560000D01*
X89995000Y-89560000D02*
X85450000Y-94105000D01*
%TO.N,CAN1_RX*%
X81320000Y-114926824D02*
X81320000Y-115046824D01*
X82062433Y-114326824D02*
X82062433Y-114446824D01*
X88725000Y-88930000D02*
X88725000Y-90122894D01*
X81320000Y-115046824D02*
X81320000Y-115671435D01*
X81320000Y-111567818D02*
X81320000Y-113846824D01*
X84950000Y-107937818D02*
X81320000Y-111567818D01*
X81560000Y-114086824D02*
X81822433Y-114086824D01*
X81320000Y-115671435D02*
X81320000Y-117800000D01*
X81822433Y-114686824D02*
X81560000Y-114686824D01*
X88725000Y-90122894D02*
X84950000Y-93897894D01*
X84950000Y-93897894D02*
X84950000Y-107937818D01*
X81822433Y-114086824D02*
G75*
G02*
X82062376Y-114326824I-33J-239976D01*
G01*
X81320000Y-113846824D02*
G75*
G03*
X81560000Y-114086800I240000J24D01*
G01*
X81560000Y-114686824D02*
G75*
G03*
X81320024Y-114926824I0J-239976D01*
G01*
X82062433Y-114446824D02*
G75*
G02*
X81822433Y-114686833I-240033J24D01*
G01*
%TO.N,Net-(LED1-K)*%
X74300000Y-94075000D02*
X74075000Y-93850000D01*
X76107500Y-94075000D02*
X74300000Y-94075000D01*
D59*
%TO.N,Net-(IC2-REFIN{slash}REFOUT)*%
X108825000Y-85470000D02*
X109625000Y-86270000D01*
X109625000Y-86270000D02*
X109625000Y-87450000D01*
D58*
%TO.N,Net-(U1-BOOT)*%
X65325000Y-116135000D02*
X65560000Y-116370000D01*
D56*
X63860000Y-116135000D02*
X65325000Y-116135000D01*
D58*
%TO.N,Net-(U1-FB)*%
X67435000Y-114535000D02*
X67460000Y-114560000D01*
X66510000Y-114535000D02*
X67435000Y-114535000D01*
X67460000Y-113835000D02*
X67460000Y-114560000D01*
X66510000Y-112885000D02*
X67460000Y-113835000D01*
X67460000Y-114560000D02*
X67460000Y-116370000D01*
D56*
%TO.N,Net-(R6-Pad1)*%
X109555000Y-74145000D02*
X108505000Y-73095000D01*
X109555000Y-74220000D02*
X109555000Y-80220000D01*
X109555000Y-74220000D02*
X109555000Y-74145000D01*
X108505000Y-73095000D02*
X108505000Y-72550000D01*
%TO.N,Net-(U3-IO38)*%
X74075000Y-95985000D02*
X74580000Y-96490000D01*
X74580000Y-96490000D02*
X74075000Y-96995000D01*
X74075000Y-95625000D02*
X74075000Y-95985000D01*
X74075000Y-96995000D02*
X74075000Y-97350000D01*
%TO.N,Net-(U3-USB_D+)*%
X84399999Y-87684241D02*
X83154241Y-87684241D01*
%TO.N,Net-(U3-USB_D-)*%
X84399999Y-86410000D02*
X83150000Y-86410000D01*
D57*
%TO.N,AIN11*%
X99446428Y-101936428D02*
X100220000Y-102710000D01*
X100220000Y-104250000D02*
X100220000Y-102710000D01*
X99446428Y-103455000D02*
X99475000Y-103455000D01*
X99446428Y-101930000D02*
X99446428Y-101936428D01*
X99475000Y-103455000D02*
X100220000Y-102710000D01*
X99496428Y-104980000D02*
X99496428Y-104973572D01*
X114925000Y-93326000D02*
X114925000Y-94630000D01*
X99496428Y-104973572D02*
X100220000Y-104250000D01*
%TO.N,AIN12*%
X102832142Y-101930000D02*
X102850000Y-101930000D01*
X102882142Y-104977858D02*
X103620000Y-104240000D01*
X102850000Y-101930000D02*
X103620000Y-102700000D01*
X102865000Y-103455000D02*
X103620000Y-102700000D01*
X102882142Y-104980000D02*
X102882142Y-104977858D01*
X102832142Y-103455000D02*
X102865000Y-103455000D01*
X115575000Y-93326000D02*
X115575000Y-95240000D01*
X103620000Y-104240000D02*
X103620000Y-102700000D01*
%TO.N,AIN13*%
X106217856Y-103455000D02*
X106255000Y-103455000D01*
X106240000Y-101930000D02*
X107010000Y-102700000D01*
X106290000Y-104980000D02*
X107010000Y-104260000D01*
X106267856Y-104980000D02*
X106290000Y-104980000D01*
X106217856Y-101930000D02*
X106240000Y-101930000D01*
X106255000Y-103455000D02*
X107010000Y-102700000D01*
X107010000Y-104260000D02*
X107010000Y-102700000D01*
X116225000Y-93326000D02*
X116225000Y-94630000D01*
D56*
%TO.N,Net-(U3-IO0)*%
X105805000Y-74220000D02*
X105805000Y-83055000D01*
X105805000Y-83055000D02*
X101180000Y-87680000D01*
X101180000Y-87680000D02*
X100650000Y-87680000D01*
D59*
%TO.N,+5VP*%
X75070000Y-113445000D02*
X75070000Y-114240000D01*
X69310000Y-108460000D02*
X68285000Y-108460000D01*
X70460000Y-110960000D02*
X72585000Y-110960000D01*
X72585000Y-110960000D02*
X75070000Y-113445000D01*
X69310000Y-108460000D02*
X69960000Y-107810000D01*
D58*
X78650000Y-110000000D02*
X77690000Y-110960000D01*
D59*
X69460000Y-111960000D02*
X70460000Y-110960000D01*
X68285000Y-108460000D02*
X66860000Y-107035000D01*
X69960000Y-107810000D02*
X69960000Y-107485000D01*
D58*
X77690000Y-110960000D02*
X72585000Y-110960000D01*
D57*
%TO.N,AIN14*%
X116875000Y-93326000D02*
X116875000Y-95240000D01*
X110400000Y-104040000D02*
X110400000Y-102690000D01*
X109653570Y-104980000D02*
X109690000Y-104980000D01*
X110390000Y-104280000D02*
X110390000Y-104050000D01*
X109603570Y-101930000D02*
X109640000Y-101930000D01*
X109640000Y-101930000D02*
X110400000Y-102690000D01*
X109690000Y-104980000D02*
X110390000Y-104280000D01*
X109635000Y-103455000D02*
X110400000Y-102690000D01*
X110390000Y-104050000D02*
X110400000Y-104040000D01*
X109603570Y-103455000D02*
X109635000Y-103455000D01*
%TO.N,AIN15*%
X112989284Y-103455000D02*
X113035000Y-103455000D01*
X117525000Y-93326000D02*
X117525000Y-94630000D01*
X113040000Y-101930000D02*
X113800000Y-102690000D01*
X113035000Y-103455000D02*
X113800000Y-102690000D01*
X112989284Y-101930000D02*
X113040000Y-101930000D01*
X113800000Y-104240000D02*
X113800000Y-102690000D01*
X113060000Y-104980000D02*
X113800000Y-104240000D01*
X113039284Y-104980000D02*
X113060000Y-104980000D01*
D56*
%TO.N,Net-(CONN2-D+-PadA6)*%
X68695000Y-86805000D02*
X68530000Y-86640000D01*
X71520000Y-87805000D02*
X71725000Y-88010000D01*
X71725000Y-88632301D02*
X71725000Y-88010000D01*
X69675000Y-87805000D02*
X71520000Y-87805000D01*
X71945425Y-88852726D02*
X71725000Y-88632301D01*
X69675000Y-86805000D02*
X68695000Y-86805000D01*
%TO.N,Net-(CONN2-D--PadA7)*%
X71725000Y-86110000D02*
X71725000Y-85635000D01*
X68159947Y-85930730D02*
X67880000Y-86210677D01*
X71725000Y-85635000D02*
X71890000Y-85470000D01*
X67880000Y-86920000D02*
X68265000Y-87305000D01*
X68265000Y-87305000D02*
X69675000Y-87305000D01*
X69675000Y-86305000D02*
X71530000Y-86305000D01*
X67880000Y-86210677D02*
X67880000Y-86920000D01*
X71530000Y-86305000D02*
X71725000Y-86110000D01*
D57*
%TO.N,AIN16*%
X116375000Y-103455000D02*
X116425000Y-103455000D01*
X116425000Y-104980000D02*
X116480000Y-104980000D01*
X116480000Y-104980000D02*
X117170000Y-104290000D01*
X118175000Y-93326000D02*
X118175000Y-95240000D01*
X116390000Y-101930000D02*
X117170000Y-102710000D01*
X117170000Y-104290000D02*
X117170000Y-102710000D01*
X116425000Y-103455000D02*
X117170000Y-102710000D01*
X116375000Y-101930000D02*
X116390000Y-101930000D01*
D59*
%TO.N,Net-(IC4-OUT)*%
X69960000Y-105810000D02*
X68935000Y-104785000D01*
D61*
X66860000Y-102585000D02*
X66860000Y-98200000D01*
X66860000Y-98200000D02*
X68750000Y-98200000D01*
D59*
X69960000Y-106135000D02*
X69960000Y-105810000D01*
X68935000Y-104785000D02*
X66860000Y-104785000D01*
D61*
X66860000Y-104785000D02*
X66860000Y-102585000D01*
D58*
%TO.N,Net-(IC5-SS)*%
X72460000Y-106994314D02*
X72460000Y-107319314D01*
X72790686Y-107650000D02*
X74600000Y-107650000D01*
X72025686Y-106560000D02*
X72460000Y-106994314D01*
X72460000Y-107319314D02*
X72790686Y-107650000D01*
X74600000Y-107650000D02*
X75350000Y-108400000D01*
X71460000Y-106560000D02*
X72025686Y-106560000D01*
D57*
%TO.N,INPUT11*%
X100271428Y-98365000D02*
X100271428Y-101105000D01*
X100271428Y-101105000D02*
X101096428Y-101930000D01*
%TO.N,INPUT12*%
X103657142Y-101105000D02*
X104482142Y-101930000D01*
X103657142Y-98365000D02*
X103657142Y-101105000D01*
%TO.N,INPUT13*%
X107042856Y-101105000D02*
X107867856Y-101930000D01*
X107042856Y-98365000D02*
X107042856Y-101105000D01*
%TO.N,INPUT15*%
X113814284Y-98365000D02*
X113814284Y-101105000D01*
X113814284Y-101105000D02*
X114639284Y-101930000D01*
D58*
%TO.N,SDA*%
X114275000Y-87450000D02*
X114275000Y-89585000D01*
X106375000Y-87450000D02*
X106375000Y-88785000D01*
X113790000Y-90070000D02*
X105090000Y-90070000D01*
X91265000Y-90180000D02*
X91265000Y-88930000D01*
X104140000Y-91020000D02*
X104140000Y-92008000D01*
X106375000Y-88785000D02*
X105040000Y-90120000D01*
X104140000Y-92008000D02*
X104140000Y-92720000D01*
X105090000Y-90070000D02*
X105040000Y-90120000D01*
X114275000Y-89585000D02*
X113790000Y-90070000D01*
X105040000Y-90120000D02*
X104140000Y-91020000D01*
%TO.N,SCL*%
X114925000Y-87450000D02*
X114925000Y-89470000D01*
X107025000Y-87450000D02*
X107025000Y-89470000D01*
X92535000Y-90180000D02*
X92535000Y-88930000D01*
X102390000Y-91320000D02*
X102390000Y-92008000D01*
%TO.N,Net-(IC4-ISET)*%
X73250000Y-98200000D02*
X74075000Y-99025000D01*
X70650000Y-98200000D02*
X73250000Y-98200000D01*
%TO.N,Net-(IC5-ILIM)*%
X72650000Y-108075000D02*
X72060000Y-107485000D01*
X73400000Y-108075000D02*
X72650000Y-108075000D01*
X71960000Y-107060000D02*
X71460000Y-107060000D01*
X72060000Y-107485000D02*
X72060000Y-107160000D01*
X72060000Y-107160000D02*
X71960000Y-107060000D01*
X73675000Y-108350000D02*
X73400000Y-108075000D01*
D56*
%TO.N,Net-(IC6-SW)*%
X75740000Y-99560000D02*
X75430000Y-99250000D01*
X76390000Y-99560000D02*
X75740000Y-99560000D01*
X75430000Y-97290000D02*
X75950000Y-96770000D01*
X75430000Y-99250000D02*
X75430000Y-97290000D01*
%TO.N,Net-(IC6-FB)*%
X78390000Y-100060000D02*
X77790000Y-100060000D01*
X78610000Y-101870000D02*
X77880000Y-102600000D01*
X78610000Y-101995000D02*
X78610000Y-100800000D01*
X78610000Y-100280000D02*
X78390000Y-100060000D01*
X78610000Y-100800000D02*
X78610000Y-100280000D01*
X78610000Y-100800000D02*
X78610000Y-101870000D01*
X79550000Y-102935000D02*
X78610000Y-101995000D01*
%TO.N,Net-(LED3-K)*%
X77000000Y-108350000D02*
X77000000Y-107452500D01*
X77000000Y-107452500D02*
X75777500Y-106230000D01*
D58*
%TO.N,Net-(R2-Pad1)*%
X64860000Y-111185000D02*
X64860000Y-112885000D01*
D56*
%TO.N,Net-(R5-Pad2)*%
X81195000Y-102930000D02*
X79550000Y-101285000D01*
X81450000Y-102930000D02*
X81195000Y-102930000D01*
%TO.N,VMON*%
X83500000Y-103475000D02*
X83500000Y-91052106D01*
X83500000Y-91052106D02*
X84252106Y-90300000D01*
X86715000Y-90300000D02*
X87455000Y-89560000D01*
X87455000Y-89560000D02*
X87455000Y-88930000D01*
X84252106Y-90300000D02*
X86715000Y-90300000D01*
X65685000Y-122410000D02*
X65685000Y-120610000D01*
X83525000Y-103500000D02*
X83500000Y-103475000D01*
%TO.N,Net-(U3-IO3)*%
X78650000Y-108350000D02*
X79500000Y-108350000D01*
X83000000Y-103105761D02*
X82870000Y-103235761D01*
X83000000Y-90844999D02*
X83000000Y-103105761D01*
X83292893Y-90552106D02*
X83000000Y-90844999D01*
X79500000Y-108350000D02*
X80325000Y-108350000D01*
X84915000Y-88930000D02*
X83292893Y-90552106D01*
X82870000Y-103235761D02*
X82870000Y-104150000D01*
D64*
%TO.N,+5VF*%
X79197500Y-125372500D02*
X86102500Y-125372500D01*
X79197500Y-125372500D02*
X78010000Y-124185000D01*
X86102500Y-125372500D02*
X88065000Y-127335000D01*
X88065000Y-130005000D02*
X88065000Y-129005000D01*
X78010000Y-124000000D02*
X78020000Y-123990000D01*
X88065000Y-129005000D02*
X88900000Y-128170000D01*
X78010000Y-124185000D02*
X78010000Y-124000000D01*
X88900000Y-128170000D02*
X91900000Y-128170000D01*
X88065000Y-127335000D02*
X88900000Y-128170000D01*
X88065000Y-130005000D02*
X87400000Y-130670000D01*
X78020000Y-123990000D02*
X78020000Y-114240000D01*
%TD*%
%TA.AperFunction,Conductor*%
%TO.N,+5V*%
G36*
X72702955Y-100426547D02*
G01*
X72829235Y-100446683D01*
X72866343Y-100458826D01*
X72971252Y-100512695D01*
X73002746Y-100535780D01*
X73092696Y-100626678D01*
X73105330Y-100641645D01*
X73748881Y-101539231D01*
X73748886Y-101539236D01*
X73900000Y-101750000D01*
X74956845Y-101741337D01*
X75116239Y-101740030D01*
X75116415Y-101740029D01*
X75119584Y-101740014D01*
X75120410Y-101740014D01*
X75121001Y-101740015D01*
X75123660Y-101740023D01*
X75123659Y-101740120D01*
X75124104Y-101740025D01*
X76175108Y-101746763D01*
X76191219Y-101747918D01*
X76259403Y-101757302D01*
X76295883Y-101762323D01*
X76326977Y-101770833D01*
X76371918Y-101789702D01*
X76416857Y-101808571D01*
X76444706Y-101824809D01*
X76521825Y-101884443D01*
X76544549Y-101907313D01*
X76603682Y-101984805D01*
X76619742Y-102012759D01*
X76656903Y-102102881D01*
X76665214Y-102134030D01*
X76678092Y-102232254D01*
X76678083Y-102264560D01*
X76665093Y-102363224D01*
X76656715Y-102394491D01*
X76619259Y-102484918D01*
X76603074Y-102512951D01*
X76543491Y-102590601D01*
X76520601Y-102613491D01*
X76442951Y-102673074D01*
X76414918Y-102689259D01*
X76324491Y-102726715D01*
X76293224Y-102735093D01*
X76199398Y-102747446D01*
X76188058Y-102748939D01*
X76171874Y-102750000D01*
X73392823Y-102750000D01*
X73382101Y-102749536D01*
X73312023Y-102743454D01*
X73290903Y-102739759D01*
X73265325Y-102732963D01*
X73222932Y-102721698D01*
X73212691Y-102718496D01*
X70957274Y-101904686D01*
X70957263Y-101904682D01*
X70957256Y-101904680D01*
X70875000Y-101875000D01*
X70787553Y-101875000D01*
X70787551Y-101875000D01*
X70447257Y-101875000D01*
X70427859Y-101873473D01*
X70396209Y-101868460D01*
X70321703Y-101856659D01*
X70284808Y-101844671D01*
X70197842Y-101800360D01*
X70166455Y-101777556D01*
X70097443Y-101708544D01*
X70074639Y-101677157D01*
X70030328Y-101590191D01*
X70018340Y-101553295D01*
X70001527Y-101447141D01*
X70000000Y-101427743D01*
X70000000Y-100933125D01*
X70001061Y-100916940D01*
X70014906Y-100811776D01*
X70023284Y-100780508D01*
X70060740Y-100690081D01*
X70076923Y-100662050D01*
X70136513Y-100584392D01*
X70159392Y-100561513D01*
X70237050Y-100501923D01*
X70265079Y-100485740D01*
X70355509Y-100448283D01*
X70386775Y-100439906D01*
X70491941Y-100426061D01*
X70508126Y-100425000D01*
X72683429Y-100425000D01*
X72702955Y-100426547D01*
G37*
%TD.AperFunction*%
%TD*%
%TA.AperFunction,Conductor*%
%TO.N,+5VP*%
G36*
X66973224Y-106324906D02*
G01*
X67004491Y-106333284D01*
X67094918Y-106370740D01*
X67122952Y-106386925D01*
X67200602Y-106446509D01*
X67223491Y-106469398D01*
X67283074Y-106547048D01*
X67299259Y-106575081D01*
X67336715Y-106665508D01*
X67345093Y-106696775D01*
X67358939Y-106801939D01*
X67360000Y-106818125D01*
X67360000Y-108510000D01*
X67406808Y-108610425D01*
X67406810Y-108610430D01*
X68024195Y-109935000D01*
X68735000Y-111460000D01*
X71793994Y-111460000D01*
X71811610Y-111461258D01*
X71925855Y-111477654D01*
X71959661Y-111487562D01*
X72056549Y-111531721D01*
X72086207Y-111550740D01*
X72166762Y-111620365D01*
X72189874Y-111646956D01*
X72247594Y-111736423D01*
X72262295Y-111768442D01*
X72295063Y-111879113D01*
X72298857Y-111896357D01*
X72423649Y-112749103D01*
X72529405Y-113471770D01*
X72529976Y-113476237D01*
X72533190Y-113505610D01*
X72533844Y-113514593D01*
X72534918Y-113544133D01*
X72535000Y-113548638D01*
X72535000Y-116325243D01*
X72533473Y-116344641D01*
X72514824Y-116462383D01*
X72502836Y-116499280D01*
X72453198Y-116596700D01*
X72430394Y-116628086D01*
X72353086Y-116705394D01*
X72321700Y-116728198D01*
X72224280Y-116777836D01*
X72187383Y-116789824D01*
X72079398Y-116806927D01*
X72040602Y-116806927D01*
X71932616Y-116789824D01*
X71895719Y-116777836D01*
X71798299Y-116728198D01*
X71766913Y-116705394D01*
X71689605Y-116628086D01*
X71666801Y-116596700D01*
X71617163Y-116499280D01*
X71605175Y-116462382D01*
X71586527Y-116344640D01*
X71585000Y-116325243D01*
X71585000Y-113759998D01*
X71585000Y-113510000D01*
X70185000Y-112460000D01*
X70018333Y-112460000D01*
X70018332Y-112460000D01*
X68896955Y-112460000D01*
X68886900Y-112459591D01*
X68874923Y-112458616D01*
X68821139Y-112454239D01*
X68801289Y-112450987D01*
X68737242Y-112435069D01*
X68727579Y-112432246D01*
X68566160Y-112377890D01*
X66709595Y-111752720D01*
X66691858Y-111745164D01*
X66580152Y-111686930D01*
X66549211Y-111664070D01*
X66467607Y-111581372D01*
X66445161Y-111550130D01*
X66413596Y-111487563D01*
X66392830Y-111446403D01*
X66381041Y-111409786D01*
X66361501Y-111285339D01*
X66360000Y-111266105D01*
X66360000Y-106818125D01*
X66361061Y-106801940D01*
X66374906Y-106696776D01*
X66383284Y-106665508D01*
X66420740Y-106575081D01*
X66436923Y-106547050D01*
X66496513Y-106469392D01*
X66519392Y-106446513D01*
X66597050Y-106386923D01*
X66625079Y-106370740D01*
X66715509Y-106333283D01*
X66746773Y-106324906D01*
X66843821Y-106312130D01*
X66876179Y-106312130D01*
X66973224Y-106324906D01*
G37*
%TD.AperFunction*%
%TD*%
%TA.AperFunction,Conductor*%
%TO.N,+3V3*%
G36*
X78238059Y-95661061D02*
G01*
X78343223Y-95674906D01*
X78374491Y-95683284D01*
X78464918Y-95720740D01*
X78492952Y-95736925D01*
X78570602Y-95796509D01*
X78593491Y-95819398D01*
X78653074Y-95897048D01*
X78669259Y-95925081D01*
X78706715Y-96015508D01*
X78715093Y-96046775D01*
X78728939Y-96151939D01*
X78730000Y-96168125D01*
X78730000Y-97850000D01*
X78804966Y-97970998D01*
X78804972Y-97971009D01*
X79185736Y-98585576D01*
X79185743Y-98585586D01*
X79300000Y-98770000D01*
X79666055Y-98843211D01*
X79683586Y-98848079D01*
X79729555Y-98864560D01*
X79774437Y-98880653D01*
X79806441Y-98897771D01*
X79876562Y-98949765D01*
X79902238Y-98975415D01*
X79954300Y-99045482D01*
X79971450Y-99077470D01*
X80000992Y-99159607D01*
X80008145Y-99195189D01*
X80013115Y-99291578D01*
X80012717Y-99309770D01*
X79982520Y-99625462D01*
X79979164Y-99644582D01*
X79952347Y-99748705D01*
X79936962Y-99784222D01*
X79884625Y-99866689D01*
X79859038Y-99895732D01*
X79783828Y-99958042D01*
X79750535Y-99977781D01*
X79691913Y-100001089D01*
X79659772Y-100013869D01*
X79622014Y-100022381D01*
X79514714Y-100029367D01*
X79495304Y-100029108D01*
X79333951Y-100014271D01*
X79314740Y-100010966D01*
X79191409Y-99979598D01*
X79155712Y-99964235D01*
X79056514Y-99901521D01*
X79027324Y-99875862D01*
X78946091Y-99777900D01*
X78934871Y-99761969D01*
X78666901Y-99309770D01*
X78519012Y-99060207D01*
X78110000Y-98370000D01*
X78035160Y-98311791D01*
X78013071Y-98294611D01*
X77680461Y-98035912D01*
X77666551Y-98023291D01*
X77582204Y-97934214D01*
X77560852Y-97903436D01*
X77511137Y-97801787D01*
X77499953Y-97766041D01*
X77481423Y-97644770D01*
X77480000Y-97626040D01*
X77480000Y-96168125D01*
X77481061Y-96151940D01*
X77494906Y-96046776D01*
X77503284Y-96015508D01*
X77540740Y-95925081D01*
X77556923Y-95897050D01*
X77616513Y-95819392D01*
X77639392Y-95796513D01*
X77717050Y-95736923D01*
X77745079Y-95720740D01*
X77835509Y-95683283D01*
X77866775Y-95674906D01*
X77971941Y-95661061D01*
X77988126Y-95660000D01*
X78221874Y-95660000D01*
X78238059Y-95661061D01*
G37*
%TD.AperFunction*%
%TD*%
%TA.AperFunction,Conductor*%
%TO.N,+12V*%
G36*
X69535343Y-117951573D02*
G01*
X69593982Y-117955489D01*
X69627086Y-117962316D01*
X69723430Y-117996413D01*
X69753455Y-118011925D01*
X69808844Y-118050939D01*
X69837003Y-118070772D01*
X69861730Y-118093825D01*
X69926281Y-118173050D01*
X69943862Y-118201923D01*
X69984613Y-118295627D01*
X69993744Y-118328176D01*
X70008843Y-118437908D01*
X70010000Y-118454811D01*
X70010000Y-123785000D01*
X70359431Y-123895346D01*
X70359434Y-123895348D01*
X70786014Y-124030057D01*
X70960000Y-124085000D01*
X71363363Y-124080197D01*
X73141469Y-124059030D01*
X73407952Y-124055858D01*
X73407953Y-124055857D01*
X73900000Y-124050000D01*
X73907922Y-122096880D01*
X73909058Y-122080643D01*
X73923465Y-121975040D01*
X73932046Y-121943678D01*
X73970219Y-121853042D01*
X73986657Y-121824995D01*
X74047084Y-121747401D01*
X74070252Y-121724591D01*
X74148772Y-121665381D01*
X74177071Y-121649380D01*
X74268297Y-121612619D01*
X74299779Y-121604528D01*
X74405603Y-121591766D01*
X74421850Y-121590883D01*
X75582683Y-121604226D01*
X75598731Y-121605455D01*
X75702990Y-121620301D01*
X75733941Y-121628912D01*
X75823396Y-121666873D01*
X75851096Y-121683149D01*
X75927793Y-121742822D01*
X75950378Y-121765668D01*
X76009163Y-121843042D01*
X76025123Y-121870932D01*
X76062051Y-121960813D01*
X76070309Y-121991869D01*
X76083955Y-122096288D01*
X76085000Y-122112356D01*
X76085000Y-123785000D01*
X76219921Y-123929178D01*
X76219924Y-123929182D01*
X76219925Y-123929183D01*
X76365738Y-124085000D01*
X79000000Y-126900000D01*
X83491874Y-126900000D01*
X83508059Y-126901061D01*
X83613223Y-126914906D01*
X83644491Y-126923284D01*
X83734918Y-126960740D01*
X83762952Y-126976925D01*
X83840602Y-127036509D01*
X83863491Y-127059398D01*
X83923074Y-127137048D01*
X83939259Y-127165081D01*
X83976715Y-127255508D01*
X83985093Y-127286775D01*
X83998939Y-127391939D01*
X84000000Y-127408125D01*
X84000000Y-128891874D01*
X83998939Y-128908060D01*
X83985093Y-129013224D01*
X83976715Y-129044491D01*
X83939259Y-129134918D01*
X83923074Y-129162951D01*
X83863491Y-129240601D01*
X83840601Y-129263491D01*
X83762951Y-129323074D01*
X83734918Y-129339259D01*
X83644491Y-129376715D01*
X83613224Y-129385093D01*
X83519398Y-129397446D01*
X83508058Y-129398939D01*
X83491874Y-129400000D01*
X74112629Y-129400000D01*
X74096620Y-129398962D01*
X74096443Y-129398939D01*
X74088970Y-129397966D01*
X73992578Y-129385416D01*
X73961627Y-129377218D01*
X73872020Y-129340552D01*
X73844200Y-129324702D01*
X73760503Y-129261426D01*
X73748359Y-129250944D01*
X68190360Y-123787711D01*
X68179452Y-123775469D01*
X68113569Y-123690871D01*
X68097045Y-123662626D01*
X68058792Y-123571386D01*
X68050232Y-123539802D01*
X68036084Y-123433513D01*
X68035000Y-123417152D01*
X68035000Y-121754722D01*
X68035000Y-121485000D01*
X67809586Y-121336871D01*
X67809583Y-121336868D01*
X67393978Y-121063757D01*
X67377893Y-121051175D01*
X67280033Y-120960686D01*
X67255087Y-120928516D01*
X67196744Y-120820364D01*
X67183559Y-120781847D01*
X67161682Y-120650382D01*
X67160000Y-120630027D01*
X67160000Y-118585463D01*
X67161394Y-118566924D01*
X67179550Y-118446852D01*
X67190512Y-118411432D01*
X67239257Y-118310577D01*
X67260197Y-118279988D01*
X67336585Y-118198052D01*
X67365636Y-118175020D01*
X67462825Y-118119337D01*
X67497387Y-118105922D01*
X67615909Y-118079402D01*
X67634291Y-118076716D01*
X69466533Y-117948137D01*
X69483473Y-117948110D01*
X69535343Y-117951573D01*
G37*
%TD.AperFunction*%
%TD*%
D65*
X93400000Y-141145000D03*
X90400000Y-140520000D03*
X87400000Y-139895000D03*
X84400000Y-139275000D03*
X96400000Y-138025000D03*
X109105000Y-133041652D03*
X82900000Y-138650000D03*
X85900000Y-139275000D03*
X88900000Y-139895000D03*
X91900000Y-140520000D03*
X94900000Y-141145000D03*
X97900000Y-141770000D03*
D66*
X103260000Y-93658000D03*
X112650000Y-85470000D03*
X104760000Y-85470000D03*
X72000000Y-109100000D03*
X76525000Y-73175000D03*
X72537500Y-92475000D03*
X84650000Y-71170000D03*
X63775000Y-102006992D03*
X79330000Y-116660000D03*
X63775000Y-93375000D03*
X99125000Y-71170000D03*
X78750000Y-104250000D03*
X85662500Y-71170000D03*
X86180000Y-123200000D03*
X81825000Y-96125000D03*
X104075000Y-71170000D03*
X76980000Y-98310000D03*
X68150000Y-107075000D03*
X71525000Y-81900000D03*
X75275000Y-103425000D03*
X93500000Y-113750000D03*
X97225000Y-71170000D03*
X108325000Y-88790000D03*
X110428570Y-106260000D03*
X63775000Y-105243989D03*
X63775000Y-108480986D03*
X67335000Y-123400000D03*
X93500000Y-106260000D03*
X63775000Y-104164990D03*
X63775000Y-96611997D03*
X113814284Y-106260000D03*
X117200000Y-113750000D03*
X96885714Y-106260000D03*
X72550000Y-120491666D03*
X63775000Y-94453999D03*
X107042856Y-113750000D03*
X107042856Y-106260000D03*
X63825000Y-114550000D03*
X63775000Y-109559999D03*
X72550000Y-123075000D03*
X96885714Y-113750000D03*
X117200000Y-106260000D03*
X73102500Y-99627500D03*
X103137500Y-71170000D03*
X71725000Y-105350000D03*
X71000000Y-109100000D03*
X74000000Y-119910000D03*
X103657142Y-106260000D03*
X68150000Y-106075000D03*
X110275000Y-88790000D03*
X103650000Y-113750000D03*
X76000000Y-119910000D03*
X115050000Y-84570000D03*
X69700000Y-96975000D03*
X63775000Y-106322988D03*
X63775000Y-107401987D03*
X63775000Y-103085991D03*
X113814284Y-113750000D03*
X110375000Y-84570000D03*
X80625000Y-71170000D03*
X77425000Y-78550000D03*
X63775000Y-99848994D03*
X100271428Y-106260000D03*
X80130000Y-124350000D03*
X100271428Y-113750000D03*
X74475000Y-103425000D03*
X69300000Y-101875000D03*
X76350000Y-89110000D03*
X63775000Y-98769995D03*
X68600000Y-100050000D03*
X118175000Y-88790000D03*
X73550000Y-92475000D03*
X70000000Y-109100000D03*
X65550000Y-117700000D03*
X98175000Y-71170000D03*
X107140000Y-84570000D03*
X69300000Y-102675000D03*
X63775000Y-97690996D03*
X81625000Y-71170000D03*
X118295000Y-84570000D03*
X110428570Y-113750000D03*
X83860000Y-119230000D03*
X76525000Y-75405000D03*
X77425000Y-82350000D03*
X72550000Y-119200000D03*
X79625000Y-71170000D03*
X63775000Y-95532998D03*
X79325000Y-111100000D03*
X88030000Y-124750000D03*
X75000000Y-119910000D03*
X72550000Y-121783332D03*
X116540000Y-88790000D03*
X76350000Y-85020000D03*
X86675000Y-71170000D03*
X102200000Y-71170000D03*
X73000000Y-109475000D03*
X63775000Y-100927993D03*
X71525000Y-92475000D03*
X71350000Y-96975000D03*
X80725000Y-97240000D03*
X81315000Y-121960000D03*
D65*
X84420000Y-73710000D03*
X74430000Y-76510000D03*
X93460000Y-102700000D03*
X113625000Y-94630000D03*
X114275000Y-95240000D03*
X96860000Y-102710000D03*
X82590000Y-121960000D03*
X88240000Y-120985000D03*
X74580000Y-96490000D03*
X99380000Y-82600000D03*
X77590000Y-87800000D03*
X84399999Y-87684241D03*
X77590000Y-86300000D03*
X84399999Y-86410000D03*
X100220000Y-102710000D03*
X114925000Y-94630000D03*
X103620000Y-102700000D03*
X115575000Y-95240000D03*
X116225000Y-94630000D03*
X107010000Y-102700000D03*
X116875000Y-95240000D03*
X110400000Y-102690000D03*
X117525000Y-94630000D03*
X113800000Y-102690000D03*
X68530000Y-86640000D03*
X71945425Y-88852726D03*
X68159947Y-85930730D03*
X71890000Y-85470000D03*
X118175000Y-95240000D03*
X117170000Y-102710000D03*
X91265000Y-90180000D03*
X104140000Y-92720000D03*
X114925000Y-89470000D03*
X92535000Y-90180000D03*
X107025000Y-89470000D03*
X102390000Y-91320000D03*
X83525000Y-103500000D03*
X65685000Y-121520000D03*
X82870000Y-104150000D03*
X79500000Y-108350000D03*
D66*
X116000000Y-74575000D03*
X108150000Y-142670000D03*
X75650000Y-142670000D03*
X100900000Y-136170000D03*
X97900000Y-136170000D03*
X94900000Y-136170000D03*
X91900000Y-136170000D03*
X88900000Y-136170000D03*
X85900000Y-136170000D03*
X82900000Y-136170000D03*
X99400000Y-133670000D03*
X96400000Y-133670000D03*
X93400000Y-133670000D03*
X90400000Y-133670000D03*
X87400000Y-133670000D03*
X84400000Y-133670000D03*
X99400000Y-130670000D03*
X96400000Y-130670000D03*
X93400000Y-130670000D03*
X90400000Y-130670000D03*
X87400000Y-130670000D03*
X84400000Y-130670000D03*
X100900000Y-128170000D03*
X97900000Y-128170000D03*
X94900000Y-128170000D03*
X91900000Y-128170000D03*
X88900000Y-128170000D03*
X85900000Y-128170000D03*
X82900000Y-128170000D03*
D67*
X69100000Y-91375000D03*
X69100000Y-82735000D03*
D68*
X64950000Y-91375000D03*
X64950000Y-82735000D03*
D66*
X68600000Y-89945000D03*
X68600000Y-84165000D03*
D69*
X89000000Y-78190000D03*
X89000000Y-79590000D03*
X89700000Y-77490000D03*
X89700000Y-78890000D03*
X89700000Y-80290000D03*
X90400000Y-78190000D03*
X90400000Y-79590000D03*
X91100000Y-77490000D03*
X91100000Y-78890000D03*
X91100000Y-80290000D03*
X91800000Y-78190000D03*
X91800000Y-79590000D03*
D66*
X67350000Y-74575000D03*
X117200000Y-111475000D03*
X117200000Y-121635000D03*
X96885714Y-108525000D03*
X96885714Y-98365000D03*
X103641000Y-108525000D03*
X103641000Y-98365000D03*
X110428570Y-108525000D03*
X110428570Y-98365000D03*
X93500000Y-108525000D03*
X93500000Y-98365000D03*
X113814284Y-98365000D03*
X113814284Y-108525000D03*
X107042856Y-111475000D03*
X107042856Y-121635000D03*
X103657142Y-111475000D03*
X103657142Y-121635000D03*
X100271428Y-108525000D03*
X100271428Y-98365000D03*
X113814284Y-111475000D03*
X113814284Y-121635000D03*
X96885714Y-111475000D03*
X96885714Y-121635000D03*
X107042856Y-108525000D03*
X107042856Y-98365000D03*
X117200000Y-98365000D03*
X117200000Y-108525000D03*
X100271428Y-111475000D03*
X100271428Y-121635000D03*
X93500000Y-111475000D03*
X93500000Y-121635000D03*
X110428570Y-111475000D03*
X110428570Y-121635000D03*
M02*
