%TF.GenerationSoftware,KiCad,Pcbnew,8.0.8*%
%TF.CreationDate,2026-03-18T22:42:44+00:00*%
%TF.ProjectId,esp32-canboard,65737033-322d-4636-916e-626f6172642e,rev?*%
%TF.SameCoordinates,Original*%
%TF.FileFunction,Legend,Top*%
%TF.FilePolarity,Positive*%
%FSLAX46Y46*%
G04 Gerber Fmt 4.6, Leading zero omitted, Abs format (unit mm)*
G04 Created by KiCad (PCBNEW 8.0.8) date 2026-03-18 22:42:44*
%MOMM*%
%LPD*%
G01*
G04 APERTURE LIST*
%ADD10C,0.100000*%
%ADD11C,0.187500*%
%ADD12C,0.300000*%
%ADD13C,0.317500*%
%ADD14C,0.150000*%
%ADD15C,0.125000*%
%ADD16C,0.000000*%
%ADD17C,0.120000*%
%ADD18C,0.200000*%
%ADD19C,0.250000*%
%ADD20C,0.127000*%
%ADD21C,0.350000*%
%ADD22O,1.750000X0.650000*%
%ADD23O,1.450000X0.650000*%
%ADD24C,0.200000*%
G04 APERTURE END LIST*
D10*
X70784914Y-104836666D02*
X70480152Y-104836666D01*
X70765866Y-104855714D02*
X70499200Y-104855714D01*
X70765866Y-104874761D02*
X70499200Y-104874761D01*
X70746819Y-104893809D02*
X70518247Y-104893809D01*
X70746819Y-104912857D02*
X70518247Y-104912857D01*
X70727771Y-104931904D02*
X70537295Y-104931904D01*
X70727771Y-104950952D02*
X70537295Y-104950952D01*
X70708723Y-104970000D02*
X70556342Y-104970000D01*
X70689676Y-104989047D02*
X70575390Y-104989047D01*
X70689676Y-105008095D02*
X70575390Y-105008095D01*
X70670628Y-105027142D02*
X70594438Y-105027142D01*
X70670628Y-105046190D02*
X70594438Y-105046190D01*
X70632533Y-105065238D02*
X70632533Y-105084285D01*
X70651580Y-105065238D02*
X70613485Y-105065238D01*
X70784914Y-104817619D02*
X70632533Y-105103333D01*
X70632533Y-105103333D02*
X70480152Y-104817619D01*
X70632533Y-105122381D02*
X70461104Y-104817619D01*
X70461104Y-104817619D02*
X70803961Y-104817619D01*
X70803961Y-104817619D02*
X70632533Y-105122381D01*
D11*
X72941500Y-106485713D02*
X72941500Y-105914285D01*
X73227214Y-106199999D02*
X72655785Y-106199999D01*
X79081500Y-94325713D02*
X79081500Y-93754285D01*
X79367214Y-94039999D02*
X78795785Y-94039999D01*
D12*
X85091923Y-106712755D02*
X85091923Y-106103231D01*
X86158590Y-106484183D02*
X84787161Y-106484183D01*
X84787161Y-106484183D02*
X84634780Y-106407993D01*
X84634780Y-106407993D02*
X84558590Y-106255612D01*
X84558590Y-106255612D02*
X84558590Y-106103231D01*
X84558590Y-105265135D02*
X84558590Y-105112754D01*
X84558590Y-105112754D02*
X84634780Y-104960373D01*
X84634780Y-104960373D02*
X84710971Y-104884183D01*
X84710971Y-104884183D02*
X84863352Y-104807992D01*
X84863352Y-104807992D02*
X85168114Y-104731802D01*
X85168114Y-104731802D02*
X85549066Y-104731802D01*
X85549066Y-104731802D02*
X85853828Y-104807992D01*
X85853828Y-104807992D02*
X86006209Y-104884183D01*
X86006209Y-104884183D02*
X86082400Y-104960373D01*
X86082400Y-104960373D02*
X86158590Y-105112754D01*
X86158590Y-105112754D02*
X86158590Y-105265135D01*
X86158590Y-105265135D02*
X86082400Y-105417516D01*
X86082400Y-105417516D02*
X86006209Y-105493707D01*
X86006209Y-105493707D02*
X85853828Y-105569897D01*
X85853828Y-105569897D02*
X85549066Y-105646088D01*
X85549066Y-105646088D02*
X85168114Y-105646088D01*
X85168114Y-105646088D02*
X84863352Y-105569897D01*
X84863352Y-105569897D02*
X84710971Y-105493707D01*
X84710971Y-105493707D02*
X84634780Y-105417516D01*
X84634780Y-105417516D02*
X84558590Y-105265135D01*
X86158590Y-104198468D02*
X85091923Y-103360373D01*
X85091923Y-104198468D02*
X86158590Y-103360373D01*
X86158590Y-102903230D02*
X85091923Y-102065135D01*
X85091923Y-102903230D02*
X86158590Y-102065135D01*
X86158590Y-101607992D02*
X85091923Y-100769897D01*
X85091923Y-101607992D02*
X86158590Y-100769897D01*
X86158590Y-100312754D02*
X85091923Y-99474659D01*
X85091923Y-100312754D02*
X86158590Y-99474659D01*
X86158590Y-99017516D02*
X85091923Y-98179421D01*
X85091923Y-99017516D02*
X86158590Y-98179421D01*
X85091923Y-97722278D02*
X86158590Y-97341326D01*
X85091923Y-96960373D02*
X86158590Y-97341326D01*
X86158590Y-97341326D02*
X86539542Y-97493707D01*
X86539542Y-97493707D02*
X86615733Y-97569897D01*
X86615733Y-97569897D02*
X86691923Y-97722278D01*
X88348971Y-113566917D02*
X88348971Y-113166917D01*
X88977542Y-112995489D02*
X88977542Y-113566917D01*
X88977542Y-113566917D02*
X87777542Y-113566917D01*
X87777542Y-113566917D02*
X87777542Y-112995489D01*
X88920400Y-112538346D02*
X88977542Y-112366918D01*
X88977542Y-112366918D02*
X88977542Y-112081203D01*
X88977542Y-112081203D02*
X88920400Y-111966918D01*
X88920400Y-111966918D02*
X88863257Y-111909775D01*
X88863257Y-111909775D02*
X88748971Y-111852632D01*
X88748971Y-111852632D02*
X88634685Y-111852632D01*
X88634685Y-111852632D02*
X88520400Y-111909775D01*
X88520400Y-111909775D02*
X88463257Y-111966918D01*
X88463257Y-111966918D02*
X88406114Y-112081203D01*
X88406114Y-112081203D02*
X88348971Y-112309775D01*
X88348971Y-112309775D02*
X88291828Y-112424060D01*
X88291828Y-112424060D02*
X88234685Y-112481203D01*
X88234685Y-112481203D02*
X88120400Y-112538346D01*
X88120400Y-112538346D02*
X88006114Y-112538346D01*
X88006114Y-112538346D02*
X87891828Y-112481203D01*
X87891828Y-112481203D02*
X87834685Y-112424060D01*
X87834685Y-112424060D02*
X87777542Y-112309775D01*
X87777542Y-112309775D02*
X87777542Y-112024060D01*
X87777542Y-112024060D02*
X87834685Y-111852632D01*
X88977542Y-111338346D02*
X87777542Y-111338346D01*
X87777542Y-111338346D02*
X87777542Y-110881203D01*
X87777542Y-110881203D02*
X87834685Y-110766918D01*
X87834685Y-110766918D02*
X87891828Y-110709775D01*
X87891828Y-110709775D02*
X88006114Y-110652632D01*
X88006114Y-110652632D02*
X88177542Y-110652632D01*
X88177542Y-110652632D02*
X88291828Y-110709775D01*
X88291828Y-110709775D02*
X88348971Y-110766918D01*
X88348971Y-110766918D02*
X88406114Y-110881203D01*
X88406114Y-110881203D02*
X88406114Y-111338346D01*
X87777542Y-110252632D02*
X87777542Y-109509775D01*
X87777542Y-109509775D02*
X88234685Y-109909775D01*
X88234685Y-109909775D02*
X88234685Y-109738346D01*
X88234685Y-109738346D02*
X88291828Y-109624061D01*
X88291828Y-109624061D02*
X88348971Y-109566918D01*
X88348971Y-109566918D02*
X88463257Y-109509775D01*
X88463257Y-109509775D02*
X88748971Y-109509775D01*
X88748971Y-109509775D02*
X88863257Y-109566918D01*
X88863257Y-109566918D02*
X88920400Y-109624061D01*
X88920400Y-109624061D02*
X88977542Y-109738346D01*
X88977542Y-109738346D02*
X88977542Y-110081203D01*
X88977542Y-110081203D02*
X88920400Y-110195489D01*
X88920400Y-110195489D02*
X88863257Y-110252632D01*
X87891828Y-109052632D02*
X87834685Y-108995489D01*
X87834685Y-108995489D02*
X87777542Y-108881204D01*
X87777542Y-108881204D02*
X87777542Y-108595489D01*
X87777542Y-108595489D02*
X87834685Y-108481204D01*
X87834685Y-108481204D02*
X87891828Y-108424061D01*
X87891828Y-108424061D02*
X88006114Y-108366918D01*
X88006114Y-108366918D02*
X88120400Y-108366918D01*
X88120400Y-108366918D02*
X88291828Y-108424061D01*
X88291828Y-108424061D02*
X88977542Y-109109775D01*
X88977542Y-109109775D02*
X88977542Y-108366918D01*
X88520400Y-107852632D02*
X88520400Y-106938347D01*
X88863257Y-105681204D02*
X88920400Y-105738347D01*
X88920400Y-105738347D02*
X88977542Y-105909775D01*
X88977542Y-105909775D02*
X88977542Y-106024061D01*
X88977542Y-106024061D02*
X88920400Y-106195490D01*
X88920400Y-106195490D02*
X88806114Y-106309775D01*
X88806114Y-106309775D02*
X88691828Y-106366918D01*
X88691828Y-106366918D02*
X88463257Y-106424061D01*
X88463257Y-106424061D02*
X88291828Y-106424061D01*
X88291828Y-106424061D02*
X88063257Y-106366918D01*
X88063257Y-106366918D02*
X87948971Y-106309775D01*
X87948971Y-106309775D02*
X87834685Y-106195490D01*
X87834685Y-106195490D02*
X87777542Y-106024061D01*
X87777542Y-106024061D02*
X87777542Y-105909775D01*
X87777542Y-105909775D02*
X87834685Y-105738347D01*
X87834685Y-105738347D02*
X87891828Y-105681204D01*
X88634685Y-105224061D02*
X88634685Y-104652633D01*
X88977542Y-105338347D02*
X87777542Y-104938347D01*
X87777542Y-104938347D02*
X88977542Y-104538347D01*
X88977542Y-104138347D02*
X87777542Y-104138347D01*
X87777542Y-104138347D02*
X88977542Y-103452633D01*
X88977542Y-103452633D02*
X87777542Y-103452633D01*
X88348971Y-102481204D02*
X88406114Y-102309776D01*
X88406114Y-102309776D02*
X88463257Y-102252633D01*
X88463257Y-102252633D02*
X88577542Y-102195490D01*
X88577542Y-102195490D02*
X88748971Y-102195490D01*
X88748971Y-102195490D02*
X88863257Y-102252633D01*
X88863257Y-102252633D02*
X88920400Y-102309776D01*
X88920400Y-102309776D02*
X88977542Y-102424061D01*
X88977542Y-102424061D02*
X88977542Y-102881204D01*
X88977542Y-102881204D02*
X87777542Y-102881204D01*
X87777542Y-102881204D02*
X87777542Y-102481204D01*
X87777542Y-102481204D02*
X87834685Y-102366919D01*
X87834685Y-102366919D02*
X87891828Y-102309776D01*
X87891828Y-102309776D02*
X88006114Y-102252633D01*
X88006114Y-102252633D02*
X88120400Y-102252633D01*
X88120400Y-102252633D02*
X88234685Y-102309776D01*
X88234685Y-102309776D02*
X88291828Y-102366919D01*
X88291828Y-102366919D02*
X88348971Y-102481204D01*
X88348971Y-102481204D02*
X88348971Y-102881204D01*
X87777542Y-101452633D02*
X87777542Y-101224061D01*
X87777542Y-101224061D02*
X87834685Y-101109776D01*
X87834685Y-101109776D02*
X87948971Y-100995490D01*
X87948971Y-100995490D02*
X88177542Y-100938347D01*
X88177542Y-100938347D02*
X88577542Y-100938347D01*
X88577542Y-100938347D02*
X88806114Y-100995490D01*
X88806114Y-100995490D02*
X88920400Y-101109776D01*
X88920400Y-101109776D02*
X88977542Y-101224061D01*
X88977542Y-101224061D02*
X88977542Y-101452633D01*
X88977542Y-101452633D02*
X88920400Y-101566919D01*
X88920400Y-101566919D02*
X88806114Y-101681204D01*
X88806114Y-101681204D02*
X88577542Y-101738347D01*
X88577542Y-101738347D02*
X88177542Y-101738347D01*
X88177542Y-101738347D02*
X87948971Y-101681204D01*
X87948971Y-101681204D02*
X87834685Y-101566919D01*
X87834685Y-101566919D02*
X87777542Y-101452633D01*
X88634685Y-100481204D02*
X88634685Y-99909776D01*
X88977542Y-100595490D02*
X87777542Y-100195490D01*
X87777542Y-100195490D02*
X88977542Y-99795490D01*
X88977542Y-98709776D02*
X88406114Y-99109776D01*
X88977542Y-99395490D02*
X87777542Y-99395490D01*
X87777542Y-99395490D02*
X87777542Y-98938347D01*
X87777542Y-98938347D02*
X87834685Y-98824062D01*
X87834685Y-98824062D02*
X87891828Y-98766919D01*
X87891828Y-98766919D02*
X88006114Y-98709776D01*
X88006114Y-98709776D02*
X88177542Y-98709776D01*
X88177542Y-98709776D02*
X88291828Y-98766919D01*
X88291828Y-98766919D02*
X88348971Y-98824062D01*
X88348971Y-98824062D02*
X88406114Y-98938347D01*
X88406114Y-98938347D02*
X88406114Y-99395490D01*
X88977542Y-98195490D02*
X87777542Y-98195490D01*
X87777542Y-98195490D02*
X87777542Y-97909776D01*
X87777542Y-97909776D02*
X87834685Y-97738347D01*
X87834685Y-97738347D02*
X87948971Y-97624062D01*
X87948971Y-97624062D02*
X88063257Y-97566919D01*
X88063257Y-97566919D02*
X88291828Y-97509776D01*
X88291828Y-97509776D02*
X88463257Y-97509776D01*
X88463257Y-97509776D02*
X88691828Y-97566919D01*
X88691828Y-97566919D02*
X88806114Y-97624062D01*
X88806114Y-97624062D02*
X88920400Y-97738347D01*
X88920400Y-97738347D02*
X88977542Y-97909776D01*
X88977542Y-97909776D02*
X88977542Y-98195490D01*
X88520400Y-96995490D02*
X88520400Y-96081205D01*
X87777542Y-95681205D02*
X88977542Y-95281205D01*
X88977542Y-95281205D02*
X87777542Y-94881205D01*
X87891828Y-94538348D02*
X87834685Y-94481205D01*
X87834685Y-94481205D02*
X87777542Y-94366920D01*
X87777542Y-94366920D02*
X87777542Y-94081205D01*
X87777542Y-94081205D02*
X87834685Y-93966920D01*
X87834685Y-93966920D02*
X87891828Y-93909777D01*
X87891828Y-93909777D02*
X88006114Y-93852634D01*
X88006114Y-93852634D02*
X88120400Y-93852634D01*
X88120400Y-93852634D02*
X88291828Y-93909777D01*
X88291828Y-93909777D02*
X88977542Y-94595491D01*
X88977542Y-94595491D02*
X88977542Y-93852634D01*
D13*
X83977619Y-140948702D02*
X84703333Y-140948702D01*
X84340476Y-142218702D02*
X84340476Y-140948702D01*
X85126666Y-141553464D02*
X85550000Y-141553464D01*
X85731428Y-142218702D02*
X85126666Y-142218702D01*
X85126666Y-142218702D02*
X85126666Y-140948702D01*
X85126666Y-140948702D02*
X85731428Y-140948702D01*
X87969048Y-142097749D02*
X87908572Y-142158226D01*
X87908572Y-142158226D02*
X87727143Y-142218702D01*
X87727143Y-142218702D02*
X87606191Y-142218702D01*
X87606191Y-142218702D02*
X87424762Y-142158226D01*
X87424762Y-142158226D02*
X87303810Y-142037273D01*
X87303810Y-142037273D02*
X87243333Y-141916321D01*
X87243333Y-141916321D02*
X87182857Y-141674416D01*
X87182857Y-141674416D02*
X87182857Y-141492987D01*
X87182857Y-141492987D02*
X87243333Y-141251083D01*
X87243333Y-141251083D02*
X87303810Y-141130130D01*
X87303810Y-141130130D02*
X87424762Y-141009178D01*
X87424762Y-141009178D02*
X87606191Y-140948702D01*
X87606191Y-140948702D02*
X87727143Y-140948702D01*
X87727143Y-140948702D02*
X87908572Y-141009178D01*
X87908572Y-141009178D02*
X87969048Y-141069654D01*
X88755238Y-140948702D02*
X88997143Y-140948702D01*
X88997143Y-140948702D02*
X89118095Y-141009178D01*
X89118095Y-141009178D02*
X89239048Y-141130130D01*
X89239048Y-141130130D02*
X89299524Y-141372035D01*
X89299524Y-141372035D02*
X89299524Y-141795368D01*
X89299524Y-141795368D02*
X89239048Y-142037273D01*
X89239048Y-142037273D02*
X89118095Y-142158226D01*
X89118095Y-142158226D02*
X88997143Y-142218702D01*
X88997143Y-142218702D02*
X88755238Y-142218702D01*
X88755238Y-142218702D02*
X88634286Y-142158226D01*
X88634286Y-142158226D02*
X88513333Y-142037273D01*
X88513333Y-142037273D02*
X88452857Y-141795368D01*
X88452857Y-141795368D02*
X88452857Y-141372035D01*
X88452857Y-141372035D02*
X88513333Y-141130130D01*
X88513333Y-141130130D02*
X88634286Y-141009178D01*
X88634286Y-141009178D02*
X88755238Y-140948702D01*
X89843809Y-142218702D02*
X89843809Y-140948702D01*
X89843809Y-140948702D02*
X90569524Y-142218702D01*
X90569524Y-142218702D02*
X90569524Y-140948702D01*
X91174285Y-142218702D02*
X91174285Y-140948702D01*
X91174285Y-140948702D02*
X91900000Y-142218702D01*
X91900000Y-142218702D02*
X91900000Y-140948702D01*
X92504761Y-141553464D02*
X92928095Y-141553464D01*
X93109523Y-142218702D02*
X92504761Y-142218702D01*
X92504761Y-142218702D02*
X92504761Y-140948702D01*
X92504761Y-140948702D02*
X93109523Y-140948702D01*
X94379524Y-142097749D02*
X94319048Y-142158226D01*
X94319048Y-142158226D02*
X94137619Y-142218702D01*
X94137619Y-142218702D02*
X94016667Y-142218702D01*
X94016667Y-142218702D02*
X93835238Y-142158226D01*
X93835238Y-142158226D02*
X93714286Y-142037273D01*
X93714286Y-142037273D02*
X93653809Y-141916321D01*
X93653809Y-141916321D02*
X93593333Y-141674416D01*
X93593333Y-141674416D02*
X93593333Y-141492987D01*
X93593333Y-141492987D02*
X93653809Y-141251083D01*
X93653809Y-141251083D02*
X93714286Y-141130130D01*
X93714286Y-141130130D02*
X93835238Y-141009178D01*
X93835238Y-141009178D02*
X94016667Y-140948702D01*
X94016667Y-140948702D02*
X94137619Y-140948702D01*
X94137619Y-140948702D02*
X94319048Y-141009178D01*
X94319048Y-141009178D02*
X94379524Y-141069654D01*
X94742381Y-140948702D02*
X95468095Y-140948702D01*
X95105238Y-142218702D02*
X95105238Y-140948702D01*
X95891428Y-142218702D02*
X95891428Y-140948702D01*
X96314762Y-140948702D02*
X96738095Y-142218702D01*
X96738095Y-142218702D02*
X97161429Y-140948702D01*
X97584761Y-142218702D02*
X97584761Y-140948702D01*
X98008095Y-140948702D02*
X98733809Y-140948702D01*
X98370952Y-142218702D02*
X98370952Y-140948702D01*
X99399047Y-141613940D02*
X99399047Y-142218702D01*
X98975714Y-140948702D02*
X99399047Y-141613940D01*
X99399047Y-141613940D02*
X99822381Y-140948702D01*
X85247618Y-144263331D02*
X85489522Y-144263331D01*
X85489522Y-144263331D02*
X85610475Y-144202855D01*
X85610475Y-144202855D02*
X85670951Y-144142378D01*
X85670951Y-144142378D02*
X85791903Y-143960950D01*
X85791903Y-143960950D02*
X85852380Y-143719045D01*
X85852380Y-143719045D02*
X85852380Y-143235235D01*
X85852380Y-143235235D02*
X85791903Y-143114283D01*
X85791903Y-143114283D02*
X85731427Y-143053807D01*
X85731427Y-143053807D02*
X85610475Y-142993331D01*
X85610475Y-142993331D02*
X85368570Y-142993331D01*
X85368570Y-142993331D02*
X85247618Y-143053807D01*
X85247618Y-143053807D02*
X85187141Y-143114283D01*
X85187141Y-143114283D02*
X85126665Y-143235235D01*
X85126665Y-143235235D02*
X85126665Y-143537616D01*
X85126665Y-143537616D02*
X85187141Y-143658569D01*
X85187141Y-143658569D02*
X85247618Y-143719045D01*
X85247618Y-143719045D02*
X85368570Y-143779521D01*
X85368570Y-143779521D02*
X85610475Y-143779521D01*
X85610475Y-143779521D02*
X85731427Y-143719045D01*
X85731427Y-143719045D02*
X85791903Y-143658569D01*
X85791903Y-143658569D02*
X85852380Y-143537616D01*
X86396665Y-143779521D02*
X87364285Y-143779521D01*
X88513332Y-142993331D02*
X88271427Y-142993331D01*
X88271427Y-142993331D02*
X88150475Y-143053807D01*
X88150475Y-143053807D02*
X88089999Y-143114283D01*
X88089999Y-143114283D02*
X87969046Y-143295712D01*
X87969046Y-143295712D02*
X87908570Y-143537616D01*
X87908570Y-143537616D02*
X87908570Y-144021426D01*
X87908570Y-144021426D02*
X87969046Y-144142378D01*
X87969046Y-144142378D02*
X88029523Y-144202855D01*
X88029523Y-144202855D02*
X88150475Y-144263331D01*
X88150475Y-144263331D02*
X88392380Y-144263331D01*
X88392380Y-144263331D02*
X88513332Y-144202855D01*
X88513332Y-144202855D02*
X88573808Y-144142378D01*
X88573808Y-144142378D02*
X88634285Y-144021426D01*
X88634285Y-144021426D02*
X88634285Y-143719045D01*
X88634285Y-143719045D02*
X88573808Y-143598093D01*
X88573808Y-143598093D02*
X88513332Y-143537616D01*
X88513332Y-143537616D02*
X88392380Y-143477140D01*
X88392380Y-143477140D02*
X88150475Y-143477140D01*
X88150475Y-143477140D02*
X88029523Y-143537616D01*
X88029523Y-143537616D02*
X87969046Y-143598093D01*
X87969046Y-143598093D02*
X87908570Y-143719045D01*
X89722856Y-143416664D02*
X89722856Y-144263331D01*
X89420475Y-142932855D02*
X89118094Y-143839997D01*
X89118094Y-143839997D02*
X89904285Y-143839997D01*
X90267142Y-142993331D02*
X91053333Y-142993331D01*
X91053333Y-142993331D02*
X90629999Y-143477140D01*
X90629999Y-143477140D02*
X90811428Y-143477140D01*
X90811428Y-143477140D02*
X90932380Y-143537616D01*
X90932380Y-143537616D02*
X90992856Y-143598093D01*
X90992856Y-143598093D02*
X91053333Y-143719045D01*
X91053333Y-143719045D02*
X91053333Y-144021426D01*
X91053333Y-144021426D02*
X90992856Y-144142378D01*
X90992856Y-144142378D02*
X90932380Y-144202855D01*
X90932380Y-144202855D02*
X90811428Y-144263331D01*
X90811428Y-144263331D02*
X90448571Y-144263331D01*
X90448571Y-144263331D02*
X90327618Y-144202855D01*
X90327618Y-144202855D02*
X90267142Y-144142378D01*
X91476666Y-142993331D02*
X92323333Y-142993331D01*
X92323333Y-142993331D02*
X91779047Y-144263331D01*
X92746666Y-143114283D02*
X92807142Y-143053807D01*
X92807142Y-143053807D02*
X92928095Y-142993331D01*
X92928095Y-142993331D02*
X93230476Y-142993331D01*
X93230476Y-142993331D02*
X93351428Y-143053807D01*
X93351428Y-143053807D02*
X93411904Y-143114283D01*
X93411904Y-143114283D02*
X93472381Y-143235235D01*
X93472381Y-143235235D02*
X93472381Y-143356188D01*
X93472381Y-143356188D02*
X93411904Y-143537616D01*
X93411904Y-143537616D02*
X92686190Y-144263331D01*
X92686190Y-144263331D02*
X93472381Y-144263331D01*
X94198095Y-143537616D02*
X94077143Y-143477140D01*
X94077143Y-143477140D02*
X94016666Y-143416664D01*
X94016666Y-143416664D02*
X93956190Y-143295712D01*
X93956190Y-143295712D02*
X93956190Y-143235235D01*
X93956190Y-143235235D02*
X94016666Y-143114283D01*
X94016666Y-143114283D02*
X94077143Y-143053807D01*
X94077143Y-143053807D02*
X94198095Y-142993331D01*
X94198095Y-142993331D02*
X94440000Y-142993331D01*
X94440000Y-142993331D02*
X94560952Y-143053807D01*
X94560952Y-143053807D02*
X94621428Y-143114283D01*
X94621428Y-143114283D02*
X94681905Y-143235235D01*
X94681905Y-143235235D02*
X94681905Y-143295712D01*
X94681905Y-143295712D02*
X94621428Y-143416664D01*
X94621428Y-143416664D02*
X94560952Y-143477140D01*
X94560952Y-143477140D02*
X94440000Y-143537616D01*
X94440000Y-143537616D02*
X94198095Y-143537616D01*
X94198095Y-143537616D02*
X94077143Y-143598093D01*
X94077143Y-143598093D02*
X94016666Y-143658569D01*
X94016666Y-143658569D02*
X93956190Y-143779521D01*
X93956190Y-143779521D02*
X93956190Y-144021426D01*
X93956190Y-144021426D02*
X94016666Y-144142378D01*
X94016666Y-144142378D02*
X94077143Y-144202855D01*
X94077143Y-144202855D02*
X94198095Y-144263331D01*
X94198095Y-144263331D02*
X94440000Y-144263331D01*
X94440000Y-144263331D02*
X94560952Y-144202855D01*
X94560952Y-144202855D02*
X94621428Y-144142378D01*
X94621428Y-144142378D02*
X94681905Y-144021426D01*
X94681905Y-144021426D02*
X94681905Y-143779521D01*
X94681905Y-143779521D02*
X94621428Y-143658569D01*
X94621428Y-143658569D02*
X94560952Y-143598093D01*
X94560952Y-143598093D02*
X94440000Y-143537616D01*
X95105238Y-142993331D02*
X95951905Y-142993331D01*
X95951905Y-142993331D02*
X95407619Y-144263331D01*
X96435714Y-143779521D02*
X97403334Y-143779521D01*
X98189524Y-143537616D02*
X98068572Y-143477140D01*
X98068572Y-143477140D02*
X98008095Y-143416664D01*
X98008095Y-143416664D02*
X97947619Y-143295712D01*
X97947619Y-143295712D02*
X97947619Y-143235235D01*
X97947619Y-143235235D02*
X98008095Y-143114283D01*
X98008095Y-143114283D02*
X98068572Y-143053807D01*
X98068572Y-143053807D02*
X98189524Y-142993331D01*
X98189524Y-142993331D02*
X98431429Y-142993331D01*
X98431429Y-142993331D02*
X98552381Y-143053807D01*
X98552381Y-143053807D02*
X98612857Y-143114283D01*
X98612857Y-143114283D02*
X98673334Y-143235235D01*
X98673334Y-143235235D02*
X98673334Y-143295712D01*
X98673334Y-143295712D02*
X98612857Y-143416664D01*
X98612857Y-143416664D02*
X98552381Y-143477140D01*
X98552381Y-143477140D02*
X98431429Y-143537616D01*
X98431429Y-143537616D02*
X98189524Y-143537616D01*
X98189524Y-143537616D02*
X98068572Y-143598093D01*
X98068572Y-143598093D02*
X98008095Y-143658569D01*
X98008095Y-143658569D02*
X97947619Y-143779521D01*
X97947619Y-143779521D02*
X97947619Y-144021426D01*
X97947619Y-144021426D02*
X98008095Y-144142378D01*
X98008095Y-144142378D02*
X98068572Y-144202855D01*
X98068572Y-144202855D02*
X98189524Y-144263331D01*
X98189524Y-144263331D02*
X98431429Y-144263331D01*
X98431429Y-144263331D02*
X98552381Y-144202855D01*
X98552381Y-144202855D02*
X98612857Y-144142378D01*
X98612857Y-144142378D02*
X98673334Y-144021426D01*
X98673334Y-144021426D02*
X98673334Y-143779521D01*
X98673334Y-143779521D02*
X98612857Y-143658569D01*
X98612857Y-143658569D02*
X98552381Y-143598093D01*
X98552381Y-143598093D02*
X98431429Y-143537616D01*
D10*
X85943333Y-117224914D02*
X85943333Y-116920152D01*
X85924285Y-117205866D02*
X85924285Y-116939200D01*
X85905238Y-117205866D02*
X85905238Y-116939200D01*
X85886190Y-117186819D02*
X85886190Y-116958247D01*
X85867142Y-117186819D02*
X85867142Y-116958247D01*
X85848095Y-117167771D02*
X85848095Y-116977295D01*
X85829047Y-117167771D02*
X85829047Y-116977295D01*
X85809999Y-117148723D02*
X85809999Y-116996342D01*
X85790952Y-117129676D02*
X85790952Y-117015390D01*
X85771904Y-117129676D02*
X85771904Y-117015390D01*
X85752857Y-117110628D02*
X85752857Y-117034438D01*
X85733809Y-117110628D02*
X85733809Y-117034438D01*
X85714761Y-117072533D02*
X85695714Y-117072533D01*
X85714761Y-117091580D02*
X85714761Y-117053485D01*
X85962380Y-117224914D02*
X85676666Y-117072533D01*
X85676666Y-117072533D02*
X85962380Y-116920152D01*
X85657619Y-117072533D02*
X85962380Y-116901104D01*
X85962380Y-116901104D02*
X85962380Y-117243961D01*
X85962380Y-117243961D02*
X85657619Y-117072533D01*
X67986666Y-98575085D02*
X67986666Y-98879847D01*
X68005714Y-98594133D02*
X68005714Y-98860800D01*
X68024761Y-98594133D02*
X68024761Y-98860800D01*
X68043809Y-98613180D02*
X68043809Y-98841752D01*
X68062857Y-98613180D02*
X68062857Y-98841752D01*
X68081904Y-98632228D02*
X68081904Y-98822704D01*
X68100952Y-98632228D02*
X68100952Y-98822704D01*
X68120000Y-98651276D02*
X68120000Y-98803657D01*
X68139047Y-98670323D02*
X68139047Y-98784609D01*
X68158095Y-98670323D02*
X68158095Y-98784609D01*
X68177142Y-98689371D02*
X68177142Y-98765561D01*
X68196190Y-98689371D02*
X68196190Y-98765561D01*
X68215238Y-98727466D02*
X68234285Y-98727466D01*
X68215238Y-98708419D02*
X68215238Y-98746514D01*
X67967619Y-98575085D02*
X68253333Y-98727466D01*
X68253333Y-98727466D02*
X67967619Y-98879847D01*
X68272381Y-98727466D02*
X67967619Y-98898895D01*
X67967619Y-98898895D02*
X67967619Y-98556038D01*
X67967619Y-98556038D02*
X68272381Y-98727466D01*
X112976666Y-93855085D02*
X112976666Y-94159847D01*
X112995714Y-93874133D02*
X112995714Y-94140800D01*
X113014761Y-93874133D02*
X113014761Y-94140800D01*
X113033809Y-93893180D02*
X113033809Y-94121752D01*
X113052857Y-93893180D02*
X113052857Y-94121752D01*
X113071904Y-93912228D02*
X113071904Y-94102704D01*
X113090952Y-93912228D02*
X113090952Y-94102704D01*
X113110000Y-93931276D02*
X113110000Y-94083657D01*
X113129047Y-93950323D02*
X113129047Y-94064609D01*
X113148095Y-93950323D02*
X113148095Y-94064609D01*
X113167142Y-93969371D02*
X113167142Y-94045561D01*
X113186190Y-93969371D02*
X113186190Y-94045561D01*
X113205238Y-94007466D02*
X113224285Y-94007466D01*
X113205238Y-93988419D02*
X113205238Y-94026514D01*
X112957619Y-93855085D02*
X113243333Y-94007466D01*
X113243333Y-94007466D02*
X112957619Y-94159847D01*
X113262381Y-94007466D02*
X112957619Y-94178895D01*
X112957619Y-94178895D02*
X112957619Y-93836038D01*
X112957619Y-93836038D02*
X113262381Y-94007466D01*
X105056666Y-93855085D02*
X105056666Y-94159847D01*
X105075714Y-93874133D02*
X105075714Y-94140800D01*
X105094761Y-93874133D02*
X105094761Y-94140800D01*
X105113809Y-93893180D02*
X105113809Y-94121752D01*
X105132857Y-93893180D02*
X105132857Y-94121752D01*
X105151904Y-93912228D02*
X105151904Y-94102704D01*
X105170952Y-93912228D02*
X105170952Y-94102704D01*
X105190000Y-93931276D02*
X105190000Y-94083657D01*
X105209047Y-93950323D02*
X105209047Y-94064609D01*
X105228095Y-93950323D02*
X105228095Y-94064609D01*
X105247142Y-93969371D02*
X105247142Y-94045561D01*
X105266190Y-93969371D02*
X105266190Y-94045561D01*
X105285238Y-94007466D02*
X105304285Y-94007466D01*
X105285238Y-93988419D02*
X105285238Y-94026514D01*
X105037619Y-93855085D02*
X105323333Y-94007466D01*
X105323333Y-94007466D02*
X105037619Y-94159847D01*
X105342381Y-94007466D02*
X105037619Y-94178895D01*
X105037619Y-94178895D02*
X105037619Y-93836038D01*
X105037619Y-93836038D02*
X105342381Y-94007466D01*
D14*
X113505356Y-83938342D02*
X113791071Y-83938342D01*
X113448213Y-84109771D02*
X113648213Y-83509771D01*
X113648213Y-83509771D02*
X113848213Y-84109771D01*
X114048214Y-84109771D02*
X114048214Y-83509771D01*
X114048214Y-83509771D02*
X114191071Y-83509771D01*
X114191071Y-83509771D02*
X114276785Y-83538342D01*
X114276785Y-83538342D02*
X114333928Y-83595485D01*
X114333928Y-83595485D02*
X114362499Y-83652628D01*
X114362499Y-83652628D02*
X114391071Y-83766914D01*
X114391071Y-83766914D02*
X114391071Y-83852628D01*
X114391071Y-83852628D02*
X114362499Y-83966914D01*
X114362499Y-83966914D02*
X114333928Y-84024057D01*
X114333928Y-84024057D02*
X114276785Y-84081200D01*
X114276785Y-84081200D02*
X114191071Y-84109771D01*
X114191071Y-84109771D02*
X114048214Y-84109771D01*
X114991071Y-84052628D02*
X114962499Y-84081200D01*
X114962499Y-84081200D02*
X114876785Y-84109771D01*
X114876785Y-84109771D02*
X114819642Y-84109771D01*
X114819642Y-84109771D02*
X114733928Y-84081200D01*
X114733928Y-84081200D02*
X114676785Y-84024057D01*
X114676785Y-84024057D02*
X114648214Y-83966914D01*
X114648214Y-83966914D02*
X114619642Y-83852628D01*
X114619642Y-83852628D02*
X114619642Y-83766914D01*
X114619642Y-83766914D02*
X114648214Y-83652628D01*
X114648214Y-83652628D02*
X114676785Y-83595485D01*
X114676785Y-83595485D02*
X114733928Y-83538342D01*
X114733928Y-83538342D02*
X114819642Y-83509771D01*
X114819642Y-83509771D02*
X114876785Y-83509771D01*
X114876785Y-83509771D02*
X114962499Y-83538342D01*
X114962499Y-83538342D02*
X114991071Y-83566914D01*
X115219642Y-83566914D02*
X115248214Y-83538342D01*
X115248214Y-83538342D02*
X115305357Y-83509771D01*
X115305357Y-83509771D02*
X115448214Y-83509771D01*
X115448214Y-83509771D02*
X115505357Y-83538342D01*
X115505357Y-83538342D02*
X115533928Y-83566914D01*
X115533928Y-83566914D02*
X115562499Y-83624057D01*
X115562499Y-83624057D02*
X115562499Y-83681200D01*
X115562499Y-83681200D02*
X115533928Y-83766914D01*
X115533928Y-83766914D02*
X115191071Y-84109771D01*
X115191071Y-84109771D02*
X115562499Y-84109771D01*
X116391071Y-83509771D02*
X116448214Y-83509771D01*
X116448214Y-83509771D02*
X116505357Y-83538342D01*
X116505357Y-83538342D02*
X116533929Y-83566914D01*
X116533929Y-83566914D02*
X116562500Y-83624057D01*
X116562500Y-83624057D02*
X116591071Y-83738342D01*
X116591071Y-83738342D02*
X116591071Y-83881200D01*
X116591071Y-83881200D02*
X116562500Y-83995485D01*
X116562500Y-83995485D02*
X116533929Y-84052628D01*
X116533929Y-84052628D02*
X116505357Y-84081200D01*
X116505357Y-84081200D02*
X116448214Y-84109771D01*
X116448214Y-84109771D02*
X116391071Y-84109771D01*
X116391071Y-84109771D02*
X116333929Y-84081200D01*
X116333929Y-84081200D02*
X116305357Y-84052628D01*
X116305357Y-84052628D02*
X116276786Y-83995485D01*
X116276786Y-83995485D02*
X116248214Y-83881200D01*
X116248214Y-83881200D02*
X116248214Y-83738342D01*
X116248214Y-83738342D02*
X116276786Y-83624057D01*
X116276786Y-83624057D02*
X116305357Y-83566914D01*
X116305357Y-83566914D02*
X116333929Y-83538342D01*
X116333929Y-83538342D02*
X116391071Y-83509771D01*
X116791072Y-84109771D02*
X117105358Y-83709771D01*
X116791072Y-83709771D02*
X117105358Y-84109771D01*
X117591072Y-83709771D02*
X117591072Y-84109771D01*
X117448214Y-83481200D02*
X117305357Y-83909771D01*
X117305357Y-83909771D02*
X117676786Y-83909771D01*
X117933929Y-84109771D02*
X118048215Y-84109771D01*
X118048215Y-84109771D02*
X118105358Y-84081200D01*
X118105358Y-84081200D02*
X118133929Y-84052628D01*
X118133929Y-84052628D02*
X118191072Y-83966914D01*
X118191072Y-83966914D02*
X118219643Y-83852628D01*
X118219643Y-83852628D02*
X118219643Y-83624057D01*
X118219643Y-83624057D02*
X118191072Y-83566914D01*
X118191072Y-83566914D02*
X118162501Y-83538342D01*
X118162501Y-83538342D02*
X118105358Y-83509771D01*
X118105358Y-83509771D02*
X117991072Y-83509771D01*
X117991072Y-83509771D02*
X117933929Y-83538342D01*
X117933929Y-83538342D02*
X117905358Y-83566914D01*
X117905358Y-83566914D02*
X117876786Y-83624057D01*
X117876786Y-83624057D02*
X117876786Y-83766914D01*
X117876786Y-83766914D02*
X117905358Y-83824057D01*
X117905358Y-83824057D02*
X117933929Y-83852628D01*
X117933929Y-83852628D02*
X117991072Y-83881200D01*
X117991072Y-83881200D02*
X118105358Y-83881200D01*
X118105358Y-83881200D02*
X118162501Y-83852628D01*
X118162501Y-83852628D02*
X118191072Y-83824057D01*
X118191072Y-83824057D02*
X118219643Y-83766914D01*
X105605356Y-83938342D02*
X105891071Y-83938342D01*
X105548213Y-84109771D02*
X105748213Y-83509771D01*
X105748213Y-83509771D02*
X105948213Y-84109771D01*
X106148214Y-84109771D02*
X106148214Y-83509771D01*
X106148214Y-83509771D02*
X106291071Y-83509771D01*
X106291071Y-83509771D02*
X106376785Y-83538342D01*
X106376785Y-83538342D02*
X106433928Y-83595485D01*
X106433928Y-83595485D02*
X106462499Y-83652628D01*
X106462499Y-83652628D02*
X106491071Y-83766914D01*
X106491071Y-83766914D02*
X106491071Y-83852628D01*
X106491071Y-83852628D02*
X106462499Y-83966914D01*
X106462499Y-83966914D02*
X106433928Y-84024057D01*
X106433928Y-84024057D02*
X106376785Y-84081200D01*
X106376785Y-84081200D02*
X106291071Y-84109771D01*
X106291071Y-84109771D02*
X106148214Y-84109771D01*
X107091071Y-84052628D02*
X107062499Y-84081200D01*
X107062499Y-84081200D02*
X106976785Y-84109771D01*
X106976785Y-84109771D02*
X106919642Y-84109771D01*
X106919642Y-84109771D02*
X106833928Y-84081200D01*
X106833928Y-84081200D02*
X106776785Y-84024057D01*
X106776785Y-84024057D02*
X106748214Y-83966914D01*
X106748214Y-83966914D02*
X106719642Y-83852628D01*
X106719642Y-83852628D02*
X106719642Y-83766914D01*
X106719642Y-83766914D02*
X106748214Y-83652628D01*
X106748214Y-83652628D02*
X106776785Y-83595485D01*
X106776785Y-83595485D02*
X106833928Y-83538342D01*
X106833928Y-83538342D02*
X106919642Y-83509771D01*
X106919642Y-83509771D02*
X106976785Y-83509771D01*
X106976785Y-83509771D02*
X107062499Y-83538342D01*
X107062499Y-83538342D02*
X107091071Y-83566914D01*
X107662499Y-84109771D02*
X107319642Y-84109771D01*
X107491071Y-84109771D02*
X107491071Y-83509771D01*
X107491071Y-83509771D02*
X107433928Y-83595485D01*
X107433928Y-83595485D02*
X107376785Y-83652628D01*
X107376785Y-83652628D02*
X107319642Y-83681200D01*
X108491071Y-83509771D02*
X108548214Y-83509771D01*
X108548214Y-83509771D02*
X108605357Y-83538342D01*
X108605357Y-83538342D02*
X108633929Y-83566914D01*
X108633929Y-83566914D02*
X108662500Y-83624057D01*
X108662500Y-83624057D02*
X108691071Y-83738342D01*
X108691071Y-83738342D02*
X108691071Y-83881200D01*
X108691071Y-83881200D02*
X108662500Y-83995485D01*
X108662500Y-83995485D02*
X108633929Y-84052628D01*
X108633929Y-84052628D02*
X108605357Y-84081200D01*
X108605357Y-84081200D02*
X108548214Y-84109771D01*
X108548214Y-84109771D02*
X108491071Y-84109771D01*
X108491071Y-84109771D02*
X108433929Y-84081200D01*
X108433929Y-84081200D02*
X108405357Y-84052628D01*
X108405357Y-84052628D02*
X108376786Y-83995485D01*
X108376786Y-83995485D02*
X108348214Y-83881200D01*
X108348214Y-83881200D02*
X108348214Y-83738342D01*
X108348214Y-83738342D02*
X108376786Y-83624057D01*
X108376786Y-83624057D02*
X108405357Y-83566914D01*
X108405357Y-83566914D02*
X108433929Y-83538342D01*
X108433929Y-83538342D02*
X108491071Y-83509771D01*
X108891072Y-84109771D02*
X109205358Y-83709771D01*
X108891072Y-83709771D02*
X109205358Y-84109771D01*
X109691072Y-83709771D02*
X109691072Y-84109771D01*
X109548214Y-83481200D02*
X109405357Y-83909771D01*
X109405357Y-83909771D02*
X109776786Y-83909771D01*
X110091072Y-83766914D02*
X110033929Y-83738342D01*
X110033929Y-83738342D02*
X110005358Y-83709771D01*
X110005358Y-83709771D02*
X109976786Y-83652628D01*
X109976786Y-83652628D02*
X109976786Y-83624057D01*
X109976786Y-83624057D02*
X110005358Y-83566914D01*
X110005358Y-83566914D02*
X110033929Y-83538342D01*
X110033929Y-83538342D02*
X110091072Y-83509771D01*
X110091072Y-83509771D02*
X110205358Y-83509771D01*
X110205358Y-83509771D02*
X110262501Y-83538342D01*
X110262501Y-83538342D02*
X110291072Y-83566914D01*
X110291072Y-83566914D02*
X110319643Y-83624057D01*
X110319643Y-83624057D02*
X110319643Y-83652628D01*
X110319643Y-83652628D02*
X110291072Y-83709771D01*
X110291072Y-83709771D02*
X110262501Y-83738342D01*
X110262501Y-83738342D02*
X110205358Y-83766914D01*
X110205358Y-83766914D02*
X110091072Y-83766914D01*
X110091072Y-83766914D02*
X110033929Y-83795485D01*
X110033929Y-83795485D02*
X110005358Y-83824057D01*
X110005358Y-83824057D02*
X109976786Y-83881200D01*
X109976786Y-83881200D02*
X109976786Y-83995485D01*
X109976786Y-83995485D02*
X110005358Y-84052628D01*
X110005358Y-84052628D02*
X110033929Y-84081200D01*
X110033929Y-84081200D02*
X110091072Y-84109771D01*
X110091072Y-84109771D02*
X110205358Y-84109771D01*
X110205358Y-84109771D02*
X110262501Y-84081200D01*
X110262501Y-84081200D02*
X110291072Y-84052628D01*
X110291072Y-84052628D02*
X110319643Y-83995485D01*
X110319643Y-83995485D02*
X110319643Y-83881200D01*
X110319643Y-83881200D02*
X110291072Y-83824057D01*
X110291072Y-83824057D02*
X110262501Y-83795485D01*
X110262501Y-83795485D02*
X110205358Y-83766914D01*
D10*
X92000000Y-111970000D02*
X92000000Y-108030000D01*
X118700000Y-108030000D02*
X118700000Y-111970000D01*
X92000000Y-108030000D02*
G75*
G02*
X93000000Y-107030000I1000000J0D01*
G01*
X93000000Y-112970000D02*
G75*
G02*
X92000000Y-111970000I0J1000000D01*
G01*
X117700000Y-107030000D02*
G75*
G02*
X118700000Y-108030000I0J-1000000D01*
G01*
X73750000Y-112590000D02*
X74850000Y-112590000D01*
X75250000Y-112590000D02*
X76350000Y-112590000D01*
X76750000Y-112590000D02*
X77850000Y-112590000D01*
X78250000Y-112590000D02*
X79340000Y-112590000D01*
X79340000Y-112590000D02*
X79340000Y-113690000D01*
X79340000Y-114090000D02*
X79340000Y-115190000D01*
X79340000Y-115590000D02*
X79340000Y-115910000D01*
X79340000Y-115910000D02*
X78240000Y-115910000D01*
X77840000Y-115910000D02*
X76740000Y-115910000D01*
X76340000Y-115910000D02*
X75240000Y-115910000D01*
X74840000Y-115910000D02*
X73750000Y-115910000D01*
X73750000Y-115910000D02*
X73750000Y-114810000D01*
X73750000Y-114410000D02*
X73750000Y-113310000D01*
X73750000Y-112910000D02*
X73750000Y-112590000D01*
X117700000Y-112970000D02*
X93000000Y-112970000D01*
X118700000Y-111970000D02*
G75*
G02*
X117700000Y-112970000I-1000000J0D01*
G01*
X93000000Y-107030000D02*
X117700000Y-107030000D01*
D11*
X96135714Y-120112214D02*
X96135714Y-119362214D01*
X96492857Y-120112214D02*
X96492857Y-119362214D01*
X96492857Y-119362214D02*
X96921428Y-120112214D01*
X96921428Y-120112214D02*
X96921428Y-119362214D01*
X97242857Y-119433642D02*
X97278571Y-119397928D01*
X97278571Y-119397928D02*
X97350000Y-119362214D01*
X97350000Y-119362214D02*
X97528571Y-119362214D01*
X97528571Y-119362214D02*
X97600000Y-119397928D01*
X97600000Y-119397928D02*
X97635714Y-119433642D01*
X97635714Y-119433642D02*
X97671428Y-119505071D01*
X97671428Y-119505071D02*
X97671428Y-119576500D01*
X97671428Y-119576500D02*
X97635714Y-119683642D01*
X97635714Y-119683642D02*
X97207142Y-120112214D01*
X97207142Y-120112214D02*
X97671428Y-120112214D01*
X99164285Y-100737214D02*
X99164285Y-99987214D01*
X99521428Y-100737214D02*
X99521428Y-99987214D01*
X99521428Y-99987214D02*
X99949999Y-100737214D01*
X99949999Y-100737214D02*
X99949999Y-99987214D01*
X100699999Y-100737214D02*
X100271428Y-100737214D01*
X100485713Y-100737214D02*
X100485713Y-99987214D01*
X100485713Y-99987214D02*
X100414285Y-100094357D01*
X100414285Y-100094357D02*
X100342856Y-100165785D01*
X100342856Y-100165785D02*
X100271428Y-100201500D01*
X101414285Y-100737214D02*
X100985714Y-100737214D01*
X101199999Y-100737214D02*
X101199999Y-99987214D01*
X101199999Y-99987214D02*
X101128571Y-100094357D01*
X101128571Y-100094357D02*
X101057142Y-100165785D01*
X101057142Y-100165785D02*
X100985714Y-100201500D01*
X116092857Y-100737214D02*
X116092857Y-99987214D01*
X116450000Y-100737214D02*
X116450000Y-99987214D01*
X116450000Y-99987214D02*
X116878571Y-100737214D01*
X116878571Y-100737214D02*
X116878571Y-99987214D01*
X117628571Y-100737214D02*
X117200000Y-100737214D01*
X117414285Y-100737214D02*
X117414285Y-99987214D01*
X117414285Y-99987214D02*
X117342857Y-100094357D01*
X117342857Y-100094357D02*
X117271428Y-100165785D01*
X117271428Y-100165785D02*
X117200000Y-100201500D01*
X118271429Y-99987214D02*
X118128571Y-99987214D01*
X118128571Y-99987214D02*
X118057143Y-100022928D01*
X118057143Y-100022928D02*
X118021429Y-100058642D01*
X118021429Y-100058642D02*
X117950000Y-100165785D01*
X117950000Y-100165785D02*
X117914286Y-100308642D01*
X117914286Y-100308642D02*
X117914286Y-100594357D01*
X117914286Y-100594357D02*
X117950000Y-100665785D01*
X117950000Y-100665785D02*
X117985714Y-100701500D01*
X117985714Y-100701500D02*
X118057143Y-100737214D01*
X118057143Y-100737214D02*
X118200000Y-100737214D01*
X118200000Y-100737214D02*
X118271429Y-100701500D01*
X118271429Y-100701500D02*
X118307143Y-100665785D01*
X118307143Y-100665785D02*
X118342857Y-100594357D01*
X118342857Y-100594357D02*
X118342857Y-100415785D01*
X118342857Y-100415785D02*
X118307143Y-100344357D01*
X118307143Y-100344357D02*
X118271429Y-100308642D01*
X118271429Y-100308642D02*
X118200000Y-100272928D01*
X118200000Y-100272928D02*
X118057143Y-100272928D01*
X118057143Y-100272928D02*
X117985714Y-100308642D01*
X117985714Y-100308642D02*
X117950000Y-100344357D01*
X117950000Y-100344357D02*
X117914286Y-100415785D01*
X116450000Y-120112214D02*
X116450000Y-119362214D01*
X116807143Y-120112214D02*
X116807143Y-119362214D01*
X116807143Y-119362214D02*
X117235714Y-120112214D01*
X117235714Y-120112214D02*
X117235714Y-119362214D01*
X117700000Y-119683642D02*
X117628571Y-119647928D01*
X117628571Y-119647928D02*
X117592857Y-119612214D01*
X117592857Y-119612214D02*
X117557143Y-119540785D01*
X117557143Y-119540785D02*
X117557143Y-119505071D01*
X117557143Y-119505071D02*
X117592857Y-119433642D01*
X117592857Y-119433642D02*
X117628571Y-119397928D01*
X117628571Y-119397928D02*
X117700000Y-119362214D01*
X117700000Y-119362214D02*
X117842857Y-119362214D01*
X117842857Y-119362214D02*
X117914286Y-119397928D01*
X117914286Y-119397928D02*
X117950000Y-119433642D01*
X117950000Y-119433642D02*
X117985714Y-119505071D01*
X117985714Y-119505071D02*
X117985714Y-119540785D01*
X117985714Y-119540785D02*
X117950000Y-119612214D01*
X117950000Y-119612214D02*
X117914286Y-119647928D01*
X117914286Y-119647928D02*
X117842857Y-119683642D01*
X117842857Y-119683642D02*
X117700000Y-119683642D01*
X117700000Y-119683642D02*
X117628571Y-119719357D01*
X117628571Y-119719357D02*
X117592857Y-119755071D01*
X117592857Y-119755071D02*
X117557143Y-119826500D01*
X117557143Y-119826500D02*
X117557143Y-119969357D01*
X117557143Y-119969357D02*
X117592857Y-120040785D01*
X117592857Y-120040785D02*
X117628571Y-120076500D01*
X117628571Y-120076500D02*
X117700000Y-120112214D01*
X117700000Y-120112214D02*
X117842857Y-120112214D01*
X117842857Y-120112214D02*
X117914286Y-120076500D01*
X117914286Y-120076500D02*
X117950000Y-120040785D01*
X117950000Y-120040785D02*
X117985714Y-119969357D01*
X117985714Y-119969357D02*
X117985714Y-119826500D01*
X117985714Y-119826500D02*
X117950000Y-119755071D01*
X117950000Y-119755071D02*
X117914286Y-119719357D01*
X117914286Y-119719357D02*
X117842857Y-119683642D01*
X109321427Y-100737214D02*
X109321427Y-99987214D01*
X109678570Y-100737214D02*
X109678570Y-99987214D01*
X109678570Y-99987214D02*
X110107141Y-100737214D01*
X110107141Y-100737214D02*
X110107141Y-99987214D01*
X110857141Y-100737214D02*
X110428570Y-100737214D01*
X110642855Y-100737214D02*
X110642855Y-99987214D01*
X110642855Y-99987214D02*
X110571427Y-100094357D01*
X110571427Y-100094357D02*
X110499998Y-100165785D01*
X110499998Y-100165785D02*
X110428570Y-100201500D01*
X111499999Y-100237214D02*
X111499999Y-100737214D01*
X111321427Y-99951500D02*
X111142856Y-100487214D01*
X111142856Y-100487214D02*
X111607141Y-100487214D01*
X105935713Y-100737214D02*
X105935713Y-99987214D01*
X106292856Y-100737214D02*
X106292856Y-99987214D01*
X106292856Y-99987214D02*
X106721427Y-100737214D01*
X106721427Y-100737214D02*
X106721427Y-99987214D01*
X107471427Y-100737214D02*
X107042856Y-100737214D01*
X107257141Y-100737214D02*
X107257141Y-99987214D01*
X107257141Y-99987214D02*
X107185713Y-100094357D01*
X107185713Y-100094357D02*
X107114284Y-100165785D01*
X107114284Y-100165785D02*
X107042856Y-100201500D01*
X107721427Y-99987214D02*
X108185713Y-99987214D01*
X108185713Y-99987214D02*
X107935713Y-100272928D01*
X107935713Y-100272928D02*
X108042856Y-100272928D01*
X108042856Y-100272928D02*
X108114285Y-100308642D01*
X108114285Y-100308642D02*
X108149999Y-100344357D01*
X108149999Y-100344357D02*
X108185713Y-100415785D01*
X108185713Y-100415785D02*
X108185713Y-100594357D01*
X108185713Y-100594357D02*
X108149999Y-100665785D01*
X108149999Y-100665785D02*
X108114285Y-100701500D01*
X108114285Y-100701500D02*
X108042856Y-100737214D01*
X108042856Y-100737214D02*
X107828570Y-100737214D01*
X107828570Y-100737214D02*
X107757142Y-100701500D01*
X107757142Y-100701500D02*
X107721427Y-100665785D01*
X80341500Y-107234285D02*
X80341500Y-106662857D01*
X80627214Y-106948571D02*
X80055785Y-106948571D01*
X79877214Y-105948571D02*
X79877214Y-106305714D01*
X79877214Y-106305714D02*
X80234357Y-106341428D01*
X80234357Y-106341428D02*
X80198642Y-106305714D01*
X80198642Y-106305714D02*
X80162928Y-106234286D01*
X80162928Y-106234286D02*
X80162928Y-106055714D01*
X80162928Y-106055714D02*
X80198642Y-105984286D01*
X80198642Y-105984286D02*
X80234357Y-105948571D01*
X80234357Y-105948571D02*
X80305785Y-105912857D01*
X80305785Y-105912857D02*
X80484357Y-105912857D01*
X80484357Y-105912857D02*
X80555785Y-105948571D01*
X80555785Y-105948571D02*
X80591500Y-105984286D01*
X80591500Y-105984286D02*
X80627214Y-106055714D01*
X80627214Y-106055714D02*
X80627214Y-106234286D01*
X80627214Y-106234286D02*
X80591500Y-106305714D01*
X80591500Y-106305714D02*
X80555785Y-106341428D01*
X79877214Y-105698571D02*
X80627214Y-105448571D01*
X80627214Y-105448571D02*
X79877214Y-105198571D01*
D14*
X106845715Y-80535485D02*
X106931429Y-80564057D01*
X106931429Y-80564057D02*
X106960000Y-80592628D01*
X106960000Y-80592628D02*
X106988572Y-80649771D01*
X106988572Y-80649771D02*
X106988572Y-80735485D01*
X106988572Y-80735485D02*
X106960000Y-80792628D01*
X106960000Y-80792628D02*
X106931429Y-80821200D01*
X106931429Y-80821200D02*
X106874286Y-80849771D01*
X106874286Y-80849771D02*
X106645715Y-80849771D01*
X106645715Y-80849771D02*
X106645715Y-80249771D01*
X106645715Y-80249771D02*
X106845715Y-80249771D01*
X106845715Y-80249771D02*
X106902858Y-80278342D01*
X106902858Y-80278342D02*
X106931429Y-80306914D01*
X106931429Y-80306914D02*
X106960000Y-80364057D01*
X106960000Y-80364057D02*
X106960000Y-80421200D01*
X106960000Y-80421200D02*
X106931429Y-80478342D01*
X106931429Y-80478342D02*
X106902858Y-80506914D01*
X106902858Y-80506914D02*
X106845715Y-80535485D01*
X106845715Y-80535485D02*
X106645715Y-80535485D01*
X107360000Y-80249771D02*
X107474286Y-80249771D01*
X107474286Y-80249771D02*
X107531429Y-80278342D01*
X107531429Y-80278342D02*
X107588572Y-80335485D01*
X107588572Y-80335485D02*
X107617143Y-80449771D01*
X107617143Y-80449771D02*
X107617143Y-80649771D01*
X107617143Y-80649771D02*
X107588572Y-80764057D01*
X107588572Y-80764057D02*
X107531429Y-80821200D01*
X107531429Y-80821200D02*
X107474286Y-80849771D01*
X107474286Y-80849771D02*
X107360000Y-80849771D01*
X107360000Y-80849771D02*
X107302858Y-80821200D01*
X107302858Y-80821200D02*
X107245715Y-80764057D01*
X107245715Y-80764057D02*
X107217143Y-80649771D01*
X107217143Y-80649771D02*
X107217143Y-80449771D01*
X107217143Y-80449771D02*
X107245715Y-80335485D01*
X107245715Y-80335485D02*
X107302858Y-80278342D01*
X107302858Y-80278342D02*
X107360000Y-80249771D01*
X107988571Y-80249771D02*
X108102857Y-80249771D01*
X108102857Y-80249771D02*
X108160000Y-80278342D01*
X108160000Y-80278342D02*
X108217143Y-80335485D01*
X108217143Y-80335485D02*
X108245714Y-80449771D01*
X108245714Y-80449771D02*
X108245714Y-80649771D01*
X108245714Y-80649771D02*
X108217143Y-80764057D01*
X108217143Y-80764057D02*
X108160000Y-80821200D01*
X108160000Y-80821200D02*
X108102857Y-80849771D01*
X108102857Y-80849771D02*
X107988571Y-80849771D01*
X107988571Y-80849771D02*
X107931429Y-80821200D01*
X107931429Y-80821200D02*
X107874286Y-80764057D01*
X107874286Y-80764057D02*
X107845714Y-80649771D01*
X107845714Y-80649771D02*
X107845714Y-80449771D01*
X107845714Y-80449771D02*
X107874286Y-80335485D01*
X107874286Y-80335485D02*
X107931429Y-80278342D01*
X107931429Y-80278342D02*
X107988571Y-80249771D01*
X108417142Y-80249771D02*
X108760000Y-80249771D01*
X108588571Y-80849771D02*
X108588571Y-80249771D01*
D11*
X99521428Y-120112214D02*
X99521428Y-119362214D01*
X99878571Y-120112214D02*
X99878571Y-119362214D01*
X99878571Y-119362214D02*
X100307142Y-120112214D01*
X100307142Y-120112214D02*
X100307142Y-119362214D01*
X100592856Y-119362214D02*
X101057142Y-119362214D01*
X101057142Y-119362214D02*
X100807142Y-119647928D01*
X100807142Y-119647928D02*
X100914285Y-119647928D01*
X100914285Y-119647928D02*
X100985714Y-119683642D01*
X100985714Y-119683642D02*
X101021428Y-119719357D01*
X101021428Y-119719357D02*
X101057142Y-119790785D01*
X101057142Y-119790785D02*
X101057142Y-119969357D01*
X101057142Y-119969357D02*
X101021428Y-120040785D01*
X101021428Y-120040785D02*
X100985714Y-120076500D01*
X100985714Y-120076500D02*
X100914285Y-120112214D01*
X100914285Y-120112214D02*
X100699999Y-120112214D01*
X100699999Y-120112214D02*
X100628571Y-120076500D01*
X100628571Y-120076500D02*
X100592856Y-120040785D01*
X109678570Y-120112214D02*
X109678570Y-119362214D01*
X110035713Y-120112214D02*
X110035713Y-119362214D01*
X110035713Y-119362214D02*
X110464284Y-120112214D01*
X110464284Y-120112214D02*
X110464284Y-119362214D01*
X111142856Y-119362214D02*
X110999998Y-119362214D01*
X110999998Y-119362214D02*
X110928570Y-119397928D01*
X110928570Y-119397928D02*
X110892856Y-119433642D01*
X110892856Y-119433642D02*
X110821427Y-119540785D01*
X110821427Y-119540785D02*
X110785713Y-119683642D01*
X110785713Y-119683642D02*
X110785713Y-119969357D01*
X110785713Y-119969357D02*
X110821427Y-120040785D01*
X110821427Y-120040785D02*
X110857141Y-120076500D01*
X110857141Y-120076500D02*
X110928570Y-120112214D01*
X110928570Y-120112214D02*
X111071427Y-120112214D01*
X111071427Y-120112214D02*
X111142856Y-120076500D01*
X111142856Y-120076500D02*
X111178570Y-120040785D01*
X111178570Y-120040785D02*
X111214284Y-119969357D01*
X111214284Y-119969357D02*
X111214284Y-119790785D01*
X111214284Y-119790785D02*
X111178570Y-119719357D01*
X111178570Y-119719357D02*
X111142856Y-119683642D01*
X111142856Y-119683642D02*
X111071427Y-119647928D01*
X111071427Y-119647928D02*
X110928570Y-119647928D01*
X110928570Y-119647928D02*
X110857141Y-119683642D01*
X110857141Y-119683642D02*
X110821427Y-119719357D01*
X110821427Y-119719357D02*
X110785713Y-119790785D01*
X106292856Y-120112214D02*
X106292856Y-119362214D01*
X106649999Y-120112214D02*
X106649999Y-119362214D01*
X106649999Y-119362214D02*
X107078570Y-120112214D01*
X107078570Y-120112214D02*
X107078570Y-119362214D01*
X107792856Y-119362214D02*
X107435713Y-119362214D01*
X107435713Y-119362214D02*
X107399999Y-119719357D01*
X107399999Y-119719357D02*
X107435713Y-119683642D01*
X107435713Y-119683642D02*
X107507142Y-119647928D01*
X107507142Y-119647928D02*
X107685713Y-119647928D01*
X107685713Y-119647928D02*
X107757142Y-119683642D01*
X107757142Y-119683642D02*
X107792856Y-119719357D01*
X107792856Y-119719357D02*
X107828570Y-119790785D01*
X107828570Y-119790785D02*
X107828570Y-119969357D01*
X107828570Y-119969357D02*
X107792856Y-120040785D01*
X107792856Y-120040785D02*
X107757142Y-120076500D01*
X107757142Y-120076500D02*
X107685713Y-120112214D01*
X107685713Y-120112214D02*
X107507142Y-120112214D01*
X107507142Y-120112214D02*
X107435713Y-120076500D01*
X107435713Y-120076500D02*
X107399999Y-120040785D01*
D14*
X74653571Y-84019771D02*
X74453571Y-83734057D01*
X74310714Y-84019771D02*
X74310714Y-83419771D01*
X74310714Y-83419771D02*
X74539285Y-83419771D01*
X74539285Y-83419771D02*
X74596428Y-83448342D01*
X74596428Y-83448342D02*
X74624999Y-83476914D01*
X74624999Y-83476914D02*
X74653571Y-83534057D01*
X74653571Y-83534057D02*
X74653571Y-83619771D01*
X74653571Y-83619771D02*
X74624999Y-83676914D01*
X74624999Y-83676914D02*
X74596428Y-83705485D01*
X74596428Y-83705485D02*
X74539285Y-83734057D01*
X74539285Y-83734057D02*
X74310714Y-83734057D01*
X74910714Y-83705485D02*
X75110714Y-83705485D01*
X75196428Y-84019771D02*
X74910714Y-84019771D01*
X74910714Y-84019771D02*
X74910714Y-83419771D01*
X74910714Y-83419771D02*
X75196428Y-83419771D01*
X75424999Y-83991200D02*
X75510714Y-84019771D01*
X75510714Y-84019771D02*
X75653571Y-84019771D01*
X75653571Y-84019771D02*
X75710714Y-83991200D01*
X75710714Y-83991200D02*
X75739285Y-83962628D01*
X75739285Y-83962628D02*
X75767856Y-83905485D01*
X75767856Y-83905485D02*
X75767856Y-83848342D01*
X75767856Y-83848342D02*
X75739285Y-83791200D01*
X75739285Y-83791200D02*
X75710714Y-83762628D01*
X75710714Y-83762628D02*
X75653571Y-83734057D01*
X75653571Y-83734057D02*
X75539285Y-83705485D01*
X75539285Y-83705485D02*
X75482142Y-83676914D01*
X75482142Y-83676914D02*
X75453571Y-83648342D01*
X75453571Y-83648342D02*
X75424999Y-83591200D01*
X75424999Y-83591200D02*
X75424999Y-83534057D01*
X75424999Y-83534057D02*
X75453571Y-83476914D01*
X75453571Y-83476914D02*
X75482142Y-83448342D01*
X75482142Y-83448342D02*
X75539285Y-83419771D01*
X75539285Y-83419771D02*
X75682142Y-83419771D01*
X75682142Y-83419771D02*
X75767856Y-83448342D01*
X76025000Y-83705485D02*
X76225000Y-83705485D01*
X76310714Y-84019771D02*
X76025000Y-84019771D01*
X76025000Y-84019771D02*
X76025000Y-83419771D01*
X76025000Y-83419771D02*
X76310714Y-83419771D01*
X76482142Y-83419771D02*
X76825000Y-83419771D01*
X76653571Y-84019771D02*
X76653571Y-83419771D01*
D11*
X112707141Y-100737214D02*
X112707141Y-99987214D01*
X113064284Y-100737214D02*
X113064284Y-99987214D01*
X113064284Y-99987214D02*
X113492855Y-100737214D01*
X113492855Y-100737214D02*
X113492855Y-99987214D01*
X114242855Y-100737214D02*
X113814284Y-100737214D01*
X114028569Y-100737214D02*
X114028569Y-99987214D01*
X114028569Y-99987214D02*
X113957141Y-100094357D01*
X113957141Y-100094357D02*
X113885712Y-100165785D01*
X113885712Y-100165785D02*
X113814284Y-100201500D01*
X114921427Y-99987214D02*
X114564284Y-99987214D01*
X114564284Y-99987214D02*
X114528570Y-100344357D01*
X114528570Y-100344357D02*
X114564284Y-100308642D01*
X114564284Y-100308642D02*
X114635713Y-100272928D01*
X114635713Y-100272928D02*
X114814284Y-100272928D01*
X114814284Y-100272928D02*
X114885713Y-100308642D01*
X114885713Y-100308642D02*
X114921427Y-100344357D01*
X114921427Y-100344357D02*
X114957141Y-100415785D01*
X114957141Y-100415785D02*
X114957141Y-100594357D01*
X114957141Y-100594357D02*
X114921427Y-100665785D01*
X114921427Y-100665785D02*
X114885713Y-100701500D01*
X114885713Y-100701500D02*
X114814284Y-100737214D01*
X114814284Y-100737214D02*
X114635713Y-100737214D01*
X114635713Y-100737214D02*
X114564284Y-100701500D01*
X114564284Y-100701500D02*
X114528570Y-100665785D01*
X113064284Y-120112214D02*
X113064284Y-119362214D01*
X113421427Y-120112214D02*
X113421427Y-119362214D01*
X113421427Y-119362214D02*
X113849998Y-120112214D01*
X113849998Y-120112214D02*
X113849998Y-119362214D01*
X114135712Y-119362214D02*
X114635712Y-119362214D01*
X114635712Y-119362214D02*
X114314284Y-120112214D01*
X92750000Y-100737214D02*
X92750000Y-99987214D01*
X93107143Y-100737214D02*
X93107143Y-99987214D01*
X93107143Y-99987214D02*
X93535714Y-100737214D01*
X93535714Y-100737214D02*
X93535714Y-99987214D01*
X93928571Y-100737214D02*
X94071428Y-100737214D01*
X94071428Y-100737214D02*
X94142857Y-100701500D01*
X94142857Y-100701500D02*
X94178571Y-100665785D01*
X94178571Y-100665785D02*
X94250000Y-100558642D01*
X94250000Y-100558642D02*
X94285714Y-100415785D01*
X94285714Y-100415785D02*
X94285714Y-100130071D01*
X94285714Y-100130071D02*
X94250000Y-100058642D01*
X94250000Y-100058642D02*
X94214286Y-100022928D01*
X94214286Y-100022928D02*
X94142857Y-99987214D01*
X94142857Y-99987214D02*
X94000000Y-99987214D01*
X94000000Y-99987214D02*
X93928571Y-100022928D01*
X93928571Y-100022928D02*
X93892857Y-100058642D01*
X93892857Y-100058642D02*
X93857143Y-100130071D01*
X93857143Y-100130071D02*
X93857143Y-100308642D01*
X93857143Y-100308642D02*
X93892857Y-100380071D01*
X93892857Y-100380071D02*
X93928571Y-100415785D01*
X93928571Y-100415785D02*
X94000000Y-100451500D01*
X94000000Y-100451500D02*
X94142857Y-100451500D01*
X94142857Y-100451500D02*
X94214286Y-100415785D01*
X94214286Y-100415785D02*
X94250000Y-100380071D01*
X94250000Y-100380071D02*
X94285714Y-100308642D01*
X102549999Y-100737214D02*
X102549999Y-99987214D01*
X102907142Y-100737214D02*
X102907142Y-99987214D01*
X102907142Y-99987214D02*
X103335713Y-100737214D01*
X103335713Y-100737214D02*
X103335713Y-99987214D01*
X104085713Y-100737214D02*
X103657142Y-100737214D01*
X103871427Y-100737214D02*
X103871427Y-99987214D01*
X103871427Y-99987214D02*
X103799999Y-100094357D01*
X103799999Y-100094357D02*
X103728570Y-100165785D01*
X103728570Y-100165785D02*
X103657142Y-100201500D01*
X104371428Y-100058642D02*
X104407142Y-100022928D01*
X104407142Y-100022928D02*
X104478571Y-99987214D01*
X104478571Y-99987214D02*
X104657142Y-99987214D01*
X104657142Y-99987214D02*
X104728571Y-100022928D01*
X104728571Y-100022928D02*
X104764285Y-100058642D01*
X104764285Y-100058642D02*
X104799999Y-100130071D01*
X104799999Y-100130071D02*
X104799999Y-100201500D01*
X104799999Y-100201500D02*
X104764285Y-100308642D01*
X104764285Y-100308642D02*
X104335713Y-100737214D01*
X104335713Y-100737214D02*
X104799999Y-100737214D01*
X102907142Y-120112214D02*
X102907142Y-119362214D01*
X103264285Y-120112214D02*
X103264285Y-119362214D01*
X103264285Y-119362214D02*
X103692856Y-120112214D01*
X103692856Y-120112214D02*
X103692856Y-119362214D01*
X104371428Y-119612214D02*
X104371428Y-120112214D01*
X104192856Y-119326500D02*
X104014285Y-119862214D01*
X104014285Y-119862214D02*
X104478570Y-119862214D01*
D14*
X91431200Y-112714285D02*
X91431200Y-112257143D01*
X91659771Y-112485714D02*
X91202628Y-112485714D01*
X91059771Y-111685714D02*
X91059771Y-111971428D01*
X91059771Y-111971428D02*
X91345485Y-112000000D01*
X91345485Y-112000000D02*
X91316914Y-111971428D01*
X91316914Y-111971428D02*
X91288342Y-111914286D01*
X91288342Y-111914286D02*
X91288342Y-111771428D01*
X91288342Y-111771428D02*
X91316914Y-111714286D01*
X91316914Y-111714286D02*
X91345485Y-111685714D01*
X91345485Y-111685714D02*
X91402628Y-111657143D01*
X91402628Y-111657143D02*
X91545485Y-111657143D01*
X91545485Y-111657143D02*
X91602628Y-111685714D01*
X91602628Y-111685714D02*
X91631200Y-111714286D01*
X91631200Y-111714286D02*
X91659771Y-111771428D01*
X91659771Y-111771428D02*
X91659771Y-111914286D01*
X91659771Y-111914286D02*
X91631200Y-111971428D01*
X91631200Y-111971428D02*
X91602628Y-112000000D01*
X91059771Y-111485714D02*
X91659771Y-111285714D01*
X91659771Y-111285714D02*
X91059771Y-111085714D01*
X91659771Y-110428570D02*
X91059771Y-110428570D01*
X91059771Y-110428570D02*
X91059771Y-110199999D01*
X91059771Y-110199999D02*
X91088342Y-110142856D01*
X91088342Y-110142856D02*
X91116914Y-110114285D01*
X91116914Y-110114285D02*
X91174057Y-110085713D01*
X91174057Y-110085713D02*
X91259771Y-110085713D01*
X91259771Y-110085713D02*
X91316914Y-110114285D01*
X91316914Y-110114285D02*
X91345485Y-110142856D01*
X91345485Y-110142856D02*
X91374057Y-110199999D01*
X91374057Y-110199999D02*
X91374057Y-110428570D01*
X91059771Y-109828570D02*
X91545485Y-109828570D01*
X91545485Y-109828570D02*
X91602628Y-109799999D01*
X91602628Y-109799999D02*
X91631200Y-109771428D01*
X91631200Y-109771428D02*
X91659771Y-109714285D01*
X91659771Y-109714285D02*
X91659771Y-109599999D01*
X91659771Y-109599999D02*
X91631200Y-109542856D01*
X91631200Y-109542856D02*
X91602628Y-109514285D01*
X91602628Y-109514285D02*
X91545485Y-109485713D01*
X91545485Y-109485713D02*
X91059771Y-109485713D01*
X91659771Y-108914285D02*
X91659771Y-109199999D01*
X91659771Y-109199999D02*
X91059771Y-109199999D01*
X91659771Y-108428571D02*
X91659771Y-108714285D01*
X91659771Y-108714285D02*
X91059771Y-108714285D01*
X91059771Y-108228571D02*
X91545485Y-108228571D01*
X91545485Y-108228571D02*
X91602628Y-108200000D01*
X91602628Y-108200000D02*
X91631200Y-108171429D01*
X91631200Y-108171429D02*
X91659771Y-108114286D01*
X91659771Y-108114286D02*
X91659771Y-108000000D01*
X91659771Y-108000000D02*
X91631200Y-107942857D01*
X91631200Y-107942857D02*
X91602628Y-107914286D01*
X91602628Y-107914286D02*
X91545485Y-107885714D01*
X91545485Y-107885714D02*
X91059771Y-107885714D01*
X91659771Y-107600000D02*
X91059771Y-107600000D01*
X91059771Y-107600000D02*
X91059771Y-107371429D01*
X91059771Y-107371429D02*
X91088342Y-107314286D01*
X91088342Y-107314286D02*
X91116914Y-107285715D01*
X91116914Y-107285715D02*
X91174057Y-107257143D01*
X91174057Y-107257143D02*
X91259771Y-107257143D01*
X91259771Y-107257143D02*
X91316914Y-107285715D01*
X91316914Y-107285715D02*
X91345485Y-107314286D01*
X91345485Y-107314286D02*
X91374057Y-107371429D01*
X91374057Y-107371429D02*
X91374057Y-107600000D01*
D11*
X92750000Y-120112214D02*
X92750000Y-119362214D01*
X93107143Y-120112214D02*
X93107143Y-119362214D01*
X93107143Y-119362214D02*
X93535714Y-120112214D01*
X93535714Y-120112214D02*
X93535714Y-119362214D01*
X94285714Y-120112214D02*
X93857143Y-120112214D01*
X94071428Y-120112214D02*
X94071428Y-119362214D01*
X94071428Y-119362214D02*
X94000000Y-119469357D01*
X94000000Y-119469357D02*
X93928571Y-119540785D01*
X93928571Y-119540785D02*
X93857143Y-119576500D01*
X95778571Y-100737214D02*
X95778571Y-99987214D01*
X96135714Y-100737214D02*
X96135714Y-99987214D01*
X96135714Y-99987214D02*
X96564285Y-100737214D01*
X96564285Y-100737214D02*
X96564285Y-99987214D01*
X97314285Y-100737214D02*
X96885714Y-100737214D01*
X97099999Y-100737214D02*
X97099999Y-99987214D01*
X97099999Y-99987214D02*
X97028571Y-100094357D01*
X97028571Y-100094357D02*
X96957142Y-100165785D01*
X96957142Y-100165785D02*
X96885714Y-100201500D01*
X97778571Y-99987214D02*
X97850000Y-99987214D01*
X97850000Y-99987214D02*
X97921428Y-100022928D01*
X97921428Y-100022928D02*
X97957143Y-100058642D01*
X97957143Y-100058642D02*
X97992857Y-100130071D01*
X97992857Y-100130071D02*
X98028571Y-100272928D01*
X98028571Y-100272928D02*
X98028571Y-100451500D01*
X98028571Y-100451500D02*
X97992857Y-100594357D01*
X97992857Y-100594357D02*
X97957143Y-100665785D01*
X97957143Y-100665785D02*
X97921428Y-100701500D01*
X97921428Y-100701500D02*
X97850000Y-100737214D01*
X97850000Y-100737214D02*
X97778571Y-100737214D01*
X97778571Y-100737214D02*
X97707143Y-100701500D01*
X97707143Y-100701500D02*
X97671428Y-100665785D01*
X97671428Y-100665785D02*
X97635714Y-100594357D01*
X97635714Y-100594357D02*
X97600000Y-100451500D01*
X97600000Y-100451500D02*
X97600000Y-100272928D01*
X97600000Y-100272928D02*
X97635714Y-100130071D01*
X97635714Y-100130071D02*
X97671428Y-100058642D01*
X97671428Y-100058642D02*
X97707143Y-100022928D01*
X97707143Y-100022928D02*
X97778571Y-99987214D01*
X77831500Y-92801428D02*
X77831500Y-92230000D01*
X78117214Y-92515714D02*
X77545785Y-92515714D01*
X77367214Y-91944286D02*
X77367214Y-91480000D01*
X77367214Y-91480000D02*
X77652928Y-91730000D01*
X77652928Y-91730000D02*
X77652928Y-91622857D01*
X77652928Y-91622857D02*
X77688642Y-91551429D01*
X77688642Y-91551429D02*
X77724357Y-91515714D01*
X77724357Y-91515714D02*
X77795785Y-91480000D01*
X77795785Y-91480000D02*
X77974357Y-91480000D01*
X77974357Y-91480000D02*
X78045785Y-91515714D01*
X78045785Y-91515714D02*
X78081500Y-91551429D01*
X78081500Y-91551429D02*
X78117214Y-91622857D01*
X78117214Y-91622857D02*
X78117214Y-91837143D01*
X78117214Y-91837143D02*
X78081500Y-91908571D01*
X78081500Y-91908571D02*
X78045785Y-91944286D01*
X77367214Y-91265714D02*
X78117214Y-91015714D01*
X78117214Y-91015714D02*
X77367214Y-90765714D01*
X77367214Y-90587143D02*
X77367214Y-90122857D01*
X77367214Y-90122857D02*
X77652928Y-90372857D01*
X77652928Y-90372857D02*
X77652928Y-90265714D01*
X77652928Y-90265714D02*
X77688642Y-90194286D01*
X77688642Y-90194286D02*
X77724357Y-90158571D01*
X77724357Y-90158571D02*
X77795785Y-90122857D01*
X77795785Y-90122857D02*
X77974357Y-90122857D01*
X77974357Y-90122857D02*
X78045785Y-90158571D01*
X78045785Y-90158571D02*
X78081500Y-90194286D01*
X78081500Y-90194286D02*
X78117214Y-90265714D01*
X78117214Y-90265714D02*
X78117214Y-90480000D01*
X78117214Y-90480000D02*
X78081500Y-90551428D01*
X78081500Y-90551428D02*
X78045785Y-90587143D01*
D15*
X74514286Y-111674809D02*
X74276191Y-111674809D01*
X74276191Y-111674809D02*
X74252382Y-111912904D01*
X74252382Y-111912904D02*
X74276191Y-111889095D01*
X74276191Y-111889095D02*
X74323810Y-111865285D01*
X74323810Y-111865285D02*
X74442858Y-111865285D01*
X74442858Y-111865285D02*
X74490477Y-111889095D01*
X74490477Y-111889095D02*
X74514286Y-111912904D01*
X74514286Y-111912904D02*
X74538096Y-111960523D01*
X74538096Y-111960523D02*
X74538096Y-112079571D01*
X74538096Y-112079571D02*
X74514286Y-112127190D01*
X74514286Y-112127190D02*
X74490477Y-112151000D01*
X74490477Y-112151000D02*
X74442858Y-112174809D01*
X74442858Y-112174809D02*
X74323810Y-112174809D01*
X74323810Y-112174809D02*
X74276191Y-112151000D01*
X74276191Y-112151000D02*
X74252382Y-112127190D01*
X74847619Y-111674809D02*
X74895238Y-111674809D01*
X74895238Y-111674809D02*
X74942857Y-111698619D01*
X74942857Y-111698619D02*
X74966667Y-111722428D01*
X74966667Y-111722428D02*
X74990476Y-111770047D01*
X74990476Y-111770047D02*
X75014286Y-111865285D01*
X75014286Y-111865285D02*
X75014286Y-111984333D01*
X75014286Y-111984333D02*
X74990476Y-112079571D01*
X74990476Y-112079571D02*
X74966667Y-112127190D01*
X74966667Y-112127190D02*
X74942857Y-112151000D01*
X74942857Y-112151000D02*
X74895238Y-112174809D01*
X74895238Y-112174809D02*
X74847619Y-112174809D01*
X74847619Y-112174809D02*
X74800000Y-112151000D01*
X74800000Y-112151000D02*
X74776191Y-112127190D01*
X74776191Y-112127190D02*
X74752381Y-112079571D01*
X74752381Y-112079571D02*
X74728572Y-111984333D01*
X74728572Y-111984333D02*
X74728572Y-111865285D01*
X74728572Y-111865285D02*
X74752381Y-111770047D01*
X74752381Y-111770047D02*
X74776191Y-111722428D01*
X74776191Y-111722428D02*
X74800000Y-111698619D01*
X74800000Y-111698619D02*
X74847619Y-111674809D01*
X75323809Y-111674809D02*
X75371428Y-111674809D01*
X75371428Y-111674809D02*
X75419047Y-111698619D01*
X75419047Y-111698619D02*
X75442857Y-111722428D01*
X75442857Y-111722428D02*
X75466666Y-111770047D01*
X75466666Y-111770047D02*
X75490476Y-111865285D01*
X75490476Y-111865285D02*
X75490476Y-111984333D01*
X75490476Y-111984333D02*
X75466666Y-112079571D01*
X75466666Y-112079571D02*
X75442857Y-112127190D01*
X75442857Y-112127190D02*
X75419047Y-112151000D01*
X75419047Y-112151000D02*
X75371428Y-112174809D01*
X75371428Y-112174809D02*
X75323809Y-112174809D01*
X75323809Y-112174809D02*
X75276190Y-112151000D01*
X75276190Y-112151000D02*
X75252381Y-112127190D01*
X75252381Y-112127190D02*
X75228571Y-112079571D01*
X75228571Y-112079571D02*
X75204762Y-111984333D01*
X75204762Y-111984333D02*
X75204762Y-111865285D01*
X75204762Y-111865285D02*
X75228571Y-111770047D01*
X75228571Y-111770047D02*
X75252381Y-111722428D01*
X75252381Y-111722428D02*
X75276190Y-111698619D01*
X75276190Y-111698619D02*
X75323809Y-111674809D01*
X75704761Y-112174809D02*
X75704761Y-111841476D01*
X75704761Y-111889095D02*
X75728571Y-111865285D01*
X75728571Y-111865285D02*
X75776190Y-111841476D01*
X75776190Y-111841476D02*
X75847618Y-111841476D01*
X75847618Y-111841476D02*
X75895237Y-111865285D01*
X75895237Y-111865285D02*
X75919047Y-111912904D01*
X75919047Y-111912904D02*
X75919047Y-112174809D01*
X75919047Y-111912904D02*
X75942856Y-111865285D01*
X75942856Y-111865285D02*
X75990475Y-111841476D01*
X75990475Y-111841476D02*
X76061904Y-111841476D01*
X76061904Y-111841476D02*
X76109523Y-111865285D01*
X76109523Y-111865285D02*
X76133333Y-111912904D01*
X76133333Y-111912904D02*
X76133333Y-112174809D01*
X76347619Y-112031952D02*
X76585714Y-112031952D01*
X76300000Y-112174809D02*
X76466666Y-111674809D01*
X76466666Y-111674809D02*
X76633333Y-112174809D01*
X77180951Y-112174809D02*
X77180951Y-111674809D01*
X77180951Y-111674809D02*
X77371427Y-111674809D01*
X77371427Y-111674809D02*
X77419046Y-111698619D01*
X77419046Y-111698619D02*
X77442856Y-111722428D01*
X77442856Y-111722428D02*
X77466665Y-111770047D01*
X77466665Y-111770047D02*
X77466665Y-111841476D01*
X77466665Y-111841476D02*
X77442856Y-111889095D01*
X77442856Y-111889095D02*
X77419046Y-111912904D01*
X77419046Y-111912904D02*
X77371427Y-111936714D01*
X77371427Y-111936714D02*
X77180951Y-111936714D01*
X77680951Y-112174809D02*
X77680951Y-111674809D01*
X77680951Y-111674809D02*
X77871427Y-111674809D01*
X77871427Y-111674809D02*
X77919046Y-111698619D01*
X77919046Y-111698619D02*
X77942856Y-111722428D01*
X77942856Y-111722428D02*
X77966665Y-111770047D01*
X77966665Y-111770047D02*
X77966665Y-111841476D01*
X77966665Y-111841476D02*
X77942856Y-111889095D01*
X77942856Y-111889095D02*
X77919046Y-111912904D01*
X77919046Y-111912904D02*
X77871427Y-111936714D01*
X77871427Y-111936714D02*
X77680951Y-111936714D01*
X78109523Y-111674809D02*
X78395237Y-111674809D01*
X78252380Y-112174809D02*
X78252380Y-111674809D01*
X78847617Y-112127190D02*
X78823808Y-112151000D01*
X78823808Y-112151000D02*
X78752379Y-112174809D01*
X78752379Y-112174809D02*
X78704760Y-112174809D01*
X78704760Y-112174809D02*
X78633332Y-112151000D01*
X78633332Y-112151000D02*
X78585713Y-112103380D01*
X78585713Y-112103380D02*
X78561903Y-112055761D01*
X78561903Y-112055761D02*
X78538094Y-111960523D01*
X78538094Y-111960523D02*
X78538094Y-111889095D01*
X78538094Y-111889095D02*
X78561903Y-111793857D01*
X78561903Y-111793857D02*
X78585713Y-111746238D01*
X78585713Y-111746238D02*
X78633332Y-111698619D01*
X78633332Y-111698619D02*
X78704760Y-111674809D01*
X78704760Y-111674809D02*
X78752379Y-111674809D01*
X78752379Y-111674809D02*
X78823808Y-111698619D01*
X78823808Y-111698619D02*
X78847617Y-111722428D01*
D16*
%TO.C,G\u002A\u002A\u002A*%
G36*
X85475240Y-107864962D02*
G01*
X85566175Y-107871288D01*
X85629541Y-107879662D01*
X85811683Y-107923018D01*
X85984440Y-107987721D01*
X86146876Y-108073300D01*
X86298054Y-108179287D01*
X86393689Y-108262531D01*
X86515030Y-108388668D01*
X86615945Y-108518995D01*
X86699450Y-108657823D01*
X86757901Y-108783084D01*
X86782821Y-108849456D01*
X86795194Y-108899678D01*
X86795324Y-108937207D01*
X86783515Y-108965500D01*
X86774827Y-108975702D01*
X86766053Y-108983231D01*
X86754705Y-108988952D01*
X86737707Y-108993113D01*
X86711980Y-108995960D01*
X86674447Y-108997740D01*
X86622031Y-108998699D01*
X86551652Y-108999084D01*
X86482235Y-108999145D01*
X86393897Y-108999326D01*
X86325430Y-109000037D01*
X86273265Y-109001534D01*
X86233834Y-109004071D01*
X86203567Y-109007901D01*
X86178894Y-109013280D01*
X86156247Y-109020461D01*
X86149773Y-109022833D01*
X86110769Y-109040065D01*
X86078516Y-109058911D01*
X86065468Y-109069718D01*
X86046827Y-109087030D01*
X86035630Y-109092915D01*
X86029572Y-109082271D01*
X86021720Y-109054163D01*
X86013635Y-109014331D01*
X86012538Y-109007936D01*
X85981185Y-108872368D01*
X85935424Y-108755103D01*
X85874828Y-108655626D01*
X85798975Y-108573425D01*
X85707439Y-108507988D01*
X85599795Y-108458800D01*
X85543156Y-108441051D01*
X85488086Y-108429742D01*
X85419578Y-108422814D01*
X85333159Y-108419846D01*
X85315529Y-108419701D01*
X85230937Y-108420996D01*
X85163306Y-108426949D01*
X85106344Y-108439236D01*
X85053760Y-108459536D01*
X84999260Y-108489526D01*
X84960976Y-108514241D01*
X84921676Y-108539962D01*
X84895322Y-108554258D01*
X84875638Y-108559123D01*
X84856345Y-108556551D01*
X84841799Y-108552086D01*
X84790493Y-108541960D01*
X84725320Y-108538952D01*
X84654674Y-108542833D01*
X84586951Y-108553374D01*
X84561382Y-108559737D01*
X84487069Y-108580860D01*
X84495112Y-108634492D01*
X84512782Y-108708462D01*
X84543628Y-108791288D01*
X84584495Y-108875010D01*
X84603331Y-108907607D01*
X84649498Y-108983600D01*
X84627327Y-109088073D01*
X84613780Y-109175899D01*
X84606184Y-109278234D01*
X84604538Y-109386911D01*
X84608842Y-109493764D01*
X84619097Y-109590627D01*
X84627327Y-109636936D01*
X84649498Y-109741409D01*
X84606330Y-109812755D01*
X84566669Y-109885776D01*
X84532683Y-109962631D01*
X84507451Y-110035631D01*
X84494874Y-110090986D01*
X84486867Y-110145494D01*
X84555421Y-110165624D01*
X84613485Y-110177863D01*
X84680434Y-110184585D01*
X84747904Y-110185583D01*
X84807529Y-110180649D01*
X84842512Y-110172782D01*
X84866127Y-110166117D01*
X84885253Y-110166297D01*
X84906869Y-110175409D01*
X84937956Y-110195541D01*
X84952524Y-110205688D01*
X85030271Y-110253185D01*
X85107800Y-110284609D01*
X85193221Y-110302654D01*
X85262783Y-110308807D01*
X85392859Y-110306983D01*
X85515487Y-110288591D01*
X85627819Y-110254582D01*
X85727004Y-110205907D01*
X85810193Y-110143516D01*
X85835953Y-110117578D01*
X85902458Y-110028267D01*
X85955876Y-109920777D01*
X85995357Y-109796927D01*
X86004086Y-109758173D01*
X86014647Y-109708084D01*
X86023739Y-109667220D01*
X86030217Y-109640601D01*
X86032654Y-109633024D01*
X86042705Y-109636710D01*
X86062167Y-109652261D01*
X86064753Y-109654656D01*
X86090733Y-109672613D01*
X86129935Y-109692663D01*
X86167268Y-109707955D01*
X86207997Y-109723803D01*
X86232461Y-109737992D01*
X86246875Y-109755517D01*
X86257016Y-109780093D01*
X86265375Y-109816691D01*
X86271077Y-109864789D01*
X86272702Y-109902962D01*
X86266876Y-109973531D01*
X86247301Y-110033607D01*
X86211368Y-110087802D01*
X86156465Y-110140728D01*
X86123777Y-110166174D01*
X86054073Y-110225135D01*
X86002913Y-110284513D01*
X85971327Y-110342496D01*
X85960352Y-110397272D01*
X85967820Y-110439490D01*
X85979536Y-110470165D01*
X86014457Y-110429140D01*
X86061827Y-110375137D01*
X86101379Y-110335017D01*
X86139170Y-110303767D01*
X86181259Y-110276376D01*
X86233424Y-110247975D01*
X86299995Y-110210271D01*
X86348766Y-110173458D01*
X86384625Y-110132521D01*
X86412458Y-110082444D01*
X86425466Y-110050904D01*
X86438885Y-109998847D01*
X86446834Y-109932790D01*
X86448835Y-109861640D01*
X86444407Y-109794303D01*
X86440613Y-109769819D01*
X86432301Y-109725864D01*
X86591843Y-109725864D01*
X86656853Y-109726168D01*
X86702656Y-109727441D01*
X86733487Y-109730227D01*
X86753577Y-109735066D01*
X86767159Y-109742501D01*
X86774827Y-109749307D01*
X86791951Y-109775998D01*
X86796494Y-109811513D01*
X86788177Y-109858978D01*
X86766722Y-109921516D01*
X86757417Y-109944317D01*
X86675350Y-110110341D01*
X86574663Y-110263475D01*
X86457016Y-110402391D01*
X86324071Y-110525762D01*
X86177489Y-110632258D01*
X86018930Y-110720553D01*
X85850056Y-110789318D01*
X85672527Y-110837226D01*
X85630571Y-110845168D01*
X85554020Y-110854781D01*
X85462277Y-110860479D01*
X85363172Y-110862261D01*
X85264534Y-110860123D01*
X85174196Y-110854062D01*
X85107008Y-110845347D01*
X84925058Y-110801997D01*
X84752354Y-110737191D01*
X84589628Y-110651313D01*
X84437613Y-110544749D01*
X84299643Y-110420525D01*
X84173753Y-110277371D01*
X84069083Y-110124257D01*
X83985620Y-109961156D01*
X83923348Y-109788040D01*
X83885432Y-109623771D01*
X83875708Y-109546048D01*
X83870069Y-109453101D01*
X83868505Y-109352788D01*
X83871005Y-109252968D01*
X83877561Y-109161499D01*
X83886095Y-109097432D01*
X83928539Y-108918217D01*
X83991720Y-108749346D01*
X84075996Y-108590141D01*
X84181724Y-108439926D01*
X84306525Y-108300755D01*
X84448585Y-108173652D01*
X84598971Y-108068352D01*
X84758360Y-107984497D01*
X84927430Y-107921729D01*
X85103202Y-107880325D01*
X85181740Y-107870405D01*
X85275164Y-107864530D01*
X85375617Y-107862713D01*
X85475240Y-107864962D01*
G37*
D10*
%TO.C,D1*%
X74300000Y-121400000D02*
X75600000Y-121400000D01*
X74950000Y-121400000D02*
X74200000Y-120600000D01*
X75700000Y-120600000D02*
X74950000Y-121400000D01*
X74200000Y-120600000D02*
X75700000Y-120600000D01*
D17*
%TO.C,U1*%
X65000000Y-118807500D02*
X64670000Y-119047500D01*
X64670000Y-118567500D01*
X65000000Y-118807500D01*
G36*
X65000000Y-118807500D02*
G01*
X64670000Y-119047500D01*
X64670000Y-118567500D01*
X65000000Y-118807500D01*
G37*
%TO.C,ESD2*%
X89870000Y-121062500D02*
X89540000Y-120822500D01*
X89870000Y-120582500D01*
X89870000Y-121062500D01*
G36*
X89870000Y-121062500D02*
G01*
X89540000Y-120822500D01*
X89870000Y-120582500D01*
X89870000Y-121062500D01*
G37*
%TO.C,C37*%
X66171252Y-95240000D02*
X65648748Y-95240000D01*
X66171252Y-96710000D02*
X65648748Y-96710000D01*
%TO.C,R29*%
X93262742Y-102932500D02*
X93737258Y-102932500D01*
X93262742Y-103977500D02*
X93737258Y-103977500D01*
%TO.C,C45*%
X69811252Y-102640000D02*
X69288748Y-102640000D01*
X69811252Y-104110000D02*
X69288748Y-104110000D01*
%TO.C,R1*%
X63337500Y-117197258D02*
X63337500Y-116722742D01*
X64382500Y-117197258D02*
X64382500Y-116722742D01*
%TO.C,C9*%
X71015000Y-80390580D02*
X71015000Y-80109420D01*
X72035000Y-80390580D02*
X72035000Y-80109420D01*
%TO.C,C16*%
X100412008Y-114520000D02*
X100130848Y-114520000D01*
X100412008Y-115540000D02*
X100130848Y-115540000D01*
%TO.C,C49*%
X106505580Y-84960000D02*
X106224420Y-84960000D01*
X106505580Y-85980000D02*
X106224420Y-85980000D01*
%TO.C,R26*%
X114051542Y-116032500D02*
X113577026Y-116032500D01*
X114051542Y-117077500D02*
X113577026Y-117077500D01*
%TO.C,R8*%
X73152500Y-74667742D02*
X73152500Y-75142258D01*
X74197500Y-74667742D02*
X74197500Y-75142258D01*
%TO.C,R15*%
X93737258Y-117557500D02*
X93262742Y-117557500D01*
X93737258Y-118602500D02*
X93262742Y-118602500D01*
%TO.C,R63*%
X116962742Y-101407500D02*
X117437258Y-101407500D01*
X116962742Y-102452500D02*
X117437258Y-102452500D01*
%TO.C,R57*%
X110191312Y-101407500D02*
X110665828Y-101407500D01*
X110191312Y-102452500D02*
X110665828Y-102452500D01*
%TO.C,R6*%
X107917258Y-72027500D02*
X107442742Y-72027500D01*
X107917258Y-73072500D02*
X107442742Y-73072500D01*
%TO.C,R54*%
X106805598Y-101407500D02*
X107280114Y-101407500D01*
X106805598Y-102452500D02*
X107280114Y-102452500D01*
%TO.C,R43*%
X117437258Y-116032500D02*
X116962742Y-116032500D01*
X117437258Y-117077500D02*
X116962742Y-117077500D01*
%TO.C,R75*%
X78127500Y-108937742D02*
X78127500Y-109412258D01*
X79172500Y-108937742D02*
X79172500Y-109412258D01*
%TO.C,R4*%
X77357500Y-103187742D02*
X77357500Y-103662258D01*
X78402500Y-103187742D02*
X78402500Y-103662258D01*
%TO.C,C31*%
X113673704Y-104470000D02*
X113954864Y-104470000D01*
X113673704Y-105490000D02*
X113954864Y-105490000D01*
%TO.C,TP4*%
X79170000Y-106270000D02*
G75*
G02*
X77270000Y-106270000I-950000J0D01*
G01*
X77270000Y-106270000D02*
G75*
G02*
X79170000Y-106270000I950000J0D01*
G01*
%TO.C,C36*%
X65648748Y-92990000D02*
X66171252Y-92990000D01*
X65648748Y-94460000D02*
X66171252Y-94460000D01*
%TO.C,C1*%
X70198748Y-122340000D02*
X70721252Y-122340000D01*
X70198748Y-123810000D02*
X70721252Y-123810000D01*
%TO.C,C33*%
X76936252Y-74670000D02*
X76413748Y-74670000D01*
X76936252Y-76140000D02*
X76413748Y-76140000D01*
%TO.C,C21*%
X103797722Y-114520000D02*
X103516562Y-114520000D01*
X103797722Y-115540000D02*
X103516562Y-115540000D01*
%TO.C,R14*%
X71015000Y-83787258D02*
X71015000Y-83312742D01*
X72060000Y-83787258D02*
X72060000Y-83312742D01*
%TO.C,R39*%
X96648456Y-101407500D02*
X97122972Y-101407500D01*
X96648456Y-102452500D02*
X97122972Y-102452500D01*
D18*
%TO.C,IC3*%
X113100000Y-93988000D02*
X113100000Y-93988000D01*
D17*
%TO.C,C40*%
X65648748Y-108500000D02*
X66171252Y-108500000D01*
X65648748Y-109970000D02*
X66171252Y-109970000D01*
%TO.C,C20*%
X97026294Y-114520000D02*
X96745134Y-114520000D01*
X97026294Y-115540000D02*
X96745134Y-115540000D01*
%TO.C,C27*%
X100130848Y-104470000D02*
X100412008Y-104470000D01*
X100130848Y-105490000D02*
X100412008Y-105490000D01*
D18*
%TO.C,F1*%
X76545000Y-113515000D02*
X76545000Y-114965000D01*
D17*
%TO.C,R19*%
X100508686Y-117557500D02*
X100034170Y-117557500D01*
X100508686Y-118602500D02*
X100034170Y-118602500D01*
%TO.C,R61*%
X113577026Y-102932500D02*
X114051542Y-102932500D01*
X113577026Y-103977500D02*
X114051542Y-103977500D01*
%TO.C,R66*%
X66272742Y-120087500D02*
X66747258Y-120087500D01*
X66272742Y-121132500D02*
X66747258Y-121132500D01*
%TO.C,R55*%
X106805598Y-102932500D02*
X107280114Y-102932500D01*
X106805598Y-103977500D02*
X107280114Y-103977500D01*
%TO.C,C11*%
X75070000Y-88522164D02*
X75070000Y-88737836D01*
X75790000Y-88522164D02*
X75790000Y-88737836D01*
%TO.C,R25*%
X114051542Y-117557500D02*
X113577026Y-117557500D01*
X114051542Y-118602500D02*
X113577026Y-118602500D01*
%TO.C,R40*%
X97122972Y-116032500D02*
X96648456Y-116032500D01*
X97122972Y-117077500D02*
X96648456Y-117077500D01*
%TO.C,C28*%
X103516562Y-104470000D02*
X103797722Y-104470000D01*
X103516562Y-105490000D02*
X103797722Y-105490000D01*
%TO.C,R13*%
X71015000Y-90327742D02*
X71015000Y-90802258D01*
X72060000Y-90327742D02*
X72060000Y-90802258D01*
%TO.C,C48*%
X80761252Y-98755000D02*
X80238748Y-98755000D01*
X80761252Y-100225000D02*
X80238748Y-100225000D01*
%TO.C,R65*%
X66272742Y-121887500D02*
X66747258Y-121887500D01*
X66272742Y-122932500D02*
X66747258Y-122932500D01*
D18*
%TO.C,IC1*%
X85805000Y-117050000D02*
X85805000Y-117100000D01*
D17*
%TO.C,C23*%
X117340580Y-114520000D02*
X117059420Y-114520000D01*
X117340580Y-115540000D02*
X117059420Y-115540000D01*
%TO.C,C26*%
X109459420Y-84960000D02*
X109740580Y-84960000D01*
X109459420Y-85980000D02*
X109740580Y-85980000D01*
%TO.C,R20*%
X100508686Y-116032500D02*
X100034170Y-116032500D01*
X100508686Y-117077500D02*
X100034170Y-117077500D01*
%TO.C,R5*%
X79027500Y-102347258D02*
X79027500Y-101872742D01*
X80072500Y-102347258D02*
X80072500Y-101872742D01*
%TO.C,ESD1*%
X72862500Y-85500000D02*
X72062500Y-85500000D01*
X72862500Y-85500000D02*
X73662500Y-85500000D01*
X72862500Y-88620000D02*
X72062500Y-88620000D01*
X72862500Y-88620000D02*
X73662500Y-88620000D01*
X71562500Y-85550000D02*
X71322500Y-85220000D01*
X71802500Y-85220000D01*
X71562500Y-85550000D01*
G36*
X71562500Y-85550000D02*
G01*
X71322500Y-85220000D01*
X71802500Y-85220000D01*
X71562500Y-85550000D01*
G37*
%TO.C,C47*%
X81136252Y-96540000D02*
X80613748Y-96540000D01*
X81136252Y-98010000D02*
X80613748Y-98010000D01*
%TO.C,C29*%
X106902276Y-104470000D02*
X107183436Y-104470000D01*
X106902276Y-105490000D02*
X107183436Y-105490000D01*
%TO.C,C12*%
X79035000Y-122579420D02*
X79035000Y-122860580D01*
X80055000Y-122579420D02*
X80055000Y-122860580D01*
%TO.C,C2*%
X70198748Y-120125000D02*
X70721252Y-120125000D01*
X70198748Y-121595000D02*
X70721252Y-121595000D01*
%TO.C,C7*%
X73065000Y-102938748D02*
X73065000Y-103461252D01*
X74535000Y-102938748D02*
X74535000Y-103461252D01*
%TO.C,C46*%
X69811252Y-100415000D02*
X69288748Y-100415000D01*
X69811252Y-101885000D02*
X69288748Y-101885000D01*
%TO.C,R48*%
X100034170Y-101407500D02*
X100508686Y-101407500D01*
X100034170Y-102452500D02*
X100508686Y-102452500D01*
%TO.C,C24*%
X96745134Y-104470000D02*
X97026294Y-104470000D01*
X96745134Y-105490000D02*
X97026294Y-105490000D01*
%TO.C,R22*%
X107280114Y-117557500D02*
X106805598Y-117557500D01*
X107280114Y-118602500D02*
X106805598Y-118602500D01*
%TO.C,C19*%
X93359420Y-104470000D02*
X93640580Y-104470000D01*
X93359420Y-105490000D02*
X93640580Y-105490000D01*
%TO.C,R35*%
X97122972Y-117557500D02*
X96648456Y-117557500D01*
X97122972Y-118602500D02*
X96648456Y-118602500D01*
D10*
%TO.C,IC5*%
X70660000Y-105110000D02*
X70660000Y-105110000D01*
X70660000Y-105210000D02*
X70660000Y-105210000D01*
X70660000Y-105110000D02*
G75*
G02*
X70660000Y-105210000I0J-50000D01*
G01*
X70660000Y-105210000D02*
G75*
G02*
X70660000Y-105110000I0J50000D01*
G01*
D17*
%TO.C,L1*%
X71005000Y-113060000D02*
X70015000Y-113060000D01*
X71005000Y-117260000D02*
X70015000Y-117260000D01*
%TO.C,R51*%
X103419884Y-101407500D02*
X103894400Y-101407500D01*
X103419884Y-102452500D02*
X103894400Y-102452500D01*
%TO.C,R68*%
X73152500Y-109412258D02*
X73152500Y-108937742D01*
X74197500Y-109412258D02*
X74197500Y-108937742D01*
%TO.C,C32*%
X117059420Y-104470000D02*
X117340580Y-104470000D01*
X117059420Y-105490000D02*
X117340580Y-105490000D01*
%TO.C,R52*%
X103419884Y-102932500D02*
X103894400Y-102932500D01*
X103419884Y-103977500D02*
X103894400Y-103977500D01*
%TO.C,R16*%
X93737258Y-116032500D02*
X93262742Y-116032500D01*
X93737258Y-117077500D02*
X93262742Y-117077500D01*
%TO.C,R71*%
X80927500Y-102342258D02*
X80927500Y-101867742D01*
X81972500Y-102342258D02*
X81972500Y-101867742D01*
%TO.C,R36*%
X103894400Y-117557500D02*
X103419884Y-117557500D01*
X103894400Y-118602500D02*
X103419884Y-118602500D01*
%TO.C,R42*%
X110665828Y-116032500D02*
X110191312Y-116032500D01*
X110665828Y-117077500D02*
X110191312Y-117077500D01*
%TO.C,C14*%
X72670000Y-90429420D02*
X72670000Y-90710580D01*
X73690000Y-90429420D02*
X73690000Y-90710580D01*
%TO.C,R38*%
X117437258Y-117557500D02*
X116962742Y-117557500D01*
X117437258Y-118602500D02*
X116962742Y-118602500D01*
%TO.C,R2*%
X65447742Y-112362500D02*
X65922258Y-112362500D01*
X65447742Y-113407500D02*
X65922258Y-113407500D01*
%TO.C,C35*%
X69861252Y-92940000D02*
X69338748Y-92940000D01*
X69861252Y-94410000D02*
X69338748Y-94410000D01*
%TO.C,R28*%
X93262742Y-101407500D02*
X93737258Y-101407500D01*
X93262742Y-102452500D02*
X93737258Y-102452500D01*
%TO.C,R23*%
X107280114Y-116032500D02*
X106805598Y-116032500D01*
X107280114Y-117077500D02*
X106805598Y-117077500D01*
%TO.C,L2*%
X76763748Y-95660000D02*
X77286252Y-95660000D01*
X76763748Y-97880000D02*
X77286252Y-97880000D01*
%TO.C,C25*%
X117660580Y-84960000D02*
X117379420Y-84960000D01*
X117660580Y-85980000D02*
X117379420Y-85980000D01*
%TO.C,R12*%
X77662258Y-85777500D02*
X77187742Y-85777500D01*
X77662258Y-86822500D02*
X77187742Y-86822500D01*
%TO.C,R9*%
X73487258Y-96827500D02*
X73012742Y-96827500D01*
X73487258Y-97872500D02*
X73012742Y-97872500D01*
%TO.C,R10*%
X73487258Y-95102500D02*
X73012742Y-95102500D01*
X73487258Y-96147500D02*
X73012742Y-96147500D01*
%TO.C,C34*%
X76936252Y-72440000D02*
X76413748Y-72440000D01*
X76936252Y-73910000D02*
X76413748Y-73910000D01*
%TO.C,C39*%
X65648748Y-99665000D02*
X66171252Y-99665000D01*
X65648748Y-101135000D02*
X66171252Y-101135000D01*
%TO.C,C30*%
X110287990Y-104470000D02*
X110569150Y-104470000D01*
X110287990Y-105490000D02*
X110569150Y-105490000D01*
%TO.C,R69*%
X71977500Y-99612742D02*
X71977500Y-100087258D01*
X73022500Y-99612742D02*
X73022500Y-100087258D01*
D19*
%TO.C,IC6*%
X78315000Y-101210000D02*
G75*
G02*
X78065000Y-101210000I-125000J0D01*
G01*
X78065000Y-101210000D02*
G75*
G02*
X78315000Y-101210000I125000J0D01*
G01*
D17*
%TO.C,C41*%
X66171252Y-101850000D02*
X65648748Y-101850000D01*
X66171252Y-103320000D02*
X65648748Y-103320000D01*
%TO.C,R46*%
X101867500Y-92595742D02*
X101867500Y-93070258D01*
X102912500Y-92595742D02*
X102912500Y-93070258D01*
%TO.C,R73*%
X65922258Y-110662500D02*
X65447742Y-110662500D01*
X65922258Y-111707500D02*
X65447742Y-111707500D01*
D18*
%TO.C,CONN2*%
X70450000Y-83255000D02*
G75*
G02*
X70250000Y-83255000I-100000J0D01*
G01*
X70250000Y-83255000D02*
G75*
G02*
X70450000Y-83255000I100000J0D01*
G01*
D17*
%TO.C,R37*%
X110665828Y-117557500D02*
X110191312Y-117557500D01*
X110665828Y-118602500D02*
X110191312Y-118602500D01*
%TO.C,U3*%
X82700000Y-63530000D02*
X82700000Y-69730000D01*
X82700000Y-63530000D02*
X101100000Y-63530000D01*
X82700000Y-88380000D02*
X82700000Y-89380000D01*
X82700000Y-89380000D02*
X84200000Y-89380000D01*
X101100000Y-63530000D02*
X101100000Y-69730000D01*
X101100000Y-89380000D02*
X99600000Y-89380000D01*
X101100000Y-89380000D02*
X101100000Y-88380000D01*
X82700000Y-70405000D02*
X82200000Y-70405000D01*
X82700000Y-69905000D01*
X82700000Y-70405000D01*
G36*
X82700000Y-70405000D02*
G01*
X82200000Y-70405000D01*
X82700000Y-69905000D01*
X82700000Y-70405000D01*
G37*
%TO.C,C18*%
X113954864Y-114520000D02*
X113673704Y-114520000D01*
X113954864Y-115540000D02*
X113673704Y-115540000D01*
%TO.C,C5*%
X70800000Y-110748748D02*
X70800000Y-111271252D01*
X72270000Y-110748748D02*
X72270000Y-111271252D01*
%TO.C,C4*%
X63350000Y-120075580D02*
X63350000Y-119794420D01*
X64370000Y-120075580D02*
X64370000Y-119794420D01*
%TO.C,C43*%
X66171252Y-104050000D02*
X65648748Y-104050000D01*
X66171252Y-105520000D02*
X65648748Y-105520000D01*
%TO.C,R41*%
X103894400Y-116032500D02*
X103419884Y-116032500D01*
X103894400Y-117077500D02*
X103419884Y-117077500D01*
%TO.C,TP2*%
X76520000Y-91480000D02*
G75*
G02*
X74620000Y-91480000I-950000J0D01*
G01*
X74620000Y-91480000D02*
G75*
G02*
X76520000Y-91480000I950000J0D01*
G01*
D20*
%TO.C,SW1*%
X105130000Y-79470000D02*
X105130000Y-74970000D01*
X106500000Y-79770000D02*
X108860000Y-79770000D01*
X108860000Y-74670000D02*
X106500000Y-74670000D01*
X110230000Y-79470000D02*
X110230000Y-74970000D01*
D17*
%TO.C,R45*%
X103617500Y-93070258D02*
X103617500Y-92595742D01*
X104662500Y-93070258D02*
X104662500Y-92595742D01*
%TO.C,R72*%
X73487258Y-93327500D02*
X73012742Y-93327500D01*
X73487258Y-94372500D02*
X73012742Y-94372500D01*
%TO.C,C17*%
X107183436Y-114520000D02*
X106902276Y-114520000D01*
X107183436Y-115540000D02*
X106902276Y-115540000D01*
%TO.C,C50*%
X114134420Y-84960000D02*
X114415580Y-84960000D01*
X114134420Y-85980000D02*
X114415580Y-85980000D01*
D20*
%TO.C,SW2*%
X73000000Y-82700000D02*
X73000000Y-78200000D01*
X74370000Y-83000000D02*
X76730000Y-83000000D01*
X76730000Y-77900000D02*
X74370000Y-77900000D01*
X78100000Y-82700000D02*
X78100000Y-78200000D01*
D17*
%TO.C,C42*%
X65648748Y-106300000D02*
X66171252Y-106300000D01*
X65648748Y-107770000D02*
X66171252Y-107770000D01*
%TO.C,R67*%
X73552500Y-100087258D02*
X73552500Y-99612742D01*
X74597500Y-100087258D02*
X74597500Y-99612742D01*
%TO.C,C8*%
X75215000Y-102938748D02*
X75215000Y-103461252D01*
X76685000Y-102938748D02*
X76685000Y-103461252D01*
%TO.C,R74*%
X79802500Y-108937742D02*
X79802500Y-109412258D01*
X80847500Y-108937742D02*
X80847500Y-109412258D01*
%TO.C,R64*%
X116962742Y-102932500D02*
X117437258Y-102932500D01*
X116962742Y-103977500D02*
X117437258Y-103977500D01*
%TO.C,C13*%
X75070000Y-85607836D02*
X75070000Y-85392164D01*
X75790000Y-85607836D02*
X75790000Y-85392164D01*
%TO.C,C6*%
X68725000Y-110748748D02*
X68725000Y-111271252D01*
X70195000Y-110748748D02*
X70195000Y-111271252D01*
%TO.C,R49*%
X100034170Y-102932500D02*
X100508686Y-102932500D01*
X100034170Y-103977500D02*
X100508686Y-103977500D01*
D18*
%TO.C,IC2*%
X105200000Y-93988000D02*
X105200000Y-93988000D01*
D17*
%TO.C,R58*%
X110191312Y-102932500D02*
X110665828Y-102932500D01*
X110191312Y-103977500D02*
X110665828Y-103977500D01*
%TO.C,R44*%
X96648456Y-102932500D02*
X97122972Y-102932500D01*
X96648456Y-103977500D02*
X97122972Y-103977500D01*
%TO.C,R11*%
X77662258Y-87277500D02*
X77187742Y-87277500D01*
X77662258Y-88322500D02*
X77187742Y-88322500D01*
%TO.C,C22*%
X110569150Y-114520000D02*
X110287990Y-114520000D01*
X110569150Y-115540000D02*
X110287990Y-115540000D01*
%TO.C,R60*%
X113577026Y-101407500D02*
X114051542Y-101407500D01*
X113577026Y-102452500D02*
X114051542Y-102452500D01*
%TO.C,C10*%
X79035000Y-118415580D02*
X79035000Y-118134420D01*
X80055000Y-118415580D02*
X80055000Y-118134420D01*
%TO.C,C3*%
X70198748Y-117910000D02*
X70721252Y-117910000D01*
X70198748Y-119380000D02*
X70721252Y-119380000D01*
%TO.C,C38*%
X66171252Y-97465000D02*
X65648748Y-97465000D01*
X66171252Y-98935000D02*
X65648748Y-98935000D01*
%TO.C,C44*%
X74840000Y-109315580D02*
X74840000Y-109034420D01*
X75860000Y-109315580D02*
X75860000Y-109034420D01*
%TO.C,R3*%
X65922258Y-114012500D02*
X65447742Y-114012500D01*
X65922258Y-115057500D02*
X65447742Y-115057500D01*
%TO.C,R70*%
X76477500Y-108937742D02*
X76477500Y-109412258D01*
X77522500Y-108937742D02*
X77522500Y-109412258D01*
%TO.C,C15*%
X93640580Y-114520000D02*
X93359420Y-114520000D01*
X93640580Y-115540000D02*
X93359420Y-115540000D01*
%TD*%
D21*
X116000000Y-74575000D03*
X108150000Y-142670000D03*
X75650000Y-142670000D03*
X100900000Y-136170000D03*
X97900000Y-136170000D03*
X94900000Y-136170000D03*
X91900000Y-136170000D03*
X88900000Y-136170000D03*
X85900000Y-136170000D03*
X82900000Y-136170000D03*
X99400000Y-133670000D03*
X96400000Y-133670000D03*
X93400000Y-133670000D03*
X90400000Y-133670000D03*
X87400000Y-133670000D03*
X84400000Y-133670000D03*
X99400000Y-130670000D03*
X96400000Y-130670000D03*
X93400000Y-130670000D03*
X90400000Y-130670000D03*
X87400000Y-130670000D03*
X84400000Y-130670000D03*
X100900000Y-128170000D03*
X97900000Y-128170000D03*
X94900000Y-128170000D03*
X91900000Y-128170000D03*
X88900000Y-128170000D03*
X85900000Y-128170000D03*
X82900000Y-128170000D03*
D22*
X69100000Y-91375000D03*
X69100000Y-82735000D03*
D23*
X64950000Y-91375000D03*
X64950000Y-82735000D03*
D21*
X68600000Y-89945000D03*
X68600000Y-84165000D03*
D24*
X89000000Y-78190000D03*
X89000000Y-79590000D03*
X89700000Y-77490000D03*
X89700000Y-78890000D03*
X89700000Y-80290000D03*
X90400000Y-78190000D03*
X90400000Y-79590000D03*
X91100000Y-77490000D03*
X91100000Y-78890000D03*
X91100000Y-80290000D03*
X91800000Y-78190000D03*
X91800000Y-79590000D03*
D21*
X67350000Y-74575000D03*
X117200000Y-111475000D03*
X117200000Y-121635000D03*
X96885714Y-108525000D03*
X96885714Y-98365000D03*
X103641000Y-108525000D03*
X103641000Y-98365000D03*
X110428570Y-108525000D03*
X110428570Y-98365000D03*
X93500000Y-108525000D03*
X93500000Y-98365000D03*
X113814284Y-98365000D03*
X113814284Y-108525000D03*
X107042856Y-111475000D03*
X107042856Y-121635000D03*
X103657142Y-111475000D03*
X103657142Y-121635000D03*
X100271428Y-108525000D03*
X100271428Y-98365000D03*
X113814284Y-111475000D03*
X113814284Y-121635000D03*
X96885714Y-111475000D03*
X96885714Y-121635000D03*
X107042856Y-108525000D03*
X107042856Y-98365000D03*
X117200000Y-98365000D03*
X117200000Y-108525000D03*
X100271428Y-111475000D03*
X100271428Y-121635000D03*
X93500000Y-111475000D03*
X93500000Y-121635000D03*
X110428570Y-111475000D03*
X110428570Y-121635000D03*
M02*
