%TF.GenerationSoftware,KiCad,Pcbnew,8.0.8*%
%TF.CreationDate,2026-03-18T22:42:44+00:00*%
%TF.ProjectId,esp32-canboard,65737033-322d-4636-916e-626f6172642e,rev?*%
%TF.SameCoordinates,Original*%
%TF.FileFunction,Legend,Bot*%
%TF.FilePolarity,Positive*%
%FSLAX46Y46*%
G04 Gerber Fmt 4.6, Leading zero omitted, Abs format (unit mm)*
G04 Created by KiCad (PCBNEW 8.0.8) date 2026-03-18 22:42:44*
%MOMM*%
%LPD*%
G01*
G04 APERTURE LIST*
%ADD10C,0.100000*%
%ADD11C,0.120000*%
%ADD12C,0.200000*%
%ADD13C,0.350000*%
%ADD14O,1.750000X0.650000*%
%ADD15O,1.450000X0.650000*%
%ADD16C,0.200000*%
G04 APERTURE END LIST*
D10*
X102300000Y-136170000D02*
G75*
G02*
X99500000Y-136170000I-1400000J0D01*
G01*
X99500000Y-136170000D02*
G75*
G02*
X102300000Y-136170000I1400000J0D01*
G01*
X96300000Y-128170000D02*
G75*
G02*
X93500000Y-128170000I-1400000J0D01*
G01*
X93500000Y-128170000D02*
G75*
G02*
X96300000Y-128170000I1400000J0D01*
G01*
X87300000Y-128170000D02*
G75*
G02*
X84500000Y-128170000I-1400000J0D01*
G01*
X84500000Y-128170000D02*
G75*
G02*
X87300000Y-128170000I1400000J0D01*
G01*
X85800000Y-130670000D02*
G75*
G02*
X83000000Y-130670000I-1400000J0D01*
G01*
X83000000Y-130670000D02*
G75*
G02*
X85800000Y-130670000I1400000J0D01*
G01*
X93300000Y-128170000D02*
X93299857Y-128189999D01*
X93237471Y-128583728D02*
X93231424Y-128602792D01*
X93055469Y-128960499D02*
X93044059Y-128976924D01*
X92770253Y-129266657D02*
X92754499Y-129278977D01*
X92407300Y-129474854D02*
X92388608Y-129481968D01*
X91999032Y-129566492D02*
X91979072Y-129567765D01*
X91581917Y-129533386D02*
X91562473Y-129528703D01*
X91193215Y-129378493D02*
X91176023Y-129368273D01*
X90867648Y-129115648D02*
X90854245Y-129100804D01*
X90634299Y-128768331D02*
X90625880Y-128750189D01*
X90514010Y-128367568D02*
X90511329Y-128347748D01*
X90517528Y-127949156D02*
X90520824Y-127929429D01*
X90644538Y-127550471D02*
X90653516Y-127532600D01*
X90883694Y-127207127D02*
X90897553Y-127192707D01*
X91213634Y-126949793D02*
X91231135Y-126940113D01*
X91604885Y-126801457D02*
X91624465Y-126797381D01*
X92022498Y-126775369D02*
X92042408Y-126777261D01*
X92429168Y-126873859D02*
X92447630Y-126881550D01*
X92788570Y-127088129D02*
X92803934Y-127100933D01*
X93068597Y-127399040D02*
X93079491Y-127415812D01*
X93244238Y-127778818D02*
X93249689Y-127798060D01*
X90300000Y-128170000D02*
X90299857Y-128189999D01*
X90237471Y-128583728D02*
X90231424Y-128602792D01*
X90055469Y-128960499D02*
X90044059Y-128976924D01*
X89770253Y-129266657D02*
X89754499Y-129278977D01*
X89407300Y-129474854D02*
X89388608Y-129481968D01*
X88999032Y-129566492D02*
X88979072Y-129567765D01*
X88581917Y-129533386D02*
X88562473Y-129528703D01*
X88193215Y-129378493D02*
X88176023Y-129368273D01*
X87867648Y-129115648D02*
X87854245Y-129100804D01*
X87634299Y-128768331D02*
X87625880Y-128750189D01*
X87514010Y-128367568D02*
X87511329Y-128347748D01*
X87517528Y-127949156D02*
X87520824Y-127929429D01*
X87644538Y-127550471D02*
X87653516Y-127532600D01*
X87883694Y-127207127D02*
X87897553Y-127192707D01*
X88213634Y-126949793D02*
X88231135Y-126940113D01*
X88604885Y-126801457D02*
X88624465Y-126797381D01*
X89022498Y-126775369D02*
X89042408Y-126777261D01*
X89429168Y-126873859D02*
X89447630Y-126881550D01*
X89788570Y-127088129D02*
X89803934Y-127100933D01*
X90068597Y-127399040D02*
X90079491Y-127415812D01*
X90244238Y-127778818D02*
X90249689Y-127798060D01*
X88800000Y-130670000D02*
X88799857Y-130689999D01*
X88737471Y-131083728D02*
X88731424Y-131102792D01*
X88555469Y-131460499D02*
X88544059Y-131476924D01*
X88270253Y-131766657D02*
X88254499Y-131778977D01*
X87907300Y-131974854D02*
X87888608Y-131981968D01*
X87499032Y-132066492D02*
X87479072Y-132067765D01*
X87081917Y-132033386D02*
X87062473Y-132028703D01*
X86693215Y-131878493D02*
X86676023Y-131868273D01*
X86367648Y-131615648D02*
X86354245Y-131600804D01*
X86134299Y-131268331D02*
X86125880Y-131250189D01*
X86014010Y-130867568D02*
X86011329Y-130847748D01*
X86017528Y-130449156D02*
X86020824Y-130429429D01*
X86144538Y-130050471D02*
X86153516Y-130032600D01*
X86383694Y-129707127D02*
X86397553Y-129692707D01*
X86713634Y-129449793D02*
X86731135Y-129440113D01*
X87104885Y-129301457D02*
X87124465Y-129297381D01*
X87522498Y-129275369D02*
X87542408Y-129277261D01*
X87929168Y-129373859D02*
X87947630Y-129381550D01*
X88288570Y-129588129D02*
X88303934Y-129600933D01*
X88568597Y-129899040D02*
X88579491Y-129915812D01*
X88744238Y-130278818D02*
X88749689Y-130298060D01*
D11*
X101357142Y-137839902D02*
X101414285Y-137811331D01*
X101414285Y-137811331D02*
X101499999Y-137811331D01*
X101499999Y-137811331D02*
X101585713Y-137839902D01*
X101585713Y-137839902D02*
X101642856Y-137897045D01*
X101642856Y-137897045D02*
X101671427Y-137954188D01*
X101671427Y-137954188D02*
X101699999Y-138068474D01*
X101699999Y-138068474D02*
X101699999Y-138154188D01*
X101699999Y-138154188D02*
X101671427Y-138268474D01*
X101671427Y-138268474D02*
X101642856Y-138325617D01*
X101642856Y-138325617D02*
X101585713Y-138382760D01*
X101585713Y-138382760D02*
X101499999Y-138411331D01*
X101499999Y-138411331D02*
X101442856Y-138411331D01*
X101442856Y-138411331D02*
X101357142Y-138382760D01*
X101357142Y-138382760D02*
X101328570Y-138354188D01*
X101328570Y-138354188D02*
X101328570Y-138154188D01*
X101328570Y-138154188D02*
X101442856Y-138154188D01*
X101071427Y-138411331D02*
X101071427Y-137811331D01*
X101071427Y-137811331D02*
X100728570Y-138411331D01*
X100728570Y-138411331D02*
X100728570Y-137811331D01*
X100442856Y-138411331D02*
X100442856Y-137811331D01*
X100442856Y-137811331D02*
X100299999Y-137811331D01*
X100299999Y-137811331D02*
X100214285Y-137839902D01*
X100214285Y-137839902D02*
X100157142Y-137897045D01*
X100157142Y-137897045D02*
X100128571Y-137954188D01*
X100128571Y-137954188D02*
X100099999Y-138068474D01*
X100099999Y-138068474D02*
X100099999Y-138154188D01*
X100099999Y-138154188D02*
X100128571Y-138268474D01*
X100128571Y-138268474D02*
X100157142Y-138325617D01*
X100157142Y-138325617D02*
X100214285Y-138382760D01*
X100214285Y-138382760D02*
X100299999Y-138411331D01*
X100299999Y-138411331D02*
X100442856Y-138411331D01*
X92671428Y-126212760D02*
X92214286Y-126212760D01*
X92442857Y-126441331D02*
X92442857Y-125984188D01*
X91642857Y-125841331D02*
X91928571Y-125841331D01*
X91928571Y-125841331D02*
X91957143Y-126127045D01*
X91957143Y-126127045D02*
X91928571Y-126098474D01*
X91928571Y-126098474D02*
X91871429Y-126069902D01*
X91871429Y-126069902D02*
X91728571Y-126069902D01*
X91728571Y-126069902D02*
X91671429Y-126098474D01*
X91671429Y-126098474D02*
X91642857Y-126127045D01*
X91642857Y-126127045D02*
X91614286Y-126184188D01*
X91614286Y-126184188D02*
X91614286Y-126327045D01*
X91614286Y-126327045D02*
X91642857Y-126384188D01*
X91642857Y-126384188D02*
X91671429Y-126412760D01*
X91671429Y-126412760D02*
X91728571Y-126441331D01*
X91728571Y-126441331D02*
X91871429Y-126441331D01*
X91871429Y-126441331D02*
X91928571Y-126412760D01*
X91928571Y-126412760D02*
X91957143Y-126384188D01*
X91442857Y-125841331D02*
X91242857Y-126441331D01*
X91242857Y-126441331D02*
X91042857Y-125841331D01*
X89671428Y-126212760D02*
X89214286Y-126212760D01*
X89442857Y-126441331D02*
X89442857Y-125984188D01*
X88642857Y-125841331D02*
X88928571Y-125841331D01*
X88928571Y-125841331D02*
X88957143Y-126127045D01*
X88957143Y-126127045D02*
X88928571Y-126098474D01*
X88928571Y-126098474D02*
X88871429Y-126069902D01*
X88871429Y-126069902D02*
X88728571Y-126069902D01*
X88728571Y-126069902D02*
X88671429Y-126098474D01*
X88671429Y-126098474D02*
X88642857Y-126127045D01*
X88642857Y-126127045D02*
X88614286Y-126184188D01*
X88614286Y-126184188D02*
X88614286Y-126327045D01*
X88614286Y-126327045D02*
X88642857Y-126384188D01*
X88642857Y-126384188D02*
X88671429Y-126412760D01*
X88671429Y-126412760D02*
X88728571Y-126441331D01*
X88728571Y-126441331D02*
X88871429Y-126441331D01*
X88871429Y-126441331D02*
X88928571Y-126412760D01*
X88928571Y-126412760D02*
X88957143Y-126384188D01*
X88442857Y-125841331D02*
X88242857Y-126441331D01*
X88242857Y-126441331D02*
X88042857Y-125841331D01*
X101814285Y-126384188D02*
X101842857Y-126412760D01*
X101842857Y-126412760D02*
X101928571Y-126441331D01*
X101928571Y-126441331D02*
X101985714Y-126441331D01*
X101985714Y-126441331D02*
X102071428Y-126412760D01*
X102071428Y-126412760D02*
X102128571Y-126355617D01*
X102128571Y-126355617D02*
X102157142Y-126298474D01*
X102157142Y-126298474D02*
X102185714Y-126184188D01*
X102185714Y-126184188D02*
X102185714Y-126098474D01*
X102185714Y-126098474D02*
X102157142Y-125984188D01*
X102157142Y-125984188D02*
X102128571Y-125927045D01*
X102128571Y-125927045D02*
X102071428Y-125869902D01*
X102071428Y-125869902D02*
X101985714Y-125841331D01*
X101985714Y-125841331D02*
X101928571Y-125841331D01*
X101928571Y-125841331D02*
X101842857Y-125869902D01*
X101842857Y-125869902D02*
X101814285Y-125898474D01*
X101585714Y-126269902D02*
X101300000Y-126269902D01*
X101642857Y-126441331D02*
X101442857Y-125841331D01*
X101442857Y-125841331D02*
X101242857Y-126441331D01*
X101042856Y-126441331D02*
X101042856Y-125841331D01*
X101042856Y-125841331D02*
X100699999Y-126441331D01*
X100699999Y-126441331D02*
X100699999Y-125841331D01*
X100100000Y-126441331D02*
X100442857Y-126441331D01*
X100271428Y-126441331D02*
X100271428Y-125841331D01*
X100271428Y-125841331D02*
X100328571Y-125927045D01*
X100328571Y-125927045D02*
X100385714Y-125984188D01*
X100385714Y-125984188D02*
X100442857Y-126012760D01*
X99557142Y-126441331D02*
X99842856Y-126441331D01*
X99842856Y-126441331D02*
X99842856Y-125841331D01*
X98885713Y-126384188D02*
X98914285Y-126412760D01*
X98914285Y-126412760D02*
X98999999Y-126441331D01*
X98999999Y-126441331D02*
X99057142Y-126441331D01*
X99057142Y-126441331D02*
X99142856Y-126412760D01*
X99142856Y-126412760D02*
X99199999Y-126355617D01*
X99199999Y-126355617D02*
X99228570Y-126298474D01*
X99228570Y-126298474D02*
X99257142Y-126184188D01*
X99257142Y-126184188D02*
X99257142Y-126098474D01*
X99257142Y-126098474D02*
X99228570Y-125984188D01*
X99228570Y-125984188D02*
X99199999Y-125927045D01*
X99199999Y-125927045D02*
X99142856Y-125869902D01*
X99142856Y-125869902D02*
X99057142Y-125841331D01*
X99057142Y-125841331D02*
X98999999Y-125841331D01*
X98999999Y-125841331D02*
X98914285Y-125869902D01*
X98914285Y-125869902D02*
X98885713Y-125898474D01*
X98657142Y-126269902D02*
X98371428Y-126269902D01*
X98714285Y-126441331D02*
X98514285Y-125841331D01*
X98514285Y-125841331D02*
X98314285Y-126441331D01*
X98114284Y-126441331D02*
X98114284Y-125841331D01*
X98114284Y-125841331D02*
X97771427Y-126441331D01*
X97771427Y-126441331D02*
X97771427Y-125841331D01*
X97171428Y-126441331D02*
X97514285Y-126441331D01*
X97342856Y-126441331D02*
X97342856Y-125841331D01*
X97342856Y-125841331D02*
X97399999Y-125927045D01*
X97399999Y-125927045D02*
X97457142Y-125984188D01*
X97457142Y-125984188D02*
X97514285Y-126012760D01*
X96914284Y-126441331D02*
X96914284Y-125841331D01*
X96914284Y-126127045D02*
X96571427Y-126127045D01*
X96571427Y-126441331D02*
X96571427Y-125841331D01*
X95357142Y-125869902D02*
X95414285Y-125841331D01*
X95414285Y-125841331D02*
X95499999Y-125841331D01*
X95499999Y-125841331D02*
X95585713Y-125869902D01*
X95585713Y-125869902D02*
X95642856Y-125927045D01*
X95642856Y-125927045D02*
X95671427Y-125984188D01*
X95671427Y-125984188D02*
X95699999Y-126098474D01*
X95699999Y-126098474D02*
X95699999Y-126184188D01*
X95699999Y-126184188D02*
X95671427Y-126298474D01*
X95671427Y-126298474D02*
X95642856Y-126355617D01*
X95642856Y-126355617D02*
X95585713Y-126412760D01*
X95585713Y-126412760D02*
X95499999Y-126441331D01*
X95499999Y-126441331D02*
X95442856Y-126441331D01*
X95442856Y-126441331D02*
X95357142Y-126412760D01*
X95357142Y-126412760D02*
X95328570Y-126384188D01*
X95328570Y-126384188D02*
X95328570Y-126184188D01*
X95328570Y-126184188D02*
X95442856Y-126184188D01*
X95071427Y-126441331D02*
X95071427Y-125841331D01*
X95071427Y-125841331D02*
X94728570Y-126441331D01*
X94728570Y-126441331D02*
X94728570Y-125841331D01*
X94442856Y-126441331D02*
X94442856Y-125841331D01*
X94442856Y-125841331D02*
X94299999Y-125841331D01*
X94299999Y-125841331D02*
X94214285Y-125869902D01*
X94214285Y-125869902D02*
X94157142Y-125927045D01*
X94157142Y-125927045D02*
X94128571Y-125984188D01*
X94128571Y-125984188D02*
X94099999Y-126098474D01*
X94099999Y-126098474D02*
X94099999Y-126184188D01*
X94099999Y-126184188D02*
X94128571Y-126298474D01*
X94128571Y-126298474D02*
X94157142Y-126355617D01*
X94157142Y-126355617D02*
X94214285Y-126412760D01*
X94214285Y-126412760D02*
X94299999Y-126441331D01*
X94299999Y-126441331D02*
X94442856Y-126441331D01*
X86357142Y-125869902D02*
X86414285Y-125841331D01*
X86414285Y-125841331D02*
X86499999Y-125841331D01*
X86499999Y-125841331D02*
X86585713Y-125869902D01*
X86585713Y-125869902D02*
X86642856Y-125927045D01*
X86642856Y-125927045D02*
X86671427Y-125984188D01*
X86671427Y-125984188D02*
X86699999Y-126098474D01*
X86699999Y-126098474D02*
X86699999Y-126184188D01*
X86699999Y-126184188D02*
X86671427Y-126298474D01*
X86671427Y-126298474D02*
X86642856Y-126355617D01*
X86642856Y-126355617D02*
X86585713Y-126412760D01*
X86585713Y-126412760D02*
X86499999Y-126441331D01*
X86499999Y-126441331D02*
X86442856Y-126441331D01*
X86442856Y-126441331D02*
X86357142Y-126412760D01*
X86357142Y-126412760D02*
X86328570Y-126384188D01*
X86328570Y-126384188D02*
X86328570Y-126184188D01*
X86328570Y-126184188D02*
X86442856Y-126184188D01*
X86071427Y-126441331D02*
X86071427Y-125841331D01*
X86071427Y-125841331D02*
X85728570Y-126441331D01*
X85728570Y-126441331D02*
X85728570Y-125841331D01*
X85442856Y-126441331D02*
X85442856Y-125841331D01*
X85442856Y-125841331D02*
X85299999Y-125841331D01*
X85299999Y-125841331D02*
X85214285Y-125869902D01*
X85214285Y-125869902D02*
X85157142Y-125927045D01*
X85157142Y-125927045D02*
X85128571Y-125984188D01*
X85128571Y-125984188D02*
X85099999Y-126098474D01*
X85099999Y-126098474D02*
X85099999Y-126184188D01*
X85099999Y-126184188D02*
X85128571Y-126298474D01*
X85128571Y-126298474D02*
X85157142Y-126355617D01*
X85157142Y-126355617D02*
X85214285Y-126412760D01*
X85214285Y-126412760D02*
X85299999Y-126441331D01*
X85299999Y-126441331D02*
X85442856Y-126441331D01*
X83957142Y-126212760D02*
X83500000Y-126212760D01*
X83728571Y-126441331D02*
X83728571Y-125984188D01*
X82900000Y-126441331D02*
X83242857Y-126441331D01*
X83071428Y-126441331D02*
X83071428Y-125841331D01*
X83071428Y-125841331D02*
X83128571Y-125927045D01*
X83128571Y-125927045D02*
X83185714Y-125984188D01*
X83185714Y-125984188D02*
X83242857Y-126012760D01*
X82671428Y-125898474D02*
X82642856Y-125869902D01*
X82642856Y-125869902D02*
X82585714Y-125841331D01*
X82585714Y-125841331D02*
X82442856Y-125841331D01*
X82442856Y-125841331D02*
X82385714Y-125869902D01*
X82385714Y-125869902D02*
X82357142Y-125898474D01*
X82357142Y-125898474D02*
X82328571Y-125955617D01*
X82328571Y-125955617D02*
X82328571Y-126012760D01*
X82328571Y-126012760D02*
X82357142Y-126098474D01*
X82357142Y-126098474D02*
X82699999Y-126441331D01*
X82699999Y-126441331D02*
X82328571Y-126441331D01*
X82157142Y-125841331D02*
X81957142Y-126441331D01*
X81957142Y-126441331D02*
X81757142Y-125841331D01*
D12*
X116727304Y-105749761D02*
X117527304Y-105749761D01*
X116727304Y-105368809D02*
X117527304Y-105368809D01*
X117527304Y-105368809D02*
X116727304Y-104911666D01*
X116727304Y-104911666D02*
X117527304Y-104911666D01*
X116727304Y-104530714D02*
X117527304Y-104530714D01*
X117527304Y-104530714D02*
X117527304Y-104225952D01*
X117527304Y-104225952D02*
X117489209Y-104149762D01*
X117489209Y-104149762D02*
X117451114Y-104111667D01*
X117451114Y-104111667D02*
X117374923Y-104073571D01*
X117374923Y-104073571D02*
X117260638Y-104073571D01*
X117260638Y-104073571D02*
X117184447Y-104111667D01*
X117184447Y-104111667D02*
X117146352Y-104149762D01*
X117146352Y-104149762D02*
X117108257Y-104225952D01*
X117108257Y-104225952D02*
X117108257Y-104530714D01*
X117527304Y-103730714D02*
X116879685Y-103730714D01*
X116879685Y-103730714D02*
X116803495Y-103692619D01*
X116803495Y-103692619D02*
X116765400Y-103654524D01*
X116765400Y-103654524D02*
X116727304Y-103578333D01*
X116727304Y-103578333D02*
X116727304Y-103425952D01*
X116727304Y-103425952D02*
X116765400Y-103349762D01*
X116765400Y-103349762D02*
X116803495Y-103311667D01*
X116803495Y-103311667D02*
X116879685Y-103273571D01*
X116879685Y-103273571D02*
X117527304Y-103273571D01*
X117527304Y-103006905D02*
X117527304Y-102549762D01*
X116727304Y-102778334D02*
X117527304Y-102778334D01*
X116727304Y-101864048D02*
X116727304Y-102321191D01*
X116727304Y-102092619D02*
X117527304Y-102092619D01*
X117527304Y-102092619D02*
X117413019Y-102168810D01*
X117413019Y-102168810D02*
X117336828Y-102245000D01*
X117336828Y-102245000D02*
X117298733Y-102321191D01*
X117527304Y-101178333D02*
X117527304Y-101330714D01*
X117527304Y-101330714D02*
X117489209Y-101406905D01*
X117489209Y-101406905D02*
X117451114Y-101445000D01*
X117451114Y-101445000D02*
X117336828Y-101521190D01*
X117336828Y-101521190D02*
X117184447Y-101559286D01*
X117184447Y-101559286D02*
X116879685Y-101559286D01*
X116879685Y-101559286D02*
X116803495Y-101521190D01*
X116803495Y-101521190D02*
X116765400Y-101483095D01*
X116765400Y-101483095D02*
X116727304Y-101406905D01*
X116727304Y-101406905D02*
X116727304Y-101254524D01*
X116727304Y-101254524D02*
X116765400Y-101178333D01*
X116765400Y-101178333D02*
X116803495Y-101140238D01*
X116803495Y-101140238D02*
X116879685Y-101102143D01*
X116879685Y-101102143D02*
X117070161Y-101102143D01*
X117070161Y-101102143D02*
X117146352Y-101140238D01*
X117146352Y-101140238D02*
X117184447Y-101178333D01*
X117184447Y-101178333D02*
X117222542Y-101254524D01*
X117222542Y-101254524D02*
X117222542Y-101406905D01*
X117222542Y-101406905D02*
X117184447Y-101483095D01*
X117184447Y-101483095D02*
X117146352Y-101521190D01*
X117146352Y-101521190D02*
X117070161Y-101559286D01*
X113341588Y-105749761D02*
X114141588Y-105749761D01*
X113341588Y-105368809D02*
X114141588Y-105368809D01*
X114141588Y-105368809D02*
X113341588Y-104911666D01*
X113341588Y-104911666D02*
X114141588Y-104911666D01*
X113341588Y-104530714D02*
X114141588Y-104530714D01*
X114141588Y-104530714D02*
X114141588Y-104225952D01*
X114141588Y-104225952D02*
X114103493Y-104149762D01*
X114103493Y-104149762D02*
X114065398Y-104111667D01*
X114065398Y-104111667D02*
X113989207Y-104073571D01*
X113989207Y-104073571D02*
X113874922Y-104073571D01*
X113874922Y-104073571D02*
X113798731Y-104111667D01*
X113798731Y-104111667D02*
X113760636Y-104149762D01*
X113760636Y-104149762D02*
X113722541Y-104225952D01*
X113722541Y-104225952D02*
X113722541Y-104530714D01*
X114141588Y-103730714D02*
X113493969Y-103730714D01*
X113493969Y-103730714D02*
X113417779Y-103692619D01*
X113417779Y-103692619D02*
X113379684Y-103654524D01*
X113379684Y-103654524D02*
X113341588Y-103578333D01*
X113341588Y-103578333D02*
X113341588Y-103425952D01*
X113341588Y-103425952D02*
X113379684Y-103349762D01*
X113379684Y-103349762D02*
X113417779Y-103311667D01*
X113417779Y-103311667D02*
X113493969Y-103273571D01*
X113493969Y-103273571D02*
X114141588Y-103273571D01*
X114141588Y-103006905D02*
X114141588Y-102549762D01*
X113341588Y-102778334D02*
X114141588Y-102778334D01*
X113341588Y-101864048D02*
X113341588Y-102321191D01*
X113341588Y-102092619D02*
X114141588Y-102092619D01*
X114141588Y-102092619D02*
X114027303Y-102168810D01*
X114027303Y-102168810D02*
X113951112Y-102245000D01*
X113951112Y-102245000D02*
X113913017Y-102321191D01*
X114141588Y-101140238D02*
X114141588Y-101521190D01*
X114141588Y-101521190D02*
X113760636Y-101559286D01*
X113760636Y-101559286D02*
X113798731Y-101521190D01*
X113798731Y-101521190D02*
X113836826Y-101445000D01*
X113836826Y-101445000D02*
X113836826Y-101254524D01*
X113836826Y-101254524D02*
X113798731Y-101178333D01*
X113798731Y-101178333D02*
X113760636Y-101140238D01*
X113760636Y-101140238D02*
X113684445Y-101102143D01*
X113684445Y-101102143D02*
X113493969Y-101102143D01*
X113493969Y-101102143D02*
X113417779Y-101140238D01*
X113417779Y-101140238D02*
X113379684Y-101178333D01*
X113379684Y-101178333D02*
X113341588Y-101254524D01*
X113341588Y-101254524D02*
X113341588Y-101445000D01*
X113341588Y-101445000D02*
X113379684Y-101521190D01*
X113379684Y-101521190D02*
X113417779Y-101559286D01*
X109955874Y-105749761D02*
X110755874Y-105749761D01*
X109955874Y-105368809D02*
X110755874Y-105368809D01*
X110755874Y-105368809D02*
X109955874Y-104911666D01*
X109955874Y-104911666D02*
X110755874Y-104911666D01*
X109955874Y-104530714D02*
X110755874Y-104530714D01*
X110755874Y-104530714D02*
X110755874Y-104225952D01*
X110755874Y-104225952D02*
X110717779Y-104149762D01*
X110717779Y-104149762D02*
X110679684Y-104111667D01*
X110679684Y-104111667D02*
X110603493Y-104073571D01*
X110603493Y-104073571D02*
X110489208Y-104073571D01*
X110489208Y-104073571D02*
X110413017Y-104111667D01*
X110413017Y-104111667D02*
X110374922Y-104149762D01*
X110374922Y-104149762D02*
X110336827Y-104225952D01*
X110336827Y-104225952D02*
X110336827Y-104530714D01*
X110755874Y-103730714D02*
X110108255Y-103730714D01*
X110108255Y-103730714D02*
X110032065Y-103692619D01*
X110032065Y-103692619D02*
X109993970Y-103654524D01*
X109993970Y-103654524D02*
X109955874Y-103578333D01*
X109955874Y-103578333D02*
X109955874Y-103425952D01*
X109955874Y-103425952D02*
X109993970Y-103349762D01*
X109993970Y-103349762D02*
X110032065Y-103311667D01*
X110032065Y-103311667D02*
X110108255Y-103273571D01*
X110108255Y-103273571D02*
X110755874Y-103273571D01*
X110755874Y-103006905D02*
X110755874Y-102549762D01*
X109955874Y-102778334D02*
X110755874Y-102778334D01*
X109955874Y-101864048D02*
X109955874Y-102321191D01*
X109955874Y-102092619D02*
X110755874Y-102092619D01*
X110755874Y-102092619D02*
X110641589Y-102168810D01*
X110641589Y-102168810D02*
X110565398Y-102245000D01*
X110565398Y-102245000D02*
X110527303Y-102321191D01*
X110489208Y-101178333D02*
X109955874Y-101178333D01*
X110793970Y-101368809D02*
X110222541Y-101559286D01*
X110222541Y-101559286D02*
X110222541Y-101064047D01*
X106570160Y-105749761D02*
X107370160Y-105749761D01*
X106570160Y-105368809D02*
X107370160Y-105368809D01*
X107370160Y-105368809D02*
X106570160Y-104911666D01*
X106570160Y-104911666D02*
X107370160Y-104911666D01*
X106570160Y-104530714D02*
X107370160Y-104530714D01*
X107370160Y-104530714D02*
X107370160Y-104225952D01*
X107370160Y-104225952D02*
X107332065Y-104149762D01*
X107332065Y-104149762D02*
X107293970Y-104111667D01*
X107293970Y-104111667D02*
X107217779Y-104073571D01*
X107217779Y-104073571D02*
X107103494Y-104073571D01*
X107103494Y-104073571D02*
X107027303Y-104111667D01*
X107027303Y-104111667D02*
X106989208Y-104149762D01*
X106989208Y-104149762D02*
X106951113Y-104225952D01*
X106951113Y-104225952D02*
X106951113Y-104530714D01*
X107370160Y-103730714D02*
X106722541Y-103730714D01*
X106722541Y-103730714D02*
X106646351Y-103692619D01*
X106646351Y-103692619D02*
X106608256Y-103654524D01*
X106608256Y-103654524D02*
X106570160Y-103578333D01*
X106570160Y-103578333D02*
X106570160Y-103425952D01*
X106570160Y-103425952D02*
X106608256Y-103349762D01*
X106608256Y-103349762D02*
X106646351Y-103311667D01*
X106646351Y-103311667D02*
X106722541Y-103273571D01*
X106722541Y-103273571D02*
X107370160Y-103273571D01*
X107370160Y-103006905D02*
X107370160Y-102549762D01*
X106570160Y-102778334D02*
X107370160Y-102778334D01*
X106570160Y-101864048D02*
X106570160Y-102321191D01*
X106570160Y-102092619D02*
X107370160Y-102092619D01*
X107370160Y-102092619D02*
X107255875Y-102168810D01*
X107255875Y-102168810D02*
X107179684Y-102245000D01*
X107179684Y-102245000D02*
X107141589Y-102321191D01*
X107370160Y-101597381D02*
X107370160Y-101102143D01*
X107370160Y-101102143D02*
X107065398Y-101368809D01*
X107065398Y-101368809D02*
X107065398Y-101254524D01*
X107065398Y-101254524D02*
X107027303Y-101178333D01*
X107027303Y-101178333D02*
X106989208Y-101140238D01*
X106989208Y-101140238D02*
X106913017Y-101102143D01*
X106913017Y-101102143D02*
X106722541Y-101102143D01*
X106722541Y-101102143D02*
X106646351Y-101140238D01*
X106646351Y-101140238D02*
X106608256Y-101178333D01*
X106608256Y-101178333D02*
X106570160Y-101254524D01*
X106570160Y-101254524D02*
X106570160Y-101483095D01*
X106570160Y-101483095D02*
X106608256Y-101559286D01*
X106608256Y-101559286D02*
X106646351Y-101597381D01*
X103168304Y-105749761D02*
X103968304Y-105749761D01*
X103168304Y-105368809D02*
X103968304Y-105368809D01*
X103968304Y-105368809D02*
X103168304Y-104911666D01*
X103168304Y-104911666D02*
X103968304Y-104911666D01*
X103168304Y-104530714D02*
X103968304Y-104530714D01*
X103968304Y-104530714D02*
X103968304Y-104225952D01*
X103968304Y-104225952D02*
X103930209Y-104149762D01*
X103930209Y-104149762D02*
X103892114Y-104111667D01*
X103892114Y-104111667D02*
X103815923Y-104073571D01*
X103815923Y-104073571D02*
X103701638Y-104073571D01*
X103701638Y-104073571D02*
X103625447Y-104111667D01*
X103625447Y-104111667D02*
X103587352Y-104149762D01*
X103587352Y-104149762D02*
X103549257Y-104225952D01*
X103549257Y-104225952D02*
X103549257Y-104530714D01*
X103968304Y-103730714D02*
X103320685Y-103730714D01*
X103320685Y-103730714D02*
X103244495Y-103692619D01*
X103244495Y-103692619D02*
X103206400Y-103654524D01*
X103206400Y-103654524D02*
X103168304Y-103578333D01*
X103168304Y-103578333D02*
X103168304Y-103425952D01*
X103168304Y-103425952D02*
X103206400Y-103349762D01*
X103206400Y-103349762D02*
X103244495Y-103311667D01*
X103244495Y-103311667D02*
X103320685Y-103273571D01*
X103320685Y-103273571D02*
X103968304Y-103273571D01*
X103968304Y-103006905D02*
X103968304Y-102549762D01*
X103168304Y-102778334D02*
X103968304Y-102778334D01*
X103168304Y-101864048D02*
X103168304Y-102321191D01*
X103168304Y-102092619D02*
X103968304Y-102092619D01*
X103968304Y-102092619D02*
X103854019Y-102168810D01*
X103854019Y-102168810D02*
X103777828Y-102245000D01*
X103777828Y-102245000D02*
X103739733Y-102321191D01*
X103892114Y-101559286D02*
X103930209Y-101521190D01*
X103930209Y-101521190D02*
X103968304Y-101445000D01*
X103968304Y-101445000D02*
X103968304Y-101254524D01*
X103968304Y-101254524D02*
X103930209Y-101178333D01*
X103930209Y-101178333D02*
X103892114Y-101140238D01*
X103892114Y-101140238D02*
X103815923Y-101102143D01*
X103815923Y-101102143D02*
X103739733Y-101102143D01*
X103739733Y-101102143D02*
X103625447Y-101140238D01*
X103625447Y-101140238D02*
X103168304Y-101597381D01*
X103168304Y-101597381D02*
X103168304Y-101102143D01*
X99798732Y-105749761D02*
X100598732Y-105749761D01*
X99798732Y-105368809D02*
X100598732Y-105368809D01*
X100598732Y-105368809D02*
X99798732Y-104911666D01*
X99798732Y-104911666D02*
X100598732Y-104911666D01*
X99798732Y-104530714D02*
X100598732Y-104530714D01*
X100598732Y-104530714D02*
X100598732Y-104225952D01*
X100598732Y-104225952D02*
X100560637Y-104149762D01*
X100560637Y-104149762D02*
X100522542Y-104111667D01*
X100522542Y-104111667D02*
X100446351Y-104073571D01*
X100446351Y-104073571D02*
X100332066Y-104073571D01*
X100332066Y-104073571D02*
X100255875Y-104111667D01*
X100255875Y-104111667D02*
X100217780Y-104149762D01*
X100217780Y-104149762D02*
X100179685Y-104225952D01*
X100179685Y-104225952D02*
X100179685Y-104530714D01*
X100598732Y-103730714D02*
X99951113Y-103730714D01*
X99951113Y-103730714D02*
X99874923Y-103692619D01*
X99874923Y-103692619D02*
X99836828Y-103654524D01*
X99836828Y-103654524D02*
X99798732Y-103578333D01*
X99798732Y-103578333D02*
X99798732Y-103425952D01*
X99798732Y-103425952D02*
X99836828Y-103349762D01*
X99836828Y-103349762D02*
X99874923Y-103311667D01*
X99874923Y-103311667D02*
X99951113Y-103273571D01*
X99951113Y-103273571D02*
X100598732Y-103273571D01*
X100598732Y-103006905D02*
X100598732Y-102549762D01*
X99798732Y-102778334D02*
X100598732Y-102778334D01*
X99798732Y-101864048D02*
X99798732Y-102321191D01*
X99798732Y-102092619D02*
X100598732Y-102092619D01*
X100598732Y-102092619D02*
X100484447Y-102168810D01*
X100484447Y-102168810D02*
X100408256Y-102245000D01*
X100408256Y-102245000D02*
X100370161Y-102321191D01*
X99798732Y-101102143D02*
X99798732Y-101559286D01*
X99798732Y-101330714D02*
X100598732Y-101330714D01*
X100598732Y-101330714D02*
X100484447Y-101406905D01*
X100484447Y-101406905D02*
X100408256Y-101483095D01*
X100408256Y-101483095D02*
X100370161Y-101559286D01*
X96413018Y-105749761D02*
X97213018Y-105749761D01*
X96413018Y-105368809D02*
X97213018Y-105368809D01*
X97213018Y-105368809D02*
X96413018Y-104911666D01*
X96413018Y-104911666D02*
X97213018Y-104911666D01*
X96413018Y-104530714D02*
X97213018Y-104530714D01*
X97213018Y-104530714D02*
X97213018Y-104225952D01*
X97213018Y-104225952D02*
X97174923Y-104149762D01*
X97174923Y-104149762D02*
X97136828Y-104111667D01*
X97136828Y-104111667D02*
X97060637Y-104073571D01*
X97060637Y-104073571D02*
X96946352Y-104073571D01*
X96946352Y-104073571D02*
X96870161Y-104111667D01*
X96870161Y-104111667D02*
X96832066Y-104149762D01*
X96832066Y-104149762D02*
X96793971Y-104225952D01*
X96793971Y-104225952D02*
X96793971Y-104530714D01*
X97213018Y-103730714D02*
X96565399Y-103730714D01*
X96565399Y-103730714D02*
X96489209Y-103692619D01*
X96489209Y-103692619D02*
X96451114Y-103654524D01*
X96451114Y-103654524D02*
X96413018Y-103578333D01*
X96413018Y-103578333D02*
X96413018Y-103425952D01*
X96413018Y-103425952D02*
X96451114Y-103349762D01*
X96451114Y-103349762D02*
X96489209Y-103311667D01*
X96489209Y-103311667D02*
X96565399Y-103273571D01*
X96565399Y-103273571D02*
X97213018Y-103273571D01*
X97213018Y-103006905D02*
X97213018Y-102549762D01*
X96413018Y-102778334D02*
X97213018Y-102778334D01*
X96413018Y-101864048D02*
X96413018Y-102321191D01*
X96413018Y-102092619D02*
X97213018Y-102092619D01*
X97213018Y-102092619D02*
X97098733Y-102168810D01*
X97098733Y-102168810D02*
X97022542Y-102245000D01*
X97022542Y-102245000D02*
X96984447Y-102321191D01*
X97213018Y-101368809D02*
X97213018Y-101292619D01*
X97213018Y-101292619D02*
X97174923Y-101216428D01*
X97174923Y-101216428D02*
X97136828Y-101178333D01*
X97136828Y-101178333D02*
X97060637Y-101140238D01*
X97060637Y-101140238D02*
X96908256Y-101102143D01*
X96908256Y-101102143D02*
X96717780Y-101102143D01*
X96717780Y-101102143D02*
X96565399Y-101140238D01*
X96565399Y-101140238D02*
X96489209Y-101178333D01*
X96489209Y-101178333D02*
X96451114Y-101216428D01*
X96451114Y-101216428D02*
X96413018Y-101292619D01*
X96413018Y-101292619D02*
X96413018Y-101368809D01*
X96413018Y-101368809D02*
X96451114Y-101445000D01*
X96451114Y-101445000D02*
X96489209Y-101483095D01*
X96489209Y-101483095D02*
X96565399Y-101521190D01*
X96565399Y-101521190D02*
X96717780Y-101559286D01*
X96717780Y-101559286D02*
X96908256Y-101559286D01*
X96908256Y-101559286D02*
X97060637Y-101521190D01*
X97060637Y-101521190D02*
X97136828Y-101483095D01*
X97136828Y-101483095D02*
X97174923Y-101445000D01*
X97174923Y-101445000D02*
X97213018Y-101368809D01*
X93027304Y-105368808D02*
X93827304Y-105368808D01*
X93027304Y-104987856D02*
X93827304Y-104987856D01*
X93827304Y-104987856D02*
X93027304Y-104530713D01*
X93027304Y-104530713D02*
X93827304Y-104530713D01*
X93027304Y-104149761D02*
X93827304Y-104149761D01*
X93827304Y-104149761D02*
X93827304Y-103844999D01*
X93827304Y-103844999D02*
X93789209Y-103768809D01*
X93789209Y-103768809D02*
X93751114Y-103730714D01*
X93751114Y-103730714D02*
X93674923Y-103692618D01*
X93674923Y-103692618D02*
X93560638Y-103692618D01*
X93560638Y-103692618D02*
X93484447Y-103730714D01*
X93484447Y-103730714D02*
X93446352Y-103768809D01*
X93446352Y-103768809D02*
X93408257Y-103844999D01*
X93408257Y-103844999D02*
X93408257Y-104149761D01*
X93827304Y-103349761D02*
X93179685Y-103349761D01*
X93179685Y-103349761D02*
X93103495Y-103311666D01*
X93103495Y-103311666D02*
X93065400Y-103273571D01*
X93065400Y-103273571D02*
X93027304Y-103197380D01*
X93027304Y-103197380D02*
X93027304Y-103044999D01*
X93027304Y-103044999D02*
X93065400Y-102968809D01*
X93065400Y-102968809D02*
X93103495Y-102930714D01*
X93103495Y-102930714D02*
X93179685Y-102892618D01*
X93179685Y-102892618D02*
X93827304Y-102892618D01*
X93827304Y-102625952D02*
X93827304Y-102168809D01*
X93027304Y-102397381D02*
X93827304Y-102397381D01*
X93027304Y-101864047D02*
X93027304Y-101711666D01*
X93027304Y-101711666D02*
X93065400Y-101635476D01*
X93065400Y-101635476D02*
X93103495Y-101597380D01*
X93103495Y-101597380D02*
X93217780Y-101521190D01*
X93217780Y-101521190D02*
X93370161Y-101483095D01*
X93370161Y-101483095D02*
X93674923Y-101483095D01*
X93674923Y-101483095D02*
X93751114Y-101521190D01*
X93751114Y-101521190D02*
X93789209Y-101559285D01*
X93789209Y-101559285D02*
X93827304Y-101635476D01*
X93827304Y-101635476D02*
X93827304Y-101787857D01*
X93827304Y-101787857D02*
X93789209Y-101864047D01*
X93789209Y-101864047D02*
X93751114Y-101902142D01*
X93751114Y-101902142D02*
X93674923Y-101940238D01*
X93674923Y-101940238D02*
X93484447Y-101940238D01*
X93484447Y-101940238D02*
X93408257Y-101902142D01*
X93408257Y-101902142D02*
X93370161Y-101864047D01*
X93370161Y-101864047D02*
X93332066Y-101787857D01*
X93332066Y-101787857D02*
X93332066Y-101635476D01*
X93332066Y-101635476D02*
X93370161Y-101559285D01*
X93370161Y-101559285D02*
X93408257Y-101521190D01*
X93408257Y-101521190D02*
X93484447Y-101483095D01*
X116727304Y-118478808D02*
X117527304Y-118478808D01*
X116727304Y-118097856D02*
X117527304Y-118097856D01*
X117527304Y-118097856D02*
X116727304Y-117640713D01*
X116727304Y-117640713D02*
X117527304Y-117640713D01*
X116727304Y-117259761D02*
X117527304Y-117259761D01*
X117527304Y-117259761D02*
X117527304Y-116954999D01*
X117527304Y-116954999D02*
X117489209Y-116878809D01*
X117489209Y-116878809D02*
X117451114Y-116840714D01*
X117451114Y-116840714D02*
X117374923Y-116802618D01*
X117374923Y-116802618D02*
X117260638Y-116802618D01*
X117260638Y-116802618D02*
X117184447Y-116840714D01*
X117184447Y-116840714D02*
X117146352Y-116878809D01*
X117146352Y-116878809D02*
X117108257Y-116954999D01*
X117108257Y-116954999D02*
X117108257Y-117259761D01*
X117527304Y-116459761D02*
X116879685Y-116459761D01*
X116879685Y-116459761D02*
X116803495Y-116421666D01*
X116803495Y-116421666D02*
X116765400Y-116383571D01*
X116765400Y-116383571D02*
X116727304Y-116307380D01*
X116727304Y-116307380D02*
X116727304Y-116154999D01*
X116727304Y-116154999D02*
X116765400Y-116078809D01*
X116765400Y-116078809D02*
X116803495Y-116040714D01*
X116803495Y-116040714D02*
X116879685Y-116002618D01*
X116879685Y-116002618D02*
X117527304Y-116002618D01*
X117527304Y-115735952D02*
X117527304Y-115278809D01*
X116727304Y-115507381D02*
X117527304Y-115507381D01*
X117184447Y-114897857D02*
X117222542Y-114974047D01*
X117222542Y-114974047D02*
X117260638Y-115012142D01*
X117260638Y-115012142D02*
X117336828Y-115050238D01*
X117336828Y-115050238D02*
X117374923Y-115050238D01*
X117374923Y-115050238D02*
X117451114Y-115012142D01*
X117451114Y-115012142D02*
X117489209Y-114974047D01*
X117489209Y-114974047D02*
X117527304Y-114897857D01*
X117527304Y-114897857D02*
X117527304Y-114745476D01*
X117527304Y-114745476D02*
X117489209Y-114669285D01*
X117489209Y-114669285D02*
X117451114Y-114631190D01*
X117451114Y-114631190D02*
X117374923Y-114593095D01*
X117374923Y-114593095D02*
X117336828Y-114593095D01*
X117336828Y-114593095D02*
X117260638Y-114631190D01*
X117260638Y-114631190D02*
X117222542Y-114669285D01*
X117222542Y-114669285D02*
X117184447Y-114745476D01*
X117184447Y-114745476D02*
X117184447Y-114897857D01*
X117184447Y-114897857D02*
X117146352Y-114974047D01*
X117146352Y-114974047D02*
X117108257Y-115012142D01*
X117108257Y-115012142D02*
X117032066Y-115050238D01*
X117032066Y-115050238D02*
X116879685Y-115050238D01*
X116879685Y-115050238D02*
X116803495Y-115012142D01*
X116803495Y-115012142D02*
X116765400Y-114974047D01*
X116765400Y-114974047D02*
X116727304Y-114897857D01*
X116727304Y-114897857D02*
X116727304Y-114745476D01*
X116727304Y-114745476D02*
X116765400Y-114669285D01*
X116765400Y-114669285D02*
X116803495Y-114631190D01*
X116803495Y-114631190D02*
X116879685Y-114593095D01*
X116879685Y-114593095D02*
X117032066Y-114593095D01*
X117032066Y-114593095D02*
X117108257Y-114631190D01*
X117108257Y-114631190D02*
X117146352Y-114669285D01*
X117146352Y-114669285D02*
X117184447Y-114745476D01*
X113341588Y-118478808D02*
X114141588Y-118478808D01*
X113341588Y-118097856D02*
X114141588Y-118097856D01*
X114141588Y-118097856D02*
X113341588Y-117640713D01*
X113341588Y-117640713D02*
X114141588Y-117640713D01*
X113341588Y-117259761D02*
X114141588Y-117259761D01*
X114141588Y-117259761D02*
X114141588Y-116954999D01*
X114141588Y-116954999D02*
X114103493Y-116878809D01*
X114103493Y-116878809D02*
X114065398Y-116840714D01*
X114065398Y-116840714D02*
X113989207Y-116802618D01*
X113989207Y-116802618D02*
X113874922Y-116802618D01*
X113874922Y-116802618D02*
X113798731Y-116840714D01*
X113798731Y-116840714D02*
X113760636Y-116878809D01*
X113760636Y-116878809D02*
X113722541Y-116954999D01*
X113722541Y-116954999D02*
X113722541Y-117259761D01*
X114141588Y-116459761D02*
X113493969Y-116459761D01*
X113493969Y-116459761D02*
X113417779Y-116421666D01*
X113417779Y-116421666D02*
X113379684Y-116383571D01*
X113379684Y-116383571D02*
X113341588Y-116307380D01*
X113341588Y-116307380D02*
X113341588Y-116154999D01*
X113341588Y-116154999D02*
X113379684Y-116078809D01*
X113379684Y-116078809D02*
X113417779Y-116040714D01*
X113417779Y-116040714D02*
X113493969Y-116002618D01*
X113493969Y-116002618D02*
X114141588Y-116002618D01*
X114141588Y-115735952D02*
X114141588Y-115278809D01*
X113341588Y-115507381D02*
X114141588Y-115507381D01*
X114141588Y-115088333D02*
X114141588Y-114554999D01*
X114141588Y-114554999D02*
X113341588Y-114897857D01*
X109955874Y-118478808D02*
X110755874Y-118478808D01*
X109955874Y-118097856D02*
X110755874Y-118097856D01*
X110755874Y-118097856D02*
X109955874Y-117640713D01*
X109955874Y-117640713D02*
X110755874Y-117640713D01*
X109955874Y-117259761D02*
X110755874Y-117259761D01*
X110755874Y-117259761D02*
X110755874Y-116954999D01*
X110755874Y-116954999D02*
X110717779Y-116878809D01*
X110717779Y-116878809D02*
X110679684Y-116840714D01*
X110679684Y-116840714D02*
X110603493Y-116802618D01*
X110603493Y-116802618D02*
X110489208Y-116802618D01*
X110489208Y-116802618D02*
X110413017Y-116840714D01*
X110413017Y-116840714D02*
X110374922Y-116878809D01*
X110374922Y-116878809D02*
X110336827Y-116954999D01*
X110336827Y-116954999D02*
X110336827Y-117259761D01*
X110755874Y-116459761D02*
X110108255Y-116459761D01*
X110108255Y-116459761D02*
X110032065Y-116421666D01*
X110032065Y-116421666D02*
X109993970Y-116383571D01*
X109993970Y-116383571D02*
X109955874Y-116307380D01*
X109955874Y-116307380D02*
X109955874Y-116154999D01*
X109955874Y-116154999D02*
X109993970Y-116078809D01*
X109993970Y-116078809D02*
X110032065Y-116040714D01*
X110032065Y-116040714D02*
X110108255Y-116002618D01*
X110108255Y-116002618D02*
X110755874Y-116002618D01*
X110755874Y-115735952D02*
X110755874Y-115278809D01*
X109955874Y-115507381D02*
X110755874Y-115507381D01*
X110755874Y-114669285D02*
X110755874Y-114821666D01*
X110755874Y-114821666D02*
X110717779Y-114897857D01*
X110717779Y-114897857D02*
X110679684Y-114935952D01*
X110679684Y-114935952D02*
X110565398Y-115012142D01*
X110565398Y-115012142D02*
X110413017Y-115050238D01*
X110413017Y-115050238D02*
X110108255Y-115050238D01*
X110108255Y-115050238D02*
X110032065Y-115012142D01*
X110032065Y-115012142D02*
X109993970Y-114974047D01*
X109993970Y-114974047D02*
X109955874Y-114897857D01*
X109955874Y-114897857D02*
X109955874Y-114745476D01*
X109955874Y-114745476D02*
X109993970Y-114669285D01*
X109993970Y-114669285D02*
X110032065Y-114631190D01*
X110032065Y-114631190D02*
X110108255Y-114593095D01*
X110108255Y-114593095D02*
X110298731Y-114593095D01*
X110298731Y-114593095D02*
X110374922Y-114631190D01*
X110374922Y-114631190D02*
X110413017Y-114669285D01*
X110413017Y-114669285D02*
X110451112Y-114745476D01*
X110451112Y-114745476D02*
X110451112Y-114897857D01*
X110451112Y-114897857D02*
X110413017Y-114974047D01*
X110413017Y-114974047D02*
X110374922Y-115012142D01*
X110374922Y-115012142D02*
X110298731Y-115050238D01*
X106570160Y-118478808D02*
X107370160Y-118478808D01*
X106570160Y-118097856D02*
X107370160Y-118097856D01*
X107370160Y-118097856D02*
X106570160Y-117640713D01*
X106570160Y-117640713D02*
X107370160Y-117640713D01*
X106570160Y-117259761D02*
X107370160Y-117259761D01*
X107370160Y-117259761D02*
X107370160Y-116954999D01*
X107370160Y-116954999D02*
X107332065Y-116878809D01*
X107332065Y-116878809D02*
X107293970Y-116840714D01*
X107293970Y-116840714D02*
X107217779Y-116802618D01*
X107217779Y-116802618D02*
X107103494Y-116802618D01*
X107103494Y-116802618D02*
X107027303Y-116840714D01*
X107027303Y-116840714D02*
X106989208Y-116878809D01*
X106989208Y-116878809D02*
X106951113Y-116954999D01*
X106951113Y-116954999D02*
X106951113Y-117259761D01*
X107370160Y-116459761D02*
X106722541Y-116459761D01*
X106722541Y-116459761D02*
X106646351Y-116421666D01*
X106646351Y-116421666D02*
X106608256Y-116383571D01*
X106608256Y-116383571D02*
X106570160Y-116307380D01*
X106570160Y-116307380D02*
X106570160Y-116154999D01*
X106570160Y-116154999D02*
X106608256Y-116078809D01*
X106608256Y-116078809D02*
X106646351Y-116040714D01*
X106646351Y-116040714D02*
X106722541Y-116002618D01*
X106722541Y-116002618D02*
X107370160Y-116002618D01*
X107370160Y-115735952D02*
X107370160Y-115278809D01*
X106570160Y-115507381D02*
X107370160Y-115507381D01*
X107370160Y-114631190D02*
X107370160Y-115012142D01*
X107370160Y-115012142D02*
X106989208Y-115050238D01*
X106989208Y-115050238D02*
X107027303Y-115012142D01*
X107027303Y-115012142D02*
X107065398Y-114935952D01*
X107065398Y-114935952D02*
X107065398Y-114745476D01*
X107065398Y-114745476D02*
X107027303Y-114669285D01*
X107027303Y-114669285D02*
X106989208Y-114631190D01*
X106989208Y-114631190D02*
X106913017Y-114593095D01*
X106913017Y-114593095D02*
X106722541Y-114593095D01*
X106722541Y-114593095D02*
X106646351Y-114631190D01*
X106646351Y-114631190D02*
X106608256Y-114669285D01*
X106608256Y-114669285D02*
X106570160Y-114745476D01*
X106570160Y-114745476D02*
X106570160Y-114935952D01*
X106570160Y-114935952D02*
X106608256Y-115012142D01*
X106608256Y-115012142D02*
X106646351Y-115050238D01*
X103184446Y-118478808D02*
X103984446Y-118478808D01*
X103184446Y-118097856D02*
X103984446Y-118097856D01*
X103984446Y-118097856D02*
X103184446Y-117640713D01*
X103184446Y-117640713D02*
X103984446Y-117640713D01*
X103184446Y-117259761D02*
X103984446Y-117259761D01*
X103984446Y-117259761D02*
X103984446Y-116954999D01*
X103984446Y-116954999D02*
X103946351Y-116878809D01*
X103946351Y-116878809D02*
X103908256Y-116840714D01*
X103908256Y-116840714D02*
X103832065Y-116802618D01*
X103832065Y-116802618D02*
X103717780Y-116802618D01*
X103717780Y-116802618D02*
X103641589Y-116840714D01*
X103641589Y-116840714D02*
X103603494Y-116878809D01*
X103603494Y-116878809D02*
X103565399Y-116954999D01*
X103565399Y-116954999D02*
X103565399Y-117259761D01*
X103984446Y-116459761D02*
X103336827Y-116459761D01*
X103336827Y-116459761D02*
X103260637Y-116421666D01*
X103260637Y-116421666D02*
X103222542Y-116383571D01*
X103222542Y-116383571D02*
X103184446Y-116307380D01*
X103184446Y-116307380D02*
X103184446Y-116154999D01*
X103184446Y-116154999D02*
X103222542Y-116078809D01*
X103222542Y-116078809D02*
X103260637Y-116040714D01*
X103260637Y-116040714D02*
X103336827Y-116002618D01*
X103336827Y-116002618D02*
X103984446Y-116002618D01*
X103984446Y-115735952D02*
X103984446Y-115278809D01*
X103184446Y-115507381D02*
X103984446Y-115507381D01*
X103717780Y-114669285D02*
X103184446Y-114669285D01*
X104022542Y-114859761D02*
X103451113Y-115050238D01*
X103451113Y-115050238D02*
X103451113Y-114554999D01*
X99798732Y-118478808D02*
X100598732Y-118478808D01*
X99798732Y-118097856D02*
X100598732Y-118097856D01*
X100598732Y-118097856D02*
X99798732Y-117640713D01*
X99798732Y-117640713D02*
X100598732Y-117640713D01*
X99798732Y-117259761D02*
X100598732Y-117259761D01*
X100598732Y-117259761D02*
X100598732Y-116954999D01*
X100598732Y-116954999D02*
X100560637Y-116878809D01*
X100560637Y-116878809D02*
X100522542Y-116840714D01*
X100522542Y-116840714D02*
X100446351Y-116802618D01*
X100446351Y-116802618D02*
X100332066Y-116802618D01*
X100332066Y-116802618D02*
X100255875Y-116840714D01*
X100255875Y-116840714D02*
X100217780Y-116878809D01*
X100217780Y-116878809D02*
X100179685Y-116954999D01*
X100179685Y-116954999D02*
X100179685Y-117259761D01*
X100598732Y-116459761D02*
X99951113Y-116459761D01*
X99951113Y-116459761D02*
X99874923Y-116421666D01*
X99874923Y-116421666D02*
X99836828Y-116383571D01*
X99836828Y-116383571D02*
X99798732Y-116307380D01*
X99798732Y-116307380D02*
X99798732Y-116154999D01*
X99798732Y-116154999D02*
X99836828Y-116078809D01*
X99836828Y-116078809D02*
X99874923Y-116040714D01*
X99874923Y-116040714D02*
X99951113Y-116002618D01*
X99951113Y-116002618D02*
X100598732Y-116002618D01*
X100598732Y-115735952D02*
X100598732Y-115278809D01*
X99798732Y-115507381D02*
X100598732Y-115507381D01*
X100598732Y-115088333D02*
X100598732Y-114593095D01*
X100598732Y-114593095D02*
X100293970Y-114859761D01*
X100293970Y-114859761D02*
X100293970Y-114745476D01*
X100293970Y-114745476D02*
X100255875Y-114669285D01*
X100255875Y-114669285D02*
X100217780Y-114631190D01*
X100217780Y-114631190D02*
X100141589Y-114593095D01*
X100141589Y-114593095D02*
X99951113Y-114593095D01*
X99951113Y-114593095D02*
X99874923Y-114631190D01*
X99874923Y-114631190D02*
X99836828Y-114669285D01*
X99836828Y-114669285D02*
X99798732Y-114745476D01*
X99798732Y-114745476D02*
X99798732Y-114974047D01*
X99798732Y-114974047D02*
X99836828Y-115050238D01*
X99836828Y-115050238D02*
X99874923Y-115088333D01*
X96413018Y-118478808D02*
X97213018Y-118478808D01*
X96413018Y-118097856D02*
X97213018Y-118097856D01*
X97213018Y-118097856D02*
X96413018Y-117640713D01*
X96413018Y-117640713D02*
X97213018Y-117640713D01*
X96413018Y-117259761D02*
X97213018Y-117259761D01*
X97213018Y-117259761D02*
X97213018Y-116954999D01*
X97213018Y-116954999D02*
X97174923Y-116878809D01*
X97174923Y-116878809D02*
X97136828Y-116840714D01*
X97136828Y-116840714D02*
X97060637Y-116802618D01*
X97060637Y-116802618D02*
X96946352Y-116802618D01*
X96946352Y-116802618D02*
X96870161Y-116840714D01*
X96870161Y-116840714D02*
X96832066Y-116878809D01*
X96832066Y-116878809D02*
X96793971Y-116954999D01*
X96793971Y-116954999D02*
X96793971Y-117259761D01*
X97213018Y-116459761D02*
X96565399Y-116459761D01*
X96565399Y-116459761D02*
X96489209Y-116421666D01*
X96489209Y-116421666D02*
X96451114Y-116383571D01*
X96451114Y-116383571D02*
X96413018Y-116307380D01*
X96413018Y-116307380D02*
X96413018Y-116154999D01*
X96413018Y-116154999D02*
X96451114Y-116078809D01*
X96451114Y-116078809D02*
X96489209Y-116040714D01*
X96489209Y-116040714D02*
X96565399Y-116002618D01*
X96565399Y-116002618D02*
X97213018Y-116002618D01*
X97213018Y-115735952D02*
X97213018Y-115278809D01*
X96413018Y-115507381D02*
X97213018Y-115507381D01*
X97136828Y-115050238D02*
X97174923Y-115012142D01*
X97174923Y-115012142D02*
X97213018Y-114935952D01*
X97213018Y-114935952D02*
X97213018Y-114745476D01*
X97213018Y-114745476D02*
X97174923Y-114669285D01*
X97174923Y-114669285D02*
X97136828Y-114631190D01*
X97136828Y-114631190D02*
X97060637Y-114593095D01*
X97060637Y-114593095D02*
X96984447Y-114593095D01*
X96984447Y-114593095D02*
X96870161Y-114631190D01*
X96870161Y-114631190D02*
X96413018Y-115088333D01*
X96413018Y-115088333D02*
X96413018Y-114593095D01*
X93027304Y-118478808D02*
X93827304Y-118478808D01*
X93027304Y-118097856D02*
X93827304Y-118097856D01*
X93827304Y-118097856D02*
X93027304Y-117640713D01*
X93027304Y-117640713D02*
X93827304Y-117640713D01*
X93027304Y-117259761D02*
X93827304Y-117259761D01*
X93827304Y-117259761D02*
X93827304Y-116954999D01*
X93827304Y-116954999D02*
X93789209Y-116878809D01*
X93789209Y-116878809D02*
X93751114Y-116840714D01*
X93751114Y-116840714D02*
X93674923Y-116802618D01*
X93674923Y-116802618D02*
X93560638Y-116802618D01*
X93560638Y-116802618D02*
X93484447Y-116840714D01*
X93484447Y-116840714D02*
X93446352Y-116878809D01*
X93446352Y-116878809D02*
X93408257Y-116954999D01*
X93408257Y-116954999D02*
X93408257Y-117259761D01*
X93827304Y-116459761D02*
X93179685Y-116459761D01*
X93179685Y-116459761D02*
X93103495Y-116421666D01*
X93103495Y-116421666D02*
X93065400Y-116383571D01*
X93065400Y-116383571D02*
X93027304Y-116307380D01*
X93027304Y-116307380D02*
X93027304Y-116154999D01*
X93027304Y-116154999D02*
X93065400Y-116078809D01*
X93065400Y-116078809D02*
X93103495Y-116040714D01*
X93103495Y-116040714D02*
X93179685Y-116002618D01*
X93179685Y-116002618D02*
X93827304Y-116002618D01*
X93827304Y-115735952D02*
X93827304Y-115278809D01*
X93027304Y-115507381D02*
X93827304Y-115507381D01*
X93027304Y-114593095D02*
X93027304Y-115050238D01*
X93027304Y-114821666D02*
X93827304Y-114821666D01*
X93827304Y-114821666D02*
X93713019Y-114897857D01*
X93713019Y-114897857D02*
X93636828Y-114974047D01*
X93636828Y-114974047D02*
X93598733Y-115050238D01*
D11*
%TO.C,R33*%
X115830000Y-113285000D02*
X115830000Y-119825000D01*
X115830000Y-119825000D02*
X118570000Y-119825000D01*
X117200000Y-113285000D02*
X117200000Y-112515000D01*
X117200000Y-119825000D02*
X117200000Y-120595000D01*
X118570000Y-113285000D02*
X115830000Y-113285000D01*
X118570000Y-119825000D02*
X118570000Y-113285000D01*
%TO.C,R34*%
X95515714Y-100175000D02*
X95515714Y-106715000D01*
X95515714Y-106715000D02*
X98255714Y-106715000D01*
X96885714Y-100175000D02*
X96885714Y-99405000D01*
X96885714Y-106715000D02*
X96885714Y-107485000D01*
X98255714Y-100175000D02*
X95515714Y-100175000D01*
X98255714Y-106715000D02*
X98255714Y-100175000D01*
%TO.C,R50*%
X102271000Y-100175000D02*
X102271000Y-106715000D01*
X102271000Y-106715000D02*
X105011000Y-106715000D01*
X103641000Y-100175000D02*
X103641000Y-99405000D01*
X103641000Y-106715000D02*
X103641000Y-107485000D01*
X105011000Y-100175000D02*
X102271000Y-100175000D01*
X105011000Y-106715000D02*
X105011000Y-100175000D01*
%TO.C,R56*%
X109058570Y-100175000D02*
X109058570Y-106715000D01*
X109058570Y-106715000D02*
X111798570Y-106715000D01*
X110428570Y-100175000D02*
X110428570Y-99405000D01*
X110428570Y-106715000D02*
X110428570Y-107485000D01*
X111798570Y-100175000D02*
X109058570Y-100175000D01*
X111798570Y-106715000D02*
X111798570Y-100175000D01*
%TO.C,R27*%
X92130000Y-100175000D02*
X92130000Y-106715000D01*
X92130000Y-106715000D02*
X94870000Y-106715000D01*
X93500000Y-100175000D02*
X93500000Y-99405000D01*
X93500000Y-106715000D02*
X93500000Y-107485000D01*
X94870000Y-100175000D02*
X92130000Y-100175000D01*
X94870000Y-106715000D02*
X94870000Y-100175000D01*
%TO.C,R59*%
X115184284Y-106715000D02*
X115184284Y-100175000D01*
X115184284Y-100175000D02*
X112444284Y-100175000D01*
X113814284Y-106715000D02*
X113814284Y-107485000D01*
X113814284Y-100175000D02*
X113814284Y-99405000D01*
X112444284Y-106715000D02*
X115184284Y-106715000D01*
X112444284Y-100175000D02*
X112444284Y-106715000D01*
%TO.C,R21*%
X105672856Y-113285000D02*
X105672856Y-119825000D01*
X105672856Y-119825000D02*
X108412856Y-119825000D01*
X107042856Y-113285000D02*
X107042856Y-112515000D01*
X107042856Y-119825000D02*
X107042856Y-120595000D01*
X108412856Y-113285000D02*
X105672856Y-113285000D01*
X108412856Y-119825000D02*
X108412856Y-113285000D01*
%TO.C,R31*%
X102287142Y-113285000D02*
X102287142Y-119825000D01*
X102287142Y-119825000D02*
X105027142Y-119825000D01*
X103657142Y-113285000D02*
X103657142Y-112515000D01*
X103657142Y-119825000D02*
X103657142Y-120595000D01*
X105027142Y-113285000D02*
X102287142Y-113285000D01*
X105027142Y-119825000D02*
X105027142Y-113285000D01*
%TO.C,R47*%
X98901428Y-100175000D02*
X98901428Y-106715000D01*
X98901428Y-106715000D02*
X101641428Y-106715000D01*
X100271428Y-100175000D02*
X100271428Y-99405000D01*
X100271428Y-106715000D02*
X100271428Y-107485000D01*
X101641428Y-100175000D02*
X98901428Y-100175000D01*
X101641428Y-106715000D02*
X101641428Y-100175000D01*
%TO.C,R24*%
X112444284Y-113285000D02*
X112444284Y-119825000D01*
X112444284Y-119825000D02*
X115184284Y-119825000D01*
X113814284Y-113285000D02*
X113814284Y-112515000D01*
X113814284Y-119825000D02*
X113814284Y-120595000D01*
X115184284Y-113285000D02*
X112444284Y-113285000D01*
X115184284Y-119825000D02*
X115184284Y-113285000D01*
%TO.C,R30*%
X95515714Y-113285000D02*
X95515714Y-119825000D01*
X95515714Y-119825000D02*
X98255714Y-119825000D01*
X96885714Y-113285000D02*
X96885714Y-112515000D01*
X96885714Y-119825000D02*
X96885714Y-120595000D01*
X98255714Y-113285000D02*
X95515714Y-113285000D01*
X98255714Y-119825000D02*
X98255714Y-113285000D01*
%TO.C,R53*%
X105672856Y-100175000D02*
X105672856Y-106715000D01*
X105672856Y-106715000D02*
X108412856Y-106715000D01*
X107042856Y-100175000D02*
X107042856Y-99405000D01*
X107042856Y-106715000D02*
X107042856Y-107485000D01*
X108412856Y-100175000D02*
X105672856Y-100175000D01*
X108412856Y-106715000D02*
X108412856Y-100175000D01*
%TO.C,R62*%
X118570000Y-106715000D02*
X118570000Y-100175000D01*
X118570000Y-100175000D02*
X115830000Y-100175000D01*
X117200000Y-106715000D02*
X117200000Y-107485000D01*
X117200000Y-100175000D02*
X117200000Y-99405000D01*
X115830000Y-106715000D02*
X118570000Y-106715000D01*
X115830000Y-100175000D02*
X115830000Y-106715000D01*
%TO.C,R18*%
X98901428Y-113285000D02*
X98901428Y-119825000D01*
X98901428Y-119825000D02*
X101641428Y-119825000D01*
X100271428Y-113285000D02*
X100271428Y-112515000D01*
X100271428Y-119825000D02*
X100271428Y-120595000D01*
X101641428Y-113285000D02*
X98901428Y-113285000D01*
X101641428Y-119825000D02*
X101641428Y-113285000D01*
%TO.C,R17*%
X92130000Y-113285000D02*
X92130000Y-119825000D01*
X92130000Y-119825000D02*
X94870000Y-119825000D01*
X93500000Y-113285000D02*
X93500000Y-112515000D01*
X93500000Y-119825000D02*
X93500000Y-120595000D01*
X94870000Y-113285000D02*
X92130000Y-113285000D01*
X94870000Y-119825000D02*
X94870000Y-113285000D01*
%TO.C,R32*%
X109058570Y-113285000D02*
X109058570Y-119825000D01*
X109058570Y-119825000D02*
X111798570Y-119825000D01*
X110428570Y-113285000D02*
X110428570Y-112515000D01*
X110428570Y-119825000D02*
X110428570Y-120595000D01*
X111798570Y-113285000D02*
X109058570Y-113285000D01*
X111798570Y-119825000D02*
X111798570Y-113285000D01*
%TD*%
D13*
X116000000Y-74575000D03*
X108150000Y-142670000D03*
X75650000Y-142670000D03*
X100900000Y-136170000D03*
X97900000Y-136170000D03*
X94900000Y-136170000D03*
X91900000Y-136170000D03*
X88900000Y-136170000D03*
X85900000Y-136170000D03*
X82900000Y-136170000D03*
X99400000Y-133670000D03*
X96400000Y-133670000D03*
X93400000Y-133670000D03*
X90400000Y-133670000D03*
X87400000Y-133670000D03*
X84400000Y-133670000D03*
X99400000Y-130670000D03*
X96400000Y-130670000D03*
X93400000Y-130670000D03*
X90400000Y-130670000D03*
X87400000Y-130670000D03*
X84400000Y-130670000D03*
X100900000Y-128170000D03*
X97900000Y-128170000D03*
X94900000Y-128170000D03*
X91900000Y-128170000D03*
X88900000Y-128170000D03*
X85900000Y-128170000D03*
X82900000Y-128170000D03*
D14*
X69100000Y-91375000D03*
X69100000Y-82735000D03*
D15*
X64950000Y-91375000D03*
X64950000Y-82735000D03*
D13*
X68600000Y-89945000D03*
X68600000Y-84165000D03*
D16*
X89000000Y-78190000D03*
X89000000Y-79590000D03*
X89700000Y-77490000D03*
X89700000Y-78890000D03*
X89700000Y-80290000D03*
X90400000Y-78190000D03*
X90400000Y-79590000D03*
X91100000Y-77490000D03*
X91100000Y-78890000D03*
X91100000Y-80290000D03*
X91800000Y-78190000D03*
X91800000Y-79590000D03*
D13*
X67350000Y-74575000D03*
X117200000Y-111475000D03*
X117200000Y-121635000D03*
X96885714Y-108525000D03*
X96885714Y-98365000D03*
X103641000Y-108525000D03*
X103641000Y-98365000D03*
X110428570Y-108525000D03*
X110428570Y-98365000D03*
X93500000Y-108525000D03*
X93500000Y-98365000D03*
X113814284Y-98365000D03*
X113814284Y-108525000D03*
X107042856Y-111475000D03*
X107042856Y-121635000D03*
X103657142Y-111475000D03*
X103657142Y-121635000D03*
X100271428Y-108525000D03*
X100271428Y-98365000D03*
X113814284Y-111475000D03*
X113814284Y-121635000D03*
X96885714Y-111475000D03*
X96885714Y-121635000D03*
X107042856Y-108525000D03*
X107042856Y-98365000D03*
X117200000Y-98365000D03*
X117200000Y-108525000D03*
X100271428Y-111475000D03*
X100271428Y-121635000D03*
X93500000Y-111475000D03*
X93500000Y-121635000D03*
X110428570Y-111475000D03*
X110428570Y-121635000D03*
M02*
