%TF.GenerationSoftware,KiCad,Pcbnew,8.0.8*%
%TF.CreationDate,2026-03-18T22:42:44+00:00*%
%TF.ProjectId,esp32-canboard,65737033-322d-4636-916e-626f6172642e,rev?*%
%TF.SameCoordinates,Original*%
%TF.FileFunction,Copper,L3,Inr*%
%TF.FilePolarity,Positive*%
%FSLAX46Y46*%
G04 Gerber Fmt 4.6, Leading zero omitted, Abs format (unit mm)*
G04 Created by KiCad (PCBNEW 8.0.8) date 2026-03-18 22:42:44*
%MOMM*%
%LPD*%
G01*
G04 APERTURE LIST*
%TA.AperFunction,ComponentPad*%
%ADD10C,5.600000*%
%TD*%
%TA.AperFunction,ComponentPad*%
%ADD11C,5.100000*%
%TD*%
%TA.AperFunction,ComponentPad*%
%ADD12C,2.250000*%
%TD*%
%TA.AperFunction,ComponentPad*%
%ADD13O,2.150000X1.050000*%
%TD*%
%TA.AperFunction,ComponentPad*%
%ADD14O,1.850000X1.050000*%
%TD*%
%TA.AperFunction,HeatsinkPad*%
%ADD15C,0.600000*%
%TD*%
%TA.AperFunction,ComponentPad*%
%ADD16C,1.600000*%
%TD*%
%TA.AperFunction,ComponentPad*%
%ADD17O,1.600000X1.600000*%
%TD*%
%TA.AperFunction,ViaPad*%
%ADD18C,0.600000*%
%TD*%
%TA.AperFunction,ViaPad*%
%ADD19C,0.800000*%
%TD*%
%TA.AperFunction,Conductor*%
%ADD20C,0.250000*%
%TD*%
%TA.AperFunction,Conductor*%
%ADD21C,0.300000*%
%TD*%
%TA.AperFunction,Conductor*%
%ADD22C,0.600000*%
%TD*%
%TA.AperFunction,Conductor*%
%ADD23C,0.400000*%
%TD*%
%ADD24C,0.300000*%
%ADD25C,0.350000*%
%ADD26O,1.750000X0.650000*%
%ADD27O,1.450000X0.650000*%
%ADD28C,0.200000*%
G04 APERTURE END LIST*
D10*
%TO.N,GND*%
%TO.C,MH2*%
X116000000Y-74575000D03*
%TD*%
D11*
%TO.N,GND*%
%TO.C,CONN1*%
X108150000Y-142670000D03*
X75650000Y-142670000D03*
D12*
X100900000Y-136170000D03*
%TO.N,INPUT16*%
X97900000Y-136170000D03*
%TO.N,INPUT15*%
X94900000Y-136170000D03*
%TO.N,INPUT14*%
X91900000Y-136170000D03*
%TO.N,INPUT13*%
X88900000Y-136170000D03*
%TO.N,INPUT12*%
X85900000Y-136170000D03*
%TO.N,INPUT11*%
X82900000Y-136170000D03*
%TO.N,INPUT10*%
X99400000Y-133670000D03*
%TO.N,INPUT9*%
X96400000Y-133670000D03*
%TO.N,INPUT8*%
X93400000Y-133670000D03*
%TO.N,INPUT7*%
X90400000Y-133670000D03*
%TO.N,INPUT6*%
X87400000Y-133670000D03*
%TO.N,INPUT5*%
X84400000Y-133670000D03*
%TO.N,INPUT4*%
X99400000Y-130670000D03*
%TO.N,INPUT3*%
X96400000Y-130670000D03*
%TO.N,INPUT2*%
X93400000Y-130670000D03*
%TO.N,INPUT1*%
X90400000Y-130670000D03*
%TO.N,+5VF*%
X87400000Y-130670000D03*
%TO.N,GND*%
X84400000Y-130670000D03*
%TO.N,CAN1_L*%
X100900000Y-128170000D03*
%TO.N,CAN1_H*%
X97900000Y-128170000D03*
%TO.N,GND*%
X94900000Y-128170000D03*
%TO.N,+5VF*%
X91900000Y-128170000D03*
X88900000Y-128170000D03*
%TO.N,GND*%
X85900000Y-128170000D03*
%TO.N,+12V*%
X82900000Y-128170000D03*
%TD*%
D13*
%TO.N,GND*%
%TO.C,CONN2*%
X69100000Y-91375000D03*
X69100000Y-82735000D03*
D14*
X64950000Y-91375000D03*
X64950000Y-82735000D03*
%TD*%
D15*
%TO.N,GND*%
%TO.C,U3*%
X89000000Y-78190000D03*
X89000000Y-79590000D03*
X89700000Y-77490000D03*
X89700000Y-78890000D03*
X89700000Y-80290000D03*
X90400000Y-78190000D03*
X90400000Y-79590000D03*
X91100000Y-77490000D03*
X91100000Y-78890000D03*
X91100000Y-80290000D03*
X91800000Y-78190000D03*
X91800000Y-79590000D03*
%TD*%
D10*
%TO.N,GND*%
%TO.C,MH1*%
X67350000Y-74575000D03*
%TD*%
D16*
%TO.N,+5VF*%
%TO.C,R33*%
X117200000Y-111475000D03*
D17*
%TO.N,INPUT8*%
X117200000Y-121635000D03*
%TD*%
D16*
%TO.N,+5VF*%
%TO.C,R34*%
X96885714Y-108525000D03*
D17*
%TO.N,INPUT10*%
X96885714Y-98365000D03*
%TD*%
D16*
%TO.N,+5VF*%
%TO.C,R50*%
X103641000Y-108525000D03*
D17*
%TO.N,INPUT12*%
X103641000Y-98365000D03*
%TD*%
D16*
%TO.N,+5VF*%
%TO.C,R56*%
X110428570Y-108525000D03*
D17*
%TO.N,INPUT14*%
X110428570Y-98365000D03*
%TD*%
D16*
%TO.N,+5VF*%
%TO.C,R27*%
X93500000Y-108525000D03*
D17*
%TO.N,INPUT9*%
X93500000Y-98365000D03*
%TD*%
%TO.N,INPUT15*%
%TO.C,R59*%
X113814284Y-98365000D03*
D16*
%TO.N,+5VF*%
X113814284Y-108525000D03*
%TD*%
%TO.N,+5VF*%
%TO.C,R21*%
X107042856Y-111475000D03*
D17*
%TO.N,INPUT5*%
X107042856Y-121635000D03*
%TD*%
D16*
%TO.N,+5VF*%
%TO.C,R31*%
X103657142Y-111475000D03*
D17*
%TO.N,INPUT4*%
X103657142Y-121635000D03*
%TD*%
D16*
%TO.N,+5VF*%
%TO.C,R47*%
X100271428Y-108525000D03*
D17*
%TO.N,INPUT11*%
X100271428Y-98365000D03*
%TD*%
D16*
%TO.N,+5VF*%
%TO.C,R24*%
X113814284Y-111475000D03*
D17*
%TO.N,INPUT7*%
X113814284Y-121635000D03*
%TD*%
D16*
%TO.N,+5VF*%
%TO.C,R30*%
X96885714Y-111475000D03*
D17*
%TO.N,INPUT2*%
X96885714Y-121635000D03*
%TD*%
D16*
%TO.N,+5VF*%
%TO.C,R53*%
X107042856Y-108525000D03*
D17*
%TO.N,INPUT13*%
X107042856Y-98365000D03*
%TD*%
%TO.N,INPUT16*%
%TO.C,R62*%
X117200000Y-98365000D03*
D16*
%TO.N,+5VF*%
X117200000Y-108525000D03*
%TD*%
%TO.N,+5VF*%
%TO.C,R18*%
X100271428Y-111475000D03*
D17*
%TO.N,INPUT3*%
X100271428Y-121635000D03*
%TD*%
D16*
%TO.N,+5VF*%
%TO.C,R17*%
X93500000Y-111475000D03*
D17*
%TO.N,INPUT1*%
X93500000Y-121635000D03*
%TD*%
D16*
%TO.N,+5VF*%
%TO.C,R32*%
X110428570Y-111475000D03*
D17*
%TO.N,INPUT6*%
X110428570Y-121635000D03*
%TD*%
D18*
%TO.N,INPUT8*%
X93400000Y-141145000D03*
%TO.N,INPUT7*%
X90400000Y-140520000D03*
%TO.N,INPUT6*%
X87400000Y-139895000D03*
%TO.N,INPUT5*%
X84400000Y-139275000D03*
%TO.N,INPUT9*%
X96400000Y-138025000D03*
%TO.N,INPUT10*%
X109105000Y-133041652D03*
%TO.N,INPUT11*%
X82900000Y-138650000D03*
%TO.N,INPUT12*%
X85900000Y-139275000D03*
%TO.N,INPUT13*%
X88900000Y-139895000D03*
%TO.N,INPUT14*%
X91900000Y-140520000D03*
%TO.N,INPUT15*%
X94900000Y-141145000D03*
%TO.N,INPUT16*%
X97900000Y-141770000D03*
D19*
%TO.N,+3V3*%
X103260000Y-93658000D03*
X112650000Y-85470000D03*
X104760000Y-85470000D03*
%TO.N,GND*%
X72000000Y-109100000D03*
X76525000Y-73175000D03*
X72537500Y-92475000D03*
X84650000Y-71170000D03*
X63775000Y-102006992D03*
X79330000Y-116660000D03*
X63775000Y-93375000D03*
X99125000Y-71170000D03*
X78750000Y-104250000D03*
X85662500Y-71170000D03*
X86180000Y-123200000D03*
X81825000Y-96125000D03*
X104075000Y-71170000D03*
X76980000Y-98310000D03*
X68150000Y-107075000D03*
X71525000Y-81900000D03*
X75275000Y-103425000D03*
X93500000Y-113750000D03*
X97225000Y-71170000D03*
X108325000Y-88790000D03*
X110428570Y-106260000D03*
X63775000Y-105243989D03*
X63775000Y-108480986D03*
X67335000Y-123400000D03*
X93500000Y-106260000D03*
X63775000Y-104164990D03*
X63775000Y-96611997D03*
X113814284Y-106260000D03*
X117200000Y-113750000D03*
X96885714Y-106260000D03*
X72550000Y-120491666D03*
X63775000Y-94453999D03*
X107042856Y-113750000D03*
X107042856Y-106260000D03*
X63825000Y-114550000D03*
X63775000Y-109559999D03*
X72550000Y-123075000D03*
X96885714Y-113750000D03*
X117200000Y-106260000D03*
X73102500Y-99627500D03*
X103137500Y-71170000D03*
X71725000Y-105350000D03*
X71000000Y-109100000D03*
X74000000Y-119910000D03*
X103657142Y-106260000D03*
X68150000Y-106075000D03*
X110275000Y-88790000D03*
X103650000Y-113750000D03*
X76000000Y-119910000D03*
X115050000Y-84570000D03*
X69700000Y-96975000D03*
X63775000Y-106322988D03*
X63775000Y-107401987D03*
X63775000Y-103085991D03*
X113814284Y-113750000D03*
X110375000Y-84570000D03*
X80625000Y-71170000D03*
X77425000Y-78550000D03*
X63775000Y-99848994D03*
X100271428Y-106260000D03*
X80130000Y-124350000D03*
X100271428Y-113750000D03*
X74475000Y-103425000D03*
X69300000Y-101875000D03*
X76350000Y-89110000D03*
X63775000Y-98769995D03*
X68600000Y-100050000D03*
X118175000Y-88790000D03*
X73550000Y-92475000D03*
X70000000Y-109100000D03*
X65550000Y-117700000D03*
X98175000Y-71170000D03*
X107140000Y-84570000D03*
X69300000Y-102675000D03*
X63775000Y-97690996D03*
X81625000Y-71170000D03*
X118295000Y-84570000D03*
X110428570Y-113750000D03*
X83860000Y-119230000D03*
X76525000Y-75405000D03*
X77425000Y-82350000D03*
X72550000Y-119200000D03*
X79625000Y-71170000D03*
X63775000Y-95532998D03*
X79325000Y-111100000D03*
X88030000Y-124750000D03*
X75000000Y-119910000D03*
X72550000Y-121783332D03*
X116540000Y-88790000D03*
X76350000Y-85020000D03*
X86675000Y-71170000D03*
X102200000Y-71170000D03*
X73000000Y-109475000D03*
X63775000Y-100927993D03*
X71525000Y-92475000D03*
X71350000Y-96975000D03*
%TO.N,+3V3*%
X80725000Y-97240000D03*
X81315000Y-121960000D03*
D18*
%TO.N,Net-(U3-EN)*%
X84420000Y-73710000D03*
X74430000Y-76510000D03*
%TO.N,AIN9*%
X93460000Y-102700000D03*
X113625000Y-94630000D03*
%TO.N,AIN10*%
X114275000Y-95240000D03*
X96860000Y-102710000D03*
%TO.N,CAN1_L*%
X82590000Y-121960000D03*
X88240000Y-120985000D03*
%TO.N,Net-(U3-IO38)*%
X74580000Y-96490000D03*
X99380000Y-82600000D03*
%TO.N,Net-(U3-USB_D+)*%
X77590000Y-87800000D03*
X84399999Y-87684241D03*
%TO.N,Net-(U3-USB_D-)*%
X77590000Y-86300000D03*
X84399999Y-86410000D03*
%TO.N,AIN11*%
X100220000Y-102710000D03*
X114925000Y-94630000D03*
%TO.N,AIN12*%
X103620000Y-102700000D03*
X115575000Y-95240000D03*
%TO.N,AIN13*%
X116225000Y-94630000D03*
X107010000Y-102700000D03*
%TO.N,AIN14*%
X116875000Y-95240000D03*
X110400000Y-102690000D03*
%TO.N,AIN15*%
X117525000Y-94630000D03*
X113800000Y-102690000D03*
%TO.N,Net-(CONN2-D+-PadA6)*%
X68530000Y-86640000D03*
X71945425Y-88852726D03*
%TO.N,Net-(CONN2-D--PadA7)*%
X68159947Y-85930730D03*
X71890000Y-85470000D03*
%TO.N,AIN16*%
X118175000Y-95240000D03*
X117170000Y-102710000D03*
%TO.N,SDA*%
X91265000Y-90180000D03*
X104140000Y-92720000D03*
%TO.N,SCL*%
X114925000Y-89470000D03*
X92535000Y-90180000D03*
X107025000Y-89470000D03*
X102390000Y-91320000D03*
%TO.N,VMON*%
X83525000Y-103500000D03*
X65685000Y-121520000D03*
%TO.N,Net-(U3-IO3)*%
X82870000Y-104150000D03*
X79500000Y-108350000D03*
%TD*%
D20*
%TO.N,AIN16*%
X118500000Y-95565000D02*
X118300000Y-95365000D01*
X118500000Y-101380000D02*
X118500000Y-95565000D01*
X117170000Y-102710000D02*
X118500000Y-101380000D01*
%TO.N,AIN14*%
X113350000Y-100803604D02*
X112286396Y-100803604D01*
X115190000Y-98963604D02*
X113350000Y-100803604D01*
X115190000Y-97920000D02*
X115190000Y-98963604D01*
X112286396Y-100803604D02*
X110400000Y-102690000D01*
X116875000Y-96235000D02*
X115190000Y-97920000D01*
X116875000Y-95240000D02*
X116875000Y-96235000D01*
%TO.N,AIN15*%
X115640000Y-98106396D02*
X117525000Y-96221396D01*
X115640000Y-99150000D02*
X115640000Y-98106396D01*
X113800000Y-102690000D02*
X113800000Y-100990000D01*
X113800000Y-100990000D02*
X115640000Y-99150000D01*
X117525000Y-96221396D02*
X117525000Y-94630000D01*
%TO.N,AIN13*%
X115460000Y-96900000D02*
X116225000Y-96135000D01*
X116225000Y-96135000D02*
X116225000Y-94630000D01*
X109380000Y-96900000D02*
X115460000Y-96900000D01*
X108760000Y-97520000D02*
X109380000Y-96900000D01*
X108760000Y-100960000D02*
X108760000Y-97520000D01*
X107020000Y-102700000D02*
X108760000Y-100960000D01*
X107010000Y-102700000D02*
X107020000Y-102700000D01*
%TO.N,AIN12*%
X115050000Y-96450000D02*
X115575000Y-95925000D01*
X115575000Y-95925000D02*
X115575000Y-95240000D01*
X105980000Y-96450000D02*
X115050000Y-96450000D01*
X105340000Y-97090000D02*
X105980000Y-96450000D01*
X105340000Y-101060000D02*
X105340000Y-97090000D01*
X103700000Y-102700000D02*
X105340000Y-101060000D01*
X103620000Y-102700000D02*
X103700000Y-102700000D01*
%TO.N,AIN11*%
X114620000Y-96000000D02*
X114925000Y-95695000D01*
X103120000Y-96000000D02*
X114620000Y-96000000D01*
X101960000Y-97160000D02*
X103120000Y-96000000D01*
X114925000Y-95695000D02*
X114925000Y-94630000D01*
X101960000Y-100970000D02*
X101960000Y-97160000D01*
X100220000Y-102710000D02*
X101960000Y-100970000D01*
%TO.N,AIN10*%
X114095000Y-95420000D02*
X114275000Y-95240000D01*
X98610000Y-97030000D02*
X100220000Y-95420000D01*
X97180000Y-102710000D02*
X98610000Y-101280000D01*
X98610000Y-101280000D02*
X98610000Y-97030000D01*
X100220000Y-95420000D02*
X114095000Y-95420000D01*
X96860000Y-102710000D02*
X97180000Y-102710000D01*
%TO.N,AIN9*%
X95180000Y-96870000D02*
X95180000Y-100980000D01*
X95180000Y-100980000D02*
X93460000Y-102700000D01*
X97090000Y-94960000D02*
X95180000Y-96870000D01*
X113295000Y-94960000D02*
X97090000Y-94960000D01*
X113625000Y-94630000D02*
X113295000Y-94960000D01*
%TO.N,INPUT8*%
X117200000Y-124019188D02*
X117200000Y-121635000D01*
X100699188Y-140520000D02*
X117200000Y-124019188D01*
X93400000Y-141145000D02*
X94025000Y-140520000D01*
X94025000Y-140520000D02*
X100699188Y-140520000D01*
%TO.N,INPUT7*%
X113814284Y-126768508D02*
X113814284Y-121635000D01*
X101032792Y-139550000D02*
X113814284Y-126768508D01*
X91370000Y-139550000D02*
X101032792Y-139550000D01*
X90400000Y-140520000D02*
X91370000Y-139550000D01*
%TO.N,INPUT6*%
X110428570Y-129517826D02*
X110428570Y-121635000D01*
X100846396Y-139100000D02*
X110428570Y-129517826D01*
X88195000Y-139100000D02*
X100846396Y-139100000D01*
X87400000Y-139895000D02*
X88195000Y-139100000D01*
%TO.N,INPUT5*%
X107042856Y-132267144D02*
X107042856Y-121635000D01*
X100660000Y-138650000D02*
X107042856Y-132267144D01*
X85025000Y-138650000D02*
X100660000Y-138650000D01*
X84400000Y-139275000D02*
X85025000Y-138650000D01*
D21*
%TO.N,Net-(U3-IO38)*%
X77379241Y-96490000D02*
X74580000Y-96490000D01*
X91239241Y-82630000D02*
X77379241Y-96490000D01*
X99380000Y-82630000D02*
X91239241Y-82630000D01*
D22*
%TO.N,+3V3*%
X96548654Y-93690000D02*
X96580654Y-93658000D01*
X96580654Y-93658000D02*
X103260000Y-93658000D01*
X89600000Y-93690000D02*
X96548654Y-93690000D01*
X86050000Y-97240000D02*
X89600000Y-93690000D01*
X80725000Y-97240000D02*
X86050000Y-97240000D01*
X112650000Y-85470000D02*
X104760000Y-85470000D01*
X103260000Y-86970000D02*
X104760000Y-85470000D01*
X103260000Y-93658000D02*
X103260000Y-86970000D01*
D23*
X80725000Y-97240000D02*
X84225000Y-100740000D01*
X80420000Y-121065000D02*
X81315000Y-121960000D01*
X80420000Y-109357818D02*
X80420000Y-121065000D01*
X84225000Y-100740000D02*
X84225000Y-105552818D01*
X84225000Y-105552818D02*
X80420000Y-109357818D01*
D21*
%TO.N,Net-(U3-EN)*%
X74430000Y-76510000D02*
X81620000Y-76510000D01*
X81620000Y-76510000D02*
X84420000Y-73710000D01*
%TO.N,VMON*%
X72980000Y-117490000D02*
X68950000Y-121520000D01*
X68950000Y-121520000D02*
X65685000Y-121520000D01*
X72980000Y-116020000D02*
X72980000Y-117490000D01*
X83525000Y-105475000D02*
X72980000Y-116020000D01*
X83525000Y-103500000D02*
X83525000Y-105475000D01*
%TO.N,Net-(U3-IO3)*%
X83025000Y-104305000D02*
X82870000Y-104150000D01*
X83025000Y-105267894D02*
X83025000Y-104305000D01*
X79942894Y-108350000D02*
X83025000Y-105267894D01*
X79500000Y-108350000D02*
X79942894Y-108350000D01*
D22*
%TO.N,+5VF*%
X91675000Y-125345000D02*
X88900000Y-128120000D01*
X93500000Y-111475000D02*
X91675000Y-113300000D01*
X91675000Y-113700000D02*
X91675000Y-125345000D01*
X91675000Y-110345000D02*
X91675000Y-113700000D01*
X91675000Y-110345000D02*
X91680000Y-110345000D01*
X88900000Y-128120000D02*
X88900000Y-128170000D01*
X91680000Y-110345000D02*
X93500000Y-108525000D01*
X93500000Y-108525000D02*
X117200000Y-108525000D01*
X91675000Y-113300000D02*
X91675000Y-113700000D01*
X93500000Y-111475000D02*
X117200000Y-111475000D01*
%TD*%
D24*
X93400000Y-141145000D03*
X90400000Y-140520000D03*
X87400000Y-139895000D03*
X84400000Y-139275000D03*
X96400000Y-138025000D03*
X109105000Y-133041652D03*
X82900000Y-138650000D03*
X85900000Y-139275000D03*
X88900000Y-139895000D03*
X91900000Y-140520000D03*
X94900000Y-141145000D03*
X97900000Y-141770000D03*
D25*
X103260000Y-93658000D03*
X112650000Y-85470000D03*
X104760000Y-85470000D03*
X72000000Y-109100000D03*
X76525000Y-73175000D03*
X72537500Y-92475000D03*
X84650000Y-71170000D03*
X63775000Y-102006992D03*
X79330000Y-116660000D03*
X63775000Y-93375000D03*
X99125000Y-71170000D03*
X78750000Y-104250000D03*
X85662500Y-71170000D03*
X86180000Y-123200000D03*
X81825000Y-96125000D03*
X104075000Y-71170000D03*
X76980000Y-98310000D03*
X68150000Y-107075000D03*
X71525000Y-81900000D03*
X75275000Y-103425000D03*
X93500000Y-113750000D03*
X97225000Y-71170000D03*
X108325000Y-88790000D03*
X110428570Y-106260000D03*
X63775000Y-105243989D03*
X63775000Y-108480986D03*
X67335000Y-123400000D03*
X93500000Y-106260000D03*
X63775000Y-104164990D03*
X63775000Y-96611997D03*
X113814284Y-106260000D03*
X117200000Y-113750000D03*
X96885714Y-106260000D03*
X72550000Y-120491666D03*
X63775000Y-94453999D03*
X107042856Y-113750000D03*
X107042856Y-106260000D03*
X63825000Y-114550000D03*
X63775000Y-109559999D03*
X72550000Y-123075000D03*
X96885714Y-113750000D03*
X117200000Y-106260000D03*
X73102500Y-99627500D03*
X103137500Y-71170000D03*
X71725000Y-105350000D03*
X71000000Y-109100000D03*
X74000000Y-119910000D03*
X103657142Y-106260000D03*
X68150000Y-106075000D03*
X110275000Y-88790000D03*
X103650000Y-113750000D03*
X76000000Y-119910000D03*
X115050000Y-84570000D03*
X69700000Y-96975000D03*
X63775000Y-106322988D03*
X63775000Y-107401987D03*
X63775000Y-103085991D03*
X113814284Y-113750000D03*
X110375000Y-84570000D03*
X80625000Y-71170000D03*
X77425000Y-78550000D03*
X63775000Y-99848994D03*
X100271428Y-106260000D03*
X80130000Y-124350000D03*
X100271428Y-113750000D03*
X74475000Y-103425000D03*
X69300000Y-101875000D03*
X76350000Y-89110000D03*
X63775000Y-98769995D03*
X68600000Y-100050000D03*
X118175000Y-88790000D03*
X73550000Y-92475000D03*
X70000000Y-109100000D03*
X65550000Y-117700000D03*
X98175000Y-71170000D03*
X107140000Y-84570000D03*
X69300000Y-102675000D03*
X63775000Y-97690996D03*
X81625000Y-71170000D03*
X118295000Y-84570000D03*
X110428570Y-113750000D03*
X83860000Y-119230000D03*
X76525000Y-75405000D03*
X77425000Y-82350000D03*
X72550000Y-119200000D03*
X79625000Y-71170000D03*
X63775000Y-95532998D03*
X79325000Y-111100000D03*
X88030000Y-124750000D03*
X75000000Y-119910000D03*
X72550000Y-121783332D03*
X116540000Y-88790000D03*
X76350000Y-85020000D03*
X86675000Y-71170000D03*
X102200000Y-71170000D03*
X73000000Y-109475000D03*
X63775000Y-100927993D03*
X71525000Y-92475000D03*
X71350000Y-96975000D03*
X80725000Y-97240000D03*
X81315000Y-121960000D03*
D24*
X84420000Y-73710000D03*
X74430000Y-76510000D03*
X93460000Y-102700000D03*
X113625000Y-94630000D03*
X114275000Y-95240000D03*
X96860000Y-102710000D03*
X82590000Y-121960000D03*
X88240000Y-120985000D03*
X74580000Y-96490000D03*
X99380000Y-82600000D03*
X77590000Y-87800000D03*
X84399999Y-87684241D03*
X77590000Y-86300000D03*
X84399999Y-86410000D03*
X100220000Y-102710000D03*
X114925000Y-94630000D03*
X103620000Y-102700000D03*
X115575000Y-95240000D03*
X116225000Y-94630000D03*
X107010000Y-102700000D03*
X116875000Y-95240000D03*
X110400000Y-102690000D03*
X117525000Y-94630000D03*
X113800000Y-102690000D03*
X68530000Y-86640000D03*
X71945425Y-88852726D03*
X68159947Y-85930730D03*
X71890000Y-85470000D03*
X118175000Y-95240000D03*
X117170000Y-102710000D03*
X91265000Y-90180000D03*
X104140000Y-92720000D03*
X114925000Y-89470000D03*
X92535000Y-90180000D03*
X107025000Y-89470000D03*
X102390000Y-91320000D03*
X83525000Y-103500000D03*
X65685000Y-121520000D03*
X82870000Y-104150000D03*
X79500000Y-108350000D03*
D25*
X116000000Y-74575000D03*
X108150000Y-142670000D03*
X75650000Y-142670000D03*
X100900000Y-136170000D03*
X97900000Y-136170000D03*
X94900000Y-136170000D03*
X91900000Y-136170000D03*
X88900000Y-136170000D03*
X85900000Y-136170000D03*
X82900000Y-136170000D03*
X99400000Y-133670000D03*
X96400000Y-133670000D03*
X93400000Y-133670000D03*
X90400000Y-133670000D03*
X87400000Y-133670000D03*
X84400000Y-133670000D03*
X99400000Y-130670000D03*
X96400000Y-130670000D03*
X93400000Y-130670000D03*
X90400000Y-130670000D03*
X87400000Y-130670000D03*
X84400000Y-130670000D03*
X100900000Y-128170000D03*
X97900000Y-128170000D03*
X94900000Y-128170000D03*
X91900000Y-128170000D03*
X88900000Y-128170000D03*
X85900000Y-128170000D03*
X82900000Y-128170000D03*
D26*
X69100000Y-91375000D03*
X69100000Y-82735000D03*
D27*
X64950000Y-91375000D03*
X64950000Y-82735000D03*
D25*
X68600000Y-89945000D03*
X68600000Y-84165000D03*
D28*
X89000000Y-78190000D03*
X89000000Y-79590000D03*
X89700000Y-77490000D03*
X89700000Y-78890000D03*
X89700000Y-80290000D03*
X90400000Y-78190000D03*
X90400000Y-79590000D03*
X91100000Y-77490000D03*
X91100000Y-78890000D03*
X91100000Y-80290000D03*
X91800000Y-78190000D03*
X91800000Y-79590000D03*
D25*
X67350000Y-74575000D03*
X117200000Y-111475000D03*
X117200000Y-121635000D03*
X96885714Y-108525000D03*
X96885714Y-98365000D03*
X103641000Y-108525000D03*
X103641000Y-98365000D03*
X110428570Y-108525000D03*
X110428570Y-98365000D03*
X93500000Y-108525000D03*
X93500000Y-98365000D03*
X113814284Y-98365000D03*
X113814284Y-108525000D03*
X107042856Y-111475000D03*
X107042856Y-121635000D03*
X103657142Y-111475000D03*
X103657142Y-121635000D03*
X100271428Y-108525000D03*
X100271428Y-98365000D03*
X113814284Y-111475000D03*
X113814284Y-121635000D03*
X96885714Y-111475000D03*
X96885714Y-121635000D03*
X107042856Y-108525000D03*
X107042856Y-98365000D03*
X117200000Y-98365000D03*
X117200000Y-108525000D03*
X100271428Y-111475000D03*
X100271428Y-121635000D03*
X93500000Y-111475000D03*
X93500000Y-121635000D03*
X110428570Y-111475000D03*
X110428570Y-121635000D03*
M02*
