%TF.GenerationSoftware,KiCad,Pcbnew,8.0.8*%
%TF.CreationDate,2026-03-18T22:42:44+00:00*%
%TF.ProjectId,esp32-canboard,65737033-322d-4636-916e-626f6172642e,rev?*%
%TF.SameCoordinates,Original*%
%TF.FileFunction,Copper,L2,Inr*%
%TF.FilePolarity,Positive*%
%FSLAX46Y46*%
G04 Gerber Fmt 4.6, Leading zero omitted, Abs format (unit mm)*
G04 Created by KiCad (PCBNEW 8.0.8) date 2026-03-18 22:42:44*
%MOMM*%
%LPD*%
G01*
G04 APERTURE LIST*
%TA.AperFunction,ComponentPad*%
%ADD10C,5.600000*%
%TD*%
%TA.AperFunction,ComponentPad*%
%ADD11C,5.100000*%
%TD*%
%TA.AperFunction,ComponentPad*%
%ADD12C,2.250000*%
%TD*%
%TA.AperFunction,ComponentPad*%
%ADD13O,2.150000X1.050000*%
%TD*%
%TA.AperFunction,ComponentPad*%
%ADD14O,1.850000X1.050000*%
%TD*%
%TA.AperFunction,HeatsinkPad*%
%ADD15C,0.600000*%
%TD*%
%TA.AperFunction,ComponentPad*%
%ADD16C,1.600000*%
%TD*%
%TA.AperFunction,ComponentPad*%
%ADD17O,1.600000X1.600000*%
%TD*%
%TA.AperFunction,ViaPad*%
%ADD18C,0.600000*%
%TD*%
%TA.AperFunction,ViaPad*%
%ADD19C,0.800000*%
%TD*%
%ADD20C,0.300000*%
%ADD21C,0.350000*%
%ADD22O,1.750000X0.650000*%
%ADD23O,1.450000X0.650000*%
%ADD24C,0.200000*%
G04 APERTURE END LIST*
D10*
%TO.N,GND*%
%TO.C,MH2*%
X116000000Y-74575000D03*
%TD*%
D11*
%TO.N,GND*%
%TO.C,CONN1*%
X108150000Y-142670000D03*
X75650000Y-142670000D03*
D12*
X100900000Y-136170000D03*
%TO.N,INPUT16*%
X97900000Y-136170000D03*
%TO.N,INPUT15*%
X94900000Y-136170000D03*
%TO.N,INPUT14*%
X91900000Y-136170000D03*
%TO.N,INPUT13*%
X88900000Y-136170000D03*
%TO.N,INPUT12*%
X85900000Y-136170000D03*
%TO.N,INPUT11*%
X82900000Y-136170000D03*
%TO.N,INPUT10*%
X99400000Y-133670000D03*
%TO.N,INPUT9*%
X96400000Y-133670000D03*
%TO.N,INPUT8*%
X93400000Y-133670000D03*
%TO.N,INPUT7*%
X90400000Y-133670000D03*
%TO.N,INPUT6*%
X87400000Y-133670000D03*
%TO.N,INPUT5*%
X84400000Y-133670000D03*
%TO.N,INPUT4*%
X99400000Y-130670000D03*
%TO.N,INPUT3*%
X96400000Y-130670000D03*
%TO.N,INPUT2*%
X93400000Y-130670000D03*
%TO.N,INPUT1*%
X90400000Y-130670000D03*
%TO.N,+5VF*%
X87400000Y-130670000D03*
%TO.N,GND*%
X84400000Y-130670000D03*
%TO.N,CAN1_L*%
X100900000Y-128170000D03*
%TO.N,CAN1_H*%
X97900000Y-128170000D03*
%TO.N,GND*%
X94900000Y-128170000D03*
%TO.N,+5VF*%
X91900000Y-128170000D03*
X88900000Y-128170000D03*
%TO.N,GND*%
X85900000Y-128170000D03*
%TO.N,+12V*%
X82900000Y-128170000D03*
%TD*%
D13*
%TO.N,GND*%
%TO.C,CONN2*%
X69100000Y-91375000D03*
X69100000Y-82735000D03*
D14*
X64950000Y-91375000D03*
X64950000Y-82735000D03*
%TD*%
D15*
%TO.N,GND*%
%TO.C,U3*%
X89000000Y-78190000D03*
X89000000Y-79590000D03*
X89700000Y-77490000D03*
X89700000Y-78890000D03*
X89700000Y-80290000D03*
X90400000Y-78190000D03*
X90400000Y-79590000D03*
X91100000Y-77490000D03*
X91100000Y-78890000D03*
X91100000Y-80290000D03*
X91800000Y-78190000D03*
X91800000Y-79590000D03*
%TD*%
D10*
%TO.N,GND*%
%TO.C,MH1*%
X67350000Y-74575000D03*
%TD*%
D16*
%TO.N,+5VF*%
%TO.C,R33*%
X117200000Y-111475000D03*
D17*
%TO.N,INPUT8*%
X117200000Y-121635000D03*
%TD*%
D16*
%TO.N,+5VF*%
%TO.C,R34*%
X96885714Y-108525000D03*
D17*
%TO.N,INPUT10*%
X96885714Y-98365000D03*
%TD*%
D16*
%TO.N,+5VF*%
%TO.C,R50*%
X103641000Y-108525000D03*
D17*
%TO.N,INPUT12*%
X103641000Y-98365000D03*
%TD*%
D16*
%TO.N,+5VF*%
%TO.C,R56*%
X110428570Y-108525000D03*
D17*
%TO.N,INPUT14*%
X110428570Y-98365000D03*
%TD*%
D16*
%TO.N,+5VF*%
%TO.C,R27*%
X93500000Y-108525000D03*
D17*
%TO.N,INPUT9*%
X93500000Y-98365000D03*
%TD*%
%TO.N,INPUT15*%
%TO.C,R59*%
X113814284Y-98365000D03*
D16*
%TO.N,+5VF*%
X113814284Y-108525000D03*
%TD*%
%TO.N,+5VF*%
%TO.C,R21*%
X107042856Y-111475000D03*
D17*
%TO.N,INPUT5*%
X107042856Y-121635000D03*
%TD*%
D16*
%TO.N,+5VF*%
%TO.C,R31*%
X103657142Y-111475000D03*
D17*
%TO.N,INPUT4*%
X103657142Y-121635000D03*
%TD*%
D16*
%TO.N,+5VF*%
%TO.C,R47*%
X100271428Y-108525000D03*
D17*
%TO.N,INPUT11*%
X100271428Y-98365000D03*
%TD*%
D16*
%TO.N,+5VF*%
%TO.C,R24*%
X113814284Y-111475000D03*
D17*
%TO.N,INPUT7*%
X113814284Y-121635000D03*
%TD*%
D16*
%TO.N,+5VF*%
%TO.C,R30*%
X96885714Y-111475000D03*
D17*
%TO.N,INPUT2*%
X96885714Y-121635000D03*
%TD*%
D16*
%TO.N,+5VF*%
%TO.C,R53*%
X107042856Y-108525000D03*
D17*
%TO.N,INPUT13*%
X107042856Y-98365000D03*
%TD*%
%TO.N,INPUT16*%
%TO.C,R62*%
X117200000Y-98365000D03*
D16*
%TO.N,+5VF*%
X117200000Y-108525000D03*
%TD*%
%TO.N,+5VF*%
%TO.C,R18*%
X100271428Y-111475000D03*
D17*
%TO.N,INPUT3*%
X100271428Y-121635000D03*
%TD*%
D16*
%TO.N,+5VF*%
%TO.C,R17*%
X93500000Y-111475000D03*
D17*
%TO.N,INPUT1*%
X93500000Y-121635000D03*
%TD*%
D16*
%TO.N,+5VF*%
%TO.C,R32*%
X110428570Y-111475000D03*
D17*
%TO.N,INPUT6*%
X110428570Y-121635000D03*
%TD*%
D18*
%TO.N,INPUT8*%
X93400000Y-141145000D03*
%TO.N,INPUT7*%
X90400000Y-140520000D03*
%TO.N,INPUT6*%
X87400000Y-139895000D03*
%TO.N,INPUT5*%
X84400000Y-139275000D03*
%TO.N,INPUT9*%
X96400000Y-138025000D03*
%TO.N,INPUT10*%
X109105000Y-133041652D03*
%TO.N,INPUT11*%
X82900000Y-138650000D03*
%TO.N,INPUT12*%
X85900000Y-139275000D03*
%TO.N,INPUT13*%
X88900000Y-139895000D03*
%TO.N,INPUT14*%
X91900000Y-140520000D03*
%TO.N,INPUT15*%
X94900000Y-141145000D03*
%TO.N,INPUT16*%
X97900000Y-141770000D03*
D19*
%TO.N,+3V3*%
X103260000Y-93658000D03*
X112650000Y-85470000D03*
X104760000Y-85470000D03*
%TO.N,GND*%
X72000000Y-109100000D03*
X76525000Y-73175000D03*
X72537500Y-92475000D03*
X84650000Y-71170000D03*
X63775000Y-102006992D03*
X79330000Y-116660000D03*
X63775000Y-93375000D03*
X99125000Y-71170000D03*
X78750000Y-104250000D03*
X85662500Y-71170000D03*
X86180000Y-123200000D03*
X81825000Y-96125000D03*
X104075000Y-71170000D03*
X76980000Y-98310000D03*
X68150000Y-107075000D03*
X71525000Y-81900000D03*
X75275000Y-103425000D03*
X93500000Y-113750000D03*
X97225000Y-71170000D03*
X108325000Y-88790000D03*
X110428570Y-106260000D03*
X63775000Y-105243989D03*
X63775000Y-108480986D03*
X67335000Y-123400000D03*
X93500000Y-106260000D03*
X63775000Y-104164990D03*
X63775000Y-96611997D03*
X113814284Y-106260000D03*
X117200000Y-113750000D03*
X96885714Y-106260000D03*
X72550000Y-120491666D03*
X63775000Y-94453999D03*
X107042856Y-113750000D03*
X107042856Y-106260000D03*
X63825000Y-114550000D03*
X63775000Y-109559999D03*
X72550000Y-123075000D03*
X96885714Y-113750000D03*
X117200000Y-106260000D03*
X73102500Y-99627500D03*
X103137500Y-71170000D03*
X71725000Y-105350000D03*
X71000000Y-109100000D03*
X74000000Y-119910000D03*
X103657142Y-106260000D03*
X68150000Y-106075000D03*
X110275000Y-88790000D03*
X103650000Y-113750000D03*
X76000000Y-119910000D03*
X115050000Y-84570000D03*
X69700000Y-96975000D03*
X63775000Y-106322988D03*
X63775000Y-107401987D03*
X63775000Y-103085991D03*
X113814284Y-113750000D03*
X110375000Y-84570000D03*
X80625000Y-71170000D03*
X77425000Y-78550000D03*
X63775000Y-99848994D03*
X100271428Y-106260000D03*
X80130000Y-124350000D03*
X100271428Y-113750000D03*
X74475000Y-103425000D03*
X69300000Y-101875000D03*
X76350000Y-89110000D03*
X63775000Y-98769995D03*
X68600000Y-100050000D03*
X118175000Y-88790000D03*
X73550000Y-92475000D03*
X70000000Y-109100000D03*
X65550000Y-117700000D03*
X98175000Y-71170000D03*
X107140000Y-84570000D03*
X69300000Y-102675000D03*
X63775000Y-97690996D03*
X81625000Y-71170000D03*
X118295000Y-84570000D03*
X110428570Y-113750000D03*
X83860000Y-119230000D03*
X76525000Y-75405000D03*
X77425000Y-82350000D03*
X72550000Y-119200000D03*
X79625000Y-71170000D03*
X63775000Y-95532998D03*
X79325000Y-111100000D03*
X88030000Y-124750000D03*
X75000000Y-119910000D03*
X72550000Y-121783332D03*
X116540000Y-88790000D03*
X76350000Y-85020000D03*
X86675000Y-71170000D03*
X102200000Y-71170000D03*
X73000000Y-109475000D03*
X63775000Y-100927993D03*
X71525000Y-92475000D03*
X71350000Y-96975000D03*
%TO.N,+3V3*%
X80725000Y-97240000D03*
X81315000Y-121960000D03*
D18*
%TO.N,Net-(U3-EN)*%
X84420000Y-73710000D03*
X74430000Y-76510000D03*
%TO.N,AIN9*%
X93460000Y-102700000D03*
X113625000Y-94630000D03*
%TO.N,AIN10*%
X114275000Y-95240000D03*
X96860000Y-102710000D03*
%TO.N,CAN1_L*%
X82590000Y-121960000D03*
X88240000Y-120985000D03*
%TO.N,Net-(U3-IO38)*%
X74580000Y-96490000D03*
X99380000Y-82600000D03*
%TO.N,Net-(U3-USB_D+)*%
X77590000Y-87800000D03*
X84399999Y-87684241D03*
%TO.N,Net-(U3-USB_D-)*%
X77590000Y-86300000D03*
X84399999Y-86410000D03*
%TO.N,AIN11*%
X100220000Y-102710000D03*
X114925000Y-94630000D03*
%TO.N,AIN12*%
X103620000Y-102700000D03*
X115575000Y-95240000D03*
%TO.N,AIN13*%
X116225000Y-94630000D03*
X107010000Y-102700000D03*
%TO.N,AIN14*%
X116875000Y-95240000D03*
X110400000Y-102690000D03*
%TO.N,AIN15*%
X117525000Y-94630000D03*
X113800000Y-102690000D03*
%TO.N,Net-(CONN2-D+-PadA6)*%
X68530000Y-86640000D03*
X71945425Y-88852726D03*
%TO.N,Net-(CONN2-D--PadA7)*%
X68159947Y-85930730D03*
X71890000Y-85470000D03*
%TO.N,AIN16*%
X118175000Y-95240000D03*
X117170000Y-102710000D03*
%TO.N,SDA*%
X91265000Y-90180000D03*
X104140000Y-92720000D03*
%TO.N,SCL*%
X114925000Y-89470000D03*
X92535000Y-90180000D03*
X107025000Y-89470000D03*
X102390000Y-91320000D03*
%TO.N,VMON*%
X83525000Y-103500000D03*
X65685000Y-121520000D03*
%TO.N,Net-(U3-IO3)*%
X82870000Y-104150000D03*
X79500000Y-108350000D03*
%TD*%
%TA.AperFunction,Conductor*%
%TO.N,GND*%
G36*
X117103032Y-70095649D02*
G01*
X117164007Y-70098644D01*
X117446735Y-70112534D01*
X117458837Y-70113726D01*
X117796212Y-70163770D01*
X117808122Y-70166139D01*
X118138991Y-70249018D01*
X118150604Y-70252541D01*
X118414957Y-70347128D01*
X118471728Y-70367442D01*
X118482969Y-70372098D01*
X118701500Y-70475454D01*
X118791294Y-70517923D01*
X118802011Y-70523651D01*
X119094545Y-70698990D01*
X119104663Y-70705750D01*
X119378610Y-70908923D01*
X119388016Y-70916643D01*
X119640725Y-71145685D01*
X119649314Y-71154274D01*
X119841837Y-71366690D01*
X119878356Y-71406983D01*
X119886076Y-71416389D01*
X120089249Y-71690336D01*
X120096009Y-71700454D01*
X120224991Y-71915647D01*
X120271341Y-71992976D01*
X120277078Y-72003709D01*
X120422901Y-72312030D01*
X120427557Y-72323271D01*
X120542453Y-72644379D01*
X120545985Y-72656021D01*
X120587753Y-72822770D01*
X120628857Y-72986864D01*
X120631231Y-72998800D01*
X120681272Y-73336158D01*
X120682465Y-73348267D01*
X120699351Y-73691967D01*
X120699500Y-73698052D01*
X120699500Y-144471947D01*
X120699351Y-144478032D01*
X120682465Y-144821732D01*
X120681272Y-144833841D01*
X120631231Y-145171199D01*
X120628857Y-145183135D01*
X120545986Y-145513975D01*
X120542453Y-145525620D01*
X120427557Y-145846728D01*
X120422901Y-145857969D01*
X120277078Y-146166290D01*
X120271341Y-146177023D01*
X120096009Y-146469545D01*
X120089249Y-146479663D01*
X119886076Y-146753610D01*
X119878356Y-146763016D01*
X119649322Y-147015717D01*
X119640717Y-147024322D01*
X119388016Y-147253356D01*
X119378610Y-147261076D01*
X119104663Y-147464249D01*
X119094545Y-147471009D01*
X118802023Y-147646341D01*
X118791290Y-147652078D01*
X118482969Y-147797901D01*
X118471728Y-147802557D01*
X118150620Y-147917453D01*
X118138975Y-147920986D01*
X117808135Y-148003857D01*
X117796199Y-148006231D01*
X117458841Y-148056272D01*
X117446732Y-148057465D01*
X117103033Y-148074351D01*
X117096948Y-148074500D01*
X66403052Y-148074500D01*
X66396967Y-148074351D01*
X66053267Y-148057465D01*
X66041158Y-148056272D01*
X65703800Y-148006231D01*
X65691864Y-148003857D01*
X65361024Y-147920986D01*
X65349379Y-147917453D01*
X65028271Y-147802557D01*
X65017030Y-147797901D01*
X64708709Y-147652078D01*
X64697981Y-147646343D01*
X64405454Y-147471009D01*
X64395336Y-147464249D01*
X64121389Y-147261076D01*
X64111983Y-147253356D01*
X64071690Y-147216837D01*
X63859274Y-147024314D01*
X63850685Y-147015725D01*
X63621643Y-146763016D01*
X63613923Y-146753610D01*
X63410750Y-146479663D01*
X63403990Y-146469545D01*
X63228651Y-146177011D01*
X63222921Y-146166290D01*
X63077098Y-145857969D01*
X63072442Y-145846728D01*
X63021944Y-145705598D01*
X62957541Y-145525604D01*
X62954018Y-145513991D01*
X62871139Y-145183122D01*
X62868770Y-145171212D01*
X62818726Y-144833837D01*
X62817534Y-144821731D01*
X62800649Y-144478031D01*
X62800500Y-144471947D01*
X62800500Y-142670000D01*
X72595194Y-142670000D01*
X72614401Y-143012025D01*
X72614403Y-143012037D01*
X72671783Y-143349754D01*
X72671785Y-143349762D01*
X72766619Y-143678935D01*
X72897711Y-143995424D01*
X72897713Y-143995428D01*
X73063424Y-144295259D01*
X73063427Y-144295264D01*
X73261653Y-144574635D01*
X73261658Y-144574643D01*
X73323075Y-144643369D01*
X73323076Y-144643370D01*
X74284041Y-143682404D01*
X74369130Y-143793293D01*
X74526707Y-143950870D01*
X74637594Y-144035957D01*
X73676629Y-144996923D01*
X73745356Y-145058341D01*
X73745364Y-145058346D01*
X74024735Y-145256572D01*
X74024740Y-145256575D01*
X74324571Y-145422286D01*
X74324575Y-145422288D01*
X74641064Y-145553380D01*
X74970237Y-145648214D01*
X74970245Y-145648216D01*
X75307962Y-145705596D01*
X75307974Y-145705598D01*
X75650000Y-145724805D01*
X75992025Y-145705598D01*
X75992037Y-145705596D01*
X76329754Y-145648216D01*
X76329762Y-145648214D01*
X76658935Y-145553380D01*
X76975424Y-145422288D01*
X76975428Y-145422286D01*
X77275255Y-145256577D01*
X77554640Y-145058342D01*
X77623369Y-144996922D01*
X76662404Y-144035957D01*
X76773293Y-143950870D01*
X76930870Y-143793293D01*
X77015957Y-143682404D01*
X77976922Y-144643369D01*
X78038342Y-144574640D01*
X78236577Y-144295255D01*
X78402286Y-143995428D01*
X78402288Y-143995424D01*
X78533380Y-143678935D01*
X78628214Y-143349762D01*
X78628216Y-143349754D01*
X78685596Y-143012037D01*
X78685598Y-143012025D01*
X78704805Y-142670000D01*
X105095194Y-142670000D01*
X105114401Y-143012025D01*
X105114403Y-143012037D01*
X105171783Y-143349754D01*
X105171785Y-143349762D01*
X105266619Y-143678935D01*
X105397711Y-143995424D01*
X105397713Y-143995428D01*
X105563424Y-144295259D01*
X105563427Y-144295264D01*
X105761653Y-144574635D01*
X105761658Y-144574643D01*
X105823075Y-144643369D01*
X105823076Y-144643370D01*
X106784041Y-143682404D01*
X106869130Y-143793293D01*
X107026707Y-143950870D01*
X107137594Y-144035957D01*
X106176629Y-144996923D01*
X106245356Y-145058341D01*
X106245364Y-145058346D01*
X106524735Y-145256572D01*
X106524740Y-145256575D01*
X106824571Y-145422286D01*
X106824575Y-145422288D01*
X107141064Y-145553380D01*
X107470237Y-145648214D01*
X107470245Y-145648216D01*
X107807962Y-145705596D01*
X107807974Y-145705598D01*
X108150000Y-145724805D01*
X108492025Y-145705598D01*
X108492037Y-145705596D01*
X108829754Y-145648216D01*
X108829762Y-145648214D01*
X109158935Y-145553380D01*
X109475424Y-145422288D01*
X109475428Y-145422286D01*
X109775255Y-145256577D01*
X110054640Y-145058342D01*
X110123369Y-144996922D01*
X109162404Y-144035957D01*
X109273293Y-143950870D01*
X109430870Y-143793293D01*
X109515957Y-143682404D01*
X110476922Y-144643369D01*
X110538342Y-144574640D01*
X110736577Y-144295255D01*
X110902286Y-143995428D01*
X110902288Y-143995424D01*
X111033380Y-143678935D01*
X111128214Y-143349762D01*
X111128216Y-143349754D01*
X111185596Y-143012037D01*
X111185598Y-143012025D01*
X111204805Y-142670000D01*
X111185598Y-142327974D01*
X111185596Y-142327962D01*
X111128216Y-141990245D01*
X111128214Y-141990237D01*
X111033380Y-141661064D01*
X110902288Y-141344575D01*
X110902286Y-141344571D01*
X110736575Y-141044740D01*
X110736572Y-141044735D01*
X110538346Y-140765364D01*
X110538341Y-140765356D01*
X110476923Y-140696629D01*
X109515957Y-141657594D01*
X109430870Y-141546707D01*
X109273293Y-141389130D01*
X109162404Y-141304041D01*
X110123370Y-140343076D01*
X110123369Y-140343075D01*
X110054643Y-140281658D01*
X110054635Y-140281653D01*
X109775264Y-140083427D01*
X109775259Y-140083424D01*
X109475428Y-139917713D01*
X109475424Y-139917711D01*
X109158935Y-139786619D01*
X108829762Y-139691785D01*
X108829754Y-139691783D01*
X108492037Y-139634403D01*
X108492025Y-139634401D01*
X108150000Y-139615194D01*
X107807974Y-139634401D01*
X107807962Y-139634403D01*
X107470245Y-139691783D01*
X107470237Y-139691785D01*
X107141064Y-139786619D01*
X106824575Y-139917711D01*
X106824571Y-139917713D01*
X106524744Y-140083422D01*
X106245360Y-140281655D01*
X106176628Y-140343076D01*
X107137594Y-141304042D01*
X107026707Y-141389130D01*
X106869130Y-141546707D01*
X106784042Y-141657594D01*
X105823076Y-140696628D01*
X105761655Y-140765360D01*
X105563422Y-141044744D01*
X105397713Y-141344571D01*
X105397711Y-141344575D01*
X105266619Y-141661064D01*
X105171785Y-141990237D01*
X105171783Y-141990245D01*
X105114403Y-142327962D01*
X105114401Y-142327974D01*
X105095194Y-142670000D01*
X78704805Y-142670000D01*
X78685598Y-142327974D01*
X78685596Y-142327962D01*
X78628216Y-141990245D01*
X78628214Y-141990237D01*
X78564764Y-141770000D01*
X97394353Y-141770000D01*
X97414834Y-141912456D01*
X97450356Y-141990237D01*
X97474623Y-142043373D01*
X97568872Y-142152143D01*
X97689947Y-142229953D01*
X97689950Y-142229954D01*
X97689949Y-142229954D01*
X97828036Y-142270499D01*
X97828038Y-142270500D01*
X97828039Y-142270500D01*
X97971962Y-142270500D01*
X97971962Y-142270499D01*
X98110053Y-142229953D01*
X98231128Y-142152143D01*
X98325377Y-142043373D01*
X98385165Y-141912457D01*
X98405647Y-141770000D01*
X98385165Y-141627543D01*
X98325377Y-141496627D01*
X98231128Y-141387857D01*
X98110053Y-141310047D01*
X98110051Y-141310046D01*
X98110049Y-141310045D01*
X98110050Y-141310045D01*
X97971963Y-141269500D01*
X97971961Y-141269500D01*
X97828039Y-141269500D01*
X97828036Y-141269500D01*
X97689949Y-141310045D01*
X97568873Y-141387856D01*
X97474623Y-141496626D01*
X97474622Y-141496628D01*
X97414834Y-141627543D01*
X97394353Y-141770000D01*
X78564764Y-141770000D01*
X78533380Y-141661064D01*
X78402288Y-141344575D01*
X78402286Y-141344571D01*
X78291987Y-141145000D01*
X92894353Y-141145000D01*
X92914834Y-141287456D01*
X92961268Y-141389130D01*
X92974623Y-141418373D01*
X93068872Y-141527143D01*
X93189947Y-141604953D01*
X93189950Y-141604954D01*
X93189949Y-141604954D01*
X93328036Y-141645499D01*
X93328038Y-141645500D01*
X93328039Y-141645500D01*
X93471962Y-141645500D01*
X93471962Y-141645499D01*
X93610053Y-141604953D01*
X93731128Y-141527143D01*
X93825377Y-141418373D01*
X93885165Y-141287457D01*
X93905647Y-141145000D01*
X94394353Y-141145000D01*
X94414834Y-141287456D01*
X94461268Y-141389130D01*
X94474623Y-141418373D01*
X94568872Y-141527143D01*
X94689947Y-141604953D01*
X94689950Y-141604954D01*
X94689949Y-141604954D01*
X94828036Y-141645499D01*
X94828038Y-141645500D01*
X94828039Y-141645500D01*
X94971962Y-141645500D01*
X94971962Y-141645499D01*
X95110053Y-141604953D01*
X95231128Y-141527143D01*
X95325377Y-141418373D01*
X95385165Y-141287457D01*
X95405647Y-141145000D01*
X95385165Y-141002543D01*
X95325377Y-140871627D01*
X95231128Y-140762857D01*
X95110053Y-140685047D01*
X95110051Y-140685046D01*
X95110049Y-140685045D01*
X95110050Y-140685045D01*
X94971963Y-140644500D01*
X94971961Y-140644500D01*
X94828039Y-140644500D01*
X94828036Y-140644500D01*
X94689949Y-140685045D01*
X94568873Y-140762856D01*
X94474623Y-140871626D01*
X94474622Y-140871628D01*
X94414834Y-141002543D01*
X94394353Y-141145000D01*
X93905647Y-141145000D01*
X93885165Y-141002543D01*
X93825377Y-140871627D01*
X93731128Y-140762857D01*
X93610053Y-140685047D01*
X93610051Y-140685046D01*
X93610049Y-140685045D01*
X93610050Y-140685045D01*
X93471963Y-140644500D01*
X93471961Y-140644500D01*
X93328039Y-140644500D01*
X93328036Y-140644500D01*
X93189949Y-140685045D01*
X93068873Y-140762856D01*
X92974623Y-140871626D01*
X92974622Y-140871628D01*
X92914834Y-141002543D01*
X92894353Y-141145000D01*
X78291987Y-141145000D01*
X78236575Y-141044740D01*
X78236572Y-141044735D01*
X78038346Y-140765364D01*
X78038341Y-140765356D01*
X77976923Y-140696629D01*
X77015957Y-141657594D01*
X76930870Y-141546707D01*
X76773293Y-141389130D01*
X76662404Y-141304041D01*
X77446446Y-140520000D01*
X89894353Y-140520000D01*
X89914834Y-140662456D01*
X89974622Y-140793371D01*
X89974623Y-140793373D01*
X90068872Y-140902143D01*
X90189947Y-140979953D01*
X90189950Y-140979954D01*
X90189949Y-140979954D01*
X90328036Y-141020499D01*
X90328038Y-141020500D01*
X90328039Y-141020500D01*
X90471962Y-141020500D01*
X90471962Y-141020499D01*
X90610053Y-140979953D01*
X90731128Y-140902143D01*
X90825377Y-140793373D01*
X90885165Y-140662457D01*
X90905647Y-140520000D01*
X91394353Y-140520000D01*
X91414834Y-140662456D01*
X91474622Y-140793371D01*
X91474623Y-140793373D01*
X91568872Y-140902143D01*
X91689947Y-140979953D01*
X91689950Y-140979954D01*
X91689949Y-140979954D01*
X91828036Y-141020499D01*
X91828038Y-141020500D01*
X91828039Y-141020500D01*
X91971962Y-141020500D01*
X91971962Y-141020499D01*
X92110053Y-140979953D01*
X92231128Y-140902143D01*
X92325377Y-140793373D01*
X92385165Y-140662457D01*
X92405647Y-140520000D01*
X92385165Y-140377543D01*
X92325377Y-140246627D01*
X92231128Y-140137857D01*
X92110053Y-140060047D01*
X92110051Y-140060046D01*
X92110049Y-140060045D01*
X92110050Y-140060045D01*
X91971963Y-140019500D01*
X91971961Y-140019500D01*
X91828039Y-140019500D01*
X91828036Y-140019500D01*
X91689949Y-140060045D01*
X91568873Y-140137856D01*
X91474623Y-140246626D01*
X91474622Y-140246628D01*
X91414834Y-140377543D01*
X91394353Y-140520000D01*
X90905647Y-140520000D01*
X90885165Y-140377543D01*
X90825377Y-140246627D01*
X90731128Y-140137857D01*
X90610053Y-140060047D01*
X90610051Y-140060046D01*
X90610049Y-140060045D01*
X90610050Y-140060045D01*
X90471963Y-140019500D01*
X90471961Y-140019500D01*
X90328039Y-140019500D01*
X90328036Y-140019500D01*
X90189949Y-140060045D01*
X90068873Y-140137856D01*
X89974623Y-140246626D01*
X89974622Y-140246628D01*
X89914834Y-140377543D01*
X89894353Y-140520000D01*
X77446446Y-140520000D01*
X77623370Y-140343076D01*
X77623369Y-140343075D01*
X77554643Y-140281658D01*
X77554635Y-140281653D01*
X77275264Y-140083427D01*
X77275259Y-140083424D01*
X76975428Y-139917713D01*
X76975424Y-139917711D01*
X76920594Y-139895000D01*
X86894353Y-139895000D01*
X86914834Y-140037456D01*
X86974622Y-140168371D01*
X86974623Y-140168373D01*
X87068872Y-140277143D01*
X87189947Y-140354953D01*
X87189950Y-140354954D01*
X87189949Y-140354954D01*
X87328036Y-140395499D01*
X87328038Y-140395500D01*
X87328039Y-140395500D01*
X87471962Y-140395500D01*
X87471962Y-140395499D01*
X87610053Y-140354953D01*
X87731128Y-140277143D01*
X87825377Y-140168373D01*
X87885165Y-140037457D01*
X87905647Y-139895000D01*
X88394353Y-139895000D01*
X88414834Y-140037456D01*
X88474622Y-140168371D01*
X88474623Y-140168373D01*
X88568872Y-140277143D01*
X88689947Y-140354953D01*
X88689950Y-140354954D01*
X88689949Y-140354954D01*
X88828036Y-140395499D01*
X88828038Y-140395500D01*
X88828039Y-140395500D01*
X88971962Y-140395500D01*
X88971962Y-140395499D01*
X89110053Y-140354953D01*
X89231128Y-140277143D01*
X89325377Y-140168373D01*
X89385165Y-140037457D01*
X89405647Y-139895000D01*
X89385165Y-139752543D01*
X89325377Y-139621627D01*
X89231128Y-139512857D01*
X89110053Y-139435047D01*
X89110051Y-139435046D01*
X89110049Y-139435045D01*
X89110050Y-139435045D01*
X88971963Y-139394500D01*
X88971961Y-139394500D01*
X88828039Y-139394500D01*
X88828036Y-139394500D01*
X88689949Y-139435045D01*
X88568873Y-139512856D01*
X88474623Y-139621626D01*
X88474622Y-139621628D01*
X88414834Y-139752543D01*
X88394353Y-139895000D01*
X87905647Y-139895000D01*
X87885165Y-139752543D01*
X87825377Y-139621627D01*
X87731128Y-139512857D01*
X87610053Y-139435047D01*
X87610051Y-139435046D01*
X87610049Y-139435045D01*
X87610050Y-139435045D01*
X87471963Y-139394500D01*
X87471961Y-139394500D01*
X87328039Y-139394500D01*
X87328036Y-139394500D01*
X87189949Y-139435045D01*
X87068873Y-139512856D01*
X86974623Y-139621626D01*
X86974622Y-139621628D01*
X86914834Y-139752543D01*
X86894353Y-139895000D01*
X76920594Y-139895000D01*
X76658935Y-139786619D01*
X76329762Y-139691785D01*
X76329754Y-139691783D01*
X75992037Y-139634403D01*
X75992025Y-139634401D01*
X75650000Y-139615194D01*
X75307974Y-139634401D01*
X75307962Y-139634403D01*
X74970245Y-139691783D01*
X74970237Y-139691785D01*
X74641064Y-139786619D01*
X74324575Y-139917711D01*
X74324571Y-139917713D01*
X74024744Y-140083422D01*
X73745360Y-140281655D01*
X73676628Y-140343076D01*
X74637594Y-141304042D01*
X74526707Y-141389130D01*
X74369130Y-141546707D01*
X74284042Y-141657594D01*
X73323076Y-140696628D01*
X73261655Y-140765360D01*
X73063422Y-141044744D01*
X72897713Y-141344571D01*
X72897711Y-141344575D01*
X72766619Y-141661064D01*
X72671785Y-141990237D01*
X72671783Y-141990245D01*
X72614403Y-142327962D01*
X72614401Y-142327974D01*
X72595194Y-142670000D01*
X62800500Y-142670000D01*
X62800500Y-139275000D01*
X83894353Y-139275000D01*
X83914834Y-139417456D01*
X83922867Y-139435045D01*
X83974623Y-139548373D01*
X84068872Y-139657143D01*
X84189947Y-139734953D01*
X84189950Y-139734954D01*
X84189949Y-139734954D01*
X84328036Y-139775499D01*
X84328038Y-139775500D01*
X84328039Y-139775500D01*
X84471962Y-139775500D01*
X84471962Y-139775499D01*
X84610053Y-139734953D01*
X84731128Y-139657143D01*
X84825377Y-139548373D01*
X84885165Y-139417457D01*
X84905647Y-139275000D01*
X85394353Y-139275000D01*
X85414834Y-139417456D01*
X85422867Y-139435045D01*
X85474623Y-139548373D01*
X85568872Y-139657143D01*
X85689947Y-139734953D01*
X85689950Y-139734954D01*
X85689949Y-139734954D01*
X85828036Y-139775499D01*
X85828038Y-139775500D01*
X85828039Y-139775500D01*
X85971962Y-139775500D01*
X85971962Y-139775499D01*
X86110053Y-139734953D01*
X86231128Y-139657143D01*
X86325377Y-139548373D01*
X86385165Y-139417457D01*
X86405647Y-139275000D01*
X86385165Y-139132543D01*
X86325377Y-139001627D01*
X86231128Y-138892857D01*
X86110053Y-138815047D01*
X86110051Y-138815046D01*
X86110049Y-138815045D01*
X86110050Y-138815045D01*
X85971963Y-138774500D01*
X85971961Y-138774500D01*
X85828039Y-138774500D01*
X85828036Y-138774500D01*
X85689949Y-138815045D01*
X85568873Y-138892856D01*
X85474623Y-139001626D01*
X85474622Y-139001628D01*
X85414834Y-139132543D01*
X85394353Y-139275000D01*
X84905647Y-139275000D01*
X84885165Y-139132543D01*
X84825377Y-139001627D01*
X84731128Y-138892857D01*
X84610053Y-138815047D01*
X84610051Y-138815046D01*
X84610049Y-138815045D01*
X84610050Y-138815045D01*
X84471963Y-138774500D01*
X84471961Y-138774500D01*
X84328039Y-138774500D01*
X84328036Y-138774500D01*
X84189949Y-138815045D01*
X84068873Y-138892856D01*
X83974623Y-139001626D01*
X83974622Y-139001628D01*
X83914834Y-139132543D01*
X83894353Y-139275000D01*
X62800500Y-139275000D01*
X62800500Y-138650000D01*
X82394353Y-138650000D01*
X82414834Y-138792456D01*
X82474622Y-138923371D01*
X82474623Y-138923373D01*
X82568872Y-139032143D01*
X82689947Y-139109953D01*
X82689950Y-139109954D01*
X82689949Y-139109954D01*
X82828036Y-139150499D01*
X82828038Y-139150500D01*
X82828039Y-139150500D01*
X82971962Y-139150500D01*
X82971962Y-139150499D01*
X83110053Y-139109953D01*
X83231128Y-139032143D01*
X83325377Y-138923373D01*
X83385165Y-138792457D01*
X83405647Y-138650000D01*
X83385165Y-138507543D01*
X83325377Y-138376627D01*
X83231128Y-138267857D01*
X83110053Y-138190047D01*
X83110051Y-138190046D01*
X83110049Y-138190045D01*
X83110050Y-138190045D01*
X82971963Y-138149500D01*
X82971961Y-138149500D01*
X82828039Y-138149500D01*
X82828036Y-138149500D01*
X82689949Y-138190045D01*
X82568873Y-138267856D01*
X82474623Y-138376626D01*
X82474622Y-138376628D01*
X82414834Y-138507543D01*
X82394353Y-138650000D01*
X62800500Y-138650000D01*
X62800500Y-138025000D01*
X95894353Y-138025000D01*
X95914834Y-138167456D01*
X95974622Y-138298371D01*
X95974623Y-138298373D01*
X96068872Y-138407143D01*
X96189947Y-138484953D01*
X96189950Y-138484954D01*
X96189949Y-138484954D01*
X96328036Y-138525499D01*
X96328038Y-138525500D01*
X96328039Y-138525500D01*
X96471962Y-138525500D01*
X96471962Y-138525499D01*
X96610053Y-138484953D01*
X96731128Y-138407143D01*
X96825377Y-138298373D01*
X96885165Y-138167457D01*
X96905647Y-138025000D01*
X96885165Y-137882543D01*
X96825377Y-137751627D01*
X96731128Y-137642857D01*
X96610053Y-137565047D01*
X96610051Y-137565046D01*
X96610049Y-137565045D01*
X96610050Y-137565045D01*
X96471963Y-137524500D01*
X96471961Y-137524500D01*
X96328039Y-137524500D01*
X96328036Y-137524500D01*
X96189949Y-137565045D01*
X96068873Y-137642856D01*
X95974623Y-137751626D01*
X95974622Y-137751628D01*
X95914834Y-137882543D01*
X95894353Y-138025000D01*
X62800500Y-138025000D01*
X62800500Y-136169998D01*
X81569437Y-136169998D01*
X81569437Y-136170001D01*
X81589650Y-136401044D01*
X81589651Y-136401051D01*
X81649678Y-136625074D01*
X81649679Y-136625076D01*
X81649680Y-136625079D01*
X81747699Y-136835282D01*
X81880730Y-137025269D01*
X82044731Y-137189270D01*
X82234718Y-137322301D01*
X82444921Y-137420320D01*
X82668950Y-137480349D01*
X82833985Y-137494787D01*
X82899998Y-137500563D01*
X82900000Y-137500563D01*
X82900002Y-137500563D01*
X82957762Y-137495509D01*
X83131050Y-137480349D01*
X83355079Y-137420320D01*
X83565282Y-137322301D01*
X83755269Y-137189270D01*
X83919270Y-137025269D01*
X84052301Y-136835282D01*
X84150320Y-136625079D01*
X84210349Y-136401050D01*
X84230563Y-136170000D01*
X84230563Y-136169998D01*
X84569437Y-136169998D01*
X84569437Y-136170001D01*
X84589650Y-136401044D01*
X84589651Y-136401051D01*
X84649678Y-136625074D01*
X84649679Y-136625076D01*
X84649680Y-136625079D01*
X84747699Y-136835282D01*
X84880730Y-137025269D01*
X85044731Y-137189270D01*
X85234718Y-137322301D01*
X85444921Y-137420320D01*
X85668950Y-137480349D01*
X85833985Y-137494787D01*
X85899998Y-137500563D01*
X85900000Y-137500563D01*
X85900002Y-137500563D01*
X85957762Y-137495509D01*
X86131050Y-137480349D01*
X86355079Y-137420320D01*
X86565282Y-137322301D01*
X86755269Y-137189270D01*
X86919270Y-137025269D01*
X87052301Y-136835282D01*
X87150320Y-136625079D01*
X87210349Y-136401050D01*
X87230563Y-136170000D01*
X87230563Y-136169998D01*
X87569437Y-136169998D01*
X87569437Y-136170001D01*
X87589650Y-136401044D01*
X87589651Y-136401051D01*
X87649678Y-136625074D01*
X87649679Y-136625076D01*
X87649680Y-136625079D01*
X87747699Y-136835282D01*
X87880730Y-137025269D01*
X88044731Y-137189270D01*
X88234718Y-137322301D01*
X88444921Y-137420320D01*
X88668950Y-137480349D01*
X88833985Y-137494787D01*
X88899998Y-137500563D01*
X88900000Y-137500563D01*
X88900002Y-137500563D01*
X88957762Y-137495509D01*
X89131050Y-137480349D01*
X89355079Y-137420320D01*
X89565282Y-137322301D01*
X89755269Y-137189270D01*
X89919270Y-137025269D01*
X90052301Y-136835282D01*
X90150320Y-136625079D01*
X90210349Y-136401050D01*
X90230563Y-136170000D01*
X90230563Y-136169998D01*
X90569437Y-136169998D01*
X90569437Y-136170001D01*
X90589650Y-136401044D01*
X90589651Y-136401051D01*
X90649678Y-136625074D01*
X90649679Y-136625076D01*
X90649680Y-136625079D01*
X90747699Y-136835282D01*
X90880730Y-137025269D01*
X91044731Y-137189270D01*
X91234718Y-137322301D01*
X91444921Y-137420320D01*
X91668950Y-137480349D01*
X91833985Y-137494787D01*
X91899998Y-137500563D01*
X91900000Y-137500563D01*
X91900002Y-137500563D01*
X91957762Y-137495509D01*
X92131050Y-137480349D01*
X92355079Y-137420320D01*
X92565282Y-137322301D01*
X92755269Y-137189270D01*
X92919270Y-137025269D01*
X93052301Y-136835282D01*
X93150320Y-136625079D01*
X93210349Y-136401050D01*
X93230563Y-136170000D01*
X93230563Y-136169998D01*
X93569437Y-136169998D01*
X93569437Y-136170001D01*
X93589650Y-136401044D01*
X93589651Y-136401051D01*
X93649678Y-136625074D01*
X93649679Y-136625076D01*
X93649680Y-136625079D01*
X93747699Y-136835282D01*
X93880730Y-137025269D01*
X94044731Y-137189270D01*
X94234718Y-137322301D01*
X94444921Y-137420320D01*
X94668950Y-137480349D01*
X94833985Y-137494787D01*
X94899998Y-137500563D01*
X94900000Y-137500563D01*
X94900002Y-137500563D01*
X94957762Y-137495509D01*
X95131050Y-137480349D01*
X95355079Y-137420320D01*
X95565282Y-137322301D01*
X95755269Y-137189270D01*
X95919270Y-137025269D01*
X96052301Y-136835282D01*
X96150320Y-136625079D01*
X96210349Y-136401050D01*
X96230563Y-136170000D01*
X96230563Y-136169998D01*
X96569437Y-136169998D01*
X96569437Y-136170001D01*
X96589650Y-136401044D01*
X96589651Y-136401051D01*
X96649678Y-136625074D01*
X96649679Y-136625076D01*
X96649680Y-136625079D01*
X96747699Y-136835282D01*
X96880730Y-137025269D01*
X97044731Y-137189270D01*
X97234718Y-137322301D01*
X97444921Y-137420320D01*
X97668950Y-137480349D01*
X97833985Y-137494787D01*
X97899998Y-137500563D01*
X97900000Y-137500563D01*
X97900002Y-137500563D01*
X97957762Y-137495509D01*
X98131050Y-137480349D01*
X98355079Y-137420320D01*
X98565282Y-137322301D01*
X98755269Y-137189270D01*
X98919270Y-137025269D01*
X99052301Y-136835282D01*
X99126171Y-136676865D01*
X99172343Y-136624426D01*
X99239536Y-136605274D01*
X99306418Y-136625489D01*
X99351752Y-136678655D01*
X99353114Y-136681817D01*
X99447636Y-136910016D01*
X99581275Y-137128095D01*
X99581286Y-137128110D01*
X99584533Y-137131911D01*
X99584535Y-137131911D01*
X100222421Y-136494024D01*
X100235359Y-136525258D01*
X100317437Y-136648097D01*
X100421903Y-136752563D01*
X100544742Y-136834641D01*
X100575974Y-136847577D01*
X99938087Y-137485464D01*
X99938087Y-137485465D01*
X99941888Y-137488712D01*
X99941898Y-137488719D01*
X100159984Y-137622363D01*
X100159987Y-137622365D01*
X100396297Y-137720247D01*
X100645011Y-137779957D01*
X100645010Y-137779957D01*
X100900000Y-137800024D01*
X101154989Y-137779957D01*
X101403702Y-137720247D01*
X101640012Y-137622365D01*
X101640015Y-137622363D01*
X101858103Y-137488719D01*
X101861912Y-137485464D01*
X101224025Y-136847578D01*
X101255258Y-136834641D01*
X101378097Y-136752563D01*
X101482563Y-136648097D01*
X101564641Y-136525258D01*
X101577577Y-136494025D01*
X102215464Y-137131912D01*
X102218719Y-137128103D01*
X102352363Y-136910015D01*
X102352365Y-136910012D01*
X102450247Y-136673702D01*
X102509957Y-136424989D01*
X102530024Y-136170000D01*
X102509957Y-135915010D01*
X102450247Y-135666297D01*
X102352365Y-135429987D01*
X102352363Y-135429984D01*
X102218719Y-135211898D01*
X102218712Y-135211888D01*
X102215465Y-135208087D01*
X102215464Y-135208087D01*
X101577577Y-135845973D01*
X101564641Y-135814742D01*
X101482563Y-135691903D01*
X101378097Y-135587437D01*
X101255258Y-135505359D01*
X101224024Y-135492421D01*
X101861911Y-134854535D01*
X101861911Y-134854533D01*
X101858110Y-134851286D01*
X101858095Y-134851275D01*
X101640015Y-134717636D01*
X101640012Y-134717634D01*
X101403702Y-134619752D01*
X101154988Y-134560042D01*
X101154989Y-134560042D01*
X100899999Y-134539975D01*
X100642442Y-134560244D01*
X100574065Y-134545879D01*
X100524309Y-134496828D01*
X100508970Y-134428663D01*
X100531139Y-134365502D01*
X100552301Y-134335282D01*
X100650320Y-134125079D01*
X100710349Y-133901050D01*
X100730563Y-133670000D01*
X100710349Y-133438950D01*
X100650320Y-133214921D01*
X100569523Y-133041652D01*
X108599353Y-133041652D01*
X108619834Y-133184108D01*
X108679622Y-133315023D01*
X108679623Y-133315025D01*
X108773872Y-133423795D01*
X108894947Y-133501605D01*
X108894950Y-133501606D01*
X108894949Y-133501606D01*
X109033036Y-133542151D01*
X109033038Y-133542152D01*
X109033039Y-133542152D01*
X109176962Y-133542152D01*
X109176962Y-133542151D01*
X109315053Y-133501605D01*
X109436128Y-133423795D01*
X109530377Y-133315025D01*
X109590165Y-133184109D01*
X109610647Y-133041652D01*
X109590165Y-132899195D01*
X109530377Y-132768279D01*
X109436128Y-132659509D01*
X109315053Y-132581699D01*
X109315051Y-132581698D01*
X109315049Y-132581697D01*
X109315050Y-132581697D01*
X109176963Y-132541152D01*
X109176961Y-132541152D01*
X109033039Y-132541152D01*
X109033036Y-132541152D01*
X108894949Y-132581697D01*
X108773873Y-132659508D01*
X108679623Y-132768278D01*
X108679622Y-132768280D01*
X108619834Y-132899195D01*
X108599353Y-133041652D01*
X100569523Y-133041652D01*
X100552301Y-133004719D01*
X100552299Y-133004716D01*
X100552298Y-133004714D01*
X100419273Y-132814735D01*
X100419268Y-132814729D01*
X100255269Y-132650730D01*
X100255263Y-132650726D01*
X100065282Y-132517699D01*
X99855079Y-132419680D01*
X99855076Y-132419679D01*
X99855074Y-132419678D01*
X99631051Y-132359651D01*
X99631044Y-132359650D01*
X99400002Y-132339437D01*
X99399998Y-132339437D01*
X99168955Y-132359650D01*
X99168948Y-132359651D01*
X98944917Y-132419681D01*
X98734718Y-132517699D01*
X98734714Y-132517701D01*
X98544735Y-132650726D01*
X98544729Y-132650731D01*
X98380731Y-132814729D01*
X98380726Y-132814735D01*
X98247701Y-133004714D01*
X98247699Y-133004718D01*
X98149681Y-133214917D01*
X98089651Y-133438948D01*
X98089650Y-133438955D01*
X98069437Y-133669998D01*
X98069437Y-133670001D01*
X98089650Y-133901044D01*
X98089651Y-133901051D01*
X98149678Y-134125074D01*
X98149679Y-134125076D01*
X98149680Y-134125079D01*
X98247699Y-134335282D01*
X98380730Y-134525269D01*
X98544731Y-134689270D01*
X98734718Y-134822301D01*
X98944921Y-134920320D01*
X99168950Y-134980349D01*
X99333985Y-134994787D01*
X99399998Y-135000563D01*
X99400000Y-135000563D01*
X99400001Y-135000563D01*
X99419093Y-134998892D01*
X99489050Y-134992772D01*
X99557549Y-135006538D01*
X99607732Y-135055154D01*
X99623666Y-135123182D01*
X99600291Y-135189026D01*
X99594148Y-135196830D01*
X99581284Y-135211891D01*
X99581278Y-135211899D01*
X99447636Y-135429983D01*
X99353114Y-135658182D01*
X99309273Y-135712585D01*
X99242979Y-135734650D01*
X99175280Y-135717371D01*
X99127669Y-135666234D01*
X99126171Y-135663134D01*
X99052599Y-135505359D01*
X99052301Y-135504719D01*
X99052299Y-135504716D01*
X99052298Y-135504714D01*
X98919273Y-135314735D01*
X98919268Y-135314729D01*
X98755269Y-135150730D01*
X98755263Y-135150726D01*
X98565282Y-135017699D01*
X98355079Y-134919680D01*
X98355076Y-134919679D01*
X98355074Y-134919678D01*
X98131051Y-134859651D01*
X98131044Y-134859650D01*
X97900002Y-134839437D01*
X97899998Y-134839437D01*
X97668955Y-134859650D01*
X97668948Y-134859651D01*
X97444917Y-134919681D01*
X97234718Y-135017699D01*
X97234714Y-135017701D01*
X97044735Y-135150726D01*
X97044729Y-135150731D01*
X96880731Y-135314729D01*
X96880726Y-135314735D01*
X96747701Y-135504714D01*
X96747699Y-135504718D01*
X96649681Y-135714917D01*
X96589651Y-135938948D01*
X96589650Y-135938955D01*
X96569437Y-136169998D01*
X96230563Y-136169998D01*
X96210349Y-135938950D01*
X96150320Y-135714921D01*
X96052301Y-135504719D01*
X96052299Y-135504716D01*
X96052298Y-135504714D01*
X95919273Y-135314735D01*
X95919268Y-135314729D01*
X95755269Y-135150730D01*
X95755263Y-135150726D01*
X95565282Y-135017699D01*
X95355079Y-134919680D01*
X95355076Y-134919679D01*
X95355074Y-134919678D01*
X95131051Y-134859651D01*
X95131044Y-134859650D01*
X94900002Y-134839437D01*
X94899998Y-134839437D01*
X94668955Y-134859650D01*
X94668948Y-134859651D01*
X94444917Y-134919681D01*
X94234718Y-135017699D01*
X94234714Y-135017701D01*
X94044735Y-135150726D01*
X94044729Y-135150731D01*
X93880731Y-135314729D01*
X93880726Y-135314735D01*
X93747701Y-135504714D01*
X93747699Y-135504718D01*
X93649681Y-135714917D01*
X93589651Y-135938948D01*
X93589650Y-135938955D01*
X93569437Y-136169998D01*
X93230563Y-136169998D01*
X93210349Y-135938950D01*
X93150320Y-135714921D01*
X93052301Y-135504719D01*
X93052299Y-135504716D01*
X93052298Y-135504714D01*
X92919273Y-135314735D01*
X92919268Y-135314729D01*
X92755269Y-135150730D01*
X92755263Y-135150726D01*
X92565282Y-135017699D01*
X92355079Y-134919680D01*
X92355076Y-134919679D01*
X92355074Y-134919678D01*
X92131051Y-134859651D01*
X92131044Y-134859650D01*
X91900002Y-134839437D01*
X91899998Y-134839437D01*
X91668955Y-134859650D01*
X91668948Y-134859651D01*
X91444917Y-134919681D01*
X91234718Y-135017699D01*
X91234714Y-135017701D01*
X91044735Y-135150726D01*
X91044729Y-135150731D01*
X90880731Y-135314729D01*
X90880726Y-135314735D01*
X90747701Y-135504714D01*
X90747699Y-135504718D01*
X90649681Y-135714917D01*
X90589651Y-135938948D01*
X90589650Y-135938955D01*
X90569437Y-136169998D01*
X90230563Y-136169998D01*
X90210349Y-135938950D01*
X90150320Y-135714921D01*
X90052301Y-135504719D01*
X90052299Y-135504716D01*
X90052298Y-135504714D01*
X89919273Y-135314735D01*
X89919268Y-135314729D01*
X89755269Y-135150730D01*
X89755263Y-135150726D01*
X89565282Y-135017699D01*
X89355079Y-134919680D01*
X89355076Y-134919679D01*
X89355074Y-134919678D01*
X89131051Y-134859651D01*
X89131044Y-134859650D01*
X88900002Y-134839437D01*
X88899998Y-134839437D01*
X88668955Y-134859650D01*
X88668948Y-134859651D01*
X88444917Y-134919681D01*
X88234718Y-135017699D01*
X88234714Y-135017701D01*
X88044735Y-135150726D01*
X88044729Y-135150731D01*
X87880731Y-135314729D01*
X87880726Y-135314735D01*
X87747701Y-135504714D01*
X87747699Y-135504718D01*
X87649681Y-135714917D01*
X87589651Y-135938948D01*
X87589650Y-135938955D01*
X87569437Y-136169998D01*
X87230563Y-136169998D01*
X87210349Y-135938950D01*
X87150320Y-135714921D01*
X87052301Y-135504719D01*
X87052299Y-135504716D01*
X87052298Y-135504714D01*
X86919273Y-135314735D01*
X86919268Y-135314729D01*
X86755269Y-135150730D01*
X86755263Y-135150726D01*
X86565282Y-135017699D01*
X86355079Y-134919680D01*
X86355076Y-134919679D01*
X86355074Y-134919678D01*
X86131051Y-134859651D01*
X86131044Y-134859650D01*
X85900002Y-134839437D01*
X85899998Y-134839437D01*
X85668955Y-134859650D01*
X85668948Y-134859651D01*
X85444917Y-134919681D01*
X85234718Y-135017699D01*
X85234714Y-135017701D01*
X85044735Y-135150726D01*
X85044729Y-135150731D01*
X84880731Y-135314729D01*
X84880726Y-135314735D01*
X84747701Y-135504714D01*
X84747699Y-135504718D01*
X84649681Y-135714917D01*
X84589651Y-135938948D01*
X84589650Y-135938955D01*
X84569437Y-136169998D01*
X84230563Y-136169998D01*
X84210349Y-135938950D01*
X84150320Y-135714921D01*
X84052301Y-135504719D01*
X84052299Y-135504716D01*
X84052298Y-135504714D01*
X83919273Y-135314735D01*
X83919268Y-135314729D01*
X83755269Y-135150730D01*
X83755263Y-135150726D01*
X83565282Y-135017699D01*
X83355079Y-134919680D01*
X83355076Y-134919679D01*
X83355074Y-134919678D01*
X83131051Y-134859651D01*
X83131044Y-134859650D01*
X82900002Y-134839437D01*
X82899998Y-134839437D01*
X82668955Y-134859650D01*
X82668948Y-134859651D01*
X82444917Y-134919681D01*
X82234718Y-135017699D01*
X82234714Y-135017701D01*
X82044735Y-135150726D01*
X82044729Y-135150731D01*
X81880731Y-135314729D01*
X81880726Y-135314735D01*
X81747701Y-135504714D01*
X81747699Y-135504718D01*
X81649681Y-135714917D01*
X81589651Y-135938948D01*
X81589650Y-135938955D01*
X81569437Y-136169998D01*
X62800500Y-136169998D01*
X62800500Y-128169998D01*
X81569437Y-128169998D01*
X81569437Y-128170000D01*
X81589650Y-128401044D01*
X81589651Y-128401051D01*
X81649678Y-128625074D01*
X81649679Y-128625076D01*
X81649680Y-128625079D01*
X81747699Y-128835282D01*
X81880730Y-129025269D01*
X82044731Y-129189270D01*
X82234718Y-129322301D01*
X82444921Y-129420320D01*
X82668950Y-129480349D01*
X82833985Y-129494787D01*
X82899998Y-129500563D01*
X82900000Y-129500563D01*
X82900001Y-129500563D01*
X82919093Y-129498892D01*
X82989050Y-129492772D01*
X83057549Y-129506538D01*
X83107732Y-129555154D01*
X83123666Y-129623182D01*
X83100291Y-129689026D01*
X83094148Y-129696830D01*
X83081284Y-129711891D01*
X83081278Y-129711899D01*
X82947636Y-129929984D01*
X82947634Y-129929987D01*
X82849752Y-130166297D01*
X82790042Y-130415010D01*
X82769975Y-130670000D01*
X82790042Y-130924989D01*
X82849752Y-131173702D01*
X82947634Y-131410012D01*
X82947636Y-131410015D01*
X83081275Y-131628095D01*
X83081286Y-131628110D01*
X83084533Y-131631911D01*
X83084535Y-131631911D01*
X83722421Y-130994024D01*
X83735359Y-131025258D01*
X83817437Y-131148097D01*
X83921903Y-131252563D01*
X84044742Y-131334641D01*
X84075974Y-131347577D01*
X83438087Y-131985464D01*
X83438087Y-131985465D01*
X83441888Y-131988712D01*
X83441898Y-131988719D01*
X83659984Y-132122363D01*
X83659987Y-132122365D01*
X83888181Y-132216885D01*
X83942585Y-132260726D01*
X83964650Y-132327020D01*
X83947371Y-132394719D01*
X83896234Y-132442330D01*
X83893134Y-132443828D01*
X83734719Y-132517699D01*
X83734714Y-132517701D01*
X83544735Y-132650726D01*
X83544729Y-132650731D01*
X83380731Y-132814729D01*
X83380726Y-132814735D01*
X83247701Y-133004714D01*
X83247699Y-133004718D01*
X83149681Y-133214917D01*
X83089651Y-133438948D01*
X83089650Y-133438955D01*
X83069437Y-133669998D01*
X83069437Y-133670001D01*
X83089650Y-133901044D01*
X83089651Y-133901051D01*
X83149678Y-134125074D01*
X83149679Y-134125076D01*
X83149680Y-134125079D01*
X83247699Y-134335282D01*
X83380730Y-134525269D01*
X83544731Y-134689270D01*
X83734718Y-134822301D01*
X83944921Y-134920320D01*
X84168950Y-134980349D01*
X84333985Y-134994787D01*
X84399998Y-135000563D01*
X84400000Y-135000563D01*
X84400002Y-135000563D01*
X84457762Y-134995509D01*
X84631050Y-134980349D01*
X84855079Y-134920320D01*
X85065282Y-134822301D01*
X85255269Y-134689270D01*
X85419270Y-134525269D01*
X85552301Y-134335282D01*
X85650320Y-134125079D01*
X85710349Y-133901050D01*
X85730563Y-133670000D01*
X85730563Y-133669998D01*
X86069437Y-133669998D01*
X86069437Y-133670001D01*
X86089650Y-133901044D01*
X86089651Y-133901051D01*
X86149678Y-134125074D01*
X86149679Y-134125076D01*
X86149680Y-134125079D01*
X86247699Y-134335282D01*
X86380730Y-134525269D01*
X86544731Y-134689270D01*
X86734718Y-134822301D01*
X86944921Y-134920320D01*
X87168950Y-134980349D01*
X87333985Y-134994787D01*
X87399998Y-135000563D01*
X87400000Y-135000563D01*
X87400002Y-135000563D01*
X87457762Y-134995509D01*
X87631050Y-134980349D01*
X87855079Y-134920320D01*
X88065282Y-134822301D01*
X88255269Y-134689270D01*
X88419270Y-134525269D01*
X88552301Y-134335282D01*
X88650320Y-134125079D01*
X88710349Y-133901050D01*
X88730563Y-133670000D01*
X88730563Y-133669998D01*
X89069437Y-133669998D01*
X89069437Y-133670001D01*
X89089650Y-133901044D01*
X89089651Y-133901051D01*
X89149678Y-134125074D01*
X89149679Y-134125076D01*
X89149680Y-134125079D01*
X89247699Y-134335282D01*
X89380730Y-134525269D01*
X89544731Y-134689270D01*
X89734718Y-134822301D01*
X89944921Y-134920320D01*
X90168950Y-134980349D01*
X90333985Y-134994787D01*
X90399998Y-135000563D01*
X90400000Y-135000563D01*
X90400002Y-135000563D01*
X90457762Y-134995509D01*
X90631050Y-134980349D01*
X90855079Y-134920320D01*
X91065282Y-134822301D01*
X91255269Y-134689270D01*
X91419270Y-134525269D01*
X91552301Y-134335282D01*
X91650320Y-134125079D01*
X91710349Y-133901050D01*
X91730563Y-133670000D01*
X91730563Y-133669998D01*
X92069437Y-133669998D01*
X92069437Y-133670001D01*
X92089650Y-133901044D01*
X92089651Y-133901051D01*
X92149678Y-134125074D01*
X92149679Y-134125076D01*
X92149680Y-134125079D01*
X92247699Y-134335282D01*
X92380730Y-134525269D01*
X92544731Y-134689270D01*
X92734718Y-134822301D01*
X92944921Y-134920320D01*
X93168950Y-134980349D01*
X93333985Y-134994787D01*
X93399998Y-135000563D01*
X93400000Y-135000563D01*
X93400002Y-135000563D01*
X93457762Y-134995509D01*
X93631050Y-134980349D01*
X93855079Y-134920320D01*
X94065282Y-134822301D01*
X94255269Y-134689270D01*
X94419270Y-134525269D01*
X94552301Y-134335282D01*
X94650320Y-134125079D01*
X94710349Y-133901050D01*
X94730563Y-133670000D01*
X94730563Y-133669998D01*
X95069437Y-133669998D01*
X95069437Y-133670001D01*
X95089650Y-133901044D01*
X95089651Y-133901051D01*
X95149678Y-134125074D01*
X95149679Y-134125076D01*
X95149680Y-134125079D01*
X95247699Y-134335282D01*
X95380730Y-134525269D01*
X95544731Y-134689270D01*
X95734718Y-134822301D01*
X95944921Y-134920320D01*
X96168950Y-134980349D01*
X96333985Y-134994787D01*
X96399998Y-135000563D01*
X96400000Y-135000563D01*
X96400002Y-135000563D01*
X96457762Y-134995509D01*
X96631050Y-134980349D01*
X96855079Y-134920320D01*
X97065282Y-134822301D01*
X97255269Y-134689270D01*
X97419270Y-134525269D01*
X97552301Y-134335282D01*
X97650320Y-134125079D01*
X97710349Y-133901050D01*
X97730563Y-133670000D01*
X97710349Y-133438950D01*
X97650320Y-133214921D01*
X97552301Y-133004719D01*
X97552299Y-133004716D01*
X97552298Y-133004714D01*
X97419273Y-132814735D01*
X97419268Y-132814729D01*
X97255269Y-132650730D01*
X97255263Y-132650726D01*
X97065282Y-132517699D01*
X96855079Y-132419680D01*
X96855076Y-132419679D01*
X96855074Y-132419678D01*
X96631051Y-132359651D01*
X96631044Y-132359650D01*
X96400002Y-132339437D01*
X96399998Y-132339437D01*
X96168955Y-132359650D01*
X96168948Y-132359651D01*
X95944917Y-132419681D01*
X95734718Y-132517699D01*
X95734714Y-132517701D01*
X95544735Y-132650726D01*
X95544729Y-132650731D01*
X95380731Y-132814729D01*
X95380726Y-132814735D01*
X95247701Y-133004714D01*
X95247699Y-133004718D01*
X95149681Y-133214917D01*
X95089651Y-133438948D01*
X95089650Y-133438955D01*
X95069437Y-133669998D01*
X94730563Y-133669998D01*
X94710349Y-133438950D01*
X94650320Y-133214921D01*
X94552301Y-133004719D01*
X94552299Y-133004716D01*
X94552298Y-133004714D01*
X94419273Y-132814735D01*
X94419268Y-132814729D01*
X94255269Y-132650730D01*
X94255263Y-132650726D01*
X94065282Y-132517699D01*
X93855079Y-132419680D01*
X93855076Y-132419679D01*
X93855074Y-132419678D01*
X93631051Y-132359651D01*
X93631044Y-132359650D01*
X93400002Y-132339437D01*
X93399998Y-132339437D01*
X93168955Y-132359650D01*
X93168948Y-132359651D01*
X92944917Y-132419681D01*
X92734718Y-132517699D01*
X92734714Y-132517701D01*
X92544735Y-132650726D01*
X92544729Y-132650731D01*
X92380731Y-132814729D01*
X92380726Y-132814735D01*
X92247701Y-133004714D01*
X92247699Y-133004718D01*
X92149681Y-133214917D01*
X92089651Y-133438948D01*
X92089650Y-133438955D01*
X92069437Y-133669998D01*
X91730563Y-133669998D01*
X91710349Y-133438950D01*
X91650320Y-133214921D01*
X91552301Y-133004719D01*
X91552299Y-133004716D01*
X91552298Y-133004714D01*
X91419273Y-132814735D01*
X91419268Y-132814729D01*
X91255269Y-132650730D01*
X91255263Y-132650726D01*
X91065282Y-132517699D01*
X90855079Y-132419680D01*
X90855076Y-132419679D01*
X90855074Y-132419678D01*
X90631051Y-132359651D01*
X90631044Y-132359650D01*
X90400002Y-132339437D01*
X90399998Y-132339437D01*
X90168955Y-132359650D01*
X90168948Y-132359651D01*
X89944917Y-132419681D01*
X89734718Y-132517699D01*
X89734714Y-132517701D01*
X89544735Y-132650726D01*
X89544729Y-132650731D01*
X89380731Y-132814729D01*
X89380726Y-132814735D01*
X89247701Y-133004714D01*
X89247699Y-133004718D01*
X89149681Y-133214917D01*
X89089651Y-133438948D01*
X89089650Y-133438955D01*
X89069437Y-133669998D01*
X88730563Y-133669998D01*
X88710349Y-133438950D01*
X88650320Y-133214921D01*
X88552301Y-133004719D01*
X88552299Y-133004716D01*
X88552298Y-133004714D01*
X88419273Y-132814735D01*
X88419268Y-132814729D01*
X88255269Y-132650730D01*
X88255263Y-132650726D01*
X88065282Y-132517699D01*
X87855079Y-132419680D01*
X87855076Y-132419679D01*
X87855074Y-132419678D01*
X87631051Y-132359651D01*
X87631044Y-132359650D01*
X87400002Y-132339437D01*
X87399998Y-132339437D01*
X87168955Y-132359650D01*
X87168948Y-132359651D01*
X86944917Y-132419681D01*
X86734718Y-132517699D01*
X86734714Y-132517701D01*
X86544735Y-132650726D01*
X86544729Y-132650731D01*
X86380731Y-132814729D01*
X86380726Y-132814735D01*
X86247701Y-133004714D01*
X86247699Y-133004718D01*
X86149681Y-133214917D01*
X86089651Y-133438948D01*
X86089650Y-133438955D01*
X86069437Y-133669998D01*
X85730563Y-133669998D01*
X85710349Y-133438950D01*
X85650320Y-133214921D01*
X85552301Y-133004719D01*
X85552299Y-133004716D01*
X85552298Y-133004714D01*
X85419273Y-132814735D01*
X85419268Y-132814729D01*
X85255269Y-132650730D01*
X85065281Y-132517698D01*
X84906865Y-132443828D01*
X84854426Y-132397656D01*
X84835274Y-132330462D01*
X84855490Y-132263581D01*
X84908655Y-132218246D01*
X84911818Y-132216885D01*
X85140012Y-132122365D01*
X85140015Y-132122363D01*
X85358103Y-131988719D01*
X85361912Y-131985464D01*
X84724025Y-131347578D01*
X84755258Y-131334641D01*
X84878097Y-131252563D01*
X84982563Y-131148097D01*
X85064641Y-131025258D01*
X85077578Y-130994025D01*
X85715464Y-131631912D01*
X85718719Y-131628103D01*
X85852363Y-131410015D01*
X85852365Y-131410012D01*
X85946885Y-131181818D01*
X85990725Y-131127414D01*
X86057019Y-131105349D01*
X86124719Y-131122628D01*
X86172330Y-131173765D01*
X86173828Y-131176865D01*
X86247698Y-131335281D01*
X86247699Y-131335282D01*
X86380730Y-131525269D01*
X86544731Y-131689270D01*
X86734718Y-131822301D01*
X86944921Y-131920320D01*
X87168950Y-131980349D01*
X87333985Y-131994787D01*
X87399998Y-132000563D01*
X87400000Y-132000563D01*
X87400002Y-132000563D01*
X87457762Y-131995509D01*
X87631050Y-131980349D01*
X87855079Y-131920320D01*
X88065282Y-131822301D01*
X88255269Y-131689270D01*
X88419270Y-131525269D01*
X88552301Y-131335282D01*
X88650320Y-131125079D01*
X88710349Y-130901050D01*
X88730563Y-130670000D01*
X88730563Y-130669998D01*
X89069437Y-130669998D01*
X89069437Y-130670000D01*
X89089650Y-130901044D01*
X89089651Y-130901051D01*
X89149678Y-131125074D01*
X89149679Y-131125076D01*
X89149680Y-131125079D01*
X89247699Y-131335282D01*
X89380730Y-131525269D01*
X89544731Y-131689270D01*
X89734718Y-131822301D01*
X89944921Y-131920320D01*
X90168950Y-131980349D01*
X90333985Y-131994787D01*
X90399998Y-132000563D01*
X90400000Y-132000563D01*
X90400002Y-132000563D01*
X90457762Y-131995509D01*
X90631050Y-131980349D01*
X90855079Y-131920320D01*
X91065282Y-131822301D01*
X91255269Y-131689270D01*
X91419270Y-131525269D01*
X91552301Y-131335282D01*
X91650320Y-131125079D01*
X91710349Y-130901050D01*
X91730563Y-130670000D01*
X91710349Y-130438950D01*
X91650320Y-130214921D01*
X91552301Y-130004719D01*
X91552299Y-130004716D01*
X91552298Y-130004714D01*
X91419273Y-129814735D01*
X91419268Y-129814729D01*
X91255269Y-129650730D01*
X91255263Y-129650726D01*
X91065282Y-129517699D01*
X90855079Y-129419680D01*
X90855076Y-129419679D01*
X90855074Y-129419678D01*
X90631051Y-129359651D01*
X90631044Y-129359650D01*
X90400002Y-129339437D01*
X90399998Y-129339437D01*
X90168955Y-129359650D01*
X90168948Y-129359651D01*
X89944917Y-129419681D01*
X89734718Y-129517699D01*
X89734714Y-129517701D01*
X89544735Y-129650726D01*
X89544729Y-129650731D01*
X89380731Y-129814729D01*
X89380726Y-129814735D01*
X89247701Y-130004714D01*
X89247699Y-130004718D01*
X89149681Y-130214917D01*
X89089651Y-130438948D01*
X89089650Y-130438955D01*
X89069437Y-130669998D01*
X88730563Y-130669998D01*
X88710349Y-130438950D01*
X88650320Y-130214921D01*
X88552301Y-130004719D01*
X88552299Y-130004716D01*
X88552298Y-130004714D01*
X88419273Y-129814735D01*
X88419268Y-129814729D01*
X88255269Y-129650730D01*
X88255263Y-129650726D01*
X88065282Y-129517699D01*
X87855079Y-129419680D01*
X87855076Y-129419679D01*
X87855074Y-129419678D01*
X87631051Y-129359651D01*
X87631044Y-129359650D01*
X87400002Y-129339437D01*
X87399997Y-129339437D01*
X87310948Y-129347227D01*
X87242448Y-129333460D01*
X87192266Y-129284844D01*
X87176333Y-129216815D01*
X87199709Y-129150972D01*
X87205855Y-129143163D01*
X87218722Y-129128098D01*
X87352363Y-128910015D01*
X87352365Y-128910012D01*
X87446885Y-128681818D01*
X87490725Y-128627414D01*
X87557019Y-128605349D01*
X87624719Y-128622628D01*
X87672330Y-128673765D01*
X87673828Y-128676865D01*
X87747698Y-128835281D01*
X87807019Y-128920000D01*
X87880730Y-129025269D01*
X88044731Y-129189270D01*
X88234718Y-129322301D01*
X88444921Y-129420320D01*
X88668950Y-129480349D01*
X88833985Y-129494787D01*
X88899998Y-129500563D01*
X88900000Y-129500563D01*
X88900002Y-129500563D01*
X88957762Y-129495509D01*
X89131050Y-129480349D01*
X89355079Y-129420320D01*
X89565282Y-129322301D01*
X89755269Y-129189270D01*
X89919270Y-129025269D01*
X90052301Y-128835282D01*
X90150320Y-128625079D01*
X90210349Y-128401050D01*
X90230563Y-128170000D01*
X90230563Y-128169998D01*
X90569437Y-128169998D01*
X90569437Y-128170000D01*
X90589650Y-128401044D01*
X90589651Y-128401051D01*
X90649678Y-128625074D01*
X90649679Y-128625076D01*
X90649680Y-128625079D01*
X90747699Y-128835282D01*
X90880730Y-129025269D01*
X91044731Y-129189270D01*
X91234718Y-129322301D01*
X91444921Y-129420320D01*
X91668950Y-129480349D01*
X91833985Y-129494787D01*
X91899998Y-129500563D01*
X91900000Y-129500563D01*
X91900002Y-129500563D01*
X91957762Y-129495509D01*
X92131050Y-129480349D01*
X92355079Y-129420320D01*
X92565282Y-129322301D01*
X92755269Y-129189270D01*
X92919270Y-129025269D01*
X93052301Y-128835282D01*
X93126171Y-128676865D01*
X93172343Y-128624426D01*
X93239536Y-128605274D01*
X93306418Y-128625489D01*
X93351752Y-128678655D01*
X93353114Y-128681817D01*
X93447636Y-128910016D01*
X93581278Y-129128100D01*
X93581280Y-129128102D01*
X93594146Y-129143166D01*
X93622717Y-129206927D01*
X93612281Y-129276013D01*
X93566151Y-129328489D01*
X93498973Y-129347696D01*
X93489051Y-129347227D01*
X93400003Y-129339437D01*
X93399998Y-129339437D01*
X93168955Y-129359650D01*
X93168948Y-129359651D01*
X92944917Y-129419681D01*
X92734718Y-129517699D01*
X92734714Y-129517701D01*
X92544735Y-129650726D01*
X92544729Y-129650731D01*
X92380731Y-129814729D01*
X92380726Y-129814735D01*
X92247701Y-130004714D01*
X92247699Y-130004718D01*
X92149681Y-130214917D01*
X92089651Y-130438948D01*
X92089650Y-130438955D01*
X92069437Y-130669998D01*
X92069437Y-130670000D01*
X92089650Y-130901044D01*
X92089651Y-130901051D01*
X92149678Y-131125074D01*
X92149679Y-131125076D01*
X92149680Y-131125079D01*
X92247699Y-131335282D01*
X92380730Y-131525269D01*
X92544731Y-131689270D01*
X92734718Y-131822301D01*
X92944921Y-131920320D01*
X93168950Y-131980349D01*
X93333985Y-131994787D01*
X93399998Y-132000563D01*
X93400000Y-132000563D01*
X93400002Y-132000563D01*
X93457762Y-131995509D01*
X93631050Y-131980349D01*
X93855079Y-131920320D01*
X94065282Y-131822301D01*
X94255269Y-131689270D01*
X94419270Y-131525269D01*
X94552301Y-131335282D01*
X94650320Y-131125079D01*
X94710349Y-130901050D01*
X94730563Y-130670000D01*
X94710349Y-130438950D01*
X94650320Y-130214921D01*
X94552301Y-130004719D01*
X94552299Y-130004716D01*
X94552298Y-130004714D01*
X94531139Y-129974496D01*
X94508812Y-129908290D01*
X94525822Y-129840523D01*
X94576770Y-129792710D01*
X94642443Y-129779755D01*
X94899999Y-129800024D01*
X95157556Y-129779755D01*
X95225933Y-129794119D01*
X95275690Y-129843171D01*
X95291029Y-129911336D01*
X95268861Y-129974494D01*
X95247704Y-130004710D01*
X95247699Y-130004718D01*
X95149681Y-130214917D01*
X95089651Y-130438948D01*
X95089650Y-130438955D01*
X95069437Y-130669998D01*
X95069437Y-130670000D01*
X95089650Y-130901044D01*
X95089651Y-130901051D01*
X95149678Y-131125074D01*
X95149679Y-131125076D01*
X95149680Y-131125079D01*
X95247699Y-131335282D01*
X95380730Y-131525269D01*
X95544731Y-131689270D01*
X95734718Y-131822301D01*
X95944921Y-131920320D01*
X96168950Y-131980349D01*
X96333985Y-131994787D01*
X96399998Y-132000563D01*
X96400000Y-132000563D01*
X96400002Y-132000563D01*
X96457762Y-131995509D01*
X96631050Y-131980349D01*
X96855079Y-131920320D01*
X97065282Y-131822301D01*
X97255269Y-131689270D01*
X97419270Y-131525269D01*
X97552301Y-131335282D01*
X97650320Y-131125079D01*
X97710349Y-130901050D01*
X97730563Y-130670000D01*
X97730563Y-130669998D01*
X98069437Y-130669998D01*
X98069437Y-130670000D01*
X98089650Y-130901044D01*
X98089651Y-130901051D01*
X98149678Y-131125074D01*
X98149679Y-131125076D01*
X98149680Y-131125079D01*
X98247699Y-131335282D01*
X98380730Y-131525269D01*
X98544731Y-131689270D01*
X98734718Y-131822301D01*
X98944921Y-131920320D01*
X99168950Y-131980349D01*
X99333985Y-131994787D01*
X99399998Y-132000563D01*
X99400000Y-132000563D01*
X99400002Y-132000563D01*
X99457762Y-131995509D01*
X99631050Y-131980349D01*
X99855079Y-131920320D01*
X100065282Y-131822301D01*
X100255269Y-131689270D01*
X100419270Y-131525269D01*
X100552301Y-131335282D01*
X100650320Y-131125079D01*
X100710349Y-130901050D01*
X100730563Y-130670000D01*
X100710349Y-130438950D01*
X100650320Y-130214921D01*
X100552301Y-130004719D01*
X100552299Y-130004716D01*
X100552298Y-130004714D01*
X100419273Y-129814735D01*
X100419268Y-129814729D01*
X100255269Y-129650730D01*
X100255263Y-129650726D01*
X100065282Y-129517699D01*
X99855079Y-129419680D01*
X99855076Y-129419679D01*
X99855074Y-129419678D01*
X99631051Y-129359651D01*
X99631044Y-129359650D01*
X99400002Y-129339437D01*
X99399998Y-129339437D01*
X99168955Y-129359650D01*
X99168948Y-129359651D01*
X98944917Y-129419681D01*
X98734718Y-129517699D01*
X98734714Y-129517701D01*
X98544735Y-129650726D01*
X98544729Y-129650731D01*
X98380731Y-129814729D01*
X98380726Y-129814735D01*
X98247701Y-130004714D01*
X98247699Y-130004718D01*
X98149681Y-130214917D01*
X98089651Y-130438948D01*
X98089650Y-130438955D01*
X98069437Y-130669998D01*
X97730563Y-130669998D01*
X97710349Y-130438950D01*
X97650320Y-130214921D01*
X97552301Y-130004719D01*
X97552299Y-130004716D01*
X97552298Y-130004714D01*
X97419273Y-129814735D01*
X97419268Y-129814729D01*
X97255269Y-129650730D01*
X97255263Y-129650726D01*
X97065282Y-129517699D01*
X96855079Y-129419680D01*
X96855076Y-129419679D01*
X96855074Y-129419678D01*
X96631051Y-129359651D01*
X96631044Y-129359650D01*
X96400002Y-129339437D01*
X96399997Y-129339437D01*
X96310948Y-129347227D01*
X96242448Y-129333460D01*
X96192266Y-129284844D01*
X96176333Y-129216815D01*
X96199709Y-129150972D01*
X96205855Y-129143163D01*
X96218722Y-129128098D01*
X96352363Y-128910015D01*
X96352365Y-128910012D01*
X96446885Y-128681818D01*
X96490725Y-128627414D01*
X96557019Y-128605349D01*
X96624719Y-128622628D01*
X96672330Y-128673765D01*
X96673828Y-128676865D01*
X96747698Y-128835281D01*
X96807019Y-128920000D01*
X96880730Y-129025269D01*
X97044731Y-129189270D01*
X97234718Y-129322301D01*
X97444921Y-129420320D01*
X97668950Y-129480349D01*
X97833985Y-129494787D01*
X97899998Y-129500563D01*
X97900000Y-129500563D01*
X97900002Y-129500563D01*
X97957762Y-129495509D01*
X98131050Y-129480349D01*
X98355079Y-129420320D01*
X98565282Y-129322301D01*
X98755269Y-129189270D01*
X98919270Y-129025269D01*
X99052301Y-128835282D01*
X99150320Y-128625079D01*
X99210349Y-128401050D01*
X99230563Y-128170000D01*
X99230563Y-128169998D01*
X99569437Y-128169998D01*
X99569437Y-128170000D01*
X99589650Y-128401044D01*
X99589651Y-128401051D01*
X99649678Y-128625074D01*
X99649679Y-128625076D01*
X99649680Y-128625079D01*
X99747699Y-128835282D01*
X99880730Y-129025269D01*
X100044731Y-129189270D01*
X100234718Y-129322301D01*
X100444921Y-129420320D01*
X100668950Y-129480349D01*
X100833985Y-129494787D01*
X100899998Y-129500563D01*
X100900000Y-129500563D01*
X100900002Y-129500563D01*
X100957762Y-129495509D01*
X101131050Y-129480349D01*
X101355079Y-129420320D01*
X101565282Y-129322301D01*
X101755269Y-129189270D01*
X101919270Y-129025269D01*
X102052301Y-128835282D01*
X102150320Y-128625079D01*
X102210349Y-128401050D01*
X102230563Y-128170000D01*
X102210349Y-127938950D01*
X102150320Y-127714921D01*
X102052301Y-127504719D01*
X102052299Y-127504716D01*
X102052298Y-127504714D01*
X101919273Y-127314735D01*
X101919268Y-127314729D01*
X101755269Y-127150730D01*
X101755263Y-127150726D01*
X101565282Y-127017699D01*
X101355079Y-126919680D01*
X101355076Y-126919679D01*
X101355074Y-126919678D01*
X101131051Y-126859651D01*
X101131044Y-126859650D01*
X100900002Y-126839437D01*
X100899998Y-126839437D01*
X100668955Y-126859650D01*
X100668948Y-126859651D01*
X100444917Y-126919681D01*
X100234718Y-127017699D01*
X100234714Y-127017701D01*
X100044735Y-127150726D01*
X100044729Y-127150731D01*
X99880731Y-127314729D01*
X99880726Y-127314735D01*
X99747701Y-127504714D01*
X99747699Y-127504718D01*
X99649681Y-127714917D01*
X99589651Y-127938948D01*
X99589650Y-127938955D01*
X99569437Y-128169998D01*
X99230563Y-128169998D01*
X99210349Y-127938950D01*
X99150320Y-127714921D01*
X99052301Y-127504719D01*
X99052299Y-127504716D01*
X99052298Y-127504714D01*
X98919273Y-127314735D01*
X98919268Y-127314729D01*
X98755269Y-127150730D01*
X98755263Y-127150726D01*
X98565282Y-127017699D01*
X98355079Y-126919680D01*
X98355076Y-126919679D01*
X98355074Y-126919678D01*
X98131051Y-126859651D01*
X98131044Y-126859650D01*
X97900002Y-126839437D01*
X97899998Y-126839437D01*
X97668955Y-126859650D01*
X97668948Y-126859651D01*
X97444917Y-126919681D01*
X97234718Y-127017699D01*
X97234714Y-127017701D01*
X97044735Y-127150726D01*
X97044729Y-127150731D01*
X96880731Y-127314729D01*
X96880726Y-127314735D01*
X96747701Y-127504714D01*
X96747699Y-127504719D01*
X96673828Y-127663134D01*
X96627655Y-127715573D01*
X96560462Y-127734725D01*
X96493580Y-127714509D01*
X96448246Y-127661343D01*
X96446885Y-127658181D01*
X96352365Y-127429987D01*
X96352363Y-127429984D01*
X96218719Y-127211898D01*
X96218712Y-127211888D01*
X96215465Y-127208087D01*
X96215464Y-127208087D01*
X95577577Y-127845973D01*
X95564641Y-127814742D01*
X95482563Y-127691903D01*
X95378097Y-127587437D01*
X95255258Y-127505359D01*
X95224024Y-127492421D01*
X95861911Y-126854535D01*
X95861911Y-126854533D01*
X95858110Y-126851286D01*
X95858095Y-126851275D01*
X95640015Y-126717636D01*
X95640012Y-126717634D01*
X95403702Y-126619752D01*
X95154988Y-126560042D01*
X95154989Y-126560042D01*
X94900000Y-126539975D01*
X94645010Y-126560042D01*
X94396297Y-126619752D01*
X94159987Y-126717634D01*
X94159984Y-126717636D01*
X93941897Y-126851280D01*
X93938087Y-126854534D01*
X94575975Y-127492421D01*
X94544742Y-127505359D01*
X94421903Y-127587437D01*
X94317437Y-127691903D01*
X94235359Y-127814742D01*
X94222421Y-127845974D01*
X93584534Y-127208087D01*
X93581280Y-127211897D01*
X93447636Y-127429983D01*
X93353114Y-127658182D01*
X93309273Y-127712585D01*
X93242979Y-127734650D01*
X93175280Y-127717371D01*
X93127669Y-127666234D01*
X93126171Y-127663134D01*
X93123862Y-127658182D01*
X93052301Y-127504719D01*
X93052299Y-127504716D01*
X93052298Y-127504714D01*
X92919273Y-127314735D01*
X92919268Y-127314729D01*
X92755269Y-127150730D01*
X92755263Y-127150726D01*
X92565282Y-127017699D01*
X92355079Y-126919680D01*
X92355076Y-126919679D01*
X92355074Y-126919678D01*
X92131051Y-126859651D01*
X92131044Y-126859650D01*
X91900002Y-126839437D01*
X91899998Y-126839437D01*
X91668955Y-126859650D01*
X91668948Y-126859651D01*
X91444917Y-126919681D01*
X91234718Y-127017699D01*
X91234714Y-127017701D01*
X91044735Y-127150726D01*
X91044729Y-127150731D01*
X90880731Y-127314729D01*
X90880726Y-127314735D01*
X90747701Y-127504714D01*
X90747699Y-127504718D01*
X90649681Y-127714917D01*
X90589651Y-127938948D01*
X90589650Y-127938955D01*
X90569437Y-128169998D01*
X90230563Y-128169998D01*
X90210349Y-127938950D01*
X90150320Y-127714921D01*
X90052301Y-127504719D01*
X90052299Y-127504716D01*
X90052298Y-127504714D01*
X89919273Y-127314735D01*
X89919268Y-127314729D01*
X89755269Y-127150730D01*
X89755263Y-127150726D01*
X89565282Y-127017699D01*
X89355079Y-126919680D01*
X89355076Y-126919679D01*
X89355074Y-126919678D01*
X89131051Y-126859651D01*
X89131044Y-126859650D01*
X88900002Y-126839437D01*
X88899998Y-126839437D01*
X88668955Y-126859650D01*
X88668948Y-126859651D01*
X88444917Y-126919681D01*
X88234718Y-127017699D01*
X88234714Y-127017701D01*
X88044735Y-127150726D01*
X88044729Y-127150731D01*
X87880731Y-127314729D01*
X87880726Y-127314735D01*
X87747701Y-127504714D01*
X87747699Y-127504719D01*
X87673828Y-127663134D01*
X87627655Y-127715573D01*
X87560462Y-127734725D01*
X87493580Y-127714509D01*
X87448246Y-127661343D01*
X87446885Y-127658181D01*
X87352365Y-127429987D01*
X87352363Y-127429984D01*
X87218719Y-127211898D01*
X87218712Y-127211888D01*
X87215465Y-127208087D01*
X87215464Y-127208087D01*
X86577577Y-127845973D01*
X86564641Y-127814742D01*
X86482563Y-127691903D01*
X86378097Y-127587437D01*
X86255258Y-127505359D01*
X86224024Y-127492421D01*
X86861911Y-126854535D01*
X86861911Y-126854533D01*
X86858110Y-126851286D01*
X86858095Y-126851275D01*
X86640015Y-126717636D01*
X86640012Y-126717634D01*
X86403702Y-126619752D01*
X86154988Y-126560042D01*
X86154989Y-126560042D01*
X85900000Y-126539975D01*
X85645010Y-126560042D01*
X85396297Y-126619752D01*
X85159987Y-126717634D01*
X85159984Y-126717636D01*
X84941897Y-126851280D01*
X84938087Y-126854534D01*
X85575975Y-127492421D01*
X85544742Y-127505359D01*
X85421903Y-127587437D01*
X85317437Y-127691903D01*
X85235359Y-127814742D01*
X85222421Y-127845974D01*
X84584534Y-127208087D01*
X84581280Y-127211897D01*
X84447636Y-127429983D01*
X84353114Y-127658182D01*
X84309273Y-127712585D01*
X84242979Y-127734650D01*
X84175280Y-127717371D01*
X84127669Y-127666234D01*
X84126171Y-127663134D01*
X84123862Y-127658182D01*
X84052301Y-127504719D01*
X84052299Y-127504716D01*
X84052298Y-127504714D01*
X83919273Y-127314735D01*
X83919268Y-127314729D01*
X83755269Y-127150730D01*
X83755263Y-127150726D01*
X83565282Y-127017699D01*
X83355079Y-126919680D01*
X83355076Y-126919679D01*
X83355074Y-126919678D01*
X83131051Y-126859651D01*
X83131044Y-126859650D01*
X82900002Y-126839437D01*
X82899998Y-126839437D01*
X82668955Y-126859650D01*
X82668948Y-126859651D01*
X82444917Y-126919681D01*
X82234718Y-127017699D01*
X82234714Y-127017701D01*
X82044735Y-127150726D01*
X82044729Y-127150731D01*
X81880731Y-127314729D01*
X81880726Y-127314735D01*
X81747701Y-127504714D01*
X81747699Y-127504718D01*
X81649681Y-127714917D01*
X81589651Y-127938948D01*
X81589650Y-127938955D01*
X81569437Y-128169998D01*
X62800500Y-128169998D01*
X62800500Y-121520000D01*
X65179353Y-121520000D01*
X65199834Y-121662456D01*
X65254749Y-121782701D01*
X65259623Y-121793373D01*
X65353872Y-121902143D01*
X65474947Y-121979953D01*
X65474950Y-121979954D01*
X65474949Y-121979954D01*
X65582107Y-122011417D01*
X65610406Y-122019727D01*
X65613036Y-122020499D01*
X65613038Y-122020500D01*
X65613039Y-122020500D01*
X65756962Y-122020500D01*
X65756962Y-122020499D01*
X65895053Y-121979953D01*
X65926104Y-121959998D01*
X80709318Y-121959998D01*
X80709318Y-121960001D01*
X80729955Y-122116760D01*
X80729956Y-122116762D01*
X80790464Y-122262841D01*
X80886718Y-122388282D01*
X81012159Y-122484536D01*
X81158238Y-122545044D01*
X81236619Y-122555363D01*
X81314999Y-122565682D01*
X81315000Y-122565682D01*
X81315001Y-122565682D01*
X81367254Y-122558802D01*
X81471762Y-122545044D01*
X81617841Y-122484536D01*
X81743282Y-122388282D01*
X81839536Y-122262841D01*
X81891538Y-122137296D01*
X81935377Y-122082894D01*
X82001671Y-122060829D01*
X82069371Y-122078108D01*
X82116982Y-122129245D01*
X82118892Y-122133238D01*
X82146428Y-122193532D01*
X82164623Y-122233373D01*
X82258872Y-122342143D01*
X82379947Y-122419953D01*
X82379950Y-122419954D01*
X82379949Y-122419954D01*
X82518036Y-122460499D01*
X82518038Y-122460500D01*
X82518039Y-122460500D01*
X82661962Y-122460500D01*
X82661962Y-122460499D01*
X82800053Y-122419953D01*
X82921128Y-122342143D01*
X83015377Y-122233373D01*
X83075165Y-122102457D01*
X83095647Y-121960000D01*
X83075165Y-121817543D01*
X83015377Y-121686627D01*
X82970642Y-121635000D01*
X92494659Y-121635000D01*
X92513975Y-121831129D01*
X92571188Y-122019733D01*
X92664086Y-122193532D01*
X92664090Y-122193539D01*
X92789116Y-122345883D01*
X92941460Y-122470909D01*
X92941467Y-122470913D01*
X93115266Y-122563811D01*
X93115269Y-122563811D01*
X93115273Y-122563814D01*
X93303868Y-122621024D01*
X93500000Y-122640341D01*
X93696132Y-122621024D01*
X93884727Y-122563814D01*
X94058538Y-122470910D01*
X94210883Y-122345883D01*
X94335910Y-122193538D01*
X94428401Y-122020500D01*
X94428811Y-122019733D01*
X94428811Y-122019732D01*
X94428814Y-122019727D01*
X94486024Y-121831132D01*
X94505341Y-121635000D01*
X95880373Y-121635000D01*
X95899689Y-121831129D01*
X95956902Y-122019733D01*
X96049800Y-122193532D01*
X96049804Y-122193539D01*
X96174830Y-122345883D01*
X96327174Y-122470909D01*
X96327181Y-122470913D01*
X96500980Y-122563811D01*
X96500983Y-122563811D01*
X96500987Y-122563814D01*
X96689582Y-122621024D01*
X96885714Y-122640341D01*
X97081846Y-122621024D01*
X97270441Y-122563814D01*
X97444252Y-122470910D01*
X97596597Y-122345883D01*
X97721624Y-122193538D01*
X97814115Y-122020500D01*
X97814525Y-122019733D01*
X97814525Y-122019732D01*
X97814528Y-122019727D01*
X97871738Y-121831132D01*
X97891055Y-121635000D01*
X99266087Y-121635000D01*
X99285403Y-121831129D01*
X99342616Y-122019733D01*
X99435514Y-122193532D01*
X99435518Y-122193539D01*
X99560544Y-122345883D01*
X99712888Y-122470909D01*
X99712895Y-122470913D01*
X99886694Y-122563811D01*
X99886697Y-122563811D01*
X99886701Y-122563814D01*
X100075296Y-122621024D01*
X100271428Y-122640341D01*
X100467560Y-122621024D01*
X100656155Y-122563814D01*
X100829966Y-122470910D01*
X100982311Y-122345883D01*
X101107338Y-122193538D01*
X101199829Y-122020500D01*
X101200239Y-122019733D01*
X101200239Y-122019732D01*
X101200242Y-122019727D01*
X101257452Y-121831132D01*
X101276769Y-121635000D01*
X102651801Y-121635000D01*
X102671117Y-121831129D01*
X102728330Y-122019733D01*
X102821228Y-122193532D01*
X102821232Y-122193539D01*
X102946258Y-122345883D01*
X103098602Y-122470909D01*
X103098609Y-122470913D01*
X103272408Y-122563811D01*
X103272411Y-122563811D01*
X103272415Y-122563814D01*
X103461010Y-122621024D01*
X103657142Y-122640341D01*
X103853274Y-122621024D01*
X104041869Y-122563814D01*
X104215680Y-122470910D01*
X104368025Y-122345883D01*
X104493052Y-122193538D01*
X104585543Y-122020500D01*
X104585953Y-122019733D01*
X104585953Y-122019732D01*
X104585956Y-122019727D01*
X104643166Y-121831132D01*
X104662483Y-121635000D01*
X106037515Y-121635000D01*
X106056831Y-121831129D01*
X106114044Y-122019733D01*
X106206942Y-122193532D01*
X106206946Y-122193539D01*
X106331972Y-122345883D01*
X106484316Y-122470909D01*
X106484323Y-122470913D01*
X106658122Y-122563811D01*
X106658125Y-122563811D01*
X106658129Y-122563814D01*
X106846724Y-122621024D01*
X107042856Y-122640341D01*
X107238988Y-122621024D01*
X107427583Y-122563814D01*
X107601394Y-122470910D01*
X107753739Y-122345883D01*
X107878766Y-122193538D01*
X107971257Y-122020500D01*
X107971667Y-122019733D01*
X107971667Y-122019732D01*
X107971670Y-122019727D01*
X108028880Y-121831132D01*
X108048197Y-121635000D01*
X109423229Y-121635000D01*
X109442545Y-121831129D01*
X109499758Y-122019733D01*
X109592656Y-122193532D01*
X109592660Y-122193539D01*
X109717686Y-122345883D01*
X109870030Y-122470909D01*
X109870037Y-122470913D01*
X110043836Y-122563811D01*
X110043839Y-122563811D01*
X110043843Y-122563814D01*
X110232438Y-122621024D01*
X110428570Y-122640341D01*
X110624702Y-122621024D01*
X110813297Y-122563814D01*
X110987108Y-122470910D01*
X111139453Y-122345883D01*
X111264480Y-122193538D01*
X111356971Y-122020500D01*
X111357381Y-122019733D01*
X111357381Y-122019732D01*
X111357384Y-122019727D01*
X111414594Y-121831132D01*
X111433911Y-121635000D01*
X112808943Y-121635000D01*
X112828259Y-121831129D01*
X112885472Y-122019733D01*
X112978370Y-122193532D01*
X112978374Y-122193539D01*
X113103400Y-122345883D01*
X113255744Y-122470909D01*
X113255751Y-122470913D01*
X113429550Y-122563811D01*
X113429553Y-122563811D01*
X113429557Y-122563814D01*
X113618152Y-122621024D01*
X113814284Y-122640341D01*
X114010416Y-122621024D01*
X114199011Y-122563814D01*
X114372822Y-122470910D01*
X114525167Y-122345883D01*
X114650194Y-122193538D01*
X114742685Y-122020500D01*
X114743095Y-122019733D01*
X114743095Y-122019732D01*
X114743098Y-122019727D01*
X114800308Y-121831132D01*
X114819625Y-121635000D01*
X116194659Y-121635000D01*
X116213975Y-121831129D01*
X116271188Y-122019733D01*
X116364086Y-122193532D01*
X116364090Y-122193539D01*
X116489116Y-122345883D01*
X116641460Y-122470909D01*
X116641467Y-122470913D01*
X116815266Y-122563811D01*
X116815269Y-122563811D01*
X116815273Y-122563814D01*
X117003868Y-122621024D01*
X117200000Y-122640341D01*
X117396132Y-122621024D01*
X117584727Y-122563814D01*
X117758538Y-122470910D01*
X117910883Y-122345883D01*
X118035910Y-122193538D01*
X118128401Y-122020500D01*
X118128811Y-122019733D01*
X118128811Y-122019732D01*
X118128814Y-122019727D01*
X118186024Y-121831132D01*
X118205341Y-121635000D01*
X118186024Y-121438868D01*
X118128814Y-121250273D01*
X118128811Y-121250269D01*
X118128811Y-121250266D01*
X118035913Y-121076467D01*
X118035909Y-121076460D01*
X117910883Y-120924116D01*
X117758539Y-120799090D01*
X117758532Y-120799086D01*
X117584733Y-120706188D01*
X117584727Y-120706186D01*
X117396132Y-120648976D01*
X117396129Y-120648975D01*
X117200000Y-120629659D01*
X117003870Y-120648975D01*
X116815266Y-120706188D01*
X116641467Y-120799086D01*
X116641460Y-120799090D01*
X116489116Y-120924116D01*
X116364090Y-121076460D01*
X116364086Y-121076467D01*
X116271188Y-121250266D01*
X116213975Y-121438870D01*
X116194659Y-121635000D01*
X114819625Y-121635000D01*
X114800308Y-121438868D01*
X114743098Y-121250273D01*
X114743095Y-121250269D01*
X114743095Y-121250266D01*
X114650197Y-121076467D01*
X114650193Y-121076460D01*
X114525167Y-120924116D01*
X114372823Y-120799090D01*
X114372816Y-120799086D01*
X114199017Y-120706188D01*
X114199011Y-120706186D01*
X114010416Y-120648976D01*
X114010413Y-120648975D01*
X113814284Y-120629659D01*
X113618154Y-120648975D01*
X113429550Y-120706188D01*
X113255751Y-120799086D01*
X113255744Y-120799090D01*
X113103400Y-120924116D01*
X112978374Y-121076460D01*
X112978370Y-121076467D01*
X112885472Y-121250266D01*
X112828259Y-121438870D01*
X112808943Y-121635000D01*
X111433911Y-121635000D01*
X111414594Y-121438868D01*
X111357384Y-121250273D01*
X111357381Y-121250269D01*
X111357381Y-121250266D01*
X111264483Y-121076467D01*
X111264479Y-121076460D01*
X111139453Y-120924116D01*
X110987109Y-120799090D01*
X110987102Y-120799086D01*
X110813303Y-120706188D01*
X110813297Y-120706186D01*
X110624702Y-120648976D01*
X110624699Y-120648975D01*
X110428570Y-120629659D01*
X110232440Y-120648975D01*
X110043836Y-120706188D01*
X109870037Y-120799086D01*
X109870030Y-120799090D01*
X109717686Y-120924116D01*
X109592660Y-121076460D01*
X109592656Y-121076467D01*
X109499758Y-121250266D01*
X109442545Y-121438870D01*
X109423229Y-121635000D01*
X108048197Y-121635000D01*
X108028880Y-121438868D01*
X107971670Y-121250273D01*
X107971667Y-121250269D01*
X107971667Y-121250266D01*
X107878769Y-121076467D01*
X107878765Y-121076460D01*
X107753739Y-120924116D01*
X107601395Y-120799090D01*
X107601388Y-120799086D01*
X107427589Y-120706188D01*
X107427583Y-120706186D01*
X107238988Y-120648976D01*
X107238985Y-120648975D01*
X107042856Y-120629659D01*
X106846726Y-120648975D01*
X106658122Y-120706188D01*
X106484323Y-120799086D01*
X106484316Y-120799090D01*
X106331972Y-120924116D01*
X106206946Y-121076460D01*
X106206942Y-121076467D01*
X106114044Y-121250266D01*
X106056831Y-121438870D01*
X106037515Y-121635000D01*
X104662483Y-121635000D01*
X104643166Y-121438868D01*
X104585956Y-121250273D01*
X104585953Y-121250269D01*
X104585953Y-121250266D01*
X104493055Y-121076467D01*
X104493051Y-121076460D01*
X104368025Y-120924116D01*
X104215681Y-120799090D01*
X104215674Y-120799086D01*
X104041875Y-120706188D01*
X104041869Y-120706186D01*
X103853274Y-120648976D01*
X103853271Y-120648975D01*
X103657142Y-120629659D01*
X103461012Y-120648975D01*
X103272408Y-120706188D01*
X103098609Y-120799086D01*
X103098602Y-120799090D01*
X102946258Y-120924116D01*
X102821232Y-121076460D01*
X102821228Y-121076467D01*
X102728330Y-121250266D01*
X102671117Y-121438870D01*
X102651801Y-121635000D01*
X101276769Y-121635000D01*
X101257452Y-121438868D01*
X101200242Y-121250273D01*
X101200239Y-121250269D01*
X101200239Y-121250266D01*
X101107341Y-121076467D01*
X101107337Y-121076460D01*
X100982311Y-120924116D01*
X100829967Y-120799090D01*
X100829960Y-120799086D01*
X100656161Y-120706188D01*
X100656155Y-120706186D01*
X100467560Y-120648976D01*
X100467557Y-120648975D01*
X100271428Y-120629659D01*
X100075298Y-120648975D01*
X99886694Y-120706188D01*
X99712895Y-120799086D01*
X99712888Y-120799090D01*
X99560544Y-120924116D01*
X99435518Y-121076460D01*
X99435514Y-121076467D01*
X99342616Y-121250266D01*
X99285403Y-121438870D01*
X99266087Y-121635000D01*
X97891055Y-121635000D01*
X97871738Y-121438868D01*
X97814528Y-121250273D01*
X97814525Y-121250269D01*
X97814525Y-121250266D01*
X97721627Y-121076467D01*
X97721623Y-121076460D01*
X97596597Y-120924116D01*
X97444253Y-120799090D01*
X97444246Y-120799086D01*
X97270447Y-120706188D01*
X97270441Y-120706186D01*
X97081846Y-120648976D01*
X97081843Y-120648975D01*
X96885714Y-120629659D01*
X96689584Y-120648975D01*
X96500980Y-120706188D01*
X96327181Y-120799086D01*
X96327174Y-120799090D01*
X96174830Y-120924116D01*
X96049804Y-121076460D01*
X96049800Y-121076467D01*
X95956902Y-121250266D01*
X95899689Y-121438870D01*
X95880373Y-121635000D01*
X94505341Y-121635000D01*
X94486024Y-121438868D01*
X94428814Y-121250273D01*
X94428811Y-121250269D01*
X94428811Y-121250266D01*
X94335913Y-121076467D01*
X94335909Y-121076460D01*
X94210883Y-120924116D01*
X94058539Y-120799090D01*
X94058532Y-120799086D01*
X93884733Y-120706188D01*
X93884727Y-120706186D01*
X93696132Y-120648976D01*
X93696129Y-120648975D01*
X93500000Y-120629659D01*
X93303870Y-120648975D01*
X93115266Y-120706188D01*
X92941467Y-120799086D01*
X92941460Y-120799090D01*
X92789116Y-120924116D01*
X92664090Y-121076460D01*
X92664086Y-121076467D01*
X92571188Y-121250266D01*
X92513975Y-121438870D01*
X92494659Y-121635000D01*
X82970642Y-121635000D01*
X82921128Y-121577857D01*
X82800053Y-121500047D01*
X82800051Y-121500046D01*
X82800049Y-121500045D01*
X82800050Y-121500045D01*
X82661963Y-121459500D01*
X82661961Y-121459500D01*
X82518039Y-121459500D01*
X82518036Y-121459500D01*
X82379949Y-121500045D01*
X82258873Y-121577856D01*
X82164623Y-121686626D01*
X82118892Y-121786762D01*
X82073136Y-121839565D01*
X82006097Y-121859249D01*
X81939058Y-121839564D01*
X81893303Y-121786759D01*
X81891537Y-121782701D01*
X81839537Y-121657161D01*
X81839536Y-121657160D01*
X81839536Y-121657159D01*
X81743282Y-121531718D01*
X81617841Y-121435464D01*
X81471762Y-121374956D01*
X81471760Y-121374955D01*
X81315001Y-121354318D01*
X81314999Y-121354318D01*
X81158239Y-121374955D01*
X81158237Y-121374956D01*
X81012160Y-121435463D01*
X80886718Y-121531718D01*
X80790463Y-121657160D01*
X80729956Y-121803237D01*
X80729955Y-121803239D01*
X80709318Y-121959998D01*
X65926104Y-121959998D01*
X66016128Y-121902143D01*
X66110377Y-121793373D01*
X66170165Y-121662457D01*
X66190647Y-121520000D01*
X66170165Y-121377543D01*
X66110377Y-121246627D01*
X66016128Y-121137857D01*
X65895053Y-121060047D01*
X65895051Y-121060046D01*
X65895049Y-121060045D01*
X65895050Y-121060045D01*
X65756963Y-121019500D01*
X65756961Y-121019500D01*
X65613039Y-121019500D01*
X65613036Y-121019500D01*
X65474949Y-121060045D01*
X65353873Y-121137856D01*
X65259623Y-121246626D01*
X65259622Y-121246628D01*
X65199834Y-121377543D01*
X65179353Y-121520000D01*
X62800500Y-121520000D01*
X62800500Y-120985000D01*
X87734353Y-120985000D01*
X87754834Y-121127456D01*
X87809258Y-121246626D01*
X87814623Y-121258373D01*
X87908872Y-121367143D01*
X88029947Y-121444953D01*
X88029950Y-121444954D01*
X88029949Y-121444954D01*
X88168036Y-121485499D01*
X88168038Y-121485500D01*
X88168039Y-121485500D01*
X88311962Y-121485500D01*
X88311962Y-121485499D01*
X88450053Y-121444953D01*
X88571128Y-121367143D01*
X88665377Y-121258373D01*
X88725165Y-121127457D01*
X88745647Y-120985000D01*
X88725165Y-120842543D01*
X88665377Y-120711627D01*
X88571128Y-120602857D01*
X88450053Y-120525047D01*
X88450051Y-120525046D01*
X88450049Y-120525045D01*
X88450050Y-120525045D01*
X88311963Y-120484500D01*
X88311961Y-120484500D01*
X88168039Y-120484500D01*
X88168036Y-120484500D01*
X88029949Y-120525045D01*
X87908873Y-120602856D01*
X87814623Y-120711626D01*
X87814622Y-120711628D01*
X87754834Y-120842543D01*
X87734353Y-120985000D01*
X62800500Y-120985000D01*
X62800500Y-111475000D01*
X92494659Y-111475000D01*
X92513975Y-111671129D01*
X92571188Y-111859733D01*
X92664086Y-112033532D01*
X92664090Y-112033539D01*
X92789116Y-112185883D01*
X92941460Y-112310909D01*
X92941467Y-112310913D01*
X93115266Y-112403811D01*
X93115269Y-112403811D01*
X93115273Y-112403814D01*
X93303868Y-112461024D01*
X93500000Y-112480341D01*
X93696132Y-112461024D01*
X93884727Y-112403814D01*
X94058538Y-112310910D01*
X94210883Y-112185883D01*
X94335910Y-112033538D01*
X94428814Y-111859727D01*
X94486024Y-111671132D01*
X94505341Y-111475000D01*
X95880373Y-111475000D01*
X95899689Y-111671129D01*
X95956902Y-111859733D01*
X96049800Y-112033532D01*
X96049804Y-112033539D01*
X96174830Y-112185883D01*
X96327174Y-112310909D01*
X96327181Y-112310913D01*
X96500980Y-112403811D01*
X96500983Y-112403811D01*
X96500987Y-112403814D01*
X96689582Y-112461024D01*
X96885714Y-112480341D01*
X97081846Y-112461024D01*
X97270441Y-112403814D01*
X97444252Y-112310910D01*
X97596597Y-112185883D01*
X97721624Y-112033538D01*
X97814528Y-111859727D01*
X97871738Y-111671132D01*
X97891055Y-111475000D01*
X99266087Y-111475000D01*
X99285403Y-111671129D01*
X99342616Y-111859733D01*
X99435514Y-112033532D01*
X99435518Y-112033539D01*
X99560544Y-112185883D01*
X99712888Y-112310909D01*
X99712895Y-112310913D01*
X99886694Y-112403811D01*
X99886697Y-112403811D01*
X99886701Y-112403814D01*
X100075296Y-112461024D01*
X100271428Y-112480341D01*
X100467560Y-112461024D01*
X100656155Y-112403814D01*
X100829966Y-112310910D01*
X100982311Y-112185883D01*
X101107338Y-112033538D01*
X101200242Y-111859727D01*
X101257452Y-111671132D01*
X101276769Y-111475000D01*
X102651801Y-111475000D01*
X102671117Y-111671129D01*
X102728330Y-111859733D01*
X102821228Y-112033532D01*
X102821232Y-112033539D01*
X102946258Y-112185883D01*
X103098602Y-112310909D01*
X103098609Y-112310913D01*
X103272408Y-112403811D01*
X103272411Y-112403811D01*
X103272415Y-112403814D01*
X103461010Y-112461024D01*
X103657142Y-112480341D01*
X103853274Y-112461024D01*
X104041869Y-112403814D01*
X104215680Y-112310910D01*
X104368025Y-112185883D01*
X104493052Y-112033538D01*
X104585956Y-111859727D01*
X104643166Y-111671132D01*
X104662483Y-111475000D01*
X106037515Y-111475000D01*
X106056831Y-111671129D01*
X106114044Y-111859733D01*
X106206942Y-112033532D01*
X106206946Y-112033539D01*
X106331972Y-112185883D01*
X106484316Y-112310909D01*
X106484323Y-112310913D01*
X106658122Y-112403811D01*
X106658125Y-112403811D01*
X106658129Y-112403814D01*
X106846724Y-112461024D01*
X107042856Y-112480341D01*
X107238988Y-112461024D01*
X107427583Y-112403814D01*
X107601394Y-112310910D01*
X107753739Y-112185883D01*
X107878766Y-112033538D01*
X107971670Y-111859727D01*
X108028880Y-111671132D01*
X108048197Y-111475000D01*
X109423229Y-111475000D01*
X109442545Y-111671129D01*
X109499758Y-111859733D01*
X109592656Y-112033532D01*
X109592660Y-112033539D01*
X109717686Y-112185883D01*
X109870030Y-112310909D01*
X109870037Y-112310913D01*
X110043836Y-112403811D01*
X110043839Y-112403811D01*
X110043843Y-112403814D01*
X110232438Y-112461024D01*
X110428570Y-112480341D01*
X110624702Y-112461024D01*
X110813297Y-112403814D01*
X110987108Y-112310910D01*
X111139453Y-112185883D01*
X111264480Y-112033538D01*
X111357384Y-111859727D01*
X111414594Y-111671132D01*
X111433911Y-111475000D01*
X112808943Y-111475000D01*
X112828259Y-111671129D01*
X112885472Y-111859733D01*
X112978370Y-112033532D01*
X112978374Y-112033539D01*
X113103400Y-112185883D01*
X113255744Y-112310909D01*
X113255751Y-112310913D01*
X113429550Y-112403811D01*
X113429553Y-112403811D01*
X113429557Y-112403814D01*
X113618152Y-112461024D01*
X113814284Y-112480341D01*
X114010416Y-112461024D01*
X114199011Y-112403814D01*
X114372822Y-112310910D01*
X114525167Y-112185883D01*
X114650194Y-112033538D01*
X114743098Y-111859727D01*
X114800308Y-111671132D01*
X114819625Y-111475000D01*
X116194659Y-111475000D01*
X116213975Y-111671129D01*
X116271188Y-111859733D01*
X116364086Y-112033532D01*
X116364090Y-112033539D01*
X116489116Y-112185883D01*
X116641460Y-112310909D01*
X116641467Y-112310913D01*
X116815266Y-112403811D01*
X116815269Y-112403811D01*
X116815273Y-112403814D01*
X117003868Y-112461024D01*
X117200000Y-112480341D01*
X117396132Y-112461024D01*
X117584727Y-112403814D01*
X117758538Y-112310910D01*
X117910883Y-112185883D01*
X118035910Y-112033538D01*
X118128814Y-111859727D01*
X118186024Y-111671132D01*
X118205341Y-111475000D01*
X118186024Y-111278868D01*
X118128814Y-111090273D01*
X118128811Y-111090269D01*
X118128811Y-111090266D01*
X118035913Y-110916467D01*
X118035909Y-110916460D01*
X117910883Y-110764116D01*
X117758539Y-110639090D01*
X117758532Y-110639086D01*
X117584733Y-110546188D01*
X117584727Y-110546186D01*
X117396132Y-110488976D01*
X117396129Y-110488975D01*
X117200000Y-110469659D01*
X117003870Y-110488975D01*
X116815266Y-110546188D01*
X116641467Y-110639086D01*
X116641460Y-110639090D01*
X116489116Y-110764116D01*
X116364090Y-110916460D01*
X116364086Y-110916467D01*
X116271188Y-111090266D01*
X116213975Y-111278870D01*
X116194659Y-111475000D01*
X114819625Y-111475000D01*
X114800308Y-111278868D01*
X114743098Y-111090273D01*
X114743095Y-111090269D01*
X114743095Y-111090266D01*
X114650197Y-110916467D01*
X114650193Y-110916460D01*
X114525167Y-110764116D01*
X114372823Y-110639090D01*
X114372816Y-110639086D01*
X114199017Y-110546188D01*
X114199011Y-110546186D01*
X114010416Y-110488976D01*
X114010413Y-110488975D01*
X113814284Y-110469659D01*
X113618154Y-110488975D01*
X113429550Y-110546188D01*
X113255751Y-110639086D01*
X113255744Y-110639090D01*
X113103400Y-110764116D01*
X112978374Y-110916460D01*
X112978370Y-110916467D01*
X112885472Y-111090266D01*
X112828259Y-111278870D01*
X112808943Y-111475000D01*
X111433911Y-111475000D01*
X111414594Y-111278868D01*
X111357384Y-111090273D01*
X111357381Y-111090269D01*
X111357381Y-111090266D01*
X111264483Y-110916467D01*
X111264479Y-110916460D01*
X111139453Y-110764116D01*
X110987109Y-110639090D01*
X110987102Y-110639086D01*
X110813303Y-110546188D01*
X110813297Y-110546186D01*
X110624702Y-110488976D01*
X110624699Y-110488975D01*
X110428570Y-110469659D01*
X110232440Y-110488975D01*
X110043836Y-110546188D01*
X109870037Y-110639086D01*
X109870030Y-110639090D01*
X109717686Y-110764116D01*
X109592660Y-110916460D01*
X109592656Y-110916467D01*
X109499758Y-111090266D01*
X109442545Y-111278870D01*
X109423229Y-111475000D01*
X108048197Y-111475000D01*
X108028880Y-111278868D01*
X107971670Y-111090273D01*
X107971667Y-111090269D01*
X107971667Y-111090266D01*
X107878769Y-110916467D01*
X107878765Y-110916460D01*
X107753739Y-110764116D01*
X107601395Y-110639090D01*
X107601388Y-110639086D01*
X107427589Y-110546188D01*
X107427583Y-110546186D01*
X107238988Y-110488976D01*
X107238985Y-110488975D01*
X107042856Y-110469659D01*
X106846726Y-110488975D01*
X106658122Y-110546188D01*
X106484323Y-110639086D01*
X106484316Y-110639090D01*
X106331972Y-110764116D01*
X106206946Y-110916460D01*
X106206942Y-110916467D01*
X106114044Y-111090266D01*
X106056831Y-111278870D01*
X106037515Y-111475000D01*
X104662483Y-111475000D01*
X104643166Y-111278868D01*
X104585956Y-111090273D01*
X104585953Y-111090269D01*
X104585953Y-111090266D01*
X104493055Y-110916467D01*
X104493051Y-110916460D01*
X104368025Y-110764116D01*
X104215681Y-110639090D01*
X104215674Y-110639086D01*
X104041875Y-110546188D01*
X104041869Y-110546186D01*
X103853274Y-110488976D01*
X103853271Y-110488975D01*
X103657142Y-110469659D01*
X103461012Y-110488975D01*
X103272408Y-110546188D01*
X103098609Y-110639086D01*
X103098602Y-110639090D01*
X102946258Y-110764116D01*
X102821232Y-110916460D01*
X102821228Y-110916467D01*
X102728330Y-111090266D01*
X102671117Y-111278870D01*
X102651801Y-111475000D01*
X101276769Y-111475000D01*
X101257452Y-111278868D01*
X101200242Y-111090273D01*
X101200239Y-111090269D01*
X101200239Y-111090266D01*
X101107341Y-110916467D01*
X101107337Y-110916460D01*
X100982311Y-110764116D01*
X100829967Y-110639090D01*
X100829960Y-110639086D01*
X100656161Y-110546188D01*
X100656155Y-110546186D01*
X100467560Y-110488976D01*
X100467557Y-110488975D01*
X100271428Y-110469659D01*
X100075298Y-110488975D01*
X99886694Y-110546188D01*
X99712895Y-110639086D01*
X99712888Y-110639090D01*
X99560544Y-110764116D01*
X99435518Y-110916460D01*
X99435514Y-110916467D01*
X99342616Y-111090266D01*
X99285403Y-111278870D01*
X99266087Y-111475000D01*
X97891055Y-111475000D01*
X97871738Y-111278868D01*
X97814528Y-111090273D01*
X97814525Y-111090269D01*
X97814525Y-111090266D01*
X97721627Y-110916467D01*
X97721623Y-110916460D01*
X97596597Y-110764116D01*
X97444253Y-110639090D01*
X97444246Y-110639086D01*
X97270447Y-110546188D01*
X97270441Y-110546186D01*
X97081846Y-110488976D01*
X97081843Y-110488975D01*
X96885714Y-110469659D01*
X96689584Y-110488975D01*
X96500980Y-110546188D01*
X96327181Y-110639086D01*
X96327174Y-110639090D01*
X96174830Y-110764116D01*
X96049804Y-110916460D01*
X96049800Y-110916467D01*
X95956902Y-111090266D01*
X95899689Y-111278870D01*
X95880373Y-111475000D01*
X94505341Y-111475000D01*
X94486024Y-111278868D01*
X94428814Y-111090273D01*
X94428811Y-111090269D01*
X94428811Y-111090266D01*
X94335913Y-110916467D01*
X94335909Y-110916460D01*
X94210883Y-110764116D01*
X94058539Y-110639090D01*
X94058532Y-110639086D01*
X93884733Y-110546188D01*
X93884727Y-110546186D01*
X93696132Y-110488976D01*
X93696129Y-110488975D01*
X93500000Y-110469659D01*
X93303870Y-110488975D01*
X93115266Y-110546188D01*
X92941467Y-110639086D01*
X92941460Y-110639090D01*
X92789116Y-110764116D01*
X92664090Y-110916460D01*
X92664086Y-110916467D01*
X92571188Y-111090266D01*
X92513975Y-111278870D01*
X92494659Y-111475000D01*
X62800500Y-111475000D01*
X62800500Y-108350000D01*
X78994353Y-108350000D01*
X79014834Y-108492456D01*
X79029697Y-108525000D01*
X79074623Y-108623373D01*
X79168872Y-108732143D01*
X79289947Y-108809953D01*
X79289950Y-108809954D01*
X79289949Y-108809954D01*
X79428036Y-108850499D01*
X79428038Y-108850500D01*
X79428039Y-108850500D01*
X79571962Y-108850500D01*
X79571962Y-108850499D01*
X79710053Y-108809953D01*
X79831128Y-108732143D01*
X79925377Y-108623373D01*
X79970303Y-108525000D01*
X92494659Y-108525000D01*
X92513975Y-108721129D01*
X92571188Y-108909733D01*
X92664086Y-109083532D01*
X92664090Y-109083539D01*
X92789116Y-109235883D01*
X92941460Y-109360909D01*
X92941467Y-109360913D01*
X93115266Y-109453811D01*
X93115269Y-109453811D01*
X93115273Y-109453814D01*
X93303868Y-109511024D01*
X93500000Y-109530341D01*
X93696132Y-109511024D01*
X93884727Y-109453814D01*
X94058538Y-109360910D01*
X94210883Y-109235883D01*
X94335910Y-109083538D01*
X94428814Y-108909727D01*
X94486024Y-108721132D01*
X94505341Y-108525000D01*
X95880373Y-108525000D01*
X95899689Y-108721129D01*
X95956902Y-108909733D01*
X96049800Y-109083532D01*
X96049804Y-109083539D01*
X96174830Y-109235883D01*
X96327174Y-109360909D01*
X96327181Y-109360913D01*
X96500980Y-109453811D01*
X96500983Y-109453811D01*
X96500987Y-109453814D01*
X96689582Y-109511024D01*
X96885714Y-109530341D01*
X97081846Y-109511024D01*
X97270441Y-109453814D01*
X97444252Y-109360910D01*
X97596597Y-109235883D01*
X97721624Y-109083538D01*
X97814528Y-108909727D01*
X97871738Y-108721132D01*
X97891055Y-108525000D01*
X99266087Y-108525000D01*
X99285403Y-108721129D01*
X99342616Y-108909733D01*
X99435514Y-109083532D01*
X99435518Y-109083539D01*
X99560544Y-109235883D01*
X99712888Y-109360909D01*
X99712895Y-109360913D01*
X99886694Y-109453811D01*
X99886697Y-109453811D01*
X99886701Y-109453814D01*
X100075296Y-109511024D01*
X100271428Y-109530341D01*
X100467560Y-109511024D01*
X100656155Y-109453814D01*
X100829966Y-109360910D01*
X100982311Y-109235883D01*
X101107338Y-109083538D01*
X101200242Y-108909727D01*
X101257452Y-108721132D01*
X101276769Y-108525000D01*
X102635659Y-108525000D01*
X102654975Y-108721129D01*
X102712188Y-108909733D01*
X102805086Y-109083532D01*
X102805090Y-109083539D01*
X102930116Y-109235883D01*
X103082460Y-109360909D01*
X103082467Y-109360913D01*
X103256266Y-109453811D01*
X103256269Y-109453811D01*
X103256273Y-109453814D01*
X103444868Y-109511024D01*
X103641000Y-109530341D01*
X103837132Y-109511024D01*
X104025727Y-109453814D01*
X104199538Y-109360910D01*
X104351883Y-109235883D01*
X104476910Y-109083538D01*
X104569814Y-108909727D01*
X104627024Y-108721132D01*
X104646341Y-108525000D01*
X106037515Y-108525000D01*
X106056831Y-108721129D01*
X106114044Y-108909733D01*
X106206942Y-109083532D01*
X106206946Y-109083539D01*
X106331972Y-109235883D01*
X106484316Y-109360909D01*
X106484323Y-109360913D01*
X106658122Y-109453811D01*
X106658125Y-109453811D01*
X106658129Y-109453814D01*
X106846724Y-109511024D01*
X107042856Y-109530341D01*
X107238988Y-109511024D01*
X107427583Y-109453814D01*
X107601394Y-109360910D01*
X107753739Y-109235883D01*
X107878766Y-109083538D01*
X107971670Y-108909727D01*
X108028880Y-108721132D01*
X108048197Y-108525000D01*
X109423229Y-108525000D01*
X109442545Y-108721129D01*
X109499758Y-108909733D01*
X109592656Y-109083532D01*
X109592660Y-109083539D01*
X109717686Y-109235883D01*
X109870030Y-109360909D01*
X109870037Y-109360913D01*
X110043836Y-109453811D01*
X110043839Y-109453811D01*
X110043843Y-109453814D01*
X110232438Y-109511024D01*
X110428570Y-109530341D01*
X110624702Y-109511024D01*
X110813297Y-109453814D01*
X110987108Y-109360910D01*
X111139453Y-109235883D01*
X111264480Y-109083538D01*
X111357384Y-108909727D01*
X111414594Y-108721132D01*
X111433911Y-108525000D01*
X112808943Y-108525000D01*
X112828259Y-108721129D01*
X112885472Y-108909733D01*
X112978370Y-109083532D01*
X112978374Y-109083539D01*
X113103400Y-109235883D01*
X113255744Y-109360909D01*
X113255751Y-109360913D01*
X113429550Y-109453811D01*
X113429553Y-109453811D01*
X113429557Y-109453814D01*
X113618152Y-109511024D01*
X113814284Y-109530341D01*
X114010416Y-109511024D01*
X114199011Y-109453814D01*
X114372822Y-109360910D01*
X114525167Y-109235883D01*
X114650194Y-109083538D01*
X114743098Y-108909727D01*
X114800308Y-108721132D01*
X114819625Y-108525000D01*
X116194659Y-108525000D01*
X116213975Y-108721129D01*
X116271188Y-108909733D01*
X116364086Y-109083532D01*
X116364090Y-109083539D01*
X116489116Y-109235883D01*
X116641460Y-109360909D01*
X116641467Y-109360913D01*
X116815266Y-109453811D01*
X116815269Y-109453811D01*
X116815273Y-109453814D01*
X117003868Y-109511024D01*
X117200000Y-109530341D01*
X117396132Y-109511024D01*
X117584727Y-109453814D01*
X117758538Y-109360910D01*
X117910883Y-109235883D01*
X118035910Y-109083538D01*
X118128814Y-108909727D01*
X118186024Y-108721132D01*
X118205341Y-108525000D01*
X118186024Y-108328868D01*
X118128814Y-108140273D01*
X118128811Y-108140269D01*
X118128811Y-108140266D01*
X118035913Y-107966467D01*
X118035909Y-107966460D01*
X117910883Y-107814116D01*
X117758539Y-107689090D01*
X117758532Y-107689086D01*
X117584733Y-107596188D01*
X117584727Y-107596186D01*
X117396132Y-107538976D01*
X117396129Y-107538975D01*
X117200000Y-107519659D01*
X117003870Y-107538975D01*
X116815266Y-107596188D01*
X116641467Y-107689086D01*
X116641460Y-107689090D01*
X116489116Y-107814116D01*
X116364090Y-107966460D01*
X116364086Y-107966467D01*
X116271188Y-108140266D01*
X116213975Y-108328870D01*
X116194659Y-108525000D01*
X114819625Y-108525000D01*
X114800308Y-108328868D01*
X114743098Y-108140273D01*
X114743095Y-108140269D01*
X114743095Y-108140266D01*
X114650197Y-107966467D01*
X114650193Y-107966460D01*
X114525167Y-107814116D01*
X114372823Y-107689090D01*
X114372816Y-107689086D01*
X114199017Y-107596188D01*
X114199011Y-107596186D01*
X114010416Y-107538976D01*
X114010413Y-107538975D01*
X113814284Y-107519659D01*
X113618154Y-107538975D01*
X113429550Y-107596188D01*
X113255751Y-107689086D01*
X113255744Y-107689090D01*
X113103400Y-107814116D01*
X112978374Y-107966460D01*
X112978370Y-107966467D01*
X112885472Y-108140266D01*
X112828259Y-108328870D01*
X112808943Y-108525000D01*
X111433911Y-108525000D01*
X111414594Y-108328868D01*
X111357384Y-108140273D01*
X111357381Y-108140269D01*
X111357381Y-108140266D01*
X111264483Y-107966467D01*
X111264479Y-107966460D01*
X111139453Y-107814116D01*
X110987109Y-107689090D01*
X110987102Y-107689086D01*
X110813303Y-107596188D01*
X110813297Y-107596186D01*
X110624702Y-107538976D01*
X110624699Y-107538975D01*
X110428570Y-107519659D01*
X110232440Y-107538975D01*
X110043836Y-107596188D01*
X109870037Y-107689086D01*
X109870030Y-107689090D01*
X109717686Y-107814116D01*
X109592660Y-107966460D01*
X109592656Y-107966467D01*
X109499758Y-108140266D01*
X109442545Y-108328870D01*
X109423229Y-108525000D01*
X108048197Y-108525000D01*
X108028880Y-108328868D01*
X107971670Y-108140273D01*
X107971667Y-108140269D01*
X107971667Y-108140266D01*
X107878769Y-107966467D01*
X107878765Y-107966460D01*
X107753739Y-107814116D01*
X107601395Y-107689090D01*
X107601388Y-107689086D01*
X107427589Y-107596188D01*
X107427583Y-107596186D01*
X107238988Y-107538976D01*
X107238985Y-107538975D01*
X107042856Y-107519659D01*
X106846726Y-107538975D01*
X106658122Y-107596188D01*
X106484323Y-107689086D01*
X106484316Y-107689090D01*
X106331972Y-107814116D01*
X106206946Y-107966460D01*
X106206942Y-107966467D01*
X106114044Y-108140266D01*
X106056831Y-108328870D01*
X106037515Y-108525000D01*
X104646341Y-108525000D01*
X104627024Y-108328868D01*
X104569814Y-108140273D01*
X104569811Y-108140269D01*
X104569811Y-108140266D01*
X104476913Y-107966467D01*
X104476909Y-107966460D01*
X104351883Y-107814116D01*
X104199539Y-107689090D01*
X104199532Y-107689086D01*
X104025733Y-107596188D01*
X104025727Y-107596186D01*
X103837132Y-107538976D01*
X103837129Y-107538975D01*
X103641000Y-107519659D01*
X103444870Y-107538975D01*
X103256266Y-107596188D01*
X103082467Y-107689086D01*
X103082460Y-107689090D01*
X102930116Y-107814116D01*
X102805090Y-107966460D01*
X102805086Y-107966467D01*
X102712188Y-108140266D01*
X102654975Y-108328870D01*
X102635659Y-108525000D01*
X101276769Y-108525000D01*
X101257452Y-108328868D01*
X101200242Y-108140273D01*
X101200239Y-108140269D01*
X101200239Y-108140266D01*
X101107341Y-107966467D01*
X101107337Y-107966460D01*
X100982311Y-107814116D01*
X100829967Y-107689090D01*
X100829960Y-107689086D01*
X100656161Y-107596188D01*
X100656155Y-107596186D01*
X100467560Y-107538976D01*
X100467557Y-107538975D01*
X100271428Y-107519659D01*
X100075298Y-107538975D01*
X99886694Y-107596188D01*
X99712895Y-107689086D01*
X99712888Y-107689090D01*
X99560544Y-107814116D01*
X99435518Y-107966460D01*
X99435514Y-107966467D01*
X99342616Y-108140266D01*
X99285403Y-108328870D01*
X99266087Y-108525000D01*
X97891055Y-108525000D01*
X97871738Y-108328868D01*
X97814528Y-108140273D01*
X97814525Y-108140269D01*
X97814525Y-108140266D01*
X97721627Y-107966467D01*
X97721623Y-107966460D01*
X97596597Y-107814116D01*
X97444253Y-107689090D01*
X97444246Y-107689086D01*
X97270447Y-107596188D01*
X97270441Y-107596186D01*
X97081846Y-107538976D01*
X97081843Y-107538975D01*
X96885714Y-107519659D01*
X96689584Y-107538975D01*
X96500980Y-107596188D01*
X96327181Y-107689086D01*
X96327174Y-107689090D01*
X96174830Y-107814116D01*
X96049804Y-107966460D01*
X96049800Y-107966467D01*
X95956902Y-108140266D01*
X95899689Y-108328870D01*
X95880373Y-108525000D01*
X94505341Y-108525000D01*
X94486024Y-108328868D01*
X94428814Y-108140273D01*
X94428811Y-108140269D01*
X94428811Y-108140266D01*
X94335913Y-107966467D01*
X94335909Y-107966460D01*
X94210883Y-107814116D01*
X94058539Y-107689090D01*
X94058532Y-107689086D01*
X93884733Y-107596188D01*
X93884727Y-107596186D01*
X93696132Y-107538976D01*
X93696129Y-107538975D01*
X93500000Y-107519659D01*
X93303870Y-107538975D01*
X93115266Y-107596188D01*
X92941467Y-107689086D01*
X92941460Y-107689090D01*
X92789116Y-107814116D01*
X92664090Y-107966460D01*
X92664086Y-107966467D01*
X92571188Y-108140266D01*
X92513975Y-108328870D01*
X92494659Y-108525000D01*
X79970303Y-108525000D01*
X79985165Y-108492457D01*
X80005647Y-108350000D01*
X79985165Y-108207543D01*
X79925377Y-108076627D01*
X79831128Y-107967857D01*
X79710053Y-107890047D01*
X79710051Y-107890046D01*
X79710049Y-107890045D01*
X79710050Y-107890045D01*
X79571963Y-107849500D01*
X79571961Y-107849500D01*
X79428039Y-107849500D01*
X79428036Y-107849500D01*
X79289949Y-107890045D01*
X79168873Y-107967856D01*
X79074623Y-108076626D01*
X79074622Y-108076628D01*
X79014834Y-108207543D01*
X78994353Y-108350000D01*
X62800500Y-108350000D01*
X62800500Y-104150000D01*
X82364353Y-104150000D01*
X82384834Y-104292456D01*
X82444622Y-104423371D01*
X82444623Y-104423373D01*
X82538872Y-104532143D01*
X82659947Y-104609953D01*
X82659950Y-104609954D01*
X82659949Y-104609954D01*
X82798036Y-104650499D01*
X82798038Y-104650500D01*
X82798039Y-104650500D01*
X82941962Y-104650500D01*
X82941962Y-104650499D01*
X83080053Y-104609953D01*
X83201128Y-104532143D01*
X83295377Y-104423373D01*
X83355165Y-104292457D01*
X83375647Y-104150000D01*
X83374518Y-104142146D01*
X83384462Y-104072987D01*
X83430218Y-104020184D01*
X83497256Y-104000500D01*
X83596962Y-104000500D01*
X83596962Y-104000499D01*
X83735053Y-103959953D01*
X83856128Y-103882143D01*
X83950377Y-103773373D01*
X84010165Y-103642457D01*
X84030647Y-103500000D01*
X84010165Y-103357543D01*
X83950377Y-103226627D01*
X83856128Y-103117857D01*
X83735053Y-103040047D01*
X83735051Y-103040046D01*
X83735049Y-103040045D01*
X83735050Y-103040045D01*
X83596963Y-102999500D01*
X83596961Y-102999500D01*
X83453039Y-102999500D01*
X83453036Y-102999500D01*
X83314949Y-103040045D01*
X83193873Y-103117856D01*
X83099623Y-103226626D01*
X83099622Y-103226628D01*
X83039834Y-103357543D01*
X83019353Y-103500000D01*
X83019353Y-103500001D01*
X83020482Y-103507854D01*
X83010538Y-103577013D01*
X82964782Y-103629816D01*
X82897744Y-103649500D01*
X82798036Y-103649500D01*
X82659949Y-103690045D01*
X82538873Y-103767856D01*
X82444623Y-103876626D01*
X82444622Y-103876628D01*
X82384834Y-104007543D01*
X82364353Y-104150000D01*
X62800500Y-104150000D01*
X62800500Y-102700000D01*
X92954353Y-102700000D01*
X92974834Y-102842456D01*
X93030055Y-102963371D01*
X93034623Y-102973373D01*
X93128872Y-103082143D01*
X93249947Y-103159953D01*
X93249950Y-103159954D01*
X93249949Y-103159954D01*
X93388036Y-103200499D01*
X93388038Y-103200500D01*
X93388039Y-103200500D01*
X93531962Y-103200500D01*
X93531962Y-103200499D01*
X93670053Y-103159953D01*
X93791128Y-103082143D01*
X93885377Y-102973373D01*
X93945165Y-102842457D01*
X93964209Y-102710000D01*
X96354353Y-102710000D01*
X96374834Y-102852456D01*
X96425488Y-102963371D01*
X96434623Y-102983373D01*
X96528872Y-103092143D01*
X96649947Y-103169953D01*
X96649950Y-103169954D01*
X96649949Y-103169954D01*
X96788036Y-103210499D01*
X96788038Y-103210500D01*
X96788039Y-103210500D01*
X96931962Y-103210500D01*
X96931962Y-103210499D01*
X97070053Y-103169953D01*
X97191128Y-103092143D01*
X97285377Y-102983373D01*
X97345165Y-102852457D01*
X97365647Y-102710000D01*
X99714353Y-102710000D01*
X99734834Y-102852456D01*
X99785488Y-102963371D01*
X99794623Y-102983373D01*
X99888872Y-103092143D01*
X100009947Y-103169953D01*
X100009950Y-103169954D01*
X100009949Y-103169954D01*
X100148036Y-103210499D01*
X100148038Y-103210500D01*
X100148039Y-103210500D01*
X100291962Y-103210500D01*
X100291962Y-103210499D01*
X100430053Y-103169953D01*
X100551128Y-103092143D01*
X100645377Y-102983373D01*
X100705165Y-102852457D01*
X100725647Y-102710000D01*
X100724209Y-102700000D01*
X103114353Y-102700000D01*
X103134834Y-102842456D01*
X103190055Y-102963371D01*
X103194623Y-102973373D01*
X103288872Y-103082143D01*
X103409947Y-103159953D01*
X103409950Y-103159954D01*
X103409949Y-103159954D01*
X103548036Y-103200499D01*
X103548038Y-103200500D01*
X103548039Y-103200500D01*
X103691962Y-103200500D01*
X103691962Y-103200499D01*
X103830053Y-103159953D01*
X103951128Y-103082143D01*
X104045377Y-102973373D01*
X104105165Y-102842457D01*
X104125647Y-102700000D01*
X106504353Y-102700000D01*
X106524834Y-102842456D01*
X106580055Y-102963371D01*
X106584623Y-102973373D01*
X106678872Y-103082143D01*
X106799947Y-103159953D01*
X106799950Y-103159954D01*
X106799949Y-103159954D01*
X106938036Y-103200499D01*
X106938038Y-103200500D01*
X106938039Y-103200500D01*
X107081962Y-103200500D01*
X107081962Y-103200499D01*
X107220053Y-103159953D01*
X107341128Y-103082143D01*
X107435377Y-102973373D01*
X107495165Y-102842457D01*
X107515647Y-102700000D01*
X107514209Y-102690000D01*
X109894353Y-102690000D01*
X109914834Y-102832456D01*
X109974622Y-102963371D01*
X109974623Y-102963373D01*
X110068872Y-103072143D01*
X110189947Y-103149953D01*
X110189950Y-103149954D01*
X110189949Y-103149954D01*
X110328036Y-103190499D01*
X110328038Y-103190500D01*
X110328039Y-103190500D01*
X110471962Y-103190500D01*
X110471962Y-103190499D01*
X110610053Y-103149953D01*
X110731128Y-103072143D01*
X110825377Y-102963373D01*
X110885165Y-102832457D01*
X110905647Y-102690000D01*
X113294353Y-102690000D01*
X113314834Y-102832456D01*
X113374622Y-102963371D01*
X113374623Y-102963373D01*
X113468872Y-103072143D01*
X113589947Y-103149953D01*
X113589950Y-103149954D01*
X113589949Y-103149954D01*
X113728036Y-103190499D01*
X113728038Y-103190500D01*
X113728039Y-103190500D01*
X113871962Y-103190500D01*
X113871962Y-103190499D01*
X114010053Y-103149953D01*
X114131128Y-103072143D01*
X114225377Y-102963373D01*
X114285165Y-102832457D01*
X114302771Y-102710000D01*
X116664353Y-102710000D01*
X116684834Y-102852456D01*
X116735488Y-102963371D01*
X116744623Y-102983373D01*
X116838872Y-103092143D01*
X116959947Y-103169953D01*
X116959950Y-103169954D01*
X116959949Y-103169954D01*
X117098036Y-103210499D01*
X117098038Y-103210500D01*
X117098039Y-103210500D01*
X117241962Y-103210500D01*
X117241962Y-103210499D01*
X117380053Y-103169953D01*
X117501128Y-103092143D01*
X117595377Y-102983373D01*
X117655165Y-102852457D01*
X117675647Y-102710000D01*
X117655165Y-102567543D01*
X117595377Y-102436627D01*
X117501128Y-102327857D01*
X117380053Y-102250047D01*
X117380051Y-102250046D01*
X117380049Y-102250045D01*
X117380050Y-102250045D01*
X117241963Y-102209500D01*
X117241961Y-102209500D01*
X117098039Y-102209500D01*
X117098036Y-102209500D01*
X116959949Y-102250045D01*
X116838873Y-102327856D01*
X116744623Y-102436626D01*
X116744622Y-102436628D01*
X116684834Y-102567543D01*
X116664353Y-102710000D01*
X114302771Y-102710000D01*
X114305647Y-102690000D01*
X114285165Y-102547543D01*
X114225377Y-102416627D01*
X114131128Y-102307857D01*
X114010053Y-102230047D01*
X114010051Y-102230046D01*
X114010049Y-102230045D01*
X114010050Y-102230045D01*
X113871963Y-102189500D01*
X113871961Y-102189500D01*
X113728039Y-102189500D01*
X113728036Y-102189500D01*
X113589949Y-102230045D01*
X113468873Y-102307856D01*
X113374623Y-102416626D01*
X113374622Y-102416628D01*
X113314834Y-102547543D01*
X113294353Y-102690000D01*
X110905647Y-102690000D01*
X110885165Y-102547543D01*
X110825377Y-102416627D01*
X110731128Y-102307857D01*
X110610053Y-102230047D01*
X110610051Y-102230046D01*
X110610049Y-102230045D01*
X110610050Y-102230045D01*
X110471963Y-102189500D01*
X110471961Y-102189500D01*
X110328039Y-102189500D01*
X110328036Y-102189500D01*
X110189949Y-102230045D01*
X110068873Y-102307856D01*
X109974623Y-102416626D01*
X109974622Y-102416628D01*
X109914834Y-102547543D01*
X109894353Y-102690000D01*
X107514209Y-102690000D01*
X107495165Y-102557543D01*
X107435377Y-102426627D01*
X107341128Y-102317857D01*
X107220053Y-102240047D01*
X107220051Y-102240046D01*
X107220049Y-102240045D01*
X107220050Y-102240045D01*
X107081963Y-102199500D01*
X107081961Y-102199500D01*
X106938039Y-102199500D01*
X106938036Y-102199500D01*
X106799949Y-102240045D01*
X106678873Y-102317856D01*
X106584623Y-102426626D01*
X106584622Y-102426628D01*
X106524834Y-102557543D01*
X106504353Y-102700000D01*
X104125647Y-102700000D01*
X104105165Y-102557543D01*
X104045377Y-102426627D01*
X103951128Y-102317857D01*
X103830053Y-102240047D01*
X103830051Y-102240046D01*
X103830049Y-102240045D01*
X103830050Y-102240045D01*
X103691963Y-102199500D01*
X103691961Y-102199500D01*
X103548039Y-102199500D01*
X103548036Y-102199500D01*
X103409949Y-102240045D01*
X103288873Y-102317856D01*
X103194623Y-102426626D01*
X103194622Y-102426628D01*
X103134834Y-102557543D01*
X103114353Y-102700000D01*
X100724209Y-102700000D01*
X100705165Y-102567543D01*
X100645377Y-102436627D01*
X100551128Y-102327857D01*
X100430053Y-102250047D01*
X100430051Y-102250046D01*
X100430049Y-102250045D01*
X100430050Y-102250045D01*
X100291963Y-102209500D01*
X100291961Y-102209500D01*
X100148039Y-102209500D01*
X100148036Y-102209500D01*
X100009949Y-102250045D01*
X99888873Y-102327856D01*
X99794623Y-102436626D01*
X99794622Y-102436628D01*
X99734834Y-102567543D01*
X99714353Y-102710000D01*
X97365647Y-102710000D01*
X97345165Y-102567543D01*
X97285377Y-102436627D01*
X97191128Y-102327857D01*
X97070053Y-102250047D01*
X97070051Y-102250046D01*
X97070049Y-102250045D01*
X97070050Y-102250045D01*
X96931963Y-102209500D01*
X96931961Y-102209500D01*
X96788039Y-102209500D01*
X96788036Y-102209500D01*
X96649949Y-102250045D01*
X96528873Y-102327856D01*
X96434623Y-102436626D01*
X96434622Y-102436628D01*
X96374834Y-102567543D01*
X96354353Y-102710000D01*
X93964209Y-102710000D01*
X93965647Y-102700000D01*
X93945165Y-102557543D01*
X93885377Y-102426627D01*
X93791128Y-102317857D01*
X93670053Y-102240047D01*
X93670051Y-102240046D01*
X93670049Y-102240045D01*
X93670050Y-102240045D01*
X93531963Y-102199500D01*
X93531961Y-102199500D01*
X93388039Y-102199500D01*
X93388036Y-102199500D01*
X93249949Y-102240045D01*
X93128873Y-102317856D01*
X93034623Y-102426626D01*
X93034622Y-102426628D01*
X92974834Y-102557543D01*
X92954353Y-102700000D01*
X62800500Y-102700000D01*
X62800500Y-98365000D01*
X92494659Y-98365000D01*
X92513975Y-98561129D01*
X92571188Y-98749733D01*
X92664086Y-98923532D01*
X92664090Y-98923539D01*
X92789116Y-99075883D01*
X92941460Y-99200909D01*
X92941467Y-99200913D01*
X93115266Y-99293811D01*
X93115269Y-99293811D01*
X93115273Y-99293814D01*
X93303868Y-99351024D01*
X93500000Y-99370341D01*
X93696132Y-99351024D01*
X93884727Y-99293814D01*
X94058538Y-99200910D01*
X94210883Y-99075883D01*
X94335910Y-98923538D01*
X94428814Y-98749727D01*
X94486024Y-98561132D01*
X94505341Y-98365000D01*
X95880373Y-98365000D01*
X95899689Y-98561129D01*
X95956902Y-98749733D01*
X96049800Y-98923532D01*
X96049804Y-98923539D01*
X96174830Y-99075883D01*
X96327174Y-99200909D01*
X96327181Y-99200913D01*
X96500980Y-99293811D01*
X96500983Y-99293811D01*
X96500987Y-99293814D01*
X96689582Y-99351024D01*
X96885714Y-99370341D01*
X97081846Y-99351024D01*
X97270441Y-99293814D01*
X97444252Y-99200910D01*
X97596597Y-99075883D01*
X97721624Y-98923538D01*
X97814528Y-98749727D01*
X97871738Y-98561132D01*
X97891055Y-98365000D01*
X99266087Y-98365000D01*
X99285403Y-98561129D01*
X99342616Y-98749733D01*
X99435514Y-98923532D01*
X99435518Y-98923539D01*
X99560544Y-99075883D01*
X99712888Y-99200909D01*
X99712895Y-99200913D01*
X99886694Y-99293811D01*
X99886697Y-99293811D01*
X99886701Y-99293814D01*
X100075296Y-99351024D01*
X100271428Y-99370341D01*
X100467560Y-99351024D01*
X100656155Y-99293814D01*
X100829966Y-99200910D01*
X100982311Y-99075883D01*
X101107338Y-98923538D01*
X101200242Y-98749727D01*
X101257452Y-98561132D01*
X101276769Y-98365000D01*
X102635659Y-98365000D01*
X102654975Y-98561129D01*
X102712188Y-98749733D01*
X102805086Y-98923532D01*
X102805090Y-98923539D01*
X102930116Y-99075883D01*
X103082460Y-99200909D01*
X103082467Y-99200913D01*
X103256266Y-99293811D01*
X103256269Y-99293811D01*
X103256273Y-99293814D01*
X103444868Y-99351024D01*
X103641000Y-99370341D01*
X103837132Y-99351024D01*
X104025727Y-99293814D01*
X104199538Y-99200910D01*
X104351883Y-99075883D01*
X104476910Y-98923538D01*
X104569814Y-98749727D01*
X104627024Y-98561132D01*
X104646341Y-98365000D01*
X106037515Y-98365000D01*
X106056831Y-98561129D01*
X106114044Y-98749733D01*
X106206942Y-98923532D01*
X106206946Y-98923539D01*
X106331972Y-99075883D01*
X106484316Y-99200909D01*
X106484323Y-99200913D01*
X106658122Y-99293811D01*
X106658125Y-99293811D01*
X106658129Y-99293814D01*
X106846724Y-99351024D01*
X107042856Y-99370341D01*
X107238988Y-99351024D01*
X107427583Y-99293814D01*
X107601394Y-99200910D01*
X107753739Y-99075883D01*
X107878766Y-98923538D01*
X107971670Y-98749727D01*
X108028880Y-98561132D01*
X108048197Y-98365000D01*
X109423229Y-98365000D01*
X109442545Y-98561129D01*
X109499758Y-98749733D01*
X109592656Y-98923532D01*
X109592660Y-98923539D01*
X109717686Y-99075883D01*
X109870030Y-99200909D01*
X109870037Y-99200913D01*
X110043836Y-99293811D01*
X110043839Y-99293811D01*
X110043843Y-99293814D01*
X110232438Y-99351024D01*
X110428570Y-99370341D01*
X110624702Y-99351024D01*
X110813297Y-99293814D01*
X110987108Y-99200910D01*
X111139453Y-99075883D01*
X111264480Y-98923538D01*
X111357384Y-98749727D01*
X111414594Y-98561132D01*
X111433911Y-98365000D01*
X112808943Y-98365000D01*
X112828259Y-98561129D01*
X112885472Y-98749733D01*
X112978370Y-98923532D01*
X112978374Y-98923539D01*
X113103400Y-99075883D01*
X113255744Y-99200909D01*
X113255751Y-99200913D01*
X113429550Y-99293811D01*
X113429553Y-99293811D01*
X113429557Y-99293814D01*
X113618152Y-99351024D01*
X113814284Y-99370341D01*
X114010416Y-99351024D01*
X114199011Y-99293814D01*
X114372822Y-99200910D01*
X114525167Y-99075883D01*
X114650194Y-98923538D01*
X114743098Y-98749727D01*
X114800308Y-98561132D01*
X114819625Y-98365000D01*
X116194659Y-98365000D01*
X116213975Y-98561129D01*
X116271188Y-98749733D01*
X116364086Y-98923532D01*
X116364090Y-98923539D01*
X116489116Y-99075883D01*
X116641460Y-99200909D01*
X116641467Y-99200913D01*
X116815266Y-99293811D01*
X116815269Y-99293811D01*
X116815273Y-99293814D01*
X117003868Y-99351024D01*
X117200000Y-99370341D01*
X117396132Y-99351024D01*
X117584727Y-99293814D01*
X117758538Y-99200910D01*
X117910883Y-99075883D01*
X118035910Y-98923538D01*
X118128814Y-98749727D01*
X118186024Y-98561132D01*
X118205341Y-98365000D01*
X118186024Y-98168868D01*
X118128814Y-97980273D01*
X118128811Y-97980269D01*
X118128811Y-97980266D01*
X118035913Y-97806467D01*
X118035909Y-97806460D01*
X117910883Y-97654116D01*
X117758539Y-97529090D01*
X117758532Y-97529086D01*
X117584733Y-97436188D01*
X117584727Y-97436186D01*
X117396132Y-97378976D01*
X117396129Y-97378975D01*
X117200000Y-97359659D01*
X117003870Y-97378975D01*
X116815266Y-97436188D01*
X116641467Y-97529086D01*
X116641460Y-97529090D01*
X116489116Y-97654116D01*
X116364090Y-97806460D01*
X116364086Y-97806467D01*
X116271188Y-97980266D01*
X116213975Y-98168870D01*
X116194659Y-98365000D01*
X114819625Y-98365000D01*
X114800308Y-98168868D01*
X114743098Y-97980273D01*
X114743095Y-97980269D01*
X114743095Y-97980266D01*
X114650197Y-97806467D01*
X114650193Y-97806460D01*
X114525167Y-97654116D01*
X114372823Y-97529090D01*
X114372816Y-97529086D01*
X114199017Y-97436188D01*
X114199011Y-97436186D01*
X114010416Y-97378976D01*
X114010413Y-97378975D01*
X113814284Y-97359659D01*
X113618154Y-97378975D01*
X113429550Y-97436188D01*
X113255751Y-97529086D01*
X113255744Y-97529090D01*
X113103400Y-97654116D01*
X112978374Y-97806460D01*
X112978370Y-97806467D01*
X112885472Y-97980266D01*
X112828259Y-98168870D01*
X112808943Y-98365000D01*
X111433911Y-98365000D01*
X111414594Y-98168868D01*
X111357384Y-97980273D01*
X111357381Y-97980269D01*
X111357381Y-97980266D01*
X111264483Y-97806467D01*
X111264479Y-97806460D01*
X111139453Y-97654116D01*
X110987109Y-97529090D01*
X110987102Y-97529086D01*
X110813303Y-97436188D01*
X110813297Y-97436186D01*
X110624702Y-97378976D01*
X110624699Y-97378975D01*
X110428570Y-97359659D01*
X110232440Y-97378975D01*
X110043836Y-97436188D01*
X109870037Y-97529086D01*
X109870030Y-97529090D01*
X109717686Y-97654116D01*
X109592660Y-97806460D01*
X109592656Y-97806467D01*
X109499758Y-97980266D01*
X109442545Y-98168870D01*
X109423229Y-98365000D01*
X108048197Y-98365000D01*
X108028880Y-98168868D01*
X107971670Y-97980273D01*
X107971667Y-97980269D01*
X107971667Y-97980266D01*
X107878769Y-97806467D01*
X107878765Y-97806460D01*
X107753739Y-97654116D01*
X107601395Y-97529090D01*
X107601388Y-97529086D01*
X107427589Y-97436188D01*
X107427583Y-97436186D01*
X107238988Y-97378976D01*
X107238985Y-97378975D01*
X107042856Y-97359659D01*
X106846726Y-97378975D01*
X106658122Y-97436188D01*
X106484323Y-97529086D01*
X106484316Y-97529090D01*
X106331972Y-97654116D01*
X106206946Y-97806460D01*
X106206942Y-97806467D01*
X106114044Y-97980266D01*
X106056831Y-98168870D01*
X106037515Y-98365000D01*
X104646341Y-98365000D01*
X104627024Y-98168868D01*
X104569814Y-97980273D01*
X104569811Y-97980269D01*
X104569811Y-97980266D01*
X104476913Y-97806467D01*
X104476909Y-97806460D01*
X104351883Y-97654116D01*
X104199539Y-97529090D01*
X104199532Y-97529086D01*
X104025733Y-97436188D01*
X104025727Y-97436186D01*
X103837132Y-97378976D01*
X103837129Y-97378975D01*
X103641000Y-97359659D01*
X103444870Y-97378975D01*
X103256266Y-97436188D01*
X103082467Y-97529086D01*
X103082460Y-97529090D01*
X102930116Y-97654116D01*
X102805090Y-97806460D01*
X102805086Y-97806467D01*
X102712188Y-97980266D01*
X102654975Y-98168870D01*
X102635659Y-98365000D01*
X101276769Y-98365000D01*
X101257452Y-98168868D01*
X101200242Y-97980273D01*
X101200239Y-97980269D01*
X101200239Y-97980266D01*
X101107341Y-97806467D01*
X101107337Y-97806460D01*
X100982311Y-97654116D01*
X100829967Y-97529090D01*
X100829960Y-97529086D01*
X100656161Y-97436188D01*
X100656155Y-97436186D01*
X100467560Y-97378976D01*
X100467557Y-97378975D01*
X100271428Y-97359659D01*
X100075298Y-97378975D01*
X99886694Y-97436188D01*
X99712895Y-97529086D01*
X99712888Y-97529090D01*
X99560544Y-97654116D01*
X99435518Y-97806460D01*
X99435514Y-97806467D01*
X99342616Y-97980266D01*
X99285403Y-98168870D01*
X99266087Y-98365000D01*
X97891055Y-98365000D01*
X97871738Y-98168868D01*
X97814528Y-97980273D01*
X97814525Y-97980269D01*
X97814525Y-97980266D01*
X97721627Y-97806467D01*
X97721623Y-97806460D01*
X97596597Y-97654116D01*
X97444253Y-97529090D01*
X97444246Y-97529086D01*
X97270447Y-97436188D01*
X97270441Y-97436186D01*
X97081846Y-97378976D01*
X97081843Y-97378975D01*
X96885714Y-97359659D01*
X96689584Y-97378975D01*
X96500980Y-97436188D01*
X96327181Y-97529086D01*
X96327174Y-97529090D01*
X96174830Y-97654116D01*
X96049804Y-97806460D01*
X96049800Y-97806467D01*
X95956902Y-97980266D01*
X95899689Y-98168870D01*
X95880373Y-98365000D01*
X94505341Y-98365000D01*
X94486024Y-98168868D01*
X94428814Y-97980273D01*
X94428811Y-97980269D01*
X94428811Y-97980266D01*
X94335913Y-97806467D01*
X94335909Y-97806460D01*
X94210883Y-97654116D01*
X94058539Y-97529090D01*
X94058532Y-97529086D01*
X93884733Y-97436188D01*
X93884727Y-97436186D01*
X93696132Y-97378976D01*
X93696129Y-97378975D01*
X93500000Y-97359659D01*
X93303870Y-97378975D01*
X93115266Y-97436188D01*
X92941467Y-97529086D01*
X92941460Y-97529090D01*
X92789116Y-97654116D01*
X92664090Y-97806460D01*
X92664086Y-97806467D01*
X92571188Y-97980266D01*
X92513975Y-98168870D01*
X92494659Y-98365000D01*
X62800500Y-98365000D01*
X62800500Y-97239998D01*
X80119318Y-97239998D01*
X80119318Y-97240001D01*
X80139955Y-97396760D01*
X80139956Y-97396762D01*
X80200464Y-97542841D01*
X80296718Y-97668282D01*
X80422159Y-97764536D01*
X80568238Y-97825044D01*
X80646619Y-97835363D01*
X80724999Y-97845682D01*
X80725000Y-97845682D01*
X80725001Y-97845682D01*
X80777254Y-97838802D01*
X80881762Y-97825044D01*
X81027841Y-97764536D01*
X81153282Y-97668282D01*
X81249536Y-97542841D01*
X81310044Y-97396762D01*
X81330682Y-97240000D01*
X81310044Y-97083238D01*
X81249536Y-96937159D01*
X81153282Y-96811718D01*
X81027841Y-96715464D01*
X80881762Y-96654956D01*
X80881760Y-96654955D01*
X80725001Y-96634318D01*
X80724999Y-96634318D01*
X80568239Y-96654955D01*
X80568237Y-96654956D01*
X80422160Y-96715463D01*
X80296718Y-96811718D01*
X80200463Y-96937160D01*
X80139956Y-97083237D01*
X80139955Y-97083239D01*
X80119318Y-97239998D01*
X62800500Y-97239998D01*
X62800500Y-96490000D01*
X74074353Y-96490000D01*
X74094834Y-96632456D01*
X74105110Y-96654956D01*
X74154623Y-96763373D01*
X74248872Y-96872143D01*
X74369947Y-96949953D01*
X74369950Y-96949954D01*
X74369949Y-96949954D01*
X74508036Y-96990499D01*
X74508038Y-96990500D01*
X74508039Y-96990500D01*
X74651962Y-96990500D01*
X74651962Y-96990499D01*
X74790053Y-96949953D01*
X74911128Y-96872143D01*
X75005377Y-96763373D01*
X75065165Y-96632457D01*
X75085647Y-96490000D01*
X75065165Y-96347543D01*
X75005377Y-96216627D01*
X74911128Y-96107857D01*
X74790053Y-96030047D01*
X74790051Y-96030046D01*
X74790049Y-96030045D01*
X74790050Y-96030045D01*
X74651963Y-95989500D01*
X74651961Y-95989500D01*
X74508039Y-95989500D01*
X74508036Y-95989500D01*
X74369949Y-96030045D01*
X74248873Y-96107856D01*
X74154623Y-96216626D01*
X74154622Y-96216628D01*
X74094834Y-96347543D01*
X74074353Y-96490000D01*
X62800500Y-96490000D01*
X62800500Y-94630000D01*
X113119353Y-94630000D01*
X113139834Y-94772456D01*
X113143300Y-94780045D01*
X113199623Y-94903373D01*
X113293872Y-95012143D01*
X113414947Y-95089953D01*
X113414950Y-95089954D01*
X113414949Y-95089954D01*
X113553036Y-95130499D01*
X113553038Y-95130500D01*
X113646163Y-95130500D01*
X113713202Y-95150185D01*
X113758957Y-95202989D01*
X113768901Y-95236854D01*
X113789834Y-95382456D01*
X113849622Y-95513371D01*
X113849623Y-95513373D01*
X113943872Y-95622143D01*
X114064947Y-95699953D01*
X114064950Y-95699954D01*
X114064949Y-95699954D01*
X114203036Y-95740499D01*
X114203038Y-95740500D01*
X114203039Y-95740500D01*
X114346962Y-95740500D01*
X114346962Y-95740499D01*
X114485053Y-95699953D01*
X114606128Y-95622143D01*
X114700377Y-95513373D01*
X114760165Y-95382457D01*
X114780647Y-95240000D01*
X114780646Y-95239998D01*
X114781099Y-95236854D01*
X114810124Y-95173298D01*
X114868902Y-95135523D01*
X114903837Y-95130500D01*
X114946163Y-95130500D01*
X115013202Y-95150185D01*
X115058957Y-95202989D01*
X115068901Y-95236854D01*
X115089834Y-95382456D01*
X115149622Y-95513371D01*
X115149623Y-95513373D01*
X115243872Y-95622143D01*
X115364947Y-95699953D01*
X115364950Y-95699954D01*
X115364949Y-95699954D01*
X115503036Y-95740499D01*
X115503038Y-95740500D01*
X115503039Y-95740500D01*
X115646962Y-95740500D01*
X115646962Y-95740499D01*
X115785053Y-95699953D01*
X115906128Y-95622143D01*
X116000377Y-95513373D01*
X116060165Y-95382457D01*
X116080647Y-95240000D01*
X116080646Y-95239998D01*
X116081099Y-95236854D01*
X116110124Y-95173298D01*
X116168902Y-95135523D01*
X116203837Y-95130500D01*
X116246163Y-95130500D01*
X116313202Y-95150185D01*
X116358957Y-95202989D01*
X116368901Y-95236854D01*
X116389834Y-95382456D01*
X116449622Y-95513371D01*
X116449623Y-95513373D01*
X116543872Y-95622143D01*
X116664947Y-95699953D01*
X116664950Y-95699954D01*
X116664949Y-95699954D01*
X116803036Y-95740499D01*
X116803038Y-95740500D01*
X116803039Y-95740500D01*
X116946962Y-95740500D01*
X116946962Y-95740499D01*
X117085053Y-95699953D01*
X117206128Y-95622143D01*
X117300377Y-95513373D01*
X117360165Y-95382457D01*
X117380647Y-95240000D01*
X117380646Y-95239998D01*
X117381099Y-95236854D01*
X117410124Y-95173298D01*
X117468902Y-95135523D01*
X117503837Y-95130500D01*
X117546163Y-95130500D01*
X117613202Y-95150185D01*
X117658957Y-95202989D01*
X117668901Y-95236854D01*
X117689834Y-95382456D01*
X117749622Y-95513371D01*
X117749623Y-95513373D01*
X117843872Y-95622143D01*
X117964947Y-95699953D01*
X117964950Y-95699954D01*
X117964949Y-95699954D01*
X118103036Y-95740499D01*
X118103038Y-95740500D01*
X118103039Y-95740500D01*
X118246962Y-95740500D01*
X118246962Y-95740499D01*
X118385053Y-95699953D01*
X118506128Y-95622143D01*
X118600377Y-95513373D01*
X118660165Y-95382457D01*
X118680647Y-95240000D01*
X118660165Y-95097543D01*
X118600377Y-94966627D01*
X118506128Y-94857857D01*
X118385053Y-94780047D01*
X118385051Y-94780046D01*
X118385049Y-94780045D01*
X118385050Y-94780045D01*
X118246963Y-94739500D01*
X118246961Y-94739500D01*
X118153837Y-94739500D01*
X118086798Y-94719815D01*
X118041043Y-94667011D01*
X118031099Y-94633146D01*
X118010165Y-94487543D01*
X117950377Y-94356628D01*
X117950376Y-94356626D01*
X117856128Y-94247857D01*
X117735053Y-94170047D01*
X117735051Y-94170046D01*
X117735049Y-94170045D01*
X117735050Y-94170045D01*
X117596963Y-94129500D01*
X117596961Y-94129500D01*
X117453039Y-94129500D01*
X117453036Y-94129500D01*
X117314949Y-94170045D01*
X117193873Y-94247856D01*
X117099623Y-94356626D01*
X117099622Y-94356628D01*
X117039834Y-94487543D01*
X117018901Y-94633146D01*
X116989876Y-94696702D01*
X116931098Y-94734477D01*
X116896163Y-94739500D01*
X116853837Y-94739500D01*
X116786798Y-94719815D01*
X116741043Y-94667011D01*
X116731099Y-94633146D01*
X116710165Y-94487543D01*
X116650377Y-94356628D01*
X116650376Y-94356626D01*
X116556128Y-94247857D01*
X116435053Y-94170047D01*
X116435051Y-94170046D01*
X116435049Y-94170045D01*
X116435050Y-94170045D01*
X116296963Y-94129500D01*
X116296961Y-94129500D01*
X116153039Y-94129500D01*
X116153036Y-94129500D01*
X116014949Y-94170045D01*
X115893873Y-94247856D01*
X115799623Y-94356626D01*
X115799622Y-94356628D01*
X115739834Y-94487543D01*
X115718901Y-94633146D01*
X115689876Y-94696702D01*
X115631098Y-94734477D01*
X115596163Y-94739500D01*
X115553837Y-94739500D01*
X115486798Y-94719815D01*
X115441043Y-94667011D01*
X115431099Y-94633146D01*
X115410165Y-94487543D01*
X115350377Y-94356628D01*
X115350376Y-94356626D01*
X115256128Y-94247857D01*
X115135053Y-94170047D01*
X115135051Y-94170046D01*
X115135049Y-94170045D01*
X115135050Y-94170045D01*
X114996963Y-94129500D01*
X114996961Y-94129500D01*
X114853039Y-94129500D01*
X114853036Y-94129500D01*
X114714949Y-94170045D01*
X114593873Y-94247856D01*
X114499623Y-94356626D01*
X114499622Y-94356628D01*
X114439834Y-94487543D01*
X114418901Y-94633146D01*
X114389876Y-94696702D01*
X114331098Y-94734477D01*
X114296163Y-94739500D01*
X114253837Y-94739500D01*
X114186798Y-94719815D01*
X114141043Y-94667011D01*
X114131099Y-94633146D01*
X114110165Y-94487543D01*
X114050377Y-94356628D01*
X114050376Y-94356626D01*
X113956128Y-94247857D01*
X113835053Y-94170047D01*
X113835051Y-94170046D01*
X113835049Y-94170045D01*
X113835050Y-94170045D01*
X113696963Y-94129500D01*
X113696961Y-94129500D01*
X113553039Y-94129500D01*
X113553036Y-94129500D01*
X113414949Y-94170045D01*
X113293873Y-94247856D01*
X113199623Y-94356626D01*
X113199622Y-94356628D01*
X113139834Y-94487543D01*
X113119353Y-94630000D01*
X62800500Y-94630000D01*
X62800500Y-93657998D01*
X102654318Y-93657998D01*
X102654318Y-93658001D01*
X102674955Y-93814760D01*
X102674956Y-93814762D01*
X102735464Y-93960841D01*
X102831718Y-94086282D01*
X102957159Y-94182536D01*
X103103238Y-94243044D01*
X103139789Y-94247856D01*
X103259999Y-94263682D01*
X103260000Y-94263682D01*
X103260001Y-94263682D01*
X103312254Y-94256802D01*
X103416762Y-94243044D01*
X103562841Y-94182536D01*
X103688282Y-94086282D01*
X103784536Y-93960841D01*
X103845044Y-93814762D01*
X103865682Y-93658000D01*
X103845044Y-93501238D01*
X103784536Y-93355159D01*
X103784535Y-93355158D01*
X103781426Y-93347651D01*
X103784384Y-93346425D01*
X103771442Y-93293161D01*
X103794270Y-93227126D01*
X103849176Y-93183915D01*
X103918727Y-93177248D01*
X103930238Y-93180039D01*
X104068036Y-93220499D01*
X104068038Y-93220500D01*
X104068039Y-93220500D01*
X104211962Y-93220500D01*
X104211962Y-93220499D01*
X104336560Y-93183915D01*
X104350050Y-93179954D01*
X104350050Y-93179953D01*
X104350053Y-93179953D01*
X104471128Y-93102143D01*
X104565377Y-92993373D01*
X104625165Y-92862457D01*
X104645647Y-92720000D01*
X104625165Y-92577543D01*
X104565377Y-92446627D01*
X104471128Y-92337857D01*
X104350053Y-92260047D01*
X104350051Y-92260046D01*
X104350049Y-92260045D01*
X104350050Y-92260045D01*
X104211963Y-92219500D01*
X104211961Y-92219500D01*
X104068039Y-92219500D01*
X104068036Y-92219500D01*
X103929949Y-92260045D01*
X103808873Y-92337856D01*
X103714623Y-92446626D01*
X103714622Y-92446628D01*
X103654834Y-92577543D01*
X103634353Y-92720000D01*
X103654834Y-92862456D01*
X103698014Y-92957005D01*
X103707958Y-93026164D01*
X103678933Y-93089720D01*
X103620155Y-93127494D01*
X103550285Y-93127494D01*
X103537767Y-93123078D01*
X103416762Y-93072956D01*
X103416760Y-93072955D01*
X103260001Y-93052318D01*
X103259999Y-93052318D01*
X103103239Y-93072955D01*
X103103237Y-93072956D01*
X102957160Y-93133463D01*
X102831718Y-93229718D01*
X102735463Y-93355160D01*
X102674956Y-93501237D01*
X102674955Y-93501239D01*
X102654318Y-93657998D01*
X62800500Y-93657998D01*
X62800500Y-91125000D01*
X63554647Y-91125000D01*
X64340382Y-91125000D01*
X64289936Y-91175446D01*
X64247149Y-91249555D01*
X64225000Y-91332213D01*
X64225000Y-91417787D01*
X64247149Y-91500445D01*
X64289936Y-91574554D01*
X64340382Y-91625000D01*
X63554647Y-91625000D01*
X63564387Y-91673974D01*
X63564390Y-91673983D01*
X63641652Y-91860513D01*
X63641659Y-91860526D01*
X63753829Y-92028399D01*
X63753832Y-92028403D01*
X63896596Y-92171167D01*
X63896600Y-92171170D01*
X64064473Y-92283340D01*
X64064486Y-92283347D01*
X64251016Y-92360609D01*
X64251025Y-92360612D01*
X64449041Y-92399999D01*
X64449045Y-92400000D01*
X64700000Y-92400000D01*
X64700000Y-91700000D01*
X65200000Y-91700000D01*
X65200000Y-92400000D01*
X65450955Y-92400000D01*
X65450958Y-92399999D01*
X65648974Y-92360612D01*
X65648983Y-92360609D01*
X65835513Y-92283347D01*
X65835526Y-92283340D01*
X66003399Y-92171170D01*
X66003403Y-92171167D01*
X66146167Y-92028403D01*
X66146170Y-92028399D01*
X66258340Y-91860526D01*
X66258347Y-91860513D01*
X66335609Y-91673983D01*
X66335612Y-91673974D01*
X66345353Y-91625000D01*
X65559618Y-91625000D01*
X65610064Y-91574554D01*
X65652851Y-91500445D01*
X65675000Y-91417787D01*
X65675000Y-91332213D01*
X65652851Y-91249555D01*
X65610064Y-91175446D01*
X65559618Y-91125000D01*
X66345353Y-91125000D01*
X67554647Y-91125000D01*
X68340382Y-91125000D01*
X68289936Y-91175446D01*
X68247149Y-91249555D01*
X68225000Y-91332213D01*
X68225000Y-91417787D01*
X68247149Y-91500445D01*
X68289936Y-91574554D01*
X68340382Y-91625000D01*
X67554647Y-91625000D01*
X67564387Y-91673974D01*
X67564390Y-91673983D01*
X67641652Y-91860513D01*
X67641659Y-91860526D01*
X67753829Y-92028399D01*
X67753832Y-92028403D01*
X67896596Y-92171167D01*
X67896600Y-92171170D01*
X68064473Y-92283340D01*
X68064486Y-92283347D01*
X68251016Y-92360609D01*
X68251025Y-92360612D01*
X68449041Y-92399999D01*
X68449045Y-92400000D01*
X68850000Y-92400000D01*
X68850000Y-91700000D01*
X69350000Y-91700000D01*
X69350000Y-92400000D01*
X69750955Y-92400000D01*
X69750958Y-92399999D01*
X69948974Y-92360612D01*
X69948983Y-92360609D01*
X70135513Y-92283347D01*
X70135526Y-92283340D01*
X70303399Y-92171170D01*
X70303403Y-92171167D01*
X70446167Y-92028403D01*
X70446170Y-92028399D01*
X70558340Y-91860526D01*
X70558347Y-91860513D01*
X70635609Y-91673983D01*
X70635612Y-91673974D01*
X70645353Y-91625000D01*
X69859618Y-91625000D01*
X69910064Y-91574554D01*
X69952851Y-91500445D01*
X69975000Y-91417787D01*
X69975000Y-91332213D01*
X69971727Y-91320000D01*
X101884353Y-91320000D01*
X101904834Y-91462456D01*
X101964622Y-91593371D01*
X101964623Y-91593373D01*
X102058872Y-91702143D01*
X102179947Y-91779953D01*
X102179950Y-91779954D01*
X102179949Y-91779954D01*
X102318036Y-91820499D01*
X102318038Y-91820500D01*
X102318039Y-91820500D01*
X102461962Y-91820500D01*
X102461962Y-91820499D01*
X102600053Y-91779953D01*
X102721128Y-91702143D01*
X102815377Y-91593373D01*
X102875165Y-91462457D01*
X102895647Y-91320000D01*
X102875165Y-91177543D01*
X102815377Y-91046627D01*
X102721128Y-90937857D01*
X102600053Y-90860047D01*
X102600051Y-90860046D01*
X102600049Y-90860045D01*
X102600050Y-90860045D01*
X102461963Y-90819500D01*
X102461961Y-90819500D01*
X102318039Y-90819500D01*
X102318036Y-90819500D01*
X102179949Y-90860045D01*
X102058873Y-90937856D01*
X101964623Y-91046626D01*
X101964622Y-91046628D01*
X101904834Y-91177543D01*
X101884353Y-91320000D01*
X69971727Y-91320000D01*
X69952851Y-91249555D01*
X69910064Y-91175446D01*
X69859618Y-91125000D01*
X70645353Y-91125000D01*
X70635612Y-91076025D01*
X70635609Y-91076016D01*
X70558347Y-90889486D01*
X70558340Y-90889473D01*
X70446170Y-90721600D01*
X70446167Y-90721596D01*
X70303403Y-90578832D01*
X70303399Y-90578829D01*
X70135526Y-90466659D01*
X70135513Y-90466652D01*
X69948983Y-90389390D01*
X69948974Y-90389387D01*
X69750958Y-90350000D01*
X69350000Y-90350000D01*
X69350000Y-91050000D01*
X68850000Y-91050000D01*
X68850000Y-90450181D01*
X68869685Y-90383142D01*
X68902180Y-90352166D01*
X68900863Y-90350450D01*
X68907307Y-90345503D01*
X68907314Y-90345500D01*
X69000500Y-90252314D01*
X69042251Y-90180000D01*
X90759353Y-90180000D01*
X90779834Y-90322456D01*
X90836027Y-90445500D01*
X90839623Y-90453373D01*
X90933872Y-90562143D01*
X91054947Y-90639953D01*
X91054950Y-90639954D01*
X91054949Y-90639954D01*
X91193036Y-90680499D01*
X91193038Y-90680500D01*
X91193039Y-90680500D01*
X91336962Y-90680500D01*
X91336962Y-90680499D01*
X91475053Y-90639953D01*
X91596128Y-90562143D01*
X91690377Y-90453373D01*
X91750165Y-90322457D01*
X91770647Y-90180000D01*
X92029353Y-90180000D01*
X92049834Y-90322456D01*
X92106027Y-90445500D01*
X92109623Y-90453373D01*
X92203872Y-90562143D01*
X92324947Y-90639953D01*
X92324950Y-90639954D01*
X92324949Y-90639954D01*
X92463036Y-90680499D01*
X92463038Y-90680500D01*
X92463039Y-90680500D01*
X92606962Y-90680500D01*
X92606962Y-90680499D01*
X92745053Y-90639953D01*
X92866128Y-90562143D01*
X92960377Y-90453373D01*
X93020165Y-90322457D01*
X93040647Y-90180000D01*
X93020165Y-90037543D01*
X92960377Y-89906627D01*
X92866128Y-89797857D01*
X92745053Y-89720047D01*
X92745051Y-89720046D01*
X92745049Y-89720045D01*
X92745050Y-89720045D01*
X92606963Y-89679500D01*
X92606961Y-89679500D01*
X92463039Y-89679500D01*
X92463036Y-89679500D01*
X92324949Y-89720045D01*
X92203873Y-89797856D01*
X92109623Y-89906626D01*
X92109622Y-89906628D01*
X92049834Y-90037543D01*
X92029353Y-90180000D01*
X91770647Y-90180000D01*
X91750165Y-90037543D01*
X91690377Y-89906627D01*
X91596128Y-89797857D01*
X91475053Y-89720047D01*
X91475051Y-89720046D01*
X91475049Y-89720045D01*
X91475050Y-89720045D01*
X91336963Y-89679500D01*
X91336961Y-89679500D01*
X91193039Y-89679500D01*
X91193036Y-89679500D01*
X91054949Y-89720045D01*
X90933873Y-89797856D01*
X90839623Y-89906626D01*
X90839622Y-89906628D01*
X90779834Y-90037543D01*
X90759353Y-90180000D01*
X69042251Y-90180000D01*
X69066392Y-90138186D01*
X69100500Y-90010892D01*
X69100500Y-89879108D01*
X69066392Y-89751814D01*
X69000500Y-89637686D01*
X68907314Y-89544500D01*
X68850250Y-89511554D01*
X68793187Y-89478608D01*
X68761061Y-89470000D01*
X106519353Y-89470000D01*
X106539834Y-89612456D01*
X106570453Y-89679500D01*
X106599623Y-89743373D01*
X106693872Y-89852143D01*
X106814947Y-89929953D01*
X106814950Y-89929954D01*
X106814949Y-89929954D01*
X106953036Y-89970499D01*
X106953038Y-89970500D01*
X106953039Y-89970500D01*
X107096962Y-89970500D01*
X107096962Y-89970499D01*
X107235053Y-89929953D01*
X107356128Y-89852143D01*
X107450377Y-89743373D01*
X107510165Y-89612457D01*
X107530647Y-89470000D01*
X114419353Y-89470000D01*
X114439834Y-89612456D01*
X114470453Y-89679500D01*
X114499623Y-89743373D01*
X114593872Y-89852143D01*
X114714947Y-89929953D01*
X114714950Y-89929954D01*
X114714949Y-89929954D01*
X114853036Y-89970499D01*
X114853038Y-89970500D01*
X114853039Y-89970500D01*
X114996962Y-89970500D01*
X114996962Y-89970499D01*
X115135053Y-89929953D01*
X115256128Y-89852143D01*
X115350377Y-89743373D01*
X115410165Y-89612457D01*
X115430647Y-89470000D01*
X115410165Y-89327543D01*
X115350377Y-89196627D01*
X115256128Y-89087857D01*
X115135053Y-89010047D01*
X115135051Y-89010046D01*
X115135049Y-89010045D01*
X115135050Y-89010045D01*
X114996963Y-88969500D01*
X114996961Y-88969500D01*
X114853039Y-88969500D01*
X114853036Y-88969500D01*
X114714949Y-89010045D01*
X114593873Y-89087856D01*
X114499623Y-89196626D01*
X114499622Y-89196628D01*
X114439834Y-89327543D01*
X114419353Y-89470000D01*
X107530647Y-89470000D01*
X107510165Y-89327543D01*
X107450377Y-89196627D01*
X107356128Y-89087857D01*
X107235053Y-89010047D01*
X107235051Y-89010046D01*
X107235049Y-89010045D01*
X107235050Y-89010045D01*
X107096963Y-88969500D01*
X107096961Y-88969500D01*
X106953039Y-88969500D01*
X106953036Y-88969500D01*
X106814949Y-89010045D01*
X106693873Y-89087856D01*
X106599623Y-89196626D01*
X106599622Y-89196628D01*
X106539834Y-89327543D01*
X106519353Y-89470000D01*
X68761061Y-89470000D01*
X68729539Y-89461554D01*
X68665892Y-89444500D01*
X68534108Y-89444500D01*
X68406812Y-89478608D01*
X68292686Y-89544500D01*
X68292683Y-89544502D01*
X68199502Y-89637683D01*
X68199500Y-89637686D01*
X68133608Y-89751812D01*
X68099500Y-89879108D01*
X68099500Y-90010891D01*
X68133608Y-90138187D01*
X68157749Y-90180000D01*
X68199500Y-90252314D01*
X68199501Y-90252315D01*
X68202612Y-90257703D01*
X68219085Y-90325604D01*
X68196233Y-90391631D01*
X68142678Y-90434265D01*
X68064483Y-90466654D01*
X68064473Y-90466659D01*
X67896600Y-90578829D01*
X67896596Y-90578832D01*
X67753832Y-90721596D01*
X67753829Y-90721600D01*
X67641659Y-90889473D01*
X67641652Y-90889486D01*
X67564390Y-91076016D01*
X67564387Y-91076025D01*
X67554647Y-91125000D01*
X66345353Y-91125000D01*
X66335612Y-91076025D01*
X66335609Y-91076016D01*
X66258347Y-90889486D01*
X66258340Y-90889473D01*
X66146170Y-90721600D01*
X66146167Y-90721596D01*
X66003403Y-90578832D01*
X66003399Y-90578829D01*
X65835526Y-90466659D01*
X65835513Y-90466652D01*
X65648983Y-90389390D01*
X65648974Y-90389387D01*
X65450958Y-90350000D01*
X65200000Y-90350000D01*
X65200000Y-91050000D01*
X64700000Y-91050000D01*
X64700000Y-90350000D01*
X64449041Y-90350000D01*
X64251025Y-90389387D01*
X64251016Y-90389390D01*
X64064486Y-90466652D01*
X64064473Y-90466659D01*
X63896600Y-90578829D01*
X63896596Y-90578832D01*
X63753832Y-90721596D01*
X63753829Y-90721600D01*
X63641659Y-90889473D01*
X63641652Y-90889486D01*
X63564390Y-91076016D01*
X63564387Y-91076025D01*
X63554647Y-91125000D01*
X62800500Y-91125000D01*
X62800500Y-88852726D01*
X71439778Y-88852726D01*
X71460259Y-88995182D01*
X71467047Y-89010045D01*
X71520048Y-89126099D01*
X71614297Y-89234869D01*
X71735372Y-89312679D01*
X71735375Y-89312680D01*
X71735374Y-89312680D01*
X71873461Y-89353225D01*
X71873463Y-89353226D01*
X71873464Y-89353226D01*
X72017387Y-89353226D01*
X72017387Y-89353225D01*
X72155478Y-89312679D01*
X72276553Y-89234869D01*
X72370802Y-89126099D01*
X72430590Y-88995183D01*
X72451072Y-88852726D01*
X72430590Y-88710269D01*
X72370802Y-88579353D01*
X72276553Y-88470583D01*
X72155478Y-88392773D01*
X72155476Y-88392772D01*
X72155474Y-88392771D01*
X72155475Y-88392771D01*
X72017388Y-88352226D01*
X72017386Y-88352226D01*
X71873464Y-88352226D01*
X71873461Y-88352226D01*
X71735374Y-88392771D01*
X71614298Y-88470582D01*
X71520048Y-88579352D01*
X71520047Y-88579354D01*
X71460259Y-88710269D01*
X71439778Y-88852726D01*
X62800500Y-88852726D01*
X62800500Y-87800000D01*
X77084353Y-87800000D01*
X77104834Y-87942456D01*
X77111756Y-87957612D01*
X77164623Y-88073373D01*
X77258872Y-88182143D01*
X77379947Y-88259953D01*
X77379950Y-88259954D01*
X77379949Y-88259954D01*
X77518036Y-88300499D01*
X77518038Y-88300500D01*
X77518039Y-88300500D01*
X77661962Y-88300500D01*
X77661962Y-88300499D01*
X77800053Y-88259953D01*
X77921128Y-88182143D01*
X78015377Y-88073373D01*
X78075165Y-87942457D01*
X78095647Y-87800000D01*
X78079004Y-87684241D01*
X83894352Y-87684241D01*
X83914833Y-87826697D01*
X83967699Y-87942456D01*
X83974622Y-87957614D01*
X84068871Y-88066384D01*
X84189946Y-88144194D01*
X84189949Y-88144195D01*
X84189948Y-88144195D01*
X84328035Y-88184740D01*
X84328037Y-88184741D01*
X84328038Y-88184741D01*
X84471961Y-88184741D01*
X84471961Y-88184740D01*
X84610052Y-88144194D01*
X84731127Y-88066384D01*
X84825376Y-87957614D01*
X84885164Y-87826698D01*
X84905646Y-87684241D01*
X84885164Y-87541784D01*
X84825376Y-87410868D01*
X84731127Y-87302098D01*
X84610052Y-87224288D01*
X84610050Y-87224287D01*
X84610048Y-87224286D01*
X84610049Y-87224286D01*
X84471962Y-87183741D01*
X84471960Y-87183741D01*
X84328038Y-87183741D01*
X84328035Y-87183741D01*
X84189948Y-87224286D01*
X84068872Y-87302097D01*
X83974622Y-87410867D01*
X83974621Y-87410869D01*
X83914833Y-87541784D01*
X83894352Y-87684241D01*
X78079004Y-87684241D01*
X78075165Y-87657543D01*
X78015377Y-87526627D01*
X77921128Y-87417857D01*
X77800053Y-87340047D01*
X77800051Y-87340046D01*
X77800049Y-87340045D01*
X77800050Y-87340045D01*
X77661963Y-87299500D01*
X77661961Y-87299500D01*
X77518039Y-87299500D01*
X77518036Y-87299500D01*
X77379949Y-87340045D01*
X77258873Y-87417856D01*
X77164623Y-87526626D01*
X77164622Y-87526628D01*
X77104834Y-87657543D01*
X77084353Y-87800000D01*
X62800500Y-87800000D01*
X62800500Y-85930730D01*
X67654300Y-85930730D01*
X67674781Y-86073186D01*
X67722509Y-86177694D01*
X67734570Y-86204103D01*
X67828819Y-86312873D01*
X67949894Y-86390683D01*
X67952630Y-86391486D01*
X67955034Y-86393030D01*
X67957966Y-86394370D01*
X67957773Y-86394791D01*
X68011410Y-86429258D01*
X68040438Y-86492812D01*
X68040439Y-86528111D01*
X68024353Y-86639999D01*
X68044834Y-86782456D01*
X68084794Y-86869954D01*
X68104623Y-86913373D01*
X68198872Y-87022143D01*
X68319947Y-87099953D01*
X68319950Y-87099954D01*
X68319949Y-87099954D01*
X68458036Y-87140499D01*
X68458038Y-87140500D01*
X68458039Y-87140500D01*
X68601962Y-87140500D01*
X68601962Y-87140499D01*
X68740053Y-87099953D01*
X68861128Y-87022143D01*
X68955377Y-86913373D01*
X69015165Y-86782457D01*
X69035647Y-86640000D01*
X69015165Y-86497543D01*
X68955377Y-86366627D01*
X68897645Y-86300000D01*
X77084353Y-86300000D01*
X77104834Y-86442456D01*
X77129992Y-86497543D01*
X77164623Y-86573373D01*
X77258872Y-86682143D01*
X77379947Y-86759953D01*
X77379950Y-86759954D01*
X77379949Y-86759954D01*
X77518036Y-86800499D01*
X77518038Y-86800500D01*
X77518039Y-86800500D01*
X77661962Y-86800500D01*
X77661962Y-86800499D01*
X77800053Y-86759953D01*
X77921128Y-86682143D01*
X78015377Y-86573373D01*
X78075165Y-86442457D01*
X78079832Y-86410000D01*
X83894352Y-86410000D01*
X83914833Y-86552456D01*
X83954814Y-86640000D01*
X83974622Y-86683373D01*
X84068871Y-86792143D01*
X84189946Y-86869953D01*
X84189949Y-86869954D01*
X84189948Y-86869954D01*
X84328035Y-86910499D01*
X84328037Y-86910500D01*
X84328038Y-86910500D01*
X84471961Y-86910500D01*
X84471961Y-86910499D01*
X84610052Y-86869953D01*
X84731127Y-86792143D01*
X84825376Y-86683373D01*
X84885164Y-86552457D01*
X84905646Y-86410000D01*
X84885164Y-86267543D01*
X84825376Y-86136627D01*
X84731127Y-86027857D01*
X84610052Y-85950047D01*
X84610050Y-85950046D01*
X84610048Y-85950045D01*
X84610049Y-85950045D01*
X84471962Y-85909500D01*
X84471960Y-85909500D01*
X84328038Y-85909500D01*
X84328035Y-85909500D01*
X84189948Y-85950045D01*
X84068872Y-86027856D01*
X83974622Y-86136626D01*
X83974621Y-86136628D01*
X83914833Y-86267543D01*
X83894352Y-86410000D01*
X78079832Y-86410000D01*
X78095647Y-86300000D01*
X78075165Y-86157543D01*
X78015377Y-86026627D01*
X77921128Y-85917857D01*
X77800053Y-85840047D01*
X77800051Y-85840046D01*
X77800049Y-85840045D01*
X77800050Y-85840045D01*
X77661963Y-85799500D01*
X77661961Y-85799500D01*
X77518039Y-85799500D01*
X77518036Y-85799500D01*
X77379949Y-85840045D01*
X77258873Y-85917856D01*
X77164623Y-86026626D01*
X77164622Y-86026628D01*
X77104834Y-86157543D01*
X77084353Y-86300000D01*
X68897645Y-86300000D01*
X68861128Y-86257857D01*
X68740053Y-86180047D01*
X68740052Y-86180046D01*
X68740051Y-86180046D01*
X68737309Y-86179241D01*
X68734902Y-86177694D01*
X68731983Y-86176361D01*
X68732174Y-86175941D01*
X68678531Y-86141466D01*
X68649507Y-86077910D01*
X68649507Y-86042617D01*
X68651629Y-86027857D01*
X68665594Y-85930730D01*
X68645112Y-85788273D01*
X68585324Y-85657357D01*
X68491075Y-85548587D01*
X68370000Y-85470777D01*
X68369998Y-85470776D01*
X68369996Y-85470775D01*
X68369997Y-85470775D01*
X68367358Y-85470000D01*
X71384353Y-85470000D01*
X71404834Y-85612456D01*
X71464622Y-85743371D01*
X71464623Y-85743373D01*
X71558872Y-85852143D01*
X71679947Y-85929953D01*
X71679950Y-85929954D01*
X71679949Y-85929954D01*
X71818036Y-85970499D01*
X71818038Y-85970500D01*
X71818039Y-85970500D01*
X71961962Y-85970500D01*
X71961962Y-85970499D01*
X72097407Y-85930730D01*
X72100050Y-85929954D01*
X72100050Y-85929953D01*
X72100053Y-85929953D01*
X72221128Y-85852143D01*
X72315377Y-85743373D01*
X72375165Y-85612457D01*
X72395647Y-85470000D01*
X72395647Y-85469998D01*
X104154318Y-85469998D01*
X104154318Y-85470001D01*
X104174955Y-85626760D01*
X104174956Y-85626762D01*
X104235464Y-85772841D01*
X104331718Y-85898282D01*
X104457159Y-85994536D01*
X104603238Y-86055044D01*
X104681619Y-86065363D01*
X104759999Y-86075682D01*
X104760000Y-86075682D01*
X104760001Y-86075682D01*
X104812254Y-86068802D01*
X104916762Y-86055044D01*
X105062841Y-85994536D01*
X105188282Y-85898282D01*
X105284536Y-85772841D01*
X105345044Y-85626762D01*
X105365682Y-85470000D01*
X105365682Y-85469998D01*
X112044318Y-85469998D01*
X112044318Y-85470001D01*
X112064955Y-85626760D01*
X112064956Y-85626762D01*
X112125464Y-85772841D01*
X112221718Y-85898282D01*
X112347159Y-85994536D01*
X112493238Y-86055044D01*
X112571619Y-86065363D01*
X112649999Y-86075682D01*
X112650000Y-86075682D01*
X112650001Y-86075682D01*
X112702254Y-86068802D01*
X112806762Y-86055044D01*
X112952841Y-85994536D01*
X113078282Y-85898282D01*
X113174536Y-85772841D01*
X113235044Y-85626762D01*
X113255682Y-85470000D01*
X113235044Y-85313238D01*
X113174536Y-85167159D01*
X113078282Y-85041718D01*
X112952841Y-84945464D01*
X112806762Y-84884956D01*
X112806760Y-84884955D01*
X112650001Y-84864318D01*
X112649999Y-84864318D01*
X112493239Y-84884955D01*
X112493237Y-84884956D01*
X112347160Y-84945463D01*
X112221718Y-85041718D01*
X112125463Y-85167160D01*
X112064956Y-85313237D01*
X112064955Y-85313239D01*
X112044318Y-85469998D01*
X105365682Y-85469998D01*
X105345044Y-85313238D01*
X105284536Y-85167159D01*
X105188282Y-85041718D01*
X105062841Y-84945464D01*
X104916762Y-84884956D01*
X104916760Y-84884955D01*
X104760001Y-84864318D01*
X104759999Y-84864318D01*
X104603239Y-84884955D01*
X104603237Y-84884956D01*
X104457160Y-84945463D01*
X104331718Y-85041718D01*
X104235463Y-85167160D01*
X104174956Y-85313237D01*
X104174955Y-85313239D01*
X104154318Y-85469998D01*
X72395647Y-85469998D01*
X72375165Y-85327543D01*
X72315377Y-85196627D01*
X72221128Y-85087857D01*
X72100053Y-85010047D01*
X72100051Y-85010046D01*
X72100049Y-85010045D01*
X72100050Y-85010045D01*
X71961963Y-84969500D01*
X71961961Y-84969500D01*
X71818039Y-84969500D01*
X71818036Y-84969500D01*
X71679949Y-85010045D01*
X71558873Y-85087856D01*
X71464623Y-85196626D01*
X71464622Y-85196628D01*
X71404834Y-85327543D01*
X71384353Y-85470000D01*
X68367358Y-85470000D01*
X68231910Y-85430230D01*
X68231908Y-85430230D01*
X68087986Y-85430230D01*
X68087983Y-85430230D01*
X67949896Y-85470775D01*
X67828820Y-85548586D01*
X67734570Y-85657356D01*
X67734569Y-85657358D01*
X67674781Y-85788273D01*
X67654300Y-85930730D01*
X62800500Y-85930730D01*
X62800500Y-82485000D01*
X63554647Y-82485000D01*
X64340382Y-82485000D01*
X64289936Y-82535446D01*
X64247149Y-82609555D01*
X64225000Y-82692213D01*
X64225000Y-82777787D01*
X64247149Y-82860445D01*
X64289936Y-82934554D01*
X64340382Y-82985000D01*
X63554647Y-82985000D01*
X63564387Y-83033974D01*
X63564390Y-83033983D01*
X63641652Y-83220513D01*
X63641659Y-83220526D01*
X63753829Y-83388399D01*
X63753832Y-83388403D01*
X63896596Y-83531167D01*
X63896600Y-83531170D01*
X64064473Y-83643340D01*
X64064486Y-83643347D01*
X64251016Y-83720609D01*
X64251025Y-83720612D01*
X64449041Y-83759999D01*
X64449045Y-83760000D01*
X64700000Y-83760000D01*
X64700000Y-83060000D01*
X65200000Y-83060000D01*
X65200000Y-83760000D01*
X65450955Y-83760000D01*
X65450958Y-83759999D01*
X65648974Y-83720612D01*
X65648983Y-83720609D01*
X65835513Y-83643347D01*
X65835526Y-83643340D01*
X66003399Y-83531170D01*
X66003403Y-83531167D01*
X66146167Y-83388403D01*
X66146170Y-83388399D01*
X66258340Y-83220526D01*
X66258347Y-83220513D01*
X66335609Y-83033983D01*
X66335612Y-83033974D01*
X66345353Y-82985000D01*
X65559618Y-82985000D01*
X65610064Y-82934554D01*
X65652851Y-82860445D01*
X65675000Y-82777787D01*
X65675000Y-82692213D01*
X65652851Y-82609555D01*
X65610064Y-82535446D01*
X65559618Y-82485000D01*
X66345353Y-82485000D01*
X67554647Y-82485000D01*
X68340382Y-82485000D01*
X68289936Y-82535446D01*
X68247149Y-82609555D01*
X68225000Y-82692213D01*
X68225000Y-82777787D01*
X68247149Y-82860445D01*
X68289936Y-82934554D01*
X68340382Y-82985000D01*
X67554647Y-82985000D01*
X67564387Y-83033974D01*
X67564390Y-83033983D01*
X67641652Y-83220513D01*
X67641659Y-83220526D01*
X67753829Y-83388399D01*
X67753832Y-83388403D01*
X67896596Y-83531167D01*
X67896600Y-83531170D01*
X68064473Y-83643340D01*
X68064485Y-83643347D01*
X68142677Y-83675734D01*
X68197081Y-83719574D01*
X68219146Y-83785868D01*
X68202612Y-83852295D01*
X68133609Y-83971810D01*
X68133609Y-83971811D01*
X68099500Y-84099108D01*
X68099500Y-84230891D01*
X68133608Y-84358187D01*
X68166554Y-84415250D01*
X68199500Y-84472314D01*
X68292686Y-84565500D01*
X68406814Y-84631392D01*
X68534108Y-84665500D01*
X68534110Y-84665500D01*
X68665890Y-84665500D01*
X68665892Y-84665500D01*
X68793186Y-84631392D01*
X68907314Y-84565500D01*
X69000500Y-84472314D01*
X69066392Y-84358186D01*
X69100500Y-84230892D01*
X69100500Y-84099108D01*
X69066392Y-83971814D01*
X69000500Y-83857686D01*
X68907314Y-83764500D01*
X68907313Y-83764499D01*
X68907310Y-83764496D01*
X68900869Y-83759554D01*
X68902577Y-83757327D01*
X68863775Y-83716621D01*
X68850000Y-83659818D01*
X68850000Y-83060000D01*
X69350000Y-83060000D01*
X69350000Y-83760000D01*
X69750955Y-83760000D01*
X69750958Y-83759999D01*
X69948974Y-83720612D01*
X69948983Y-83720609D01*
X70135513Y-83643347D01*
X70135526Y-83643340D01*
X70303399Y-83531170D01*
X70303403Y-83531167D01*
X70446167Y-83388403D01*
X70446170Y-83388399D01*
X70558340Y-83220526D01*
X70558347Y-83220513D01*
X70635609Y-83033983D01*
X70635612Y-83033974D01*
X70645353Y-82985000D01*
X69859618Y-82985000D01*
X69910064Y-82934554D01*
X69952851Y-82860445D01*
X69975000Y-82777787D01*
X69975000Y-82692213D01*
X69952851Y-82609555D01*
X69947334Y-82600000D01*
X98874353Y-82600000D01*
X98894834Y-82742456D01*
X98948719Y-82860445D01*
X98954623Y-82873373D01*
X99048872Y-82982143D01*
X99169947Y-83059953D01*
X99169950Y-83059954D01*
X99169949Y-83059954D01*
X99308036Y-83100499D01*
X99308038Y-83100500D01*
X99308039Y-83100500D01*
X99451962Y-83100500D01*
X99451962Y-83100499D01*
X99590053Y-83059953D01*
X99711128Y-82982143D01*
X99805377Y-82873373D01*
X99865165Y-82742457D01*
X99885647Y-82600000D01*
X99865165Y-82457543D01*
X99805377Y-82326627D01*
X99711128Y-82217857D01*
X99590053Y-82140047D01*
X99590051Y-82140046D01*
X99590049Y-82140045D01*
X99590050Y-82140045D01*
X99451963Y-82099500D01*
X99451961Y-82099500D01*
X99308039Y-82099500D01*
X99308036Y-82099500D01*
X99169949Y-82140045D01*
X99048873Y-82217856D01*
X98954623Y-82326626D01*
X98954622Y-82326628D01*
X98894834Y-82457543D01*
X98874353Y-82600000D01*
X69947334Y-82600000D01*
X69910064Y-82535446D01*
X69859618Y-82485000D01*
X70645353Y-82485000D01*
X70635612Y-82436025D01*
X70635609Y-82436016D01*
X70558347Y-82249486D01*
X70558340Y-82249473D01*
X70446170Y-82081600D01*
X70446167Y-82081596D01*
X70303403Y-81938832D01*
X70303399Y-81938829D01*
X70135526Y-81826659D01*
X70135513Y-81826652D01*
X69948983Y-81749390D01*
X69948974Y-81749387D01*
X69750958Y-81710000D01*
X69350000Y-81710000D01*
X69350000Y-82410000D01*
X68850000Y-82410000D01*
X68850000Y-81710000D01*
X68449041Y-81710000D01*
X68251025Y-81749387D01*
X68251016Y-81749390D01*
X68064486Y-81826652D01*
X68064473Y-81826659D01*
X67896600Y-81938829D01*
X67896596Y-81938832D01*
X67753832Y-82081596D01*
X67753829Y-82081600D01*
X67641659Y-82249473D01*
X67641652Y-82249486D01*
X67564390Y-82436016D01*
X67564387Y-82436025D01*
X67554647Y-82485000D01*
X66345353Y-82485000D01*
X66335612Y-82436025D01*
X66335609Y-82436016D01*
X66258347Y-82249486D01*
X66258340Y-82249473D01*
X66146170Y-82081600D01*
X66146167Y-82081596D01*
X66003403Y-81938832D01*
X66003399Y-81938829D01*
X65835526Y-81826659D01*
X65835513Y-81826652D01*
X65648983Y-81749390D01*
X65648974Y-81749387D01*
X65450958Y-81710000D01*
X65200000Y-81710000D01*
X65200000Y-82410000D01*
X64700000Y-82410000D01*
X64700000Y-81710000D01*
X64449041Y-81710000D01*
X64251025Y-81749387D01*
X64251016Y-81749390D01*
X64064486Y-81826652D01*
X64064473Y-81826659D01*
X63896600Y-81938829D01*
X63896596Y-81938832D01*
X63753832Y-82081596D01*
X63753829Y-82081600D01*
X63641659Y-82249473D01*
X63641652Y-82249486D01*
X63564390Y-82436016D01*
X63564387Y-82436025D01*
X63554647Y-82485000D01*
X62800500Y-82485000D01*
X62800500Y-74574997D01*
X64045153Y-74574997D01*
X64045153Y-74575002D01*
X64064526Y-74932314D01*
X64064527Y-74932331D01*
X64122415Y-75285431D01*
X64122421Y-75285457D01*
X64218147Y-75630232D01*
X64218149Y-75630239D01*
X64350597Y-75962659D01*
X64350606Y-75962677D01*
X64518218Y-76278827D01*
X64719033Y-76575007D01*
X64846441Y-76725003D01*
X64846442Y-76725004D01*
X66055748Y-75515698D01*
X66129588Y-75617330D01*
X66307670Y-75795412D01*
X66409300Y-75869251D01*
X65197255Y-77081295D01*
X65197256Y-77081296D01*
X65210485Y-77093828D01*
X65210486Y-77093829D01*
X65495367Y-77310388D01*
X65495370Y-77310390D01*
X65801990Y-77494876D01*
X66126739Y-77645122D01*
X66126744Y-77645123D01*
X66465855Y-77759383D01*
X66815339Y-77836311D01*
X67171075Y-77874999D01*
X67171085Y-77875000D01*
X67528915Y-77875000D01*
X67528924Y-77874999D01*
X67884660Y-77836311D01*
X68234144Y-77759383D01*
X68573255Y-77645123D01*
X68573260Y-77645122D01*
X68898009Y-77494876D01*
X69204629Y-77310390D01*
X69204632Y-77310388D01*
X69489504Y-77093836D01*
X69502742Y-77081294D01*
X68290698Y-75869251D01*
X68392330Y-75795412D01*
X68570412Y-75617330D01*
X68644251Y-75515698D01*
X69853556Y-76725003D01*
X69980964Y-76575008D01*
X69980975Y-76574994D01*
X70025042Y-76510000D01*
X73924353Y-76510000D01*
X73944834Y-76652456D01*
X73977966Y-76725003D01*
X74004623Y-76783373D01*
X74098872Y-76892143D01*
X74219947Y-76969953D01*
X74219950Y-76969954D01*
X74219949Y-76969954D01*
X74358036Y-77010499D01*
X74358038Y-77010500D01*
X74358039Y-77010500D01*
X74501962Y-77010500D01*
X74501962Y-77010499D01*
X74640053Y-76969953D01*
X74761128Y-76892143D01*
X74855377Y-76783373D01*
X74915165Y-76652457D01*
X74935647Y-76510000D01*
X74915165Y-76367543D01*
X74855377Y-76236627D01*
X74761128Y-76127857D01*
X74640053Y-76050047D01*
X74640051Y-76050046D01*
X74640049Y-76050045D01*
X74640050Y-76050045D01*
X74501963Y-76009500D01*
X74501961Y-76009500D01*
X74358039Y-76009500D01*
X74358036Y-76009500D01*
X74219949Y-76050045D01*
X74098873Y-76127856D01*
X74004623Y-76236626D01*
X74004622Y-76236628D01*
X73944834Y-76367543D01*
X73924353Y-76510000D01*
X70025042Y-76510000D01*
X70181781Y-76278827D01*
X70349393Y-75962677D01*
X70349402Y-75962659D01*
X70481850Y-75630239D01*
X70481852Y-75630232D01*
X70577578Y-75285457D01*
X70577584Y-75285431D01*
X70635472Y-74932331D01*
X70635473Y-74932314D01*
X70654847Y-74575002D01*
X70654847Y-74574997D01*
X112695153Y-74574997D01*
X112695153Y-74575002D01*
X112714526Y-74932314D01*
X112714527Y-74932331D01*
X112772415Y-75285431D01*
X112772421Y-75285457D01*
X112868147Y-75630232D01*
X112868149Y-75630239D01*
X113000597Y-75962659D01*
X113000606Y-75962677D01*
X113168218Y-76278827D01*
X113369033Y-76575007D01*
X113496441Y-76725003D01*
X113496442Y-76725004D01*
X114705748Y-75515698D01*
X114779588Y-75617330D01*
X114957670Y-75795412D01*
X115059300Y-75869251D01*
X113847255Y-77081295D01*
X113847256Y-77081296D01*
X113860485Y-77093828D01*
X113860486Y-77093829D01*
X114145367Y-77310388D01*
X114145370Y-77310390D01*
X114451990Y-77494876D01*
X114776739Y-77645122D01*
X114776744Y-77645123D01*
X115115855Y-77759383D01*
X115465339Y-77836311D01*
X115821075Y-77874999D01*
X115821085Y-77875000D01*
X116178915Y-77875000D01*
X116178924Y-77874999D01*
X116534660Y-77836311D01*
X116884144Y-77759383D01*
X117223255Y-77645123D01*
X117223260Y-77645122D01*
X117548009Y-77494876D01*
X117854629Y-77310390D01*
X117854632Y-77310388D01*
X118139504Y-77093836D01*
X118152742Y-77081294D01*
X116940698Y-75869251D01*
X117042330Y-75795412D01*
X117220412Y-75617330D01*
X117294251Y-75515698D01*
X118503556Y-76725003D01*
X118630964Y-76575008D01*
X118630975Y-76574994D01*
X118831781Y-76278827D01*
X118999393Y-75962677D01*
X118999402Y-75962659D01*
X119131850Y-75630239D01*
X119131852Y-75630232D01*
X119227578Y-75285457D01*
X119227584Y-75285431D01*
X119285472Y-74932331D01*
X119285473Y-74932314D01*
X119304847Y-74575002D01*
X119304847Y-74574997D01*
X119285473Y-74217685D01*
X119285472Y-74217668D01*
X119227584Y-73864568D01*
X119227578Y-73864542D01*
X119131852Y-73519767D01*
X119131850Y-73519760D01*
X118999402Y-73187340D01*
X118999393Y-73187322D01*
X118831781Y-72871172D01*
X118630966Y-72574992D01*
X118503557Y-72424995D01*
X118503556Y-72424994D01*
X117294250Y-73634300D01*
X117220412Y-73532670D01*
X117042330Y-73354588D01*
X116940697Y-73280747D01*
X118152743Y-72068703D01*
X118152742Y-72068702D01*
X118139514Y-72056171D01*
X118139513Y-72056170D01*
X117854632Y-71839611D01*
X117854629Y-71839609D01*
X117548009Y-71655123D01*
X117223260Y-71504877D01*
X117223255Y-71504876D01*
X116884144Y-71390616D01*
X116534660Y-71313688D01*
X116178924Y-71275000D01*
X115821075Y-71275000D01*
X115465339Y-71313688D01*
X115115855Y-71390616D01*
X114776744Y-71504876D01*
X114776739Y-71504877D01*
X114451990Y-71655123D01*
X114145370Y-71839609D01*
X114145367Y-71839611D01*
X113860491Y-72056166D01*
X113847256Y-72068703D01*
X113847255Y-72068703D01*
X115059301Y-73280748D01*
X114957670Y-73354588D01*
X114779588Y-73532670D01*
X114705748Y-73634301D01*
X113496442Y-72424994D01*
X113496441Y-72424995D01*
X113369040Y-72574983D01*
X113369033Y-72574993D01*
X113168218Y-72871172D01*
X113000606Y-73187322D01*
X113000597Y-73187340D01*
X112868149Y-73519760D01*
X112868147Y-73519767D01*
X112772421Y-73864542D01*
X112772415Y-73864568D01*
X112714527Y-74217668D01*
X112714526Y-74217685D01*
X112695153Y-74574997D01*
X70654847Y-74574997D01*
X70635473Y-74217685D01*
X70635472Y-74217668D01*
X70577584Y-73864568D01*
X70577578Y-73864542D01*
X70534670Y-73710000D01*
X83914353Y-73710000D01*
X83934834Y-73852456D01*
X83984320Y-73960813D01*
X83994623Y-73983373D01*
X84088872Y-74092143D01*
X84209947Y-74169953D01*
X84209950Y-74169954D01*
X84209949Y-74169954D01*
X84348036Y-74210499D01*
X84348038Y-74210500D01*
X84348039Y-74210500D01*
X84491962Y-74210500D01*
X84491962Y-74210499D01*
X84630053Y-74169953D01*
X84751128Y-74092143D01*
X84845377Y-73983373D01*
X84905165Y-73852457D01*
X84925647Y-73710000D01*
X84905165Y-73567543D01*
X84845377Y-73436627D01*
X84751128Y-73327857D01*
X84630053Y-73250047D01*
X84630051Y-73250046D01*
X84630049Y-73250045D01*
X84630050Y-73250045D01*
X84491963Y-73209500D01*
X84491961Y-73209500D01*
X84348039Y-73209500D01*
X84348036Y-73209500D01*
X84209949Y-73250045D01*
X84088873Y-73327856D01*
X83994623Y-73436626D01*
X83994622Y-73436628D01*
X83934834Y-73567543D01*
X83914353Y-73710000D01*
X70534670Y-73710000D01*
X70481852Y-73519767D01*
X70481850Y-73519760D01*
X70349402Y-73187340D01*
X70349393Y-73187322D01*
X70181781Y-72871172D01*
X69980966Y-72574992D01*
X69853557Y-72424995D01*
X69853556Y-72424994D01*
X68644250Y-73634300D01*
X68570412Y-73532670D01*
X68392330Y-73354588D01*
X68290697Y-73280747D01*
X69502743Y-72068703D01*
X69502742Y-72068702D01*
X69489514Y-72056171D01*
X69489513Y-72056170D01*
X69204632Y-71839611D01*
X69204629Y-71839609D01*
X68898009Y-71655123D01*
X68573260Y-71504877D01*
X68573255Y-71504876D01*
X68234144Y-71390616D01*
X67884660Y-71313688D01*
X67528924Y-71275000D01*
X67171075Y-71275000D01*
X66815339Y-71313688D01*
X66465855Y-71390616D01*
X66126744Y-71504876D01*
X66126739Y-71504877D01*
X65801990Y-71655123D01*
X65495370Y-71839609D01*
X65495367Y-71839611D01*
X65210491Y-72056166D01*
X65197256Y-72068703D01*
X65197255Y-72068703D01*
X66409301Y-73280748D01*
X66307670Y-73354588D01*
X66129588Y-73532670D01*
X66055748Y-73634301D01*
X64846442Y-72424994D01*
X64846441Y-72424995D01*
X64719040Y-72574983D01*
X64719033Y-72574993D01*
X64518218Y-72871172D01*
X64350606Y-73187322D01*
X64350597Y-73187340D01*
X64218149Y-73519760D01*
X64218147Y-73519767D01*
X64122421Y-73864542D01*
X64122415Y-73864568D01*
X64064527Y-74217668D01*
X64064526Y-74217685D01*
X64045153Y-74574997D01*
X62800500Y-74574997D01*
X62800500Y-73698052D01*
X62800649Y-73691968D01*
X62817534Y-73348268D01*
X62818727Y-73336158D01*
X62868771Y-72998783D01*
X62871138Y-72986881D01*
X62954019Y-72656002D01*
X62957539Y-72644400D01*
X63072443Y-72323267D01*
X63077098Y-72312030D01*
X63192182Y-72068703D01*
X63222927Y-72003696D01*
X63228646Y-71992996D01*
X63403998Y-71700441D01*
X63410741Y-71690348D01*
X63613931Y-71416378D01*
X63621634Y-71406993D01*
X63850694Y-71154264D01*
X63859264Y-71145694D01*
X64111993Y-70916634D01*
X64121378Y-70908931D01*
X64395348Y-70705741D01*
X64405441Y-70698998D01*
X64697996Y-70523646D01*
X64708696Y-70517927D01*
X64943861Y-70406703D01*
X65017030Y-70372098D01*
X65028267Y-70367443D01*
X65349400Y-70252539D01*
X65361002Y-70249019D01*
X65691881Y-70166138D01*
X65703783Y-70163771D01*
X66041164Y-70113726D01*
X66053262Y-70112534D01*
X66346097Y-70098148D01*
X66396968Y-70095649D01*
X66403052Y-70095500D01*
X66457583Y-70095500D01*
X117042417Y-70095500D01*
X117096948Y-70095500D01*
X117103032Y-70095649D01*
G37*
%TD.AperFunction*%
%TD*%
D20*
X93400000Y-141145000D03*
X90400000Y-140520000D03*
X87400000Y-139895000D03*
X84400000Y-139275000D03*
X96400000Y-138025000D03*
X109105000Y-133041652D03*
X82900000Y-138650000D03*
X85900000Y-139275000D03*
X88900000Y-139895000D03*
X91900000Y-140520000D03*
X94900000Y-141145000D03*
X97900000Y-141770000D03*
D21*
X103260000Y-93658000D03*
X112650000Y-85470000D03*
X104760000Y-85470000D03*
X72000000Y-109100000D03*
X76525000Y-73175000D03*
X72537500Y-92475000D03*
X84650000Y-71170000D03*
X63775000Y-102006992D03*
X79330000Y-116660000D03*
X63775000Y-93375000D03*
X99125000Y-71170000D03*
X78750000Y-104250000D03*
X85662500Y-71170000D03*
X86180000Y-123200000D03*
X81825000Y-96125000D03*
X104075000Y-71170000D03*
X76980000Y-98310000D03*
X68150000Y-107075000D03*
X71525000Y-81900000D03*
X75275000Y-103425000D03*
X93500000Y-113750000D03*
X97225000Y-71170000D03*
X108325000Y-88790000D03*
X110428570Y-106260000D03*
X63775000Y-105243989D03*
X63775000Y-108480986D03*
X67335000Y-123400000D03*
X93500000Y-106260000D03*
X63775000Y-104164990D03*
X63775000Y-96611997D03*
X113814284Y-106260000D03*
X117200000Y-113750000D03*
X96885714Y-106260000D03*
X72550000Y-120491666D03*
X63775000Y-94453999D03*
X107042856Y-113750000D03*
X107042856Y-106260000D03*
X63825000Y-114550000D03*
X63775000Y-109559999D03*
X72550000Y-123075000D03*
X96885714Y-113750000D03*
X117200000Y-106260000D03*
X73102500Y-99627500D03*
X103137500Y-71170000D03*
X71725000Y-105350000D03*
X71000000Y-109100000D03*
X74000000Y-119910000D03*
X103657142Y-106260000D03*
X68150000Y-106075000D03*
X110275000Y-88790000D03*
X103650000Y-113750000D03*
X76000000Y-119910000D03*
X115050000Y-84570000D03*
X69700000Y-96975000D03*
X63775000Y-106322988D03*
X63775000Y-107401987D03*
X63775000Y-103085991D03*
X113814284Y-113750000D03*
X110375000Y-84570000D03*
X80625000Y-71170000D03*
X77425000Y-78550000D03*
X63775000Y-99848994D03*
X100271428Y-106260000D03*
X80130000Y-124350000D03*
X100271428Y-113750000D03*
X74475000Y-103425000D03*
X69300000Y-101875000D03*
X76350000Y-89110000D03*
X63775000Y-98769995D03*
X68600000Y-100050000D03*
X118175000Y-88790000D03*
X73550000Y-92475000D03*
X70000000Y-109100000D03*
X65550000Y-117700000D03*
X98175000Y-71170000D03*
X107140000Y-84570000D03*
X69300000Y-102675000D03*
X63775000Y-97690996D03*
X81625000Y-71170000D03*
X118295000Y-84570000D03*
X110428570Y-113750000D03*
X83860000Y-119230000D03*
X76525000Y-75405000D03*
X77425000Y-82350000D03*
X72550000Y-119200000D03*
X79625000Y-71170000D03*
X63775000Y-95532998D03*
X79325000Y-111100000D03*
X88030000Y-124750000D03*
X75000000Y-119910000D03*
X72550000Y-121783332D03*
X116540000Y-88790000D03*
X76350000Y-85020000D03*
X86675000Y-71170000D03*
X102200000Y-71170000D03*
X73000000Y-109475000D03*
X63775000Y-100927993D03*
X71525000Y-92475000D03*
X71350000Y-96975000D03*
X80725000Y-97240000D03*
X81315000Y-121960000D03*
D20*
X84420000Y-73710000D03*
X74430000Y-76510000D03*
X93460000Y-102700000D03*
X113625000Y-94630000D03*
X114275000Y-95240000D03*
X96860000Y-102710000D03*
X82590000Y-121960000D03*
X88240000Y-120985000D03*
X74580000Y-96490000D03*
X99380000Y-82600000D03*
X77590000Y-87800000D03*
X84399999Y-87684241D03*
X77590000Y-86300000D03*
X84399999Y-86410000D03*
X100220000Y-102710000D03*
X114925000Y-94630000D03*
X103620000Y-102700000D03*
X115575000Y-95240000D03*
X116225000Y-94630000D03*
X107010000Y-102700000D03*
X116875000Y-95240000D03*
X110400000Y-102690000D03*
X117525000Y-94630000D03*
X113800000Y-102690000D03*
X68530000Y-86640000D03*
X71945425Y-88852726D03*
X68159947Y-85930730D03*
X71890000Y-85470000D03*
X118175000Y-95240000D03*
X117170000Y-102710000D03*
X91265000Y-90180000D03*
X104140000Y-92720000D03*
X114925000Y-89470000D03*
X92535000Y-90180000D03*
X107025000Y-89470000D03*
X102390000Y-91320000D03*
X83525000Y-103500000D03*
X65685000Y-121520000D03*
X82870000Y-104150000D03*
X79500000Y-108350000D03*
D21*
X116000000Y-74575000D03*
X108150000Y-142670000D03*
X75650000Y-142670000D03*
X100900000Y-136170000D03*
X97900000Y-136170000D03*
X94900000Y-136170000D03*
X91900000Y-136170000D03*
X88900000Y-136170000D03*
X85900000Y-136170000D03*
X82900000Y-136170000D03*
X99400000Y-133670000D03*
X96400000Y-133670000D03*
X93400000Y-133670000D03*
X90400000Y-133670000D03*
X87400000Y-133670000D03*
X84400000Y-133670000D03*
X99400000Y-130670000D03*
X96400000Y-130670000D03*
X93400000Y-130670000D03*
X90400000Y-130670000D03*
X87400000Y-130670000D03*
X84400000Y-130670000D03*
X100900000Y-128170000D03*
X97900000Y-128170000D03*
X94900000Y-128170000D03*
X91900000Y-128170000D03*
X88900000Y-128170000D03*
X85900000Y-128170000D03*
X82900000Y-128170000D03*
D22*
X69100000Y-91375000D03*
X69100000Y-82735000D03*
D23*
X64950000Y-91375000D03*
X64950000Y-82735000D03*
D21*
X68600000Y-89945000D03*
X68600000Y-84165000D03*
D24*
X89000000Y-78190000D03*
X89000000Y-79590000D03*
X89700000Y-77490000D03*
X89700000Y-78890000D03*
X89700000Y-80290000D03*
X90400000Y-78190000D03*
X90400000Y-79590000D03*
X91100000Y-77490000D03*
X91100000Y-78890000D03*
X91100000Y-80290000D03*
X91800000Y-78190000D03*
X91800000Y-79590000D03*
D21*
X67350000Y-74575000D03*
X117200000Y-111475000D03*
X117200000Y-121635000D03*
X96885714Y-108525000D03*
X96885714Y-98365000D03*
X103641000Y-108525000D03*
X103641000Y-98365000D03*
X110428570Y-108525000D03*
X110428570Y-98365000D03*
X93500000Y-108525000D03*
X93500000Y-98365000D03*
X113814284Y-98365000D03*
X113814284Y-108525000D03*
X107042856Y-111475000D03*
X107042856Y-121635000D03*
X103657142Y-111475000D03*
X103657142Y-121635000D03*
X100271428Y-108525000D03*
X100271428Y-98365000D03*
X113814284Y-111475000D03*
X113814284Y-121635000D03*
X96885714Y-111475000D03*
X96885714Y-121635000D03*
X107042856Y-108525000D03*
X107042856Y-98365000D03*
X117200000Y-98365000D03*
X117200000Y-108525000D03*
X100271428Y-111475000D03*
X100271428Y-121635000D03*
X93500000Y-111475000D03*
X93500000Y-121635000D03*
X110428570Y-111475000D03*
X110428570Y-121635000D03*
M02*
