M48
; DRILL file {KiCad 8.0.8} date 2026-03-18T22:42:44+0000
; FORMAT={-:-/ absolute / metric / decimal}
; #@! TF.CreationDate,2026-03-18T22:42:44+00:00
; #@! TF.GenerationSoftware,Kicad,Pcbnew,8.0.8
; #@! TF.FileFunction,Plated,1,4,PTH
FMAT,2
METRIC
; #@! TA.AperFunction,Plated,PTH,ComponentDrill
T1C0.200
; #@! TA.AperFunction,Plated,PTH,ViaDrill
T2C0.300
; #@! TA.AperFunction,Plated,PTH,ViaDrill
T3C0.400
; #@! TA.AperFunction,Plated,PTH,ComponentDrill
T4C0.650
; #@! TA.AperFunction,Plated,PTH,ComponentDrill
T5C0.800
; #@! TA.AperFunction,Plated,PTH,ComponentDrill
T6C1.500
; #@! TA.AperFunction,Plated,PTH,ComponentDrill
T7C3.200
; #@! TA.AperFunction,Plated,PTH,ComponentDrill
T8C3.400
%
G90
G05
T1
X89.0Y-78.19
X89.0Y-79.59
X89.7Y-77.49
X89.7Y-78.89
X89.7Y-80.29
X90.4Y-78.19
X90.4Y-79.59
X91.1Y-77.49
X91.1Y-78.89
X91.1Y-80.29
X91.8Y-78.19
X91.8Y-79.59
T2
X65.685Y-121.52
X68.16Y-85.931
X68.53Y-86.64
X71.89Y-85.47
X71.945Y-88.853
X74.43Y-76.51
X74.58Y-96.49
X77.59Y-86.3
X77.59Y-87.8
X79.5Y-108.35
X82.59Y-121.96
X82.87Y-104.15
X82.9Y-138.65
X83.525Y-103.5
X84.4Y-86.41
X84.4Y-87.684
X84.4Y-139.275
X84.42Y-73.71
X85.9Y-139.275
X87.4Y-139.895
X88.24Y-120.985
X88.9Y-139.895
X90.4Y-140.52
X91.265Y-90.18
X91.9Y-140.52
X92.535Y-90.18
X93.4Y-141.145
X93.46Y-102.7
X94.9Y-141.145
X96.4Y-138.025
X96.86Y-102.71
X97.9Y-141.77
X99.38Y-82.6
X100.22Y-102.71
X102.39Y-91.32
X103.62Y-102.7
X104.14Y-92.72
X107.01Y-102.7
X107.025Y-89.47
X109.105Y-133.042
X110.4Y-102.69
X113.625Y-94.63
X113.8Y-102.69
X114.275Y-95.24
X114.925Y-89.47
X114.925Y-94.63
X115.575Y-95.24
X116.225Y-94.63
X116.875Y-95.24
X117.17Y-102.71
X117.525Y-94.63
X118.175Y-95.24
T3
X63.775Y-93.375
X63.775Y-94.454
X63.775Y-95.533
X63.775Y-96.612
X63.775Y-97.691
X63.775Y-98.77
X63.775Y-99.849
X63.775Y-100.928
X63.775Y-102.007
X63.775Y-103.086
X63.775Y-104.165
X63.775Y-105.244
X63.775Y-106.323
X63.775Y-107.402
X63.775Y-108.481
X63.775Y-109.56
X63.825Y-114.55
X65.55Y-117.7
X67.335Y-123.4
X68.15Y-106.075
X68.15Y-107.075
X68.6Y-100.05
X69.3Y-101.875
X69.3Y-102.675
X69.7Y-96.975
X70.0Y-109.1
X71.0Y-109.1
X71.35Y-96.975
X71.525Y-81.9
X71.525Y-92.475
X71.725Y-105.35
X72.0Y-109.1
X72.537Y-92.475
X72.55Y-119.2
X72.55Y-120.492
X72.55Y-121.783
X72.55Y-123.075
X73.0Y-109.475
X73.102Y-99.627
X73.55Y-92.475
X74.0Y-119.91
X74.475Y-103.425
X75.0Y-119.91
X75.275Y-103.425
X76.0Y-119.91
X76.35Y-85.02
X76.35Y-89.11
X76.525Y-73.175
X76.525Y-75.405
X76.98Y-98.31
X77.425Y-78.55
X77.425Y-82.35
X78.75Y-104.25
X79.325Y-111.1
X79.33Y-116.66
X79.625Y-71.17
X80.13Y-124.35
X80.625Y-71.17
X80.725Y-97.24
X81.315Y-121.96
X81.625Y-71.17
X81.825Y-96.125
X83.86Y-119.23
X84.65Y-71.17
X85.662Y-71.17
X86.18Y-123.2
X86.675Y-71.17
X88.03Y-124.75
X93.5Y-106.26
X93.5Y-113.75
X96.886Y-106.26
X96.886Y-113.75
X97.225Y-71.17
X98.175Y-71.17
X99.125Y-71.17
X100.271Y-106.26
X100.271Y-113.75
X102.2Y-71.17
X103.137Y-71.17
X103.26Y-93.658
X103.65Y-113.75
X103.657Y-106.26
X104.075Y-71.17
X104.76Y-85.47
X107.043Y-106.26
X107.043Y-113.75
X107.14Y-84.57
X108.325Y-88.79
X110.275Y-88.79
X110.375Y-84.57
X110.429Y-106.26
X110.429Y-113.75
X112.65Y-85.47
X113.814Y-106.26
X113.814Y-113.75
X115.05Y-84.57
X116.54Y-88.79
X117.2Y-106.26
X117.2Y-113.75
X118.175Y-88.79
X118.295Y-84.57
T5
X93.5Y-98.365
X93.5Y-108.525
X93.5Y-111.475
X93.5Y-121.635
X96.886Y-98.365
X96.886Y-108.525
X96.886Y-111.475
X96.886Y-121.635
X100.271Y-98.365
X100.271Y-108.525
X100.271Y-111.475
X100.271Y-121.635
X103.641Y-98.365
X103.641Y-108.525
X103.657Y-111.475
X103.657Y-121.635
X107.043Y-98.365
X107.043Y-108.525
X107.043Y-111.475
X107.043Y-121.635
X110.429Y-98.365
X110.429Y-108.525
X110.429Y-111.475
X110.429Y-121.635
X113.814Y-98.365
X113.814Y-108.525
X113.814Y-111.475
X113.814Y-121.635
X117.2Y-98.365
X117.2Y-108.525
X117.2Y-111.475
X117.2Y-121.635
T6
X82.9Y-128.17
X82.9Y-136.17
X84.4Y-130.67
X84.4Y-133.67
X85.9Y-128.17
X85.9Y-136.17
X87.4Y-130.67
X87.4Y-133.67
X88.9Y-128.17
X88.9Y-136.17
X90.4Y-130.67
X90.4Y-133.67
X91.9Y-128.17
X91.9Y-136.17
X93.4Y-130.67
X93.4Y-133.67
X94.9Y-128.17
X94.9Y-136.17
X96.4Y-130.67
X96.4Y-133.67
X97.9Y-128.17
X97.9Y-136.17
X99.4Y-130.67
X99.4Y-133.67
X100.9Y-128.17
X100.9Y-136.17
T7
X67.35Y-74.575
X116.0Y-74.575
T8
X75.65Y-142.67
X108.15Y-142.67
T4
G00X65.35Y-82.735
M15
G01X64.55Y-82.735
M16
G05
G00X65.35Y-91.375
M15
G01X64.55Y-91.375
M16
G05
G00X69.65Y-82.735
M15
G01X68.55Y-82.735
M16
G05
G00X69.65Y-91.375
M15
G01X68.55Y-91.375
M16
G05
M30
