%TF.GenerationSoftware,KiCad,Pcbnew,8.0.8*%
%TF.CreationDate,2026-03-18T22:42:44+00:00*%
%TF.ProjectId,esp32-canboard,65737033-322d-4636-916e-626f6172642e,rev?*%
%TF.SameCoordinates,Original*%
%TF.FileFunction,Soldermask,Bot*%
%TF.FilePolarity,Negative*%
%FSLAX46Y46*%
G04 Gerber Fmt 4.6, Leading zero omitted, Abs format (unit mm)*
G04 Created by KiCad (PCBNEW 8.0.8) date 2026-03-18 22:42:44*
%MOMM*%
%LPD*%
G01*
G04 APERTURE LIST*
%ADD10C,5.600000*%
%ADD11C,5.100000*%
%ADD12C,2.250000*%
%ADD13O,2.354000X1.254000*%
%ADD14O,2.054000X1.254000*%
%ADD15C,0.700000*%
%ADD16C,1.600000*%
%ADD17O,1.600000X1.600000*%
G04 APERTURE END LIST*
D10*
%TO.C,MH2*%
X116000000Y-74575000D03*
%TD*%
D11*
%TO.C,CONN1*%
X108150000Y-142670000D03*
X75650000Y-142670000D03*
D12*
X100900000Y-136170000D03*
X97900000Y-136170000D03*
X94900000Y-136170000D03*
X91900000Y-136170000D03*
X88900000Y-136170000D03*
X85900000Y-136170000D03*
X82900000Y-136170000D03*
X99400000Y-133670000D03*
X96400000Y-133670000D03*
X93400000Y-133670000D03*
X90400000Y-133670000D03*
X87400000Y-133670000D03*
X84400000Y-133670000D03*
X99400000Y-130670000D03*
X96400000Y-130670000D03*
X93400000Y-130670000D03*
X90400000Y-130670000D03*
X87400000Y-130670000D03*
X84400000Y-130670000D03*
X100900000Y-128170000D03*
X97900000Y-128170000D03*
X94900000Y-128170000D03*
X91900000Y-128170000D03*
X88900000Y-128170000D03*
X85900000Y-128170000D03*
X82900000Y-128170000D03*
%TD*%
D13*
%TO.C,CONN2*%
X69100000Y-91375000D03*
X69100000Y-82735000D03*
D14*
X64950000Y-91375000D03*
X64950000Y-82735000D03*
D15*
X68600000Y-89945000D03*
X68600000Y-84165000D03*
%TD*%
D10*
%TO.C,MH1*%
X67350000Y-74575000D03*
%TD*%
D16*
%TO.C,R33*%
X117200000Y-111475000D03*
D17*
X117200000Y-121635000D03*
%TD*%
D16*
%TO.C,R34*%
X96885714Y-108525000D03*
D17*
X96885714Y-98365000D03*
%TD*%
D16*
%TO.C,R50*%
X103641000Y-108525000D03*
D17*
X103641000Y-98365000D03*
%TD*%
D16*
%TO.C,R56*%
X110428570Y-108525000D03*
D17*
X110428570Y-98365000D03*
%TD*%
D16*
%TO.C,R27*%
X93500000Y-108525000D03*
D17*
X93500000Y-98365000D03*
%TD*%
%TO.C,R59*%
X113814284Y-98365000D03*
D16*
X113814284Y-108525000D03*
%TD*%
%TO.C,R21*%
X107042856Y-111475000D03*
D17*
X107042856Y-121635000D03*
%TD*%
D16*
%TO.C,R31*%
X103657142Y-111475000D03*
D17*
X103657142Y-121635000D03*
%TD*%
D16*
%TO.C,R47*%
X100271428Y-108525000D03*
D17*
X100271428Y-98365000D03*
%TD*%
D16*
%TO.C,R24*%
X113814284Y-111475000D03*
D17*
X113814284Y-121635000D03*
%TD*%
D16*
%TO.C,R30*%
X96885714Y-111475000D03*
D17*
X96885714Y-121635000D03*
%TD*%
D16*
%TO.C,R53*%
X107042856Y-108525000D03*
D17*
X107042856Y-98365000D03*
%TD*%
%TO.C,R62*%
X117200000Y-98365000D03*
D16*
X117200000Y-108525000D03*
%TD*%
%TO.C,R18*%
X100271428Y-111475000D03*
D17*
X100271428Y-121635000D03*
%TD*%
D16*
%TO.C,R17*%
X93500000Y-111475000D03*
D17*
X93500000Y-121635000D03*
%TD*%
D16*
%TO.C,R32*%
X110428570Y-111475000D03*
D17*
X110428570Y-121635000D03*
%TD*%
M02*
